<?xml version="1.0" encoding="UTF-8" standalone="no"?>
<svg
   xmlns:dc="http://purl.org/dc/elements/1.1/"
   xmlns:cc="http://creativecommons.org/ns#"
   xmlns:rdf="http://www.w3.org/1999/02/22-rdf-syntax-ns#"
   xmlns:svg="http://www.w3.org/2000/svg"
   xmlns="http://www.w3.org/2000/svg"
   xmlns:sodipodi="http://sodipodi.sourceforge.net/DTD/sodipodi-0.dtd"
   xmlns:inkscape="http://www.inkscape.org/namespaces/inkscape"
   width="207.1767mm"
   height="124.00024mm"
   viewBox="0 0 207.1767 124.00024"
   version="1.1"
   id="svg9889"
   inkscape:version="1.0.2-2 (e86c870879, 2021-01-15)"
   sodipodi:docname="logo-vpsd-variations.svg">
  <defs
     id="defs9883">
    <clipPath
       clipPathUnits="userSpaceOnUse"
       id="clipPath867">
      <path
         d="M 0,612 H 612 V 0 H 0 Z"
         id="path865" />
    </clipPath>
    <clipPath
       clipPathUnits="userSpaceOnUse"
       id="clipPath875">
      <path
         d="m 86.952,452.256 h 32 v -32 h -32 z"
         id="path873" />
    </clipPath>
    <clipPath
       clipPathUnits="userSpaceOnUse"
       id="clipPath895">
      <path
         d="M 0,612 H 612 V 0 H 0 Z"
         id="path893" />
    </clipPath>
    <clipPath
       clipPathUnits="userSpaceOnUse"
       id="clipPath903">
      <path
         d="m 118.952,452.256 h 32 v -32 h -32 z"
         id="path901" />
    </clipPath>
    <clipPath
       clipPathUnits="userSpaceOnUse"
       id="clipPath917">
      <path
         d="m 118.952,484.256 h 32 v -32 h -32 z"
         id="path915" />
    </clipPath>
    <clipPath
       clipPathUnits="userSpaceOnUse"
       id="clipPath931">
      <path
         d="m 118.952,516.256 h 32 v -32 h -32 z"
         id="path929" />
    </clipPath>
    <clipPath
       clipPathUnits="userSpaceOnUse"
       id="clipPath945">
      <path
         d="m 118.952,548.256 h 32 v -32 h -32 z"
         id="path943" />
    </clipPath>
    <clipPath
       clipPathUnits="userSpaceOnUse"
       id="clipPath959">
      <path
         d="m 150.952,452.256 h 32 v -32 h -32 z"
         id="path957" />
    </clipPath>
    <clipPath
       clipPathUnits="userSpaceOnUse"
       id="clipPath973">
      <path
         d="m 150.952,484.256 h 32 v -32 h -32 z"
         id="path971" />
    </clipPath>
    <clipPath
       clipPathUnits="userSpaceOnUse"
       id="clipPath987">
      <path
         d="m 150.952,516.256 h 32 v -32 h -32 z"
         id="path985" />
    </clipPath>
    <clipPath
       clipPathUnits="userSpaceOnUse"
       id="clipPath1001">
      <path
         d="m 150.952,548.256 h 32 v -32 h -32 z"
         id="path999" />
    </clipPath>
    <clipPath
       clipPathUnits="userSpaceOnUse"
       id="clipPath1015">
      <path
         d="m 182.952,452.256 h 32 v -32 h -32 z"
         id="path1013" />
    </clipPath>
    <clipPath
       clipPathUnits="userSpaceOnUse"
       id="clipPath1029">
      <path
         d="m 182.952,484.256 h 32 v -32 h -32 z"
         id="path1027" />
    </clipPath>
    <clipPath
       clipPathUnits="userSpaceOnUse"
       id="clipPath1043">
      <path
         d="m 182.952,516.256 h 32 v -32 h -32 z"
         id="path1041" />
    </clipPath>
    <clipPath
       clipPathUnits="userSpaceOnUse"
       id="clipPath1057">
      <path
         d="m 182.952,548.256 h 32 v -32 h -32 z"
         id="path1055" />
    </clipPath>
    <clipPath
       clipPathUnits="userSpaceOnUse"
       id="clipPath1071">
      <path
         d="m 214.952,452.256 h 32 v -32 h -32 z"
         id="path1069" />
    </clipPath>
    <clipPath
       clipPathUnits="userSpaceOnUse"
       id="clipPath1085">
      <path
         d="m 214.952,484.256 h 32 v -32 h -32 z"
         id="path1083" />
    </clipPath>
    <clipPath
       clipPathUnits="userSpaceOnUse"
       id="clipPath1099">
      <path
         d="m 214.952,516.256 h 32 v -32 h -32 z"
         id="path1097" />
    </clipPath>
    <clipPath
       clipPathUnits="userSpaceOnUse"
       id="clipPath1113">
      <path
         d="m 214.952,548.256 h 32 v -32 h -32 z"
         id="path1111" />
    </clipPath>
    <clipPath
       clipPathUnits="userSpaceOnUse"
       id="clipPath1131">
      <path
         d="M 0,612 H 612 V 0 H 0 Z"
         id="path1129" />
    </clipPath>
    <clipPath
       clipPathUnits="userSpaceOnUse"
       id="clipPath1155">
      <path
         d="M 0,612 H 612 V 0 H 0 Z"
         id="path1153" />
    </clipPath>
    <clipPath
       clipPathUnits="userSpaceOnUse"
       id="clipPath1179">
      <path
         d="m 86.952,71.256 h 32 v -32 h -32 z"
         id="path1177" />
    </clipPath>
    <clipPath
       clipPathUnits="userSpaceOnUse"
       id="clipPath1199">
      <path
         d="m 118.952,71.256 h 32 v -32 h -32 z"
         id="path1197" />
    </clipPath>
    <clipPath
       clipPathUnits="userSpaceOnUse"
       id="clipPath1213">
      <path
         d="m 118.952,103.256 h 32 v -32 h -32 z"
         id="path1211" />
    </clipPath>
    <clipPath
       clipPathUnits="userSpaceOnUse"
       id="clipPath1227">
      <path
         d="m 118.952,135.256 h 32 v -32 h -32 z"
         id="path1225" />
    </clipPath>
    <clipPath
       clipPathUnits="userSpaceOnUse"
       id="clipPath1241">
      <path
         d="m 118.952,167.256 h 32 v -32 h -32 z"
         id="path1239" />
    </clipPath>
    <clipPath
       clipPathUnits="userSpaceOnUse"
       id="clipPath1255">
      <path
         d="m 150.952,71.256 h 32 v -32 h -32 z"
         id="path1253" />
    </clipPath>
    <clipPath
       clipPathUnits="userSpaceOnUse"
       id="clipPath1269">
      <path
         d="m 150.952,103.256 h 32 v -32 h -32 z"
         id="path1267" />
    </clipPath>
    <clipPath
       clipPathUnits="userSpaceOnUse"
       id="clipPath1283">
      <path
         d="m 150.952,135.256 h 32 v -32 h -32 z"
         id="path1281" />
    </clipPath>
    <clipPath
       clipPathUnits="userSpaceOnUse"
       id="clipPath1297">
      <path
         d="m 150.952,167.256 h 32 v -32 h -32 z"
         id="path1295" />
    </clipPath>
    <clipPath
       clipPathUnits="userSpaceOnUse"
       id="clipPath1311">
      <path
         d="m 182.952,71.256 h 32 v -32 h -32 z"
         id="path1309" />
    </clipPath>
    <clipPath
       clipPathUnits="userSpaceOnUse"
       id="clipPath1325">
      <path
         d="m 182.952,103.256 h 32 v -32 h -32 z"
         id="path1323" />
    </clipPath>
    <clipPath
       clipPathUnits="userSpaceOnUse"
       id="clipPath1339">
      <path
         d="m 182.952,135.256 h 32 v -32 h -32 z"
         id="path1337" />
    </clipPath>
    <clipPath
       clipPathUnits="userSpaceOnUse"
       id="clipPath1353">
      <path
         d="m 182.952,167.256 h 32 v -32 h -32 z"
         id="path1351" />
    </clipPath>
    <clipPath
       clipPathUnits="userSpaceOnUse"
       id="clipPath1367">
      <path
         d="m 214.952,71.256 h 32 v -32 h -32 z"
         id="path1365" />
    </clipPath>
    <clipPath
       clipPathUnits="userSpaceOnUse"
       id="clipPath1381">
      <path
         d="m 246.952,71.256 h 32 v -32 h -32 z"
         id="path1379" />
    </clipPath>
    <clipPath
       clipPathUnits="userSpaceOnUse"
       id="clipPath1395">
      <path
         d="m 310.952,167.256 h 32 v -32 h -32 z"
         id="path1393" />
    </clipPath>
    <clipPath
       clipPathUnits="userSpaceOnUse"
       id="clipPath1409">
      <path
         d="m 278.952,135.256 h 32 v -32 h -32 z"
         id="path1407" />
    </clipPath>
    <clipPath
       clipPathUnits="userSpaceOnUse"
       id="clipPath1423">
      <path
         d="m 246.952,135.256 h 32 v -32 h -32 z"
         id="path1421" />
    </clipPath>
    <clipPath
       clipPathUnits="userSpaceOnUse"
       id="clipPath1437">
      <path
         d="m 278.952,167.256 h 32 v -32 h -32 z"
         id="path1435" />
    </clipPath>
    <clipPath
       clipPathUnits="userSpaceOnUse"
       id="clipPath1451">
      <path
         d="m 214.952,103.256 h 32 v -32 h -32 z"
         id="path1449" />
    </clipPath>
    <clipPath
       clipPathUnits="userSpaceOnUse"
       id="clipPath1465">
      <path
         d="m 214.952,135.256 h 32 v -32 h -32 z"
         id="path1463" />
    </clipPath>
    <clipPath
       clipPathUnits="userSpaceOnUse"
       id="clipPath1479">
      <path
         d="m 246.952,103.256 h 32 v -32 h -32 z"
         id="path1477" />
    </clipPath>
    <clipPath
       clipPathUnits="userSpaceOnUse"
       id="clipPath1493">
      <path
         d="m 246.952,167.256 h 32 v -32 h -32 z"
         id="path1491" />
    </clipPath>
    <clipPath
       clipPathUnits="userSpaceOnUse"
       id="clipPath1507">
      <path
         d="m 214.952,167.256 h 32 v -32 h -32 z"
         id="path1505" />
    </clipPath>
    <clipPath
       clipPathUnits="userSpaceOnUse"
       id="clipPath1541">
      <path
         d="M 0,612 H 612 V 0 H 0 Z"
         id="path1539" />
    </clipPath>
    <clipPath
       clipPathUnits="userSpaceOnUse"
       id="clipPath1565">
      <path
         d="m 86.952,273.025 h 32 v -32 h -32 z"
         id="path1563" />
    </clipPath>
    <clipPath
       clipPathUnits="userSpaceOnUse"
       id="clipPath1585">
      <path
         d="m 118.952,273.025 h 32 v -32 h -32 z"
         id="path1583" />
    </clipPath>
    <clipPath
       clipPathUnits="userSpaceOnUse"
       id="clipPath1599">
      <path
         d="m 118.952,305.025 h 32 v -32 h -32 z"
         id="path1597" />
    </clipPath>
    <clipPath
       clipPathUnits="userSpaceOnUse"
       id="clipPath1613">
      <path
         d="m 118.952,337.025 h 32 v -32 h -32 z"
         id="path1611" />
    </clipPath>
    <clipPath
       clipPathUnits="userSpaceOnUse"
       id="clipPath1627">
      <path
         d="m 118.952,369.025 h 32 v -32 h -32 z"
         id="path1625" />
    </clipPath>
    <clipPath
       clipPathUnits="userSpaceOnUse"
       id="clipPath1641">
      <path
         d="m 150.952,273.025 h 32 v -32 h -32 z"
         id="path1639" />
    </clipPath>
    <clipPath
       clipPathUnits="userSpaceOnUse"
       id="clipPath1655">
      <path
         d="m 150.952,305.025 h 32 v -32 h -32 z"
         id="path1653" />
    </clipPath>
    <clipPath
       clipPathUnits="userSpaceOnUse"
       id="clipPath1669">
      <path
         d="m 150.952,337.025 h 32 v -32 h -32 z"
         id="path1667" />
    </clipPath>
    <clipPath
       clipPathUnits="userSpaceOnUse"
       id="clipPath1683">
      <path
         d="m 150.952,369.025 h 32 v -32 h -32 z"
         id="path1681" />
    </clipPath>
    <clipPath
       clipPathUnits="userSpaceOnUse"
       id="clipPath1697">
      <path
         d="m 182.952,273.025 h 32 v -32 h -32 z"
         id="path1695" />
    </clipPath>
    <clipPath
       clipPathUnits="userSpaceOnUse"
       id="clipPath1711">
      <path
         d="m 182.952,305.025 h 32 v -32 h -32 z"
         id="path1709" />
    </clipPath>
    <clipPath
       clipPathUnits="userSpaceOnUse"
       id="clipPath1725">
      <path
         d="m 182.952,337.025 h 32 v -32 h -32 z"
         id="path1723" />
    </clipPath>
    <clipPath
       clipPathUnits="userSpaceOnUse"
       id="clipPath1739">
      <path
         d="m 182.952,369.025 h 32 v -32 h -32 z"
         id="path1737" />
    </clipPath>
    <clipPath
       clipPathUnits="userSpaceOnUse"
       id="clipPath1753">
      <path
         d="m 214.952,273.025 h 32 v -32 h -32 z"
         id="path1751" />
    </clipPath>
    <clipPath
       clipPathUnits="userSpaceOnUse"
       id="clipPath1767">
      <path
         d="m 214.952,305.025 h 32 v -32 h -32 z"
         id="path1765" />
    </clipPath>
    <clipPath
       clipPathUnits="userSpaceOnUse"
       id="clipPath1781">
      <path
         d="m 214.952,337.025 h 32 v -32 h -32 z"
         id="path1779" />
    </clipPath>
    <clipPath
       clipPathUnits="userSpaceOnUse"
       id="clipPath1795">
      <path
         d="m 214.952,369.025 h 32 v -32 h -32 z"
         id="path1793" />
    </clipPath>
  </defs>
  <sodipodi:namedview
     id="base"
     pagecolor="#ffffff"
     bordercolor="#666666"
     borderopacity="1.0"
     inkscape:pageopacity="0.0"
     inkscape:pageshadow="2"
     inkscape:zoom="0.7"
     inkscape:cx="394.37218"
     inkscape:cy="462.4989"
     inkscape:document-units="mm"
     inkscape:current-layer="layer1"
     inkscape:document-rotation="0"
     showgrid="false"
     inkscape:window-width="1267"
     inkscape:window-height="1041"
     inkscape:window-x="192"
     inkscape:window-y="0"
     inkscape:window-maximized="0" />
  <metadata
     id="metadata9886">
    <rdf:RDF>
      <cc:Work
         rdf:about="">
        <dc:format>image/svg+xml</dc:format>
        <dc:type
           rdf:resource="http://purl.org/dc/dcmitype/StillImage" />
        <dc:title></dc:title>
      </cc:Work>
    </rdf:RDF>
  </metadata>
  <g
     inkscape:label="Layer 1"
     inkscape:groupmode="layer"
     id="layer1"
     transform="translate(-1.4890281,-25.797166)">
    <path
       d="M 1.4890281,149.7974 H 208.66573 V 84.777091 H 1.4890281 Z"
       style="fill:#231f20;fill-opacity:1;fill-rule:nonzero;stroke:none;stroke-width:0.338524"
       id="path843" />
    <path
       d="M 20.091601,79.299095 H 9.2588316 V 68.466326 H 20.091601 Z"
       style="fill:#f07805;fill-opacity:1;fill-rule:nonzero;stroke:none;stroke-width:0.338524"
       id="path845" />
    <path
       d="M 20.091601,68.466326 H 9.2588316 V 57.633557 H 20.091601 Z"
       style="fill:#f07805;fill-opacity:1;fill-rule:nonzero;stroke:none;stroke-width:0.338524"
       id="path847" />
    <path
       d="M 20.091601,57.633557 H 9.2588316 V 46.800788 H 20.091601 Z"
       style="fill:#f07805;fill-opacity:1;fill-rule:nonzero;stroke:none;stroke-width:0.338524"
       id="path849" />
    <path
       d="M 20.091601,46.800788 H 9.2588316 V 35.968019 H 20.091601 Z"
       style="fill:#f07805;fill-opacity:1;fill-rule:nonzero;stroke:none;stroke-width:0.338524"
       id="path851" />
    <path
       d="M 30.92437,79.299095 H 20.091601 V 68.466326 H 30.92437 Z"
       style="fill:#f07805;fill-opacity:1;fill-rule:nonzero;stroke:none;stroke-width:0.338524"
       id="path853" />
    <path
       d="M 30.92437,68.466326 H 20.091601 V 57.633557 H 30.92437 Z"
       style="fill:#f07805;fill-opacity:1;fill-rule:nonzero;stroke:none;stroke-width:0.338524"
       id="path855" />
    <path
       d="M 30.92437,57.633557 H 20.091601 V 46.800788 H 30.92437 Z"
       style="fill:#f07805;fill-opacity:1;fill-rule:nonzero;stroke:none;stroke-width:0.338524"
       id="path857" />
    <path
       d="M 30.92437,46.800788 H 20.091601 V 35.968019 H 30.92437 Z"
       style="fill:#f07805;fill-opacity:1;fill-rule:nonzero;stroke:none;stroke-width:0.338524"
       id="path859" />
    <g
       id="g861"
       transform="matrix(0.33852403,0,0,-0.33852403,1.4890281,221.56585)">
      <g
         id="g863"
         clip-path="url(#clipPath867)">
        <g
           id="g869">
          <g
             id="g871" />
          <g
             id="g881">
            <g
               clip-path="url(#clipPath875)"
               opacity="0.899994"
               id="g879">
              <path
                 d="m 118.952,420.256 h -32 v 32 h 32 z"
                 style="fill:#f07805;fill-opacity:1;fill-rule:nonzero;stroke:none"
                 id="path877" />
            </g>
          </g>
        </g>
      </g>
    </g>
    <path
       d="M 41.757139,68.466326 H 30.92437 V 57.633557 h 10.832769 z"
       style="fill:#f07805;fill-opacity:1;fill-rule:nonzero;stroke:none;stroke-width:0.338524"
       id="path883" />
    <path
       d="M 41.757139,57.633557 H 30.92437 V 46.800788 h 10.832769 z"
       style="fill:#f07805;fill-opacity:1;fill-rule:nonzero;stroke:none;stroke-width:0.338524"
       id="path885" />
    <path
       d="M 41.757139,46.800788 H 30.92437 V 35.968019 h 10.832769 z"
       style="fill:#f07805;fill-opacity:1;fill-rule:nonzero;stroke:none;stroke-width:0.338524"
       id="path887" />
    <g
       id="g889"
       transform="matrix(0.33852403,0,0,-0.33852403,1.4890281,221.56585)">
      <g
         id="g891"
         clip-path="url(#clipPath895)">
        <g
           id="g897">
          <g
             id="g899" />
          <g
             id="g909">
            <g
               clip-path="url(#clipPath903)"
               opacity="0.800003"
               id="g907">
              <path
                 d="m 150.952,420.256 h -32 v 32 h 32 z"
                 style="fill:#f07805;fill-opacity:1;fill-rule:nonzero;stroke:none"
                 id="path905" />
            </g>
          </g>
        </g>
        <g
           id="g911">
          <g
             id="g913" />
          <g
             id="g923">
            <g
               clip-path="url(#clipPath917)"
               opacity="0.899994"
               id="g921">
              <path
                 d="m 150.952,452.256 h -32 v 32 h 32 z"
                 style="fill:#f07805;fill-opacity:1;fill-rule:nonzero;stroke:none"
                 id="path919" />
            </g>
          </g>
        </g>
        <g
           id="g925">
          <g
             id="g927" />
          <g
             id="g937">
            <g
               clip-path="url(#clipPath931)"
               opacity="0.800003"
               id="g935">
              <path
                 d="m 150.952,484.256 h -32 v 32 h 32 z"
                 style="fill:#f07805;fill-opacity:1;fill-rule:nonzero;stroke:none"
                 id="path933" />
            </g>
          </g>
        </g>
        <g
           id="g939">
          <g
             id="g941" />
          <g
             id="g951">
            <g
               clip-path="url(#clipPath945)"
               opacity="0.899994"
               id="g949">
              <path
                 d="m 150.952,516.256 h -32 v 32 h 32 z"
                 style="fill:#f07805;fill-opacity:1;fill-rule:nonzero;stroke:none"
                 id="path947" />
            </g>
          </g>
        </g>
        <g
           id="g953">
          <g
             id="g955" />
          <g
             id="g965">
            <g
               clip-path="url(#clipPath959)"
               opacity="0.699997"
               id="g963">
              <path
                 d="m 182.952,420.256 h -32 v 32 h 32 z"
                 style="fill:#f07805;fill-opacity:1;fill-rule:nonzero;stroke:none"
                 id="path961" />
            </g>
          </g>
        </g>
        <g
           id="g967">
          <g
             id="g969" />
          <g
             id="g979">
            <g
               clip-path="url(#clipPath973)"
               opacity="0.600006"
               id="g977">
              <path
                 d="m 182.952,452.256 h -32 v 32 h 32 z"
                 style="fill:#f07805;fill-opacity:1;fill-rule:nonzero;stroke:none"
                 id="path975" />
            </g>
          </g>
        </g>
        <g
           id="g981">
          <g
             id="g983" />
          <g
             id="g993">
            <g
               clip-path="url(#clipPath987)"
               opacity="0.899994"
               id="g991">
              <path
                 d="m 182.952,484.256 h -32 v 32 h 32 z"
                 style="fill:#f07805;fill-opacity:1;fill-rule:nonzero;stroke:none"
                 id="path989" />
            </g>
          </g>
        </g>
        <g
           id="g995">
          <g
             id="g997" />
          <g
             id="g1007">
            <g
               clip-path="url(#clipPath1001)"
               opacity="0.800003"
               id="g1005">
              <path
                 d="m 182.952,516.256 h -32 v 32 h 32 z"
                 style="fill:#f07805;fill-opacity:1;fill-rule:nonzero;stroke:none"
                 id="path1003" />
            </g>
          </g>
        </g>
        <g
           id="g1009">
          <g
             id="g1011" />
          <g
             id="g1021">
            <g
               clip-path="url(#clipPath1015)"
               opacity="0.5"
               id="g1019">
              <path
                 d="m 214.952,420.256 h -32 v 32 h 32 z"
                 style="fill:#f07805;fill-opacity:1;fill-rule:nonzero;stroke:none"
                 id="path1017" />
            </g>
          </g>
        </g>
        <g
           id="g1023">
          <g
             id="g1025" />
          <g
             id="g1035">
            <g
               clip-path="url(#clipPath1029)"
               opacity="0.699997"
               id="g1033">
              <path
                 d="m 214.952,452.256 h -32 v 32 h 32 z"
                 style="fill:#f07805;fill-opacity:1;fill-rule:nonzero;stroke:none"
                 id="path1031" />
            </g>
          </g>
        </g>
        <g
           id="g1037">
          <g
             id="g1039" />
          <g
             id="g1049">
            <g
               clip-path="url(#clipPath1043)"
               opacity="0.600006"
               id="g1047">
              <path
                 d="m 214.952,484.256 h -32 v 32 h 32 z"
                 style="fill:#f07805;fill-opacity:1;fill-rule:nonzero;stroke:none"
                 id="path1045" />
            </g>
          </g>
        </g>
        <g
           id="g1051">
          <g
             id="g1053" />
          <g
             id="g1063">
            <g
               clip-path="url(#clipPath1057)"
               opacity="0.699997"
               id="g1061">
              <path
                 d="m 214.952,516.256 h -32 v 32 h 32 z"
                 style="fill:#f07805;fill-opacity:1;fill-rule:nonzero;stroke:none"
                 id="path1059" />
            </g>
          </g>
        </g>
        <g
           id="g1065">
          <g
             id="g1067" />
          <g
             id="g1077">
            <g
               clip-path="url(#clipPath1071)"
               opacity="0.300003"
               id="g1075">
              <path
                 d="m 246.952,420.256 h -32 v 32 h 32 z"
                 style="fill:#f07805;fill-opacity:1;fill-rule:nonzero;stroke:none"
                 id="path1073" />
            </g>
          </g>
        </g>
        <g
           id="g1079">
          <g
             id="g1081" />
          <g
             id="g1091">
            <g
               clip-path="url(#clipPath1085)"
               opacity="0.600006"
               id="g1089">
              <path
                 d="m 246.952,452.256 h -32 v 32 h 32 z"
                 style="fill:#f07805;fill-opacity:1;fill-rule:nonzero;stroke:none"
                 id="path1087" />
            </g>
          </g>
        </g>
        <g
           id="g1093">
          <g
             id="g1095" />
          <g
             id="g1105">
            <g
               clip-path="url(#clipPath1099)"
               opacity="0.399994"
               id="g1103">
              <path
                 d="m 246.952,484.256 h -32 v 32 h 32 z"
                 style="fill:#f07805;fill-opacity:1;fill-rule:nonzero;stroke:none"
                 id="path1101" />
            </g>
          </g>
        </g>
        <g
           id="g1107">
          <g
             id="g1109" />
          <g
             id="g1119">
            <g
               clip-path="url(#clipPath1113)"
               opacity="0.5"
               id="g1117">
              <path
                 d="m 246.952,516.256 h -32 v 32 h 32 z"
                 style="fill:#f07805;fill-opacity:1;fill-rule:nonzero;stroke:none"
                 id="path1115" />
            </g>
          </g>
        </g>
      </g>
    </g>
    <g
       id="g1121"
       transform="matrix(0.33852403,0,0,-0.33852403,51.786658,25.797166)">
      <path
         d="m 0,0 -77.49,-132.499 h -13.872 l -16.264,76.534 h 16.264 l 9.806,-46.638 z"
         style="fill:#231f20;fill-opacity:1;fill-rule:nonzero;stroke:none"
         id="path1123" />
    </g>
    <g
       id="g1125"
       transform="matrix(0.33852403,0,0,-0.33852403,1.4890281,221.56585)">
      <g
         id="g1127"
         clip-path="url(#clipPath1131)">
        <g
           id="g1133"
           transform="translate(137.834,482.7037)">
          <path
             d="m 0,0 c 4.538,0 8.001,1.194 10.39,3.583 2.389,2.388 3.583,5.691 3.583,9.912 0,4.458 -1.116,7.861 -3.344,10.211 -2.23,2.347 -5.574,3.523 -10.032,3.523 H -16.122 V 0 Z M -18,40.007 H 3.822 c 8.677,0 15.245,-2.43 19.704,-7.285 4.459,-4.857 6.689,-11.267 6.689,-19.227 0,-5.177 -1.096,-9.754 -3.285,-13.734 -2.191,-3.982 -5.314,-7.066 -9.375,-9.255 -4.06,-2.191 -8.798,-3.285 -14.211,-3.285 h -19.466 v -24.123 h -16.122 v 52.965"
             style="fill:#231f20;fill-opacity:1;fill-rule:nonzero;stroke:none"
             id="path1135" />
        </g>
        <g
           id="g1137"
           transform="translate(173.0635,448.7875)">
          <path
             d="m 0,0 v 14.211 c 3.583,-1.433 7.404,-2.588 11.464,-3.463 4.061,-0.877 8.002,-1.314 11.823,-1.314 5.972,0 10.17,0.556 12.6,1.672 2.427,1.114 3.642,3.423 3.642,6.927 0,2.308 -0.558,4.138 -1.672,5.493 -1.116,1.353 -2.946,2.527 -5.493,3.523 -2.549,0.995 -6.53,2.249 -11.943,3.762 -8.042,2.228 -13.694,5.016 -16.958,8.36 -3.265,3.344 -4.896,7.96 -4.896,13.853 0,7.085 2.586,12.54 7.762,16.361 5.174,3.822 12.698,5.732 22.571,5.732 4.458,0 8.698,-0.298 12.719,-0.895 4.02,-0.597 7.304,-1.374 9.853,-2.329 V 57.681 c -6.529,2.467 -13.337,3.703 -20.422,3.703 -5.415,0 -9.455,-0.598 -12.122,-1.792 -2.668,-1.194 -4,-3.384 -4,-6.568 0,-1.991 0.496,-3.583 1.493,-4.777 0.994,-1.194 2.666,-2.25 5.015,-3.165 2.348,-0.916 5.99,-2.011 10.928,-3.284 C 41.28,39.41 47.451,36.323 50.875,32.543 54.297,28.76 56.01,23.924 56.01,18.033 56.01,11.106 53.383,5.672 48.128,1.731 42.873,-2.21 35.11,-4.18 24.84,-4.18 14.569,-4.18 6.288,-2.788 0,0"
             style="fill:#231f20;fill-opacity:1;fill-rule:nonzero;stroke:none"
             id="path1139" />
        </g>
      </g>
    </g>
    <text
       style="font-style:italic;font-variant:normal;font-weight:500;font-stretch:normal;font-size:40.9614px;font-family:'Kanit Medium';-inkscape-font-specification:Kanit-MediumItalic;writing-mode:lr-tb;fill:#f07805;fill-opacity:1;fill-rule:nonzero;stroke:none;stroke-width:0.338524"
       id="text1143"
       x="87.12471"
       y="70.65123"><tspan
         x="87.12471 112.76655 134.14841 157.49641 180.18903"
         y="70.65123"
         sodipodi:role="line"
         id="tspan1141"
         style="stroke-width:0.338524">Depot</tspan></text>
    <text
       style="font-style:italic;font-variant:normal;font-weight:500;font-stretch:normal;font-size:12.1869px;font-family:'Kanit Medium';-inkscape-font-specification:Kanit-MediumItalic;writing-mode:lr-tb;fill:#000000;fill-opacity:1;fill-rule:nonzero;stroke:none;stroke-width:0.338524"
       id="text1147"
       x="141.29137"
       y="79.448555"><tspan
         x="141.29137 143.53374 149.16408 156.34213"
         y="79.448555"
         sodipodi:role="line"
         id="tspan1145"
         style="stroke-width:0.338524">.com</tspan></text>
    <g
       id="g1535"
       transform="matrix(0.33852403,0,0,-0.33852403,1.4890281,221.56585)">
      <g
         id="g1537"
         clip-path="url(#clipPath1541)">
        <path
           d="m 54.952,241.025 h -32 v 32 h 32 z"
           style="fill:#f07805;fill-opacity:1;fill-rule:nonzero;stroke:none"
           id="path1543" />
        <path
           d="m 54.952,273.025 h -32 v 32 h 32 z"
           style="fill:#f07805;fill-opacity:1;fill-rule:nonzero;stroke:none"
           id="path1545" />
        <path
           d="m 54.952,305.025 h -32 v 32 h 32 z"
           style="fill:#f07805;fill-opacity:1;fill-rule:nonzero;stroke:none"
           id="path1547" />
        <path
           d="m 54.952,337.025 h -32 v 32 h 32 z"
           style="fill:#f07805;fill-opacity:1;fill-rule:nonzero;stroke:none"
           id="path1549" />
        <path
           d="m 86.952,241.025 h -32 v 32 h 32 z"
           style="fill:#f07805;fill-opacity:1;fill-rule:nonzero;stroke:none"
           id="path1551" />
        <path
           d="m 86.952,273.025 h -32 v 32 h 32 z"
           style="fill:#f07805;fill-opacity:1;fill-rule:nonzero;stroke:none"
           id="path1553" />
        <path
           d="m 86.952,305.025 h -32 v 32 h 32 z"
           style="fill:#f07805;fill-opacity:1;fill-rule:nonzero;stroke:none"
           id="path1555" />
        <path
           d="m 86.952,337.025 h -32 v 32 h 32 z"
           style="fill:#f07805;fill-opacity:1;fill-rule:nonzero;stroke:none"
           id="path1557" />
        <g
           id="g1559">
          <g
             id="g1561" />
          <g
             id="g1571">
            <g
               clip-path="url(#clipPath1565)"
               opacity="0.899994"
               id="g1569">
              <path
                 d="m 118.952,241.025 h -32 v 32 h 32 z"
                 style="fill:#f07805;fill-opacity:1;fill-rule:nonzero;stroke:none"
                 id="path1567" />
            </g>
          </g>
        </g>
        <path
           d="m 118.952,273.025 h -32 v 32 h 32 z"
           style="fill:#f07805;fill-opacity:1;fill-rule:nonzero;stroke:none"
           id="path1573" />
        <path
           d="m 118.952,305.025 h -32 v 32 h 32 z"
           style="fill:#f07805;fill-opacity:1;fill-rule:nonzero;stroke:none"
           id="path1575" />
        <path
           d="m 118.952,337.025 h -32 v 32 h 32 z"
           style="fill:#f07805;fill-opacity:1;fill-rule:nonzero;stroke:none"
           id="path1577" />
        <g
           id="g1579">
          <g
             id="g1581" />
          <g
             id="g1591">
            <g
               clip-path="url(#clipPath1585)"
               opacity="0.800003"
               id="g1589">
              <path
                 d="m 150.952,241.025 h -32 v 32 h 32 z"
                 style="fill:#f07805;fill-opacity:1;fill-rule:nonzero;stroke:none"
                 id="path1587" />
            </g>
          </g>
        </g>
        <g
           id="g1593">
          <g
             id="g1595" />
          <g
             id="g1605">
            <g
               clip-path="url(#clipPath1599)"
               opacity="0.899994"
               id="g1603">
              <path
                 d="m 150.952,273.025 h -32 v 32 h 32 z"
                 style="fill:#f07805;fill-opacity:1;fill-rule:nonzero;stroke:none"
                 id="path1601" />
            </g>
          </g>
        </g>
        <g
           id="g1607">
          <g
             id="g1609" />
          <g
             id="g1619">
            <g
               clip-path="url(#clipPath1613)"
               opacity="0.800003"
               id="g1617">
              <path
                 d="m 150.952,305.025 h -32 v 32 h 32 z"
                 style="fill:#f07805;fill-opacity:1;fill-rule:nonzero;stroke:none"
                 id="path1615" />
            </g>
          </g>
        </g>
        <g
           id="g1621">
          <g
             id="g1623" />
          <g
             id="g1633">
            <g
               clip-path="url(#clipPath1627)"
               opacity="0.899994"
               id="g1631">
              <path
                 d="m 150.952,337.025 h -32 v 32 h 32 z"
                 style="fill:#f07805;fill-opacity:1;fill-rule:nonzero;stroke:none"
                 id="path1629" />
            </g>
          </g>
        </g>
        <g
           id="g1635">
          <g
             id="g1637" />
          <g
             id="g1647">
            <g
               clip-path="url(#clipPath1641)"
               opacity="0.699997"
               id="g1645">
              <path
                 d="m 182.952,241.025 h -32 v 32 h 32 z"
                 style="fill:#f07805;fill-opacity:1;fill-rule:nonzero;stroke:none"
                 id="path1643" />
            </g>
          </g>
        </g>
        <g
           id="g1649">
          <g
             id="g1651" />
          <g
             id="g1661">
            <g
               clip-path="url(#clipPath1655)"
               opacity="0.600006"
               id="g1659">
              <path
                 d="m 182.952,273.025 h -32 v 32 h 32 z"
                 style="fill:#f07805;fill-opacity:1;fill-rule:nonzero;stroke:none"
                 id="path1657" />
            </g>
          </g>
        </g>
        <g
           id="g1663">
          <g
             id="g1665" />
          <g
             id="g1675">
            <g
               clip-path="url(#clipPath1669)"
               opacity="0.899994"
               id="g1673">
              <path
                 d="m 182.952,305.025 h -32 v 32 h 32 z"
                 style="fill:#f07805;fill-opacity:1;fill-rule:nonzero;stroke:none"
                 id="path1671" />
            </g>
          </g>
        </g>
        <g
           id="g1677">
          <g
             id="g1679" />
          <g
             id="g1689">
            <g
               clip-path="url(#clipPath1683)"
               opacity="0.800003"
               id="g1687">
              <path
                 d="m 182.952,337.025 h -32 v 32 h 32 z"
                 style="fill:#f07805;fill-opacity:1;fill-rule:nonzero;stroke:none"
                 id="path1685" />
            </g>
          </g>
        </g>
        <g
           id="g1691">
          <g
             id="g1693" />
          <g
             id="g1703">
            <g
               clip-path="url(#clipPath1697)"
               opacity="0.5"
               id="g1701">
              <path
                 d="m 214.952,241.025 h -32 v 32 h 32 z"
                 style="fill:#f07805;fill-opacity:1;fill-rule:nonzero;stroke:none"
                 id="path1699" />
            </g>
          </g>
        </g>
        <g
           id="g1705">
          <g
             id="g1707" />
          <g
             id="g1717">
            <g
               clip-path="url(#clipPath1711)"
               opacity="0.699997"
               id="g1715">
              <path
                 d="m 214.952,273.025 h -32 v 32 h 32 z"
                 style="fill:#f07805;fill-opacity:1;fill-rule:nonzero;stroke:none"
                 id="path1713" />
            </g>
          </g>
        </g>
        <g
           id="g1719">
          <g
             id="g1721" />
          <g
             id="g1731">
            <g
               clip-path="url(#clipPath1725)"
               opacity="0.600006"
               id="g1729">
              <path
                 d="m 214.952,305.025 h -32 v 32 h 32 z"
                 style="fill:#f07805;fill-opacity:1;fill-rule:nonzero;stroke:none"
                 id="path1727" />
            </g>
          </g>
        </g>
        <g
           id="g1733">
          <g
             id="g1735" />
          <g
             id="g1745">
            <g
               clip-path="url(#clipPath1739)"
               opacity="0.699997"
               id="g1743">
              <path
                 d="m 214.952,337.025 h -32 v 32 h 32 z"
                 style="fill:#f07805;fill-opacity:1;fill-rule:nonzero;stroke:none"
                 id="path1741" />
            </g>
          </g>
        </g>
        <g
           id="g1747">
          <g
             id="g1749" />
          <g
             id="g1759">
            <g
               clip-path="url(#clipPath1753)"
               opacity="0.300003"
               id="g1757">
              <path
                 d="m 246.952,241.025 h -32 v 32 h 32 z"
                 style="fill:#f07805;fill-opacity:1;fill-rule:nonzero;stroke:none"
                 id="path1755" />
            </g>
          </g>
        </g>
        <g
           id="g1761">
          <g
             id="g1763" />
          <g
             id="g1773">
            <g
               clip-path="url(#clipPath1767)"
               opacity="0.600006"
               id="g1771">
              <path
                 d="m 246.952,273.025 h -32 v 32 h 32 z"
                 style="fill:#f07805;fill-opacity:1;fill-rule:nonzero;stroke:none"
                 id="path1769" />
            </g>
          </g>
        </g>
        <g
           id="g1775">
          <g
             id="g1777" />
          <g
             id="g1787">
            <g
               clip-path="url(#clipPath1781)"
               opacity="0.399994"
               id="g1785">
              <path
                 d="m 246.952,305.025 h -32 v 32 h 32 z"
                 style="fill:#f07805;fill-opacity:1;fill-rule:nonzero;stroke:none"
                 id="path1783" />
            </g>
          </g>
        </g>
        <g
           id="g1789">
          <g
             id="g1791" />
          <g
             id="g1801">
            <g
               clip-path="url(#clipPath1795)"
               opacity="0.5"
               id="g1799">
              <path
                 d="m 246.952,337.025 h -32 v 32 h 32 z"
                 style="fill:#f07805;fill-opacity:1;fill-rule:nonzero;stroke:none"
                 id="path1797" />
            </g>
          </g>
        </g>
        <g
           id="g1803"
           transform="translate(148.5792,399.0699)">
          <path
             d="m 0,0 -77.49,-132.499 h -13.872 l -16.264,76.534 h 16.264 l 9.806,-46.638 z"
             style="fill:#231f20;fill-opacity:1;fill-rule:nonzero;stroke:none"
             id="path1805" />
        </g>
        <g
           id="g1807"
           transform="translate(137.834,303.473)">
          <path
             d="m 0,0 c 4.538,0 8.001,1.194 10.39,3.583 2.389,2.388 3.583,5.691 3.583,9.912 0,4.458 -1.116,7.861 -3.344,10.211 -2.23,2.347 -5.574,3.523 -10.032,3.523 H -16.122 V 0 Z M -18,40.007 H 3.822 c 8.677,0 15.245,-2.43 19.704,-7.285 4.459,-4.857 6.689,-11.267 6.689,-19.227 0,-5.177 -1.096,-9.754 -3.285,-13.734 -2.191,-3.982 -5.314,-7.066 -9.375,-9.255 -4.06,-2.191 -8.798,-3.285 -14.211,-3.285 h -19.466 v -24.123 h -16.122 v 52.965"
             style="fill:#231f20;fill-opacity:1;fill-rule:nonzero;stroke:none"
             id="path1809" />
        </g>
        <g
           id="g1811"
           transform="translate(173.0635,269.5567)">
          <path
             d="m 0,0 v 14.211 c 3.583,-1.433 7.404,-2.588 11.464,-3.463 4.061,-0.877 8.002,-1.314 11.823,-1.314 5.972,0 10.17,0.556 12.6,1.672 2.427,1.114 3.642,3.423 3.642,6.927 0,2.308 -0.558,4.138 -1.672,5.493 -1.116,1.353 -2.946,2.527 -5.493,3.523 -2.549,0.995 -6.53,2.249 -11.943,3.762 -8.042,2.228 -13.694,5.016 -16.958,8.36 -3.265,3.344 -4.896,7.96 -4.896,13.853 0,7.085 2.586,12.54 7.762,16.361 5.174,3.822 12.698,5.732 22.571,5.732 4.458,0 8.698,-0.298 12.719,-0.895 4.02,-0.597 7.304,-1.374 9.853,-2.329 V 57.681 c -6.529,2.467 -13.337,3.703 -20.422,3.703 -5.415,0 -9.455,-0.598 -12.122,-1.792 -2.668,-1.194 -4,-3.384 -4,-6.568 0,-1.991 0.496,-3.583 1.493,-4.777 0.994,-1.194 2.666,-2.25 5.015,-3.165 2.348,-0.916 5.99,-2.011 10.928,-3.284 C 41.28,39.41 47.451,36.323 50.875,32.543 54.297,28.76 56.01,23.924 56.01,18.033 56.01,11.106 53.383,5.672 48.128,1.731 42.873,-2.21 35.11,-4.18 24.84,-4.18 14.569,-4.18 6.288,-2.788 0,0"
             style="fill:#231f20;fill-opacity:1;fill-rule:nonzero;stroke:none"
             id="path1813" />
        </g>
      </g>
    </g>
    <text
       style="font-style:italic;font-variant:normal;font-weight:500;font-stretch:normal;font-size:40.9614px;font-family:'Kanit Medium';-inkscape-font-specification:Kanit-MediumItalic;writing-mode:lr-tb;fill:#f07805;fill-opacity:1;fill-rule:nonzero;stroke:none;stroke-width:0.338524"
       id="text1817"
       x="87.12471"
       y="131.32539"><tspan
         x="87.12471 112.76655 134.14841 157.49641 180.18903"
         y="131.32539"
         sodipodi:role="line"
         id="tspan1815"
         style="stroke-width:0.338524">Depot</tspan></text>
    <text
       style="font-style:italic;font-variant:normal;font-weight:500;font-stretch:normal;font-size:12.1869px;font-family:'Kanit Medium';-inkscape-font-specification:Kanit-MediumItalic;writing-mode:lr-tb;fill:#e3e7e9;fill-opacity:1;fill-rule:nonzero;stroke:none;stroke-width:0.338524"
       id="text1821"
       x="141.29137"
       y="140.12273"><tspan
         x="141.29137 143.53374 149.16408 156.34213"
         y="140.12273"
         sodipodi:role="line"
         id="tspan1819"
         style="stroke-width:0.338524">.com</tspan></text>
  </g>
</svg>
