<?xml version="1.0" encoding="UTF-8" standalone="no"?>
<svg
   xmlns:dc="http://purl.org/dc/elements/1.1/"
   xmlns:cc="http://creativecommons.org/ns#"
   xmlns:rdf="http://www.w3.org/1999/02/22-rdf-syntax-ns#"
   xmlns:svg="http://www.w3.org/2000/svg"
   xmlns="http://www.w3.org/2000/svg"
   xmlns:sodipodi="http://sodipodi.sourceforge.net/DTD/sodipodi-0.dtd"
   xmlns:inkscape="http://www.inkscape.org/namespaces/inkscape"
   width="800"
   height="600"
   viewBox="0 0 211.66667 158.75"
   version="1.1"
   id="svg12175"
   inkscape:version="1.0.2-2 (e86c870879, 2021-01-15)"
   sodipodi:docname="logo-yr-01.svg">
  <defs
     id="defs12169">
    <clipPath
       clipPathUnits="userSpaceOnUse"
       id="clipPath12762">
      <path
         d="M 0,800 H 800 V 0 H 0 Z"
         id="path12760" />
    </clipPath>
  </defs>
  <sodipodi:namedview
     id="base"
     pagecolor="#ffffff"
     bordercolor="#666666"
     borderopacity="1.0"
     inkscape:pageopacity="0.0"
     inkscape:pageshadow="2"
     inkscape:zoom="0.35"
     inkscape:cx="549.68465"
     inkscape:cy="311.13434"
     inkscape:document-units="mm"
     inkscape:current-layer="layer1"
     inkscape:document-rotation="0"
     showgrid="false"
     units="px"
     inkscape:window-width="1267"
     inkscape:window-height="1041"
     inkscape:window-x="114"
     inkscape:window-y="0"
     inkscape:window-maximized="0" />
  <metadata
     id="metadata12172">
    <rdf:RDF>
      <cc:Work
         rdf:about="">
        <dc:format>image/svg+xml</dc:format>
        <dc:type
           rdf:resource="http://purl.org/dc/dcmitype/StillImage" />
        <dc:title></dc:title>
      </cc:Work>
    </rdf:RDF>
  </metadata>
  <g
     inkscape:label="Layer 1"
     inkscape:groupmode="layer"
     id="layer1"
     transform="translate(45.861108,8.063486)">
    <text
       style="font-variant:normal;font-weight:500;font-stretch:normal;font-size:25.4px;font-family:'Rajdhani Medium';-inkscape-font-specification:Rajdhani-Medium;writing-mode:lr-tb;fill:#6b9439;fill-opacity:1;fill-rule:nonzero;stroke:none;stroke-width:0.352778"
       id="text12754"
       x="-25.283102"
       y="127.71989"><tspan
         x="-25.283102 -12.583103 1.463098 15.534697 30.292093 46.573494"
         y="127.71989"
         sodipodi:role="line"
         id="tspan12750"
         style="stroke-width:0.352778">YOUNG</tspan><tspan
         x="53.025093 66.664902 78.856888 93.614304 103.95209 117.66809 129.12349"
         y="127.71989"
         sodipodi:role="line"
         id="tspan12752"
         style="stroke-width:0.352778">RENTALS</tspan></text>
    <g
       id="g12756"
       transform="matrix(0.35277777,0,0,-0.35277777,-87.438489,216.70635)">
      <g
         id="g12758"
         clip-path="url(#clipPath12762)">
        <g
           id="g12764"
           transform="translate(308.9102,342.5863)">
          <path
             d="m 0,0 h -14.749 c -4.535,0 -6.702,1.79 -4.901,4.9 l 40.032,79.45 -66.5,135.45 c -0.699,1.63 -0.699,2.915 0,3.85 0.701,0.93 1.75,1.4 3.151,1.4 h 19.599 c 2.565,0 4.551,-1.635 5.951,-4.9 L 32.632,114.1 h 1.75 l 49.701,106.05 c 0.929,3.265 2.799,4.9 5.6,4.9 h 19.949 c 3.965,0 5.016,-1.75 3.151,-5.25 L 45.933,84.35 5.901,4.9 C 4.745,1.752 3.265,0 0,0"
             style="fill:#9558fd;fill-opacity:1;fill-rule:nonzero;stroke:none"
             id="path12766" />
        </g>
        <g
           id="g12768"
           transform="translate(472.9291,453.5365)">
          <path
             d="M 0,0 H 34.835 C 60.153,0 68.987,8.257 78.947,30.1 L 92.958,61.25 C 99.32,75.757 93.653,91.7 62.858,91.7 H 42.034 c -2.336,0 -3.5,-1.05 -3.5,-3.15 L -3.5,3.15 C -3.5,1.05 -2.336,0 0,0 m -62.444,-110.95 h -14.749 c -4.07,0 -6.404,1.873 -4.9,4.9 L 20.989,109.2 c 0,3.265 1.63,4.9 4.901,4.9 h 40.468 c 16.1,0 28.815,-4.61 38.149,-13.825 9.33,-9.22 15.642,-24.855 8.996,-41.978 L 102.494,30.45 C 94.96,13.256 90.252,4.08 84.819,-2.742 77.652,-11.743 62.152,-21.35 52.171,-21.35 l -7.394,0.049 -0.433,-84.049 c 0,-3.868 -1.072,-5.6 -5.501,-5.6 h -15.75 c -3.971,0 -6.749,0.54 -6.749,4.9 l 1.833,84.7 H -12.01 c -2.336,0 -3.574,-1.128 -4.5,-3.15 l -40.032,-81.55 c -1.056,-3.043 -2.637,-4.9 -5.902,-4.9"
             style="fill:#6b9439;fill-opacity:1;fill-rule:nonzero;stroke:none"
             id="path12770" />
        </g>
        <g
           id="g12772"
           transform="translate(378.2775,456.6864)">
          <path
             d="m 0,0 49.7,106.05 c 0.93,3.265 2.8,4.9 5.6,4.9 h 0.935 c 1.313,-0.968 2.013,-1.75 0.148,-5.25 L -7.465,-29.75 -47.497,-109.2 c -1.156,-3.148 -2.636,-4.9 -5.901,-4.9 h 4.266 c -4.535,0 -6.701,1.79 -4.9,4.9 L -14,-29.75 Z"
             style="fill:#9558fd;fill-opacity:1;fill-rule:nonzero;stroke:none"
             id="path12774" />
        </g>
        <g
           id="g12776"
           transform="translate(428.6308,456.6864)">
          <path
             d="m 0,0 49.7,106.05 c 0.93,3.265 2.8,4.9 5.6,4.9 h 0.935 c 1.313,-0.968 2.013,-1.75 0.148,-5.25 L -7.465,-29.75 -47.497,-109.2 c -1.156,-3.148 -2.636,-4.9 -5.901,-4.9 h 4.266 c -4.535,0 -6.701,1.79 -4.9,4.9 L -14,-29.75 Z"
             style="fill:#6b9439;fill-opacity:1;fill-rule:nonzero;stroke:none"
             id="path12778" />
        </g>
      </g>
    </g>
  </g>
</svg>
