<?xml version="1.0" encoding="UTF-8" standalone="no"?>
<svg
   xmlns:dc="http://purl.org/dc/elements/1.1/"
   xmlns:cc="http://creativecommons.org/ns#"
   xmlns:rdf="http://www.w3.org/1999/02/22-rdf-syntax-ns#"
   xmlns:svg="http://www.w3.org/2000/svg"
   xmlns="http://www.w3.org/2000/svg"
   xmlns:sodipodi="http://sodipodi.sourceforge.net/DTD/sodipodi-0.dtd"
   xmlns:inkscape="http://www.inkscape.org/namespaces/inkscape"
   width="793.70081"
   height="500.51968"
   viewBox="0 0 210 132.42917"
   version="1.1"
   id="svg8"
   inkscape:version="1.0.2-2 (e86c870879, 2021-01-15)"
   sodipodi:docname="logo-yr-04.svg">
  <defs
     id="defs2">
    <clipPath
       clipPathUnits="userSpaceOnUse"
       id="clipPath857">
      <path
         d="M 0,800 H 800 V 0 H 0 Z"
         id="path855" />
    </clipPath>
    <clipPath
       clipPathUnits="userSpaceOnUse"
       id="clipPath928">
      <path
         d="M 0,800 H 800 V 0 H 0 Z"
         id="path926" />
    </clipPath>
    <clipPath
       clipPathUnits="userSpaceOnUse"
       id="clipPath962">
      <path
         d="M 0,800 H 800 V 0 H 0 Z"
         id="path960" />
    </clipPath>
    <clipPath
       clipPathUnits="userSpaceOnUse"
       id="clipPath1059">
      <path
         d="M 0,800 H 800 V 0 H 0 Z"
         id="path1057" />
    </clipPath>
    <clipPath
       clipPathUnits="userSpaceOnUse"
       id="clipPath1111">
      <path
         d="M 0,800 H 800 V 0 H 0 Z"
         id="path1109" />
    </clipPath>
    <clipPath
       clipPathUnits="userSpaceOnUse"
       id="clipPath1234">
      <path
         d="m 161.097,556.948 c -2.734,-0.781 -4.364,-2.607 -4.882,-5.469 v 0 l -16.406,-105.469 -1.564,-5.078 c -12.762,7.813 -25.262,17.188 -37.499,28.125 v 0 c -12.245,10.938 -23.31,21.875 -33.204,32.813 v 0 c -2.087,2.081 -4.559,3.448 -7.421,4.101 v 0 c -2.869,0.647 -5.603,0.977 -8.204,0.977 v 0 c -3.906,0 -7.556,-0.977 -10.936,-2.93 v 0 c -3.389,-1.953 -5.079,-5.145 -5.079,-9.57 v 0 c 0,-2.869 0.909,-5.664 2.734,-8.399 v 0 c 1.819,-2.734 3.772,-5.145 5.86,-7.226 v 0 c 1.3,-1.306 3.643,-3.583 7.031,-6.836 v 0 c 3.381,-3.26 6.964,-6.641 10.742,-10.156 v 0 c 3.772,-3.516 7.422,-6.776 10.938,-9.766 v 0 c 3.515,-2.997 6.054,-5.018 7.617,-6.055 v 0 c 2.6,-2.343 6.378,-5.408 11.328,-9.18 v 0 c 4.944,-3.778 9.961,-7.489 15.039,-11.132 v 0 c 5.079,-3.65 9.698,-6.904 13.867,-9.766 v 0 c 4.163,-2.869 6.769,-4.559 7.813,-5.078 v 0 l 6.25,-3.125 v -5.859 c 0,-11.719 -0.977,-23.377 -2.93,-34.962 v 0 c -1.953,-11.59 -3.583,-23.241 -4.882,-34.96 v 0 c -0.263,-1.563 -0.654,-4.101 -1.172,-7.618 v 0 c -0.526,-3.515 -1.112,-7.293 -1.759,-11.327 v 0 c -0.652,-4.041 -1.172,-7.881 -1.562,-11.524 v 0 c -0.391,-3.65 -0.72,-6.115 -0.977,-7.422 v 0 c 1.563,-4.687 4.23,-8.33 8.008,-10.937 v 0 c 3.771,-2.6 8.136,-3.907 13.087,-3.907 v 0 c 3.905,0 6.963,1.044 9.179,3.125 v 0 c 2.209,2.088 3.839,4.688 4.883,7.813 v 0 c 1.037,3.125 1.495,6.378 1.367,9.766 v 0 c -0.135,3.38 -0.33,6.377 -0.586,8.984 v 0 c 1.563,10.675 3.253,22.979 5.078,36.914 v 0 c 1.819,13.928 3.644,28.381 5.469,43.359 v 0 c 1.818,14.972 3.643,29.883 5.469,44.727 v 0 c 1.818,14.844 3.515,28.448 5.077,40.82 v 0 c 1.563,12.365 2.991,23.047 4.298,32.031 v 0 c 1.3,8.985 2.344,15.039 3.125,18.165 v 0 c 0,0.255 0.128,0.976 0.39,2.148 v 0 c 0.256,1.172 0.586,2.404 0.977,3.711 v 0 c 0.39,1.3 0.781,2.471 1.172,3.515 v 0 c 0.39,1.038 0.586,1.691 0.586,1.953 v 0 0.782 c 0,7.55 -1.758,12.951 -5.273,16.211 v 0 c -3.517,3.253 -8.662,4.883 -15.43,4.883 v 0 c -2.345,0 -4.884,-0.391 -7.618,-1.172"
         id="path1232" />
    </clipPath>
    <linearGradient
       x1="0"
       y1="0"
       x2="1"
       y2="0"
       gradientUnits="userSpaceOnUse"
       gradientTransform="matrix(153.51562,0,0,-153.51562,35.902061,418.66666)"
       spreadMethod="pad"
       id="linearGradient1246">
      <stop
         style="stop-opacity:1;stop-color:#9558fd"
         offset="0"
         id="stop1240" />
      <stop
         style="stop-opacity:1;stop-color:#9558fd"
         offset="0.553763"
         id="stop1242" />
      <stop
         style="stop-opacity:1;stop-color:#380096"
         offset="1"
         id="stop1244" />
    </linearGradient>
    <clipPath
       clipPathUnits="userSpaceOnUse"
       id="clipPath1256">
      <path
         d="m 313.637,559.096 c -10.157,-3.26 -19.794,-7.879 -28.907,-13.867 v 0 h -1.562 l -28.125,-24.61 c -1.044,0.257 -1.697,1.563 -1.953,3.907 v 0 c -0.263,2.344 -0.916,4.883 -1.954,7.617 v 0 c -1.043,2.734 -2.868,5.139 -5.468,7.227 v 0 c -2.607,2.081 -6.641,3.125 -12.11,3.125 v 0 c -2.088,0 -3.778,-0.196 -5.078,-0.586 v 0 c -1.307,-0.391 -2.343,-0.977 -3.125,-1.758 v 0 c -0.781,-0.781 -1.502,-1.953 -2.148,-3.515 v 0 c -0.653,-1.563 -1.502,-3.516 -2.54,-5.86 v 0 -0.781 -0.781 c 0,-1.307 0.062,-3.711 0.196,-7.227 v 0 c 0.127,-3.516 0.256,-7.227 0.39,-11.133 v 0 c 0.129,-3.906 0.324,-7.617 0.586,-11.133 v 0 c 0.257,-3.515 0.391,-5.926 0.391,-7.227 v 0 c 0,-3.124 -0.72,-5.798 -2.149,-8.007 v 0 c -1.434,-2.216 -2.929,-4.297 -4.491,-6.25 v 0 c -1.563,-1.953 -3.065,-4.041 -4.492,-6.25 v 0 c -1.435,-2.216 -2.149,-4.883 -2.149,-8.008 v 0 c 0,-3.388 0.714,-5.994 2.149,-7.812 v 0 c 1.427,-1.825 3.057,-3.193 4.882,-4.102 v 0 c 1.818,-0.916 3.516,-1.629 5.078,-2.149 v 0 c 1.562,-0.524 2.472,-1.171 2.735,-1.953 v 0 c 0.518,-5.994 0.977,-11.462 1.367,-16.406 v 0 c 0.391,-4.95 0.586,-10.29 0.586,-16.015 v 0 c 0,-2.344 -0.33,-4.492 -0.976,-6.446 v 0 c -0.654,-1.953 -0.977,-4.101 -0.977,-6.445 v 0 c 0,-2.869 0.451,-5.341 1.367,-7.422 v 0 c 0.909,-2.087 2.149,-4.823 3.711,-8.203 v 0 l 6.249,-77.344 c 0.257,-2.087 1.172,-3.906 2.736,-5.468 v 0 c 1.562,-1.563 3.32,-2.998 5.273,-4.297 v 0 c 1.953,-1.307 3.966,-2.283 6.054,-2.93 v 0 c 2.082,-0.647 3.907,-0.977 5.469,-0.977 v 0 c 2.344,0 4.297,0.647 5.859,1.954 v 0 c 1.563,1.299 2.862,2.929 3.906,4.882 v 0 c 1.038,1.953 1.759,4.034 2.149,6.25 v 0 c 0.391,2.209 0.586,4.23 0.586,6.055 v 0 c 0,9.375 -0.848,18.81 -2.539,28.32 v 0 c -1.697,9.504 -2.539,19.201 -2.539,29.102 v 0 c 0,0.518 0.195,1.172 0.586,1.953 v 0 c 0.39,0.781 0.713,1.172 0.976,1.172 v 0 l 5.079,29.687 c 30.468,23.175 53.381,40.625 68.75,52.344 v 0 c 15.362,11.719 23.693,19.006 24.999,21.875 v 0 c 3.381,3.381 6.574,7.482 9.571,12.305 v 0 c 2.99,4.815 5.597,9.893 7.813,15.234 v 0 c 2.208,5.334 3.966,10.742 5.273,16.211 v 0 c 1.299,5.469 1.953,10.803 1.953,16.016 v 0 c 0,4.687 -1.502,8.593 -4.492,11.719 v 0 c -2.997,3.125 -6.641,5.664 -10.938,7.617 v 0 c -4.296,1.953 -8.856,3.32 -13.672,4.101 v 0 c -4.822,0.781 -8.923,1.172 -12.305,1.172 v 0 c -11.199,0 -21.874,-1.63 -32.03,-4.883 M 255.434,454.995 c -0.263,5.724 -0.391,11.847 -0.391,18.359 v 0 6.25 c 12.756,12.237 23.889,22.003 33.398,29.297 v 0 c 9.503,7.287 17.707,12.89 24.61,16.797 v 0 c 6.896,3.906 12.823,6.505 17.773,7.812 v 0 c 4.943,1.301 9.375,1.953 13.281,1.953 v 0 h 6.446 c 2.471,0 3.711,-1.306 3.711,-3.906 v 0 c 0,-3.388 -1.044,-7.617 -3.125,-12.695 v 0 c -2.088,-5.078 -4.688,-10.223 -7.813,-15.43 v 0 c -3.125,-5.213 -6.513,-10.028 -10.157,-14.453 v 0 c -3.65,-4.432 -7.03,-7.556 -10.155,-9.375 v 0 C 307.386,468.922 295.277,460.659 286.683,454.8 v 0 c -8.594,-5.86 -14.978,-10.157 -19.14,-12.891 v 0 c -4.17,-2.734 -6.776,-4.364 -7.813,-4.883 v 0 c -1.044,-0.525 -1.697,-0.782 -1.953,-0.782 v 0 h -1.172 c -0.525,6.769 -0.916,13.019 -1.171,18.751 m 8.202,-79.297 8.908,-0.295 187.661,-8.766 c 2.613,-0.022 6.196,-0.218 10.743,-0.587 v 0 c 4.54,-0.362 8.994,-0.396 13.351,-0.088 v 0 c 4.356,0.309 8.208,1.398 11.555,3.254 v 0 c 3.348,1.862 5.262,4.993 5.745,9.391 v 0 c 0.254,2.331 0.133,4.248 -0.355,5.737 v 0 c -0.493,1.498 -1.142,2.747 -1.947,3.75 v 0 c -0.81,1.01 -1.75,1.96 -2.83,2.864 v 0 c -1.079,0.905 -2.071,2.063 -2.96,3.468 v 0 l -6.601,0.724 -6.601,0.722 c -5.238,0.052 -10.679,-0.009 -16.327,-0.176 v 0 c -5.656,-0.167 -12.222,-0.362 -19.714,-0.592 v 0 c -7.49,-0.223 -16.213,-0.317 -26.162,-0.278 v 0 c -9.954,0.047 -21.83,0.426 -35.633,1.152 v 0 c -13.809,0.727 -29.861,1.835 -48.168,3.311 v 0 c -18.306,1.484 -65.586,6.096 -65.586,6.096 v 0 z"
         id="path1254" />
    </clipPath>
    <linearGradient
       x1="0"
       y1="0"
       x2="1"
       y2="0"
       gradientUnits="userSpaceOnUse"
       gradientTransform="matrix(292.77948,0,0,-292.77948,208.94894,429.99478)"
       spreadMethod="pad"
       id="linearGradient1266">
      <stop
         style="stop-opacity:1;stop-color:#9558fd"
         offset="0"
         id="stop1262" />
      <stop
         style="stop-opacity:1;stop-color:#1f0f56"
         offset="1"
         id="stop1264" />
    </linearGradient>
  </defs>
  <sodipodi:namedview
     id="base"
     pagecolor="#ffffff"
     bordercolor="#666666"
     borderopacity="1.0"
     inkscape:pageopacity="0.0"
     inkscape:pageshadow="2"
     inkscape:zoom="0.35"
     inkscape:cx="521.11034"
     inkscape:cy="291.42857"
     inkscape:document-units="mm"
     inkscape:current-layer="layer1"
     inkscape:document-rotation="0"
     showgrid="false"
     units="px"
     inkscape:window-width="1267"
     inkscape:window-height="1041"
     inkscape:window-x="88"
     inkscape:window-y="0"
     inkscape:window-maximized="0" />
  <metadata
     id="metadata5">
    <rdf:RDF>
      <cc:Work
         rdf:about="">
        <dc:format>image/svg+xml</dc:format>
        <dc:type
           rdf:resource="http://purl.org/dc/dcmitype/StillImage" />
        <dc:title></dc:title>
      </cc:Work>
    </rdf:RDF>
  </metadata>
  <g
     inkscape:label="Layer 1"
     inkscape:groupmode="layer"
     id="layer1">
    <text
       transform="rotate(2.6439798)"
       style="font-variant:normal;font-weight:600;font-stretch:normal;font-size:16.0648px;font-family:'Catamaran SemiBold';-inkscape-font-specification:Catamaran-SemiBold;writing-mode:lr-tb;fill:#6b9439;fill-opacity:1;fill-rule:nonzero;stroke:none;stroke-width:0.267746"
       id="text1226"
       x="80.531029"
       y="94.70787"><tspan
         x="80.531029 90.057449 101.83295 113.07831 124.78956 134.89435 138.55711 148.45303 157.46538 169.17662 178.51027 188.80782 197.30611"
         y="94.70787"
         sodipodi:role="line"
         id="tspan1224"
         style="stroke-width:0.267746">YOUNG RENTALS</tspan></text>
    <g
       id="g1228"
       transform="matrix(0.26774554,0,0,-0.26774554,-1.2309015,179.33329)">
      <g
         id="g1230"
         clip-path="url(#clipPath1234)">
        <g
           id="g1236">
          <g
             id="g1238">
            <path
               d="m 161.097,556.948 c -2.734,-0.781 -4.364,-2.607 -4.882,-5.469 v 0 l -16.406,-105.469 -1.564,-5.078 c -12.762,7.813 -25.262,17.188 -37.499,28.125 v 0 c -12.245,10.938 -23.31,21.875 -33.204,32.813 v 0 c -2.087,2.081 -4.559,3.448 -7.421,4.101 v 0 c -2.869,0.647 -5.603,0.977 -8.204,0.977 v 0 c -3.906,0 -7.556,-0.977 -10.936,-2.93 v 0 c -3.389,-1.953 -5.079,-5.145 -5.079,-9.57 v 0 c 0,-2.869 0.909,-5.664 2.734,-8.399 v 0 c 1.819,-2.734 3.772,-5.145 5.86,-7.226 v 0 c 1.3,-1.306 3.643,-3.583 7.031,-6.836 v 0 c 3.381,-3.26 6.964,-6.641 10.742,-10.156 v 0 c 3.772,-3.516 7.422,-6.776 10.938,-9.766 v 0 c 3.515,-2.997 6.054,-5.018 7.617,-6.055 v 0 c 2.6,-2.343 6.378,-5.408 11.328,-9.18 v 0 c 4.944,-3.778 9.961,-7.489 15.039,-11.132 v 0 c 5.079,-3.65 9.698,-6.904 13.867,-9.766 v 0 c 4.163,-2.869 6.769,-4.559 7.813,-5.078 v 0 l 6.25,-3.125 v -5.859 c 0,-11.719 -0.977,-23.377 -2.93,-34.962 v 0 c -1.953,-11.59 -3.583,-23.241 -4.882,-34.96 v 0 c -0.263,-1.563 -0.654,-4.101 -1.172,-7.618 v 0 c -0.526,-3.515 -1.112,-7.293 -1.759,-11.327 v 0 c -0.652,-4.041 -1.172,-7.881 -1.562,-11.524 v 0 c -0.391,-3.65 -0.72,-6.115 -0.977,-7.422 v 0 c 1.563,-4.687 4.23,-8.33 8.008,-10.937 v 0 c 3.771,-2.6 8.136,-3.907 13.087,-3.907 v 0 c 3.905,0 6.963,1.044 9.179,3.125 v 0 c 2.209,2.088 3.839,4.688 4.883,7.813 v 0 c 1.037,3.125 1.495,6.378 1.367,9.766 v 0 c -0.135,3.38 -0.33,6.377 -0.586,8.984 v 0 c 1.563,10.675 3.253,22.979 5.078,36.914 v 0 c 1.819,13.928 3.644,28.381 5.469,43.359 v 0 c 1.818,14.972 3.643,29.883 5.469,44.727 v 0 c 1.818,14.844 3.515,28.448 5.077,40.82 v 0 c 1.563,12.365 2.991,23.047 4.298,32.031 v 0 c 1.3,8.985 2.344,15.039 3.125,18.165 v 0 c 0,0.255 0.128,0.976 0.39,2.148 v 0 c 0.256,1.172 0.586,2.404 0.977,3.711 v 0 c 0.39,1.3 0.781,2.471 1.172,3.515 v 0 c 0.39,1.038 0.586,1.691 0.586,1.953 v 0 0.782 c 0,7.55 -1.758,12.951 -5.273,16.211 v 0 c -3.517,3.253 -8.662,4.883 -15.43,4.883 v 0 c -2.345,0 -4.884,-0.391 -7.618,-1.172"
               style="fill:url(#linearGradient1246);stroke:none"
               id="path1248" />
          </g>
        </g>
      </g>
    </g>
    <g
       id="g1250"
       transform="matrix(0.26774554,0,0,-0.26774554,-1.2309015,179.33329)">
      <g
         id="g1252"
         clip-path="url(#clipPath1256)">
        <g
           id="g1258">
          <g
             id="g1260">
            <path
               d="m 313.637,559.096 c -10.157,-3.26 -19.794,-7.879 -28.907,-13.867 v 0 h -1.562 l -28.125,-24.61 c -1.044,0.257 -1.697,1.563 -1.953,3.907 v 0 c -0.263,2.344 -0.916,4.883 -1.954,7.617 v 0 c -1.043,2.734 -2.868,5.139 -5.468,7.227 v 0 c -2.607,2.081 -6.641,3.125 -12.11,3.125 v 0 c -2.088,0 -3.778,-0.196 -5.078,-0.586 v 0 c -1.307,-0.391 -2.343,-0.977 -3.125,-1.758 v 0 c -0.781,-0.781 -1.502,-1.953 -2.148,-3.515 v 0 c -0.653,-1.563 -1.502,-3.516 -2.54,-5.86 v 0 -0.781 -0.781 c 0,-1.307 0.062,-3.711 0.196,-7.227 v 0 c 0.127,-3.516 0.256,-7.227 0.39,-11.133 v 0 c 0.129,-3.906 0.324,-7.617 0.586,-11.133 v 0 c 0.257,-3.515 0.391,-5.926 0.391,-7.227 v 0 c 0,-3.124 -0.72,-5.798 -2.149,-8.007 v 0 c -1.434,-2.216 -2.929,-4.297 -4.491,-6.25 v 0 c -1.563,-1.953 -3.065,-4.041 -4.492,-6.25 v 0 c -1.435,-2.216 -2.149,-4.883 -2.149,-8.008 v 0 c 0,-3.388 0.714,-5.994 2.149,-7.812 v 0 c 1.427,-1.825 3.057,-3.193 4.882,-4.102 v 0 c 1.818,-0.916 3.516,-1.629 5.078,-2.149 v 0 c 1.562,-0.524 2.472,-1.171 2.735,-1.953 v 0 c 0.518,-5.994 0.977,-11.462 1.367,-16.406 v 0 c 0.391,-4.95 0.586,-10.29 0.586,-16.015 v 0 c 0,-2.344 -0.33,-4.492 -0.976,-6.446 v 0 c -0.654,-1.953 -0.977,-4.101 -0.977,-6.445 v 0 c 0,-2.869 0.451,-5.341 1.367,-7.422 v 0 c 0.909,-2.087 2.149,-4.823 3.711,-8.203 v 0 l 6.249,-77.344 c 0.257,-2.087 1.172,-3.906 2.736,-5.468 v 0 c 1.562,-1.563 3.32,-2.998 5.273,-4.297 v 0 c 1.953,-1.307 3.966,-2.283 6.054,-2.93 v 0 c 2.082,-0.647 3.907,-0.977 5.469,-0.977 v 0 c 2.344,0 4.297,0.647 5.859,1.954 v 0 c 1.563,1.299 2.862,2.929 3.906,4.882 v 0 c 1.038,1.953 1.759,4.034 2.149,6.25 v 0 c 0.391,2.209 0.586,4.23 0.586,6.055 v 0 c 0,9.375 -0.848,18.81 -2.539,28.32 v 0 c -1.697,9.504 -2.539,19.201 -2.539,29.102 v 0 c 0,0.518 0.195,1.172 0.586,1.953 v 0 c 0.39,0.781 0.713,1.172 0.976,1.172 v 0 l 5.079,29.687 c 30.468,23.175 53.381,40.625 68.75,52.344 v 0 c 15.362,11.719 23.693,19.006 24.999,21.875 v 0 c 3.381,3.381 6.574,7.482 9.571,12.305 v 0 c 2.99,4.815 5.597,9.893 7.813,15.234 v 0 c 2.208,5.334 3.966,10.742 5.273,16.211 v 0 c 1.299,5.469 1.953,10.803 1.953,16.016 v 0 c 0,4.687 -1.502,8.593 -4.492,11.719 v 0 c -2.997,3.125 -6.641,5.664 -10.938,7.617 v 0 c -4.296,1.953 -8.856,3.32 -13.672,4.101 v 0 c -4.822,0.781 -8.923,1.172 -12.305,1.172 v 0 c -11.199,0 -21.874,-1.63 -32.03,-4.883 M 255.434,454.995 c -0.263,5.724 -0.391,11.847 -0.391,18.359 v 0 6.25 c 12.756,12.237 23.889,22.003 33.398,29.297 v 0 c 9.503,7.287 17.707,12.89 24.61,16.797 v 0 c 6.896,3.906 12.823,6.505 17.773,7.812 v 0 c 4.943,1.301 9.375,1.953 13.281,1.953 v 0 h 6.446 c 2.471,0 3.711,-1.306 3.711,-3.906 v 0 c 0,-3.388 -1.044,-7.617 -3.125,-12.695 v 0 c -2.088,-5.078 -4.688,-10.223 -7.813,-15.43 v 0 c -3.125,-5.213 -6.513,-10.028 -10.157,-14.453 v 0 c -3.65,-4.432 -7.03,-7.556 -10.155,-9.375 v 0 C 307.386,468.922 295.277,460.659 286.683,454.8 v 0 c -8.594,-5.86 -14.978,-10.157 -19.14,-12.891 v 0 c -4.17,-2.734 -6.776,-4.364 -7.813,-4.883 v 0 c -1.044,-0.525 -1.697,-0.782 -1.953,-0.782 v 0 h -1.172 c -0.525,6.769 -0.916,13.019 -1.171,18.751 m 8.202,-79.297 8.908,-0.295 187.661,-8.766 c 2.613,-0.022 6.196,-0.218 10.743,-0.587 v 0 c 4.54,-0.362 8.994,-0.396 13.351,-0.088 v 0 c 4.356,0.309 8.208,1.398 11.555,3.254 v 0 c 3.348,1.862 5.262,4.993 5.745,9.391 v 0 c 0.254,2.331 0.133,4.248 -0.355,5.737 v 0 c -0.493,1.498 -1.142,2.747 -1.947,3.75 v 0 c -0.81,1.01 -1.75,1.96 -2.83,2.864 v 0 c -1.079,0.905 -2.071,2.063 -2.96,3.468 v 0 l -6.601,0.724 -6.601,0.722 c -5.238,0.052 -10.679,-0.009 -16.327,-0.176 v 0 c -5.656,-0.167 -12.222,-0.362 -19.714,-0.592 v 0 c -7.49,-0.223 -16.213,-0.317 -26.162,-0.278 v 0 c -9.954,0.047 -21.83,0.426 -35.633,1.152 v 0 c -13.809,0.727 -29.861,1.835 -48.168,3.311 v 0 c -18.306,1.484 -65.586,6.096 -65.586,6.096 v 0 z"
               style="fill:url(#linearGradient1266);stroke:none"
               id="path1268" />
          </g>
        </g>
      </g>
    </g>
  </g>
</svg>
