<?xml version="1.0" encoding="utf-8"?>
<!-- Generator: Adobe Illustrator 18.0.0, SVG Export Plug-In . SVG Version: 6.00 Build 0)  -->
<svg version="1.2" baseProfile="tiny" id="Layer_1" xmlns="http://www.w3.org/2000/svg" xmlns:xlink="http://www.w3.org/1999/xlink"
	 x="0px" y="0px" viewBox="0 0 1650 531" xml:space="preserve">
<linearGradient id="SVGID_1_" gradientUnits="userSpaceOnUse" x1="82.3443" y1="303.0973" x2="515.0627" y2="236.4664">
	<stop  offset="0.5789" style="stop-color:#5DA043"/>
	<stop  offset="0.7783" style="stop-color:#5DA043"/>
</linearGradient>
<path fill="url(#SVGID_1_)" d="M393.9,154.8c0,0,1,0.8,2.9,2.5c1.9,1.6,4.7,4.1,8.4,7.3c3.6,3.3,8.1,7.3,13.2,12.2
	c5.1,4.9,10.8,10.7,17.1,17.3c6.2,6.6,13,14.1,20,22.6c3.5,4.2,7,8.7,10.7,13.4c3.6,4.7,7.2,9.7,10.8,14.9
	c7.2,10.5,14.5,21.9,21.2,34.5c6.7,12.6,13.1,26.3,18.3,41.1c5.1,14.9,9.2,31,10.5,48.2c0.7,8.6,0.6,17.4-0.5,26.4
	c-1.2,8.9-3.3,18-6.9,26.7c-1.8,4.3-4,8.6-6.5,12.7c-0.6,1-1.3,2-1.9,3l-2.1,3l-2.2,2.9c0,0-0.3,0.4-0.4,0.4l-0.3,0.3l-0.6,0.7
	l-1.1,1.3c-0.3,0.4-0.8,0.9-1.2,1.4L502,449c-0.9,1-1.7,1.8-2.6,2.7c-0.9,0.9-1.8,1.7-2.7,2.5l-1.4,1.2l-1.4,1.2
	c-3.8,3.2-7.9,6-12.2,8.6c-8.6,5.1-18.1,8.9-27.8,11.6c-9.8,2.7-19.9,4.2-30.1,4.9c-20.4,1.3-41-1-61.3-5.4
	c-10.1-2.2-20.2-5-30.1-8.3c-9.9-3.3-19.7-7-29.4-11.2c-9.6-4.2-19.1-8.8-28.5-13.7c-9.3-5-18.5-10.3-27.4-16
	c-4.5-2.8-8.9-5.7-13.3-8.7c-4.4-3-8.7-6.1-13-9.2c-2.1-1.6-4.3-3.2-6.4-4.8c-2.1-1.6-4.2-3.2-6.3-4.9c-2.1-1.6-4.1-3.3-6.2-5
	l-6.2-5.1c-32.3-27.4-61.4-59.2-84.3-94.4c-2.9-4.4-5.6-8.9-8.3-13.4c-2.6-4.5-5.2-9.1-7.6-13.7c-4.9-9.2-9.3-18.7-13.2-28.3
	c-7.7-19.2-13.4-39.2-15.6-59.5c-1-10.2-1.3-20.4-0.2-30.5c1-10.1,3.2-20,6.8-29.4c3.6-9.4,8.6-18.1,14.9-25.6l1.2-1.4l0.6-0.7
	l0.3-0.3c0.1-0.1,0.4-0.4,0.4-0.4l2.3-2.5l2.7-2.6c0.9-0.9,1.8-1.6,2.7-2.4c3.6-3.2,7.5-6,11.5-8.5c8-5.1,16.5-8.7,25.1-11.3
	c8.6-2.6,17.3-4.1,25.9-4.9c17.2-1.6,33.7-0.3,49.3,2.3c15.5,2.6,30.1,6.6,43.6,11.2c13.5,4.6,26,9.8,37.5,15.2
	c5.7,2.7,11.2,5.5,16.5,8.2c5.2,2.8,10.2,5.5,15,8.3c9.5,5.5,18,10.8,25.6,15.9c7.6,5.1,14.2,9.8,19.9,14
	c5.7,4.2,10.4,7.9,14.2,10.9c3.8,3.1,6.7,5.4,8.6,7C392.9,154,393.9,154.8,393.9,154.8z M393.9,154.8c0,0-1-0.8-2.9-2.4
	c-1.9-1.6-4.8-4-8.7-7c-7.7-6-19-14.7-34.3-24.6c-15.3-9.9-34.4-21-57.6-31.2c-11.6-5.1-24.2-9.8-37.7-13.9
	c-13.5-4.1-28.1-7.4-43.4-9.3c-7.7-0.9-15.5-1.6-23.5-1.6c-4-0.1-8,0.1-12.1,0.3c-4,0.3-8.1,0.6-12.2,1.2
	c-8.1,1.2-16.2,3.1-24.1,5.9c-7.8,2.9-15.5,6.6-22.4,11.5c-3.4,2.4-6.7,5.1-9.8,8.1c-0.7,0.8-1.5,1.5-2.2,2.3l-2.1,2.3l-2.2,2.6
	l-1.9,2.5c-5.1,6.9-9,14.7-11.7,23c-2.7,8.3-4.1,17.2-4.6,26.2c-0.2,4.5-0.2,9.1,0.1,13.6c0.3,4.6,0.8,9.2,1.5,13.8
	c0.7,4.6,1.6,9.2,2.7,13.8c1.1,4.6,2.4,9.1,3.8,13.7c2.8,9.1,6.4,18.1,10.3,26.9c8,17.7,18,34.8,29.2,51.2c5.6,8.2,11.7,16.2,18,24
	c6.3,7.9,12.9,15.5,19.7,22.9c6.9,7.4,14,14.7,21.3,21.7c1.8,1.8,3.7,3.5,5.5,5.2c1.9,1.7,3.7,3.4,5.6,5.1c1.9,1.7,3.8,3.3,5.7,5
	l5.9,5.1l5.8,4.8c2,1.6,3.9,3.2,5.9,4.8c2,1.6,4,3.2,6,4.7c2,1.6,4,3.1,6.1,4.6c4.1,3,8.2,6,12.3,8.9c4.2,2.9,8.3,5.7,12.6,8.5
	c8.5,5.5,17.1,10.7,25.9,15.6c8.8,4.9,17.7,9.5,26.7,13.7c18.1,8.4,36.6,15.4,55.4,20.3c9.4,2.4,18.8,4.4,28.3,5.7
	c4.7,0.6,9.4,1.2,14.1,1.5c4.7,0.3,9.4,0.4,14,0.4c9.3-0.2,18.5-1,27.3-3c8.8-1.9,17.3-4.8,25-8.9c3.9-2,7.6-4.3,11-6.9l1.3-1l1.3-1
	c0.8-0.7,1.7-1.4,2.5-2.1c0.8-0.7,1.6-1.4,2.4-2.1l1.1-1.1c0.4-0.4,0.7-0.7,1.1-1.2l2.2-2.4l2.1-2.4l2-2.5c0.6-0.8,1.2-1.7,1.9-2.6
	c2.4-3.5,4.5-7.2,6.4-11c3.7-7.6,6.1-15.8,7.6-24c1.5-8.2,2-16.6,1.8-24.8c-0.1-4.1-0.4-8.2-0.8-12.2c-0.5-4-1-8-1.7-12
	c-1.4-7.9-3.3-15.5-5.5-22.9c-4.4-14.8-10.2-28.6-16.5-41.2c-6.3-12.7-13.1-24.3-20-34.9c-13.9-21.2-28.1-38.2-40.4-51.6
	c-12.3-13.4-22.8-23.1-30-29.7c-3.6-3.3-6.4-5.7-8.3-7.4C394.9,155.7,393.9,154.8,393.9,154.8z"/>
<linearGradient id="SVGID_2_" gradientUnits="userSpaceOnUse" x1="408.4933" y1="76.7177" x2="187.4563" y2="459.5648">
	<stop  offset="0" style="stop-color:#849BCE"/>
	<stop  offset="0.8978" style="stop-color:#1D4386"/>
</linearGradient>
<circle fill="url(#SVGID_2_)" cx="298" cy="268.1" r="221"/>
<ellipse fill="#1D4386" cx="320" cy="271.1" rx="199" ry="205.7"/>
<linearGradient id="SVGID_3_" gradientUnits="userSpaceOnUse" x1="81.7496" y1="315.6624" x2="482.6792" y2="253.9264">
	<stop  offset="0.5789" style="stop-color:#5DA043"/>
	<stop  offset="0.7783" style="stop-color:#5DA043"/>
</linearGradient>
<path fill="url(#SVGID_3_)" d="M502.4,440.2c0,0-0.4,0.5-1.1,1.6c-0.7,1-1.8,2.5-3.4,4.5c-0.8,0.9-1.7,2-2.7,3.1
	c-1.1,1.1-2.2,2.3-3.5,3.6c-2.6,2.5-5.8,5.2-9.6,7.9c-7.6,5.5-18,10.9-30.6,14.7c-12.7,3.8-27.6,6-43.8,6.1
	c-16.2,0.1-33.8-1.9-51.8-6c-18.1-4.1-36.7-10.1-55.2-18c-9.3-3.9-18.5-8.3-27.6-13.1c-4.6-2.4-9.1-4.9-13.7-7.5
	c-2.3-1.3-4.5-2.6-6.8-4c-2.3-1.3-4.5-2.7-6.7-4.1c-8.9-5.6-17.8-11.5-26.3-17.8c-2.2-1.6-4.3-3.2-6.4-4.8c-2.1-1.6-4.2-3.2-6.3-4.9
	c-2.1-1.6-4.2-3.3-6.3-5l-6.3-5.2l-5.9-5.1c-2-1.8-4.1-3.6-6-5.4c-2-1.8-3.9-3.6-5.9-5.4c-2-1.8-3.9-3.7-5.8-5.5
	c-7.7-7.4-15-15.1-22-23c-3.5-3.9-6.9-7.9-10.3-11.9c-3.3-4-6.5-8.1-9.7-12.2c-6.2-8.2-12.2-16.6-17.6-25.1
	c-10.9-16.9-20-34.2-27-51.4c-3.5-8.6-6.5-17.1-8.9-25.5c-2.4-8.4-4.3-16.6-5.6-24.7c-2.6-16-3-31.1-1.3-44.2
	c1.6-13.1,5.2-24.2,9.3-32.7c2.1-4.2,4.1-7.8,6.2-10.8c1-1.5,2-2.8,2.9-4.1c1-1.2,1.8-2.3,2.6-3.2c1.6-1.9,2.9-3.2,3.8-4.1
	c0.9-0.9,1.4-1.4,1.4-1.4s-0.4,0.5-1,1.6c-0.3,0.5-0.8,1.2-1.3,2c-0.5,0.8-1,1.7-1.6,2.8c-2.4,4.2-5.5,10.6-8,19.1
	c-2.5,8.5-4.2,19.1-4,31.3c0.1,6.1,0.6,12.6,1.6,19.3c1,6.7,2.5,13.8,4.6,21c2,7.2,4.5,14.7,7.5,22.2c3,7.5,6.4,15.2,10.3,22.9
	c7.8,15.4,17.3,31,28.3,46.4c5.5,7.6,11.4,15.3,17.5,22.8c3.1,3.7,6.3,7.5,9.5,11.2c3.2,3.7,6.5,7.4,9.9,11
	c6.8,7.3,13.9,14.3,21.2,21.3c1.8,1.7,3.7,3.5,5.5,5.2c1.8,1.7,3.7,3.4,5.6,5.1c1.9,1.7,3.8,3.3,5.6,5l5.9,5l5.7,4.8
	c2,1.6,3.9,3.2,5.9,4.8c2,1.6,3.9,3.1,6,4.7c2,1.5,4,3.1,6,4.6c8.1,6,16.2,11.9,24.5,17.3c4.2,2.7,8.3,5.4,12.5,8
	c4.2,2.6,8.4,5.1,12.6,7.5c8.5,4.8,17,9.3,25.4,13.5c17,8.2,34,15.1,50.5,20.2c8.2,2.6,16.4,4.6,24.3,6.3c7.9,1.7,15.7,2.9,23.1,3.7
	c7.5,0.8,14.6,1.1,21.5,1c6.8-0.1,13.3-0.7,19.3-1.6c12-1.9,22.2-5.3,30.2-9.2c8-3.9,13.8-8,17.5-11.1c0.9-0.8,1.7-1.5,2.5-2.1
	c0.7-0.6,1.3-1.2,1.7-1.6C501.9,440.6,502.4,440.2,502.4,440.2z"/>
<g>
	<path fill="#FFFFFF" d="M204.3,316.2c-0.8,2.2-2.1,3.3-3.8,3.5c-1.7,0-3-1.2-4-3.6l-33.6-83.9c-1-2.5-3.3-4.3-6.7-5.6
		c-3.4-1.3-5.1-3.4-5.1-6.4h42.6c0,3-1.8,5.2-5.5,6.6c-3.6,1.4-5.1,3.2-4.3,5.4l21,53.9l5.7-14.7c1.8-4.7,4.4-6.3,7.9-5
		c3.5,1.3,4.3,4.3,2.5,9L204.3,316.2z M298.5,202.3L255,315.9c-0.9,2.6-2.5,3.8-4.9,3.8c-2.4,0-4-1.2-4.9-3.7l-32.1-82.4
		c-1-3.1-3.6-5.3-7.9-6.5c-4.3-1.3-6.4-3.6-6.4-7h44.9c0.1,3.3-1.8,5.6-5.8,6.8c-3.9,1.3-5.8,3.2-5.5,5.9l20.6,53l34.5-86.2
		c1.7-4.5,4.3-6.1,7.7-4.8C298.4,196.1,299.5,198.6,298.5,202.3z"/>
	<path fill="#FFFFFF" d="M329.3,306c0,3,2.4,5.2,7.2,6.5c4.8,1.3,7.2,3.7,7.2,7.2h-48.6c0-3.5,2.4-5.9,7.2-7.2
		c4.8-1.3,7.2-3.4,7.2-6.5v-72.1c0-3-2.4-5.2-7.2-6.5c-4.8-1.3-7.2-3.7-7.2-7.2h48.6c0,3.5-2.4,5.9-7.2,7.2
		c-4.8,1.3-7.2,3.4-7.2,6.5V306z M370.5,275h-26c-5.2,0-7.7-1.8-7.7-5.3c0-3.6,2.6-5.3,7.7-5.3h26c1.6,0,2.4-0.8,2.4-2.4v-28
		c0-3-2.4-5.2-7.2-6.5c-4.8-1.3-7.2-3.7-7.2-7.2H407c0,3.5-2.4,5.9-7.2,7.2c-4.8,1.3-7.2,3.4-7.2,6.5V306c0,3,2.4,5.2,7.2,6.5
		c4.8,1.3,7.2,3.7,7.2,7.2h-48.6c0-3.5,2.4-5.9,7.2-7.2c4.8-1.3,7.2-3.4,7.2-6.5v-28.8C372.9,275.7,372.1,275,370.5,275z"/>
	<path fill="#FFFFFF" d="M458.8,267.3c8-1.3,12.1-7.6,12.4-19.1c0-10.6-5.8-16.4-17.5-17.4h-8.3v75.3c0,3,2.4,5.2,7.2,6.5
		c4.8,1.3,7.2,3.7,7.2,7.2h-49.3c0-3.5,2.4-6,7.2-7.3c4.8-1.4,7.2-3.5,7.2-6.4v-73c0-2.4-2.4-4.2-7.2-5.6c-4.8-1.4-7.2-3.8-7.2-7.3
		h44c24.3,0,37.5,9.2,39.6,27.7c0,18.9-11.9,28.7-35.7,29.3c-3.7-0.1-5.6-1.7-5.6-4.9C452.9,268.9,454.9,267.3,458.8,267.3z"/>
</g>
<g>
	<g>
		<path fill="#253143" d="M653.2,322.2c-3.5,0-6-1.9-7.2-5.3l-32.1-82.4l0-0.1c-0.7-2.3-2.8-3.9-6.2-4.9c-6.8-2-8.2-6.2-8.2-9.4
			v-2.5h49.8l0.1,2.4c0.1,3.1-1.1,7.2-7.5,9.3c-3.4,1.1-3.8,2.3-3.8,3l18.1,46.8l32.1-80.3c2.1-5.6,5.5-6.8,7.9-6.8
			c1,0,2,0.2,3.1,0.6c4.2,1.6,5.9,5.4,4.6,10.2l0,0.1l-43.6,113.8C659.2,320.3,656.6,322.2,653.2,322.2z M603.5,322.2
			c-1.9,0-4.6-0.9-6.3-5.2l-33.6-83.9c-0.7-1.8-2.5-3.2-5.2-4.2c-5.6-2.1-6.7-5.9-6.7-8.8v-2.5h47.6v2.5c0,2.8-1.2,6.7-7.1,8.9
			c-1,0.4-3.1,1.3-2.8,2.2l18.6,47.8l3.4-8.7c2.2-5.8,5.6-7.1,8-7.1c1,0,2,0.2,3.1,0.6c2.3,0.9,7.2,3.8,4,12.2l-16.8,41
			c-1.4,3.8-4,4.9-5.9,5.1l-0.1,0H603.5z"/>
		<path fill="#FFFFFF" d="M696.2,194.5c0.7,0,1.4,0.2,2.2,0.5c3,1.2,4,3.6,3.1,7.3L658,315.9c-0.9,2.6-2.5,3.8-4.9,3.8
			c-2.4,0-4-1.2-4.9-3.7l-32.1-82.4c-1-3.1-3.6-5.3-7.9-6.5c-4.3-1.3-6.4-3.6-6.4-7h44.9c0.1,3.3-1.8,5.6-5.8,6.8
			c-3.9,1.3-5.8,3.2-5.5,5.9l20.6,53l34.5-86.2C692,196.3,693.9,194.5,696.2,194.5 M596.7,220.2c0,3-1.8,5.2-5.5,6.6
			c-3.6,1.4-5.1,3.2-4.3,5.4l21,53.9l5.7-14.7c1.4-3.6,3.3-5.5,5.7-5.5c0.7,0,1.4,0.1,2.2,0.4c3.5,1.3,4.3,4.3,2.5,9l-16.7,40.9
			c-0.8,2.2-2.1,3.3-3.8,3.5c-1.7,0-3-1.2-4-3.6l-33.6-83.9c-1-2.5-3.3-4.3-6.7-5.6c-3.4-1.3-5.1-3.4-5.1-6.4H596.7 M696.2,189.5
			L696.2,189.5c-2.6,0-7.4,1.1-10.2,8.4l-29.8,74.4l-15.4-39.8c0.3-0.2,0.9-0.5,1.8-0.8c6-1.9,9.4-6.2,9.2-11.7l-0.1-4.9h-4.9h-44.9
			h-0.2h-5h-42.6h-5v5c0,3,1.1,8.4,8.4,11.1c2,0.8,3.3,1.7,3.8,2.8l33.6,83.9c2.4,5.9,6.4,6.8,8.6,6.8h0.3l0.3,0
			c2.1-0.2,6-1.4,7.9-6.7l16.3-39.7l15.4,39.5c1.5,4.4,5,7,9.6,7c4.5,0,8-2.6,9.6-7.1L706.2,204l0.1-0.3l0.1-0.3
			c1.6-6.1-0.7-11.1-6.1-13.2C698.9,189.8,697.5,189.5,696.2,189.5L696.2,189.5z M592.2,231.8c0.2-0.1,0.5-0.2,0.8-0.3
			c3-1.1,4.9-2.6,6.2-4.2c1.5,1.9,3.9,3.7,7.7,4.8c3.9,1.1,4.4,2.7,4.5,3.2l0,0.2l0.1,0.1l10,25.6c-0.7-0.2-1.5-0.2-2.2-0.2
			c-2.6,0-7.5,1.1-10.4,8.7l-1,2.7L592.2,231.8L592.2,231.8z"/>
	</g>
	<g>
		<path fill="#253143" d="M720,324.4c-4.5,0-8.8-0.9-12.9-2.7c-4-1.8-7.6-4.4-10.6-7.7c-3-3.3-5.4-7.2-7.1-11.8
			c-1.7-4.5-2.6-9.6-2.6-15.1c0-7,1.4-13.4,4-19c2.7-5.6,6.8-10.4,12.2-14.3c1.4-1,2.9-2,4.6-2.9c1.7-0.9,3.5-1.7,5.4-2.4
			c1.8-0.7,3.8-1.2,5.8-1.6c2-0.4,4.1-0.6,6.1-0.6c5.2,0,9.7,0.9,13.6,2.7c3.8,1.8,7,4.3,9.6,7.3c2.5,3,4.4,6.5,5.5,10.5
			c1.2,3.9,1.8,7.9,1.8,12.2v1l-0.6,0.7c-0.6,0.6-1.3,1.3-2.3,2c-0.9,0.6-1.9,1.3-3,1.8c-1,0.6-2,1.1-3.1,1.6
			c-1.1,0.5-2,0.9-2.9,1.3l-0.4,0.2h-32.7c0.2,2.3,0.6,4.5,1.2,6.6c0.8,2.7,1.9,5,3.3,6.9c1.3,1.8,3,3.3,4.9,4.3
			c1.9,1,4.1,1.5,6.5,1.5c1.4,0,2.8-0.1,4.2-0.2c1.2-0.1,2.6-0.5,4.1-1.1c1.6-0.6,3.4-1.5,5.4-2.5c2-1.1,4.5-2.7,7.3-4.6l1.2-0.8
			l1.3,0.7c0.6,0.3,1.1,0.7,1.8,1.4c0.5,0.5,1,1.1,1.4,1.7c0.4,0.5,0.7,1,1,1.5c0.4,0.5,0.6,0.9,0.7,1.2l0.8,1.6l-1.3,1.3
			c-3.4,3.5-6.6,6.4-9.4,8.6c-2.8,2.3-5.6,4.1-8.2,5.3c-2.7,1.3-5.4,2.2-8.1,2.7C725.9,324.2,723.1,324.4,720,324.4z M732.4,274.4
			c0.1,0,0.2,0,0.3,0c0,0,0-0.1,0-0.1c0-1.3-0.2-2.8-0.5-4.5c-0.3-1.6-0.9-3.2-1.8-4.6c-0.8-1.4-1.9-2.6-3.3-3.5
			c-1.3-0.9-2.8-1.3-4.8-1.3c-1.9,0-3.5,0.3-4.8,1c-1.3,0.7-2.4,1.7-3.4,3c-1,1.4-1.8,3.2-2.4,5.3c-0.4,1.5-0.7,3.1-1,4.8H732.4z"/>
		<path fill="#FFFFFF" d="M724.9,248.9c4.8,0,9,0.8,12.5,2.5c3.5,1.7,6.4,3.9,8.7,6.7c2.3,2.8,4,6,5.1,9.6c1.1,3.6,1.7,7.4,1.7,11.4
			c-0.4,0.5-1.1,1-1.9,1.6c-0.8,0.6-1.7,1.2-2.7,1.7c-1,0.5-2,1.1-3,1.5c-1,0.5-1.9,0.9-2.7,1.2h-34.9c0.1,3.5,0.6,6.8,1.4,9.8
			c0.9,3,2.1,5.5,3.6,7.7c1.6,2.2,3.5,3.8,5.7,5c2.2,1.2,4.8,1.8,7.7,1.8c1.5,0,3-0.1,4.5-0.3c1.4-0.2,3-0.6,4.7-1.2
			c1.7-0.6,3.6-1.5,5.7-2.7c2.1-1.2,4.6-2.7,7.5-4.8c0.3,0.1,0.7,0.4,1.1,0.9c0.4,0.4,0.8,0.9,1.2,1.4c0.4,0.5,0.7,1,1,1.4
			s0.5,0.8,0.6,1c-3.4,3.4-6.4,6.2-9.1,8.4c-2.7,2.2-5.3,3.8-7.8,5.1c-2.5,1.2-5,2-7.4,2.5c-2.5,0.4-5.2,0.7-8.1,0.7
			c-4.2,0-8.1-0.8-11.8-2.5c-3.7-1.7-7-4-9.7-7.1c-2.8-3-5-6.7-6.6-11c-1.6-4.3-2.4-9-2.4-14.2c0-6.7,1.3-12.6,3.8-17.9
			c2.5-5.2,6.3-9.7,11.4-13.4c1.3-0.9,2.7-1.8,4.3-2.7c1.6-0.9,3.3-1.6,5-2.2c1.7-0.6,3.6-1.1,5.4-1.5
			C721.2,249.1,723.1,248.9,724.9,248.9 M707.9,276.9h24.6c1.1,0,1.9-0.2,2.2-0.6c0.4-0.4,0.6-1.1,0.6-2.1c0-1.5-0.2-3.2-0.6-5.1
			c-0.4-1.9-1.1-3.7-2.1-5.4c-1-1.7-2.3-3.1-4-4.3c-1.7-1.2-3.8-1.8-6.3-1.8c-2.3,0-4.3,0.4-6,1.3c-1.7,0.9-3.1,2.2-4.2,3.8
			c-1.2,1.7-2.1,3.7-2.7,6C708.7,271.3,708.2,274,707.9,276.9 M724.9,243.9c-2.2,0-4.4,0.2-6.6,0.6c-2.1,0.4-4.2,1-6.1,1.7
			c-2,0.7-3.9,1.5-5.7,2.5c-1.8,1-3.4,2-4.9,3.1c-5.7,4.2-10.1,9.3-12.9,15.2c-2.9,5.9-4.3,12.6-4.3,20.1c0,5.8,0.9,11.2,2.8,16
			c1.8,4.8,4.4,9.1,7.6,12.6c3.2,3.5,7.1,6.3,11.4,8.3c4.3,2,9,2.9,13.9,2.9c3.2,0,6.3-0.2,9-0.7c2.9-0.5,5.8-1.5,8.7-2.9
			c2.8-1.4,5.7-3.3,8.7-5.6c2.8-2.3,6.1-5.2,9.6-8.8l2.5-2.6l-1.6-3.2c-0.2-0.4-0.5-0.9-0.9-1.5c-0.3-0.5-0.7-1-1.1-1.6
			c-0.5-0.7-1-1.4-1.6-2c-0.8-0.9-1.6-1.5-2.5-1.9l-2.6-1.3l-2.4,1.7c-2.7,1.9-5.1,3.4-7.1,4.5c-1.9,1-3.6,1.8-5.1,2.4
			c-1.3,0.5-2.5,0.8-3.5,0.9c-1.2,0.1-2.5,0.2-3.9,0.2c-2.1,0-3.8-0.4-5.3-1.2c-1.6-0.9-2.9-2-4-3.6c-1.2-1.7-2.2-3.8-2.9-6.2
			c-0.3-1.1-0.6-2.2-0.8-3.4h29.4h0.9l0.8-0.3c0.9-0.4,2-0.8,3.1-1.4c1.1-0.5,2.2-1.1,3.2-1.7c1.1-0.6,2.2-1.3,3.2-2
			c1.2-0.8,2.1-1.6,2.8-2.4l1.3-1.4v-1.9c0-4.5-0.6-8.8-1.9-12.9c-1.3-4.3-3.3-8.1-6-11.3c-2.7-3.3-6.2-6-10.4-8
			C735.4,244.9,730.5,243.9,724.9,243.9L724.9,243.9z M713.7,271.9c0.1-0.6,0.3-1.1,0.4-1.6c0.5-1.8,1.2-3.3,2-4.6
			c0.7-1,1.5-1.7,2.5-2.3c0.9-0.5,2.2-0.7,3.6-0.7c1.5,0,2.6,0.3,3.4,0.9c1.1,0.8,2,1.7,2.6,2.8c0.7,1.2,1.2,2.5,1.5,3.8
			c0.1,0.6,0.2,1.2,0.3,1.7H713.7L713.7,271.9z"/>
	</g>
	<g>
		<path fill="#253143" d="M794.5,324.4c-1.5,0-3.4-0.2-5.6-0.8c-2.1-0.5-4.5-1.2-7-2c-2.5-0.8-5.1-1.9-7.9-3
			c-2.7-1.1-5.5-2.4-8.2-3.8l-1.4-0.7v-87.8c0-2.1-0.1-3.8-0.2-4.9c-0.1-0.9-0.4-1.2-0.5-1.3c-0.3-0.2-0.7-0.4-1.4-0.5
			c-1.1-0.2-2.7-0.4-4.7-0.6l-2.2-0.3v-9.5l2.1-0.4c2.3-0.4,4.5-0.8,6.5-1.1c2-0.4,3.9-0.8,5.7-1.2c1.8-0.5,3.7-1,5.4-1.5
			c1.7-0.5,3.5-1.2,5.3-1.9l1.5-0.6l1.2,1.2c0.2,0.2,0.4,0.4,0.7,0.7c0.3,0.3,0.7,0.6,1,0.9c0.5,0.4,1,0.9,1.5,1.4l0.7,0.7v48
			c1.2-0.8,2.3-1.6,3.4-2.3c2.5-1.5,4.9-2.8,7.2-3.8c2.3-1,4.5-1.7,6.5-2.2c2-0.5,3.9-0.7,5.5-0.7c4,0,7.7,0.9,11,2.7
			c3.2,1.8,6,4.3,8.3,7.5c2.2,3.1,3.9,6.9,5.1,11.3c1.2,4.3,1.7,9.2,1.7,14.5c0,3.1-0.6,6.4-1.7,9.7c-1.1,3.2-2.6,6.4-4.5,9.5
			c-1.9,3.1-4.2,6-6.8,8.7c-2.6,2.7-5.4,5.2-8.4,7.3c-3,2.1-6.3,3.8-9.6,5C801.3,323.8,797.9,324.4,794.5,324.4z M787.1,302.1
			c3.2,1.7,6.1,2.9,8.7,3.6c3.5,1,5.1,1.3,6,1.3c2.1,0,4-0.4,5.5-1.3c1.6-0.9,2.9-2.1,4-3.6c1.1-1.6,1.9-3.5,2.5-5.7
			c0.6-2.3,0.8-4.8,0.8-7.4c0-4.7-0.4-8.7-1.2-12c-0.8-3.2-1.8-5.8-3.2-7.7c-1.2-1.8-2.7-3.2-4.2-4c-1.7-0.8-3.4-1.2-5.2-1.2
			c-0.9,0-2.7,0.3-5.6,1.6c-2.2,1-4.9,2.7-7.9,5.2V302.1z"/>
		<path fill="#FFFFFF" d="M781.3,205.4c0.2,0.2,0.5,0.5,0.8,0.8c0.3,0.3,0.7,0.7,1.1,1c0.4,0.4,0.9,0.8,1.3,1.3v52.1
			c2.5-2.1,4.9-3.9,7.3-5.4c2.4-1.5,4.7-2.7,6.9-3.6c2.2-0.9,4.2-1.6,6-2c1.8-0.4,3.5-0.6,4.9-0.6c3.6,0,6.9,0.8,9.8,2.4
			c2.9,1.6,5.4,3.8,7.4,6.7c2,2.9,3.6,6.4,4.7,10.5c1.1,4.1,1.7,8.7,1.7,13.8c0,2.9-0.5,5.8-1.5,8.9c-1,3.1-2.5,6.1-4.3,9
			c-1.8,2.9-4,5.7-6.5,8.3c-2.5,2.6-5.1,4.9-8,6.9c-2.9,2-5.9,3.6-9,4.7c-3.2,1.2-6.3,1.7-9.5,1.7c-1.3,0-3-0.2-5.1-0.7
			c-2.1-0.5-4.3-1.1-6.7-2c-2.4-0.8-5-1.8-7.7-2.9c-2.7-1.1-5.4-2.4-8-3.7v-86.3c0-2.3-0.1-4-0.3-5.2c-0.2-1.2-0.6-2.1-1.2-2.8
			c-0.6-0.6-1.5-1-2.7-1.2c-1.2-0.2-2.8-0.4-4.8-0.7v-5.2c2.3-0.4,4.5-0.8,6.5-1.1c2-0.4,4-0.8,5.9-1.3c1.9-0.5,3.7-1,5.6-1.5
			C777.7,206.8,779.5,206.2,781.3,205.4 M801.7,309.5c2.6,0,4.8-0.5,6.7-1.6c1.9-1.1,3.5-2.5,4.8-4.4c1.3-1.8,2.2-4,2.8-6.5
			c0.6-2.5,0.9-5.1,0.9-8c0-4.9-0.4-9.1-1.3-12.6c-0.9-3.5-2-6.3-3.5-8.5c-1.5-2.2-3.2-3.8-5.2-4.8c-2-1-4.1-1.5-6.4-1.5
			c-1.7,0-3.9,0.6-6.6,1.8c-2.7,1.2-5.8,3.3-9.4,6.3v33.9c3.9,2.1,7.4,3.6,10.4,4.5C798,309.1,800.3,309.5,801.7,309.5 M782.5,199.5
			l-3.1,1.2c-1.7,0.7-3.4,1.3-5.1,1.8c-1.7,0.5-3.5,1-5.3,1.5c-1.8,0.4-3.6,0.8-5.6,1.2c-2,0.4-4.2,0.7-6.5,1.1l-4.2,0.7v4.2v5.2
			v4.4l4.4,0.5c1.8,0.2,3.3,0.4,4.4,0.6c0.1,0.7,0.2,2.1,0.2,4.3v86.3v3.1l2.8,1.4c2.8,1.4,5.6,2.7,8.3,3.8c2.8,1.2,5.5,2.2,8,3.1
			c2.6,0.9,5,1.6,7.3,2.1c2.5,0.6,4.5,0.8,6.2,0.8c3.7,0,7.5-0.7,11.2-2c3.6-1.3,7-3.1,10.2-5.3c3.1-2.2,6.1-4.7,8.8-7.6
			c2.7-2.9,5.1-5.9,7.1-9.1c2-3.2,3.6-6.6,4.8-10c1.2-3.6,1.8-7.1,1.8-10.5c0-5.5-0.6-10.6-1.8-15.1c-1.3-4.6-3.1-8.7-5.5-12.1
			c-2.5-3.5-5.5-6.3-9.1-8.2c-3.6-2-7.7-3-12.2-3c-1.8,0-3.8,0.2-6,0.8c-2.1,0.5-4.4,1.3-6.9,2.3c-2.3,1-4.7,2.2-7.2,3.7v-42.3v-2.1
			l-1.5-1.5c-0.5-0.5-1-1-1.5-1.5c-0.4-0.3-0.7-0.6-1-0.9c-0.3-0.3-0.5-0.5-0.7-0.6L782.5,199.5L782.5,199.5z M789.6,272.1
			c2.5-1.9,4.6-3.3,6.4-4.1c2.8-1.2,4.1-1.3,4.6-1.3c1.5,0,2.8,0.3,4.1,1c1.2,0.6,2.3,1.6,3.3,3.1c1.1,1.7,2.1,4.1,2.8,6.9
			c0.8,3.1,1.1,6.9,1.1,11.4c0,2.4-0.3,4.7-0.8,6.8c-0.5,1.9-1.2,3.5-2.1,4.8c-0.9,1.2-1.9,2.2-3.1,2.9c-1.2,0.7-2.6,1-4.3,1
			c-0.3,0-1.7-0.1-5.2-1.2c-2-0.6-4.3-1.5-6.9-2.8V272.1L789.6,272.1z"/>
	</g>
	<g>
		<path fill="#253143" d="M899.2,322.2v-9.9l2-0.4c3.1-0.6,5.5-1.3,7-2.1c0.6-0.3,0.9-0.5,1.1-0.6V278H876v31.2
			c0.2,0.1,0.5,0.4,1.1,0.7c0.9,0.5,2.9,1.3,7.1,2.1l2,0.4v9.9h-43.7v-9.9l2-0.4c3.1-0.6,5.5-1.3,7-2.1c0.6-0.3,0.9-0.5,1.1-0.6
			v-71.8c-0.2-0.2-0.5-0.4-1.1-0.7c-0.9-0.5-2.9-1.3-7-2.1l-2-0.4v-9.9h43.7v9.9l-2,0.4c-3.1,0.6-5.5,1.3-7,2.1
			c-0.6,0.3-1,0.5-1.2,0.7v26.7h33.3v-26.7c-0.2-0.2-0.5-0.4-1.1-0.7c-0.9-0.5-2.9-1.3-7-2.1l-2-0.4v-9.9h43.7v9.9l-2,0.4
			c-3.1,0.6-5.5,1.3-7,2.1c-0.6,0.3-1,0.5-1.2,0.7v71.7c0.2,0.1,0.6,0.4,1.1,0.7c1,0.5,3,1.3,7,2.1l2,0.4v9.9H899.2z"/>
		<path fill="#FFFFFF" d="M940.4,226.8v5.4c-3.3,0.7-5.9,1.5-7.6,2.3c-1.7,0.8-2.6,1.6-2.6,2.3v73.1c0,0.6,0.8,1.3,2.4,2.2
			c1.6,0.9,4.2,1.6,7.7,2.3v5.4h-38.7v-5.4c3.3-0.7,5.9-1.4,7.6-2.2c1.7-0.8,2.5-1.6,2.5-2.2v-34.4h-38.3v34.4
			c0,0.6,0.8,1.3,2.4,2.2c1.6,0.9,4.2,1.6,7.8,2.3v5.4H845v-5.4c3.3-0.7,5.9-1.4,7.6-2.2c1.7-0.8,2.5-1.6,2.5-2.2v-73.1
			c0-0.6-0.8-1.3-2.4-2.2c-1.6-0.9-4.2-1.7-7.7-2.4v-5.4h38.7v5.4c-3.3,0.7-5.9,1.5-7.6,2.3c-1.7,0.8-2.6,1.6-2.6,2.3v29.9h38.3
			v-29.9c0-0.6-0.8-1.3-2.4-2.2c-1.6-0.9-4.2-1.7-7.7-2.4v-5.4H940.4 M945.4,221.8h-5h-38.7h-5v5v5.4v4.1l4,0.8
			c3.6,0.7,5.3,1.4,6.1,1.7v22.8h-28.3v-22.8c1-0.4,2.8-1.1,6.2-1.8l4-0.8v-4.1v-5.4v-5h-5H845h-5v5v5.4v4.1l4,0.8
			c3.6,0.7,5.3,1.4,6.1,1.7v68.9c-1,0.4-2.8,1-6.1,1.7l-4,0.8v4.1v5.4v5h5h38.7h5v-5v-5.4v-4.1l-4.1-0.8c-3.6-0.7-5.3-1.3-6.1-1.7
			v-27.2h28.3v27.2c-1,0.4-2.8,1-6.1,1.7l-4,0.8v4.1v5.4v5h5h38.7h5v-5v-5.4v-4.1l-4-0.8c-3.6-0.7-5.3-1.3-6.1-1.7v-68.8
			c1-0.4,2.8-1.1,6.2-1.8l4-0.8v-4.1v-5.4V221.8L945.4,221.8z"/>
	</g>
	<g>
		<path fill="#253143" d="M980.2,324.4c-5.4,0-10.3-1-14.8-2.9c-4.4-1.9-8.3-4.6-11.4-7.9c-3.1-3.3-5.6-7.3-7.3-11.9
			c-1.7-4.5-2.6-9.5-2.6-14.8c0-5.2,1-10.2,2.9-15.1c1.9-4.8,4.6-9.2,8-12.9c3.4-3.8,7.5-6.8,12.3-9.1c4.8-2.3,10.1-3.5,15.7-3.5
			c5.3,0,10.3,1,14.7,2.9c4.4,1.9,8.2,4.6,11.4,7.9c3.1,3.4,5.6,7.4,7.3,11.9c1.7,4.5,2.5,9.5,2.5,14.8c0,3.5-0.5,7-1.4,10.3
			c-0.9,3.3-2.3,6.5-4,9.5c-1.7,3-3.7,5.7-6.1,8.2c-2.3,2.5-5,4.7-7.8,6.6c-2.9,1.8-6,3.3-9.2,4.3
			C987.1,323.9,983.7,324.4,980.2,324.4z M980.9,260.6c-2.5,0-4.6,0.5-6.2,1.6c-1.7,1.1-3,2.6-3.9,4.6c-1.1,2.1-1.8,4.7-2.2,7.7
			c-0.4,3.1-0.7,6.6-0.7,10.2c0,3.6,0.4,7.1,1.3,10.3c0.8,3.1,2,5.9,3.4,8.2c1.4,2.2,2.9,4,4.7,5.2c1.6,1.2,3.3,1.7,5,1.7
			c2.5,0,4.6-0.5,6.1-1.4c1.6-0.9,2.9-2.2,3.9-4c1.1-1.9,1.9-4.3,2.3-7.1c0.5-3,0.7-6.5,0.7-10.4c0-3.7-0.4-7.2-1.2-10.5
			c-0.8-3.3-1.8-6.2-3.2-8.6c-1.3-2.4-2.9-4.2-4.7-5.6C984.6,261.3,982.9,260.6,980.9,260.6z"/>
		<path fill="#FFFFFF" d="M983.1,248.9c5,0,9.6,0.9,13.7,2.7c4.1,1.8,7.6,4.2,10.5,7.3c2.9,3.1,5.2,6.8,6.7,11.1
			c1.6,4.3,2.4,8.9,2.4,13.9c0,3.3-0.4,6.5-1.3,9.7c-0.9,3.1-2.1,6.1-3.7,8.9c-1.6,2.8-3.5,5.4-5.7,7.8c-2.2,2.4-4.7,4.4-7.3,6.2
			c-2.7,1.7-5.6,3.1-8.6,4c-3.1,1-6.2,1.4-9.5,1.4c-5.1,0-9.7-0.9-13.8-2.7s-7.6-4.2-10.5-7.3c-2.9-3.1-5.2-6.8-6.7-11.1
			c-1.6-4.3-2.4-8.9-2.4-13.9c0-4.9,0.9-9.6,2.7-14.2c1.8-4.6,4.3-8.6,7.5-12.2c3.2-3.5,7.1-6.4,11.5-8.5
			C972.9,250,977.7,248.9,983.1,248.9 M982.2,312.7c2.9,0,5.4-0.6,7.4-1.7c2-1.1,3.6-2.8,4.8-4.9c1.2-2.2,2.1-4.8,2.6-8
			c0.5-3.1,0.8-6.8,0.8-10.8c0-3.9-0.4-7.6-1.2-11.1c-0.8-3.5-2-6.6-3.4-9.3c-1.5-2.7-3.3-4.8-5.3-6.4c-2.1-1.6-4.4-2.4-6.9-2.4
			c-3,0-5.6,0.7-7.6,2c-2,1.4-3.6,3.2-4.8,5.6c-1.2,2.4-2,5.2-2.5,8.5c-0.5,3.3-0.7,6.8-0.7,10.6c0,3.9,0.5,7.5,1.4,10.9
			c0.9,3.4,2.1,6.3,3.7,8.8c1.5,2.5,3.3,4.5,5.4,5.9C977.8,312,980,312.7,982.2,312.7 M983.1,243.9c-6,0-11.7,1.2-16.8,3.7
			c-5,2.4-9.4,5.7-13,9.7c-3.6,4-6.5,8.6-8.5,13.7c-2,5.1-3,10.5-3,16c0,5.6,0.9,10.9,2.7,15.7c1.8,4.9,4.4,9.2,7.8,12.7
			c3.4,3.6,7.5,6.4,12.2,8.5c4.7,2,10,3.1,15.8,3.1c3.7,0,7.4-0.6,11-1.7c3.5-1.1,6.8-2.6,9.8-4.6c3-1.9,5.8-4.3,8.3-7
			c2.5-2.7,4.6-5.6,6.4-8.7c1.8-3.1,3.2-6.5,4.2-10c1-3.6,1.5-7.3,1.5-11c0-5.6-0.9-10.8-2.7-15.7c-1.8-4.9-4.4-9.2-7.8-12.8
			c-3.4-3.6-7.5-6.5-12.2-8.5C994,245,988.7,243.9,983.1,243.9L983.1,243.9z M982.2,307.7c-1.2,0-2.4-0.4-3.6-1.3
			c-1.5-1.1-2.8-2.6-4-4.5c-1.3-2.1-2.3-4.6-3.1-7.5c-0.8-3-1.2-6.2-1.2-9.6c0-3.5,0.2-6.9,0.6-9.9c0.4-2.7,1.1-5.1,2-7
			c0.8-1.6,1.8-2.8,3.1-3.7c1.2-0.8,2.8-1.2,4.8-1.2c1.4,0,2.7,0.4,3.9,1.4c1.5,1.1,2.8,2.8,4,4.8c1.2,2.3,2.2,5,2.9,8
			c0.7,3.1,1.1,6.5,1.1,10c0,3.8-0.2,7.2-0.7,10c-0.4,2.5-1.1,4.7-2,6.3c-0.8,1.4-1.7,2.4-2.9,3.1
			C985.9,307.4,984.3,307.7,982.2,307.7L982.2,307.7z"/>
	</g>
	<g>
		<path fill="#253143" d="M1049.6,324.4c-1.7,0-3.5-0.1-5.4-0.3c-1.9-0.2-3.9-0.6-5.9-1c-2-0.5-4-1.1-6-1.8c-2-0.7-3.8-1.6-5.5-2.5
			c-1.6-0.8-1.9-2.7-2.1-4.6c-0.2-1.7-0.3-3.7-0.2-6c0-2.2,0.2-4.6,0.4-7.1c0.2-2.5,0.6-4.8,1.1-6.8l0.6-2.1l9.9,1.3l0.3,1.8
			c0.4,2.3,1.2,4.5,2.2,6.4c1,1.9,2.2,3.5,3.6,4.7c1.3,1.3,2.9,2.3,4.5,2.9c1.6,0.7,3.3,1,5.1,1c2.9,0,5.1-0.5,6.4-1.4
			c0.4-0.3,1.6-1.2,1.6-4.3c0-1.5-0.4-2.8-1.1-4c-0.9-1.3-2-2.6-3.5-3.7c-1.6-1.2-3.3-2.4-5.3-3.5c-2.1-1.2-4.3-2.3-6.5-3.5
			c-2.1-1-4.2-2.2-6.3-3.5c-2.2-1.3-4.2-2.9-5.9-4.5c-1.8-1.7-3.3-3.6-4.4-5.7c-1.2-2.2-1.9-4.8-1.9-7.5c0-3.5,0.9-6.7,2.6-9.5
			c1.7-2.7,3.9-5.1,6.6-6.9c2.7-1.8,5.7-3.3,9.1-4.3c3.4-1,6.9-1.5,10.4-1.5c2.2,0,4.5,0.1,6.7,0.4c2.2,0.3,4.4,0.7,6.4,1.2
			c2.1,0.5,4,1.2,5.8,1.9c1.9,0.8,3.5,1.7,4.8,2.7c1.4,1.1,1.3,3,1.1,4.7c-0.2,1.5-0.5,3.2-1,5.1c-0.5,1.8-1.1,3.6-1.7,5.4
			c-0.7,1.9-1.4,3.3-2.2,4.3l-0.9,1.1l-8.2-0.9l-0.5-1.6c-1.1-3.9-2.7-6.9-4.7-8.8c-1.8-1.8-4-2.7-6.6-2.7c-2.3,0-4.1,0.5-5.3,1.4
			c-1,0.9-1.5,1.9-1.5,3.2c0,1.1,0.3,2,0.8,2.9c0.6,1,1.5,1.9,2.7,2.8c1.3,1,3,2,5,3.1l7,3.7c2.1,1.1,4.3,2.3,6.5,3.5
			c2.3,1.3,4.4,2.9,6.3,4.6c1.9,1.8,3.5,3.8,4.7,6.1c1.3,2.4,1.9,5.2,1.9,8.4c0,3.8-0.6,7.2-1.8,9.9c-1.2,2.8-2.7,5.1-4.6,7.1
			c-1.9,1.9-4,3.5-6.4,4.6c-2.3,1.1-4.6,2-6.9,2.5c-2.3,0.6-4.5,1-6.7,1.1C1052.8,324.3,1051,324.4,1049.6,324.4z"/>
		<path fill="#FFFFFF" d="M1054,248.9c2.1,0,4.2,0.1,6.4,0.4c2.1,0.3,4.2,0.7,6.2,1.1c2,0.5,3.8,1.1,5.5,1.8
			c1.7,0.7,3.1,1.5,4.2,2.4c0.3,0.2,0.4,1.1,0.2,2.5c-0.2,1.4-0.5,3-1,4.7c-0.5,1.7-1,3.5-1.7,5.1c-0.6,1.7-1.3,2.9-1.8,3.7
			l-5.1-0.6c-1.2-4.3-3-7.6-5.3-9.9c-2.3-2.3-5.1-3.4-8.3-3.4c-2.9,0-5.2,0.7-6.9,2c-1.6,1.4-2.4,3.1-2.4,5.1c0,1.6,0.4,3,1.2,4.2
			c0.8,1.2,1.9,2.4,3.4,3.5c1.4,1.1,3.2,2.2,5.3,3.3c2.1,1.1,4.4,2.3,7,3.7c2.1,1.1,4.3,2.2,6.4,3.5c2.2,1.2,4.1,2.6,5.8,4.2
			c1.7,1.6,3.1,3.4,4.2,5.5c1.1,2,1.6,4.4,1.6,7.2c0,3.5-0.5,6.5-1.6,9c-1.1,2.5-2.4,4.6-4.1,6.3c-1.7,1.7-3.6,3.1-5.7,4.1
			s-4.3,1.8-6.5,2.4c-2.2,0.5-4.3,0.9-6.3,1.1c-2,0.2-3.7,0.3-5.1,0.3c-1.6,0-3.3-0.1-5.1-0.3c-1.8-0.2-3.7-0.6-5.6-1
			c-1.9-0.4-3.8-1-5.7-1.7c-1.9-0.7-3.6-1.5-5.3-2.4c-0.3-0.1-0.6-1-0.8-2.6c-0.2-1.6-0.2-3.5-0.2-5.7c0-2.2,0.2-4.5,0.4-6.9
			c0.2-2.4,0.6-4.5,1.1-6.3l6,0.8c0.5,2.6,1.3,5,2.4,7.1c1.1,2.1,2.5,3.9,4.1,5.4c1.6,1.5,3.3,2.6,5.3,3.4c1.9,0.8,4,1.2,6.1,1.2
			c3.5,0,6.2-0.6,7.9-1.9c1.7-1.3,2.6-3.4,2.6-6.3c0-2-0.5-3.7-1.5-5.3c-1-1.6-2.3-3-4-4.3c-1.7-1.3-3.6-2.6-5.7-3.7
			c-2.1-1.2-4.3-2.3-6.6-3.5c-2.1-1-4.1-2.2-6.2-3.4c-2-1.3-3.9-2.7-5.5-4.2c-1.6-1.5-2.9-3.3-4-5.1c-1-1.9-1.5-4-1.5-6.3
			c0-3,0.7-5.8,2.2-8.2c1.5-2.4,3.5-4.5,5.9-6.2c2.5-1.7,5.3-3,8.4-3.9C1047.4,249.4,1050.6,248.9,1054,248.9 M1054,243.9
			c-3.8,0-7.5,0.5-11.1,1.6c-3.6,1.1-7,2.6-9.9,4.6c-3,2.1-5.5,4.7-7.4,7.7c-2,3.2-3,6.9-3,10.8c0,3.2,0.7,6.2,2.2,8.8
			c1.3,2.3,2.9,4.4,4.9,6.3c1.9,1.8,4,3.4,6.3,4.8c2.1,1.3,4.3,2.5,6.5,3.6c2.2,1.1,4.4,2.3,6.4,3.4c1.9,1,3.5,2.1,5,3.3
			c1.2,1,2.2,2,2.9,3.1c0.5,0.8,0.7,1.6,0.7,2.6c0,1.2-0.2,2.1-0.6,2.3c-0.3,0.2-1.5,0.9-4.9,0.9c-1.5,0-2.8-0.3-4.2-0.8
			c-1.4-0.6-2.6-1.4-3.8-2.5c-1.2-1.1-2.2-2.5-3.1-4.1c-0.9-1.7-1.5-3.6-1.9-5.6l-0.7-3.5l-3.6-0.5l-6-0.8l-4.4-0.6l-1.1,4.2
			c-0.6,2.1-1,4.5-1.2,7.2c-0.2,2.5-0.4,5-0.4,7.3c-0.1,2.5,0,4.5,0.2,6.4c0.2,1.7,0.5,5.1,3.5,6.5c1.8,1,3.8,1.9,5.8,2.6
			c2.1,0.8,4.2,1.4,6.3,1.9c2.1,0.5,4.2,0.8,6.2,1.1c2,0.2,4,0.4,5.7,0.4c1.6,0,3.4-0.1,5.6-0.3c2.2-0.2,4.6-0.6,7-1.2
			c2.5-0.6,5-1.5,7.4-2.7c2.6-1.3,5-3,7.1-5.1c2.1-2.2,3.9-4.8,5.2-7.9c1.3-3.1,2-6.8,2-10.9c0-3.6-0.7-6.8-2.2-9.5
			c-1.3-2.5-3.1-4.8-5.2-6.8c-2-1.9-4.3-3.5-6.8-4.9c-1.7-1-3.5-1.9-5.2-2.8l1.8,0.2l5.1,0.6l2.9,0.3l1.7-2.3
			c0.9-1.2,1.7-2.8,2.5-4.9c0.7-1.8,1.3-3.7,1.8-5.6c0.5-2,0.9-3.8,1.1-5.4c0.2-1.4,0.6-4.8-1.9-6.9l-0.1-0.1l-0.1,0
			c-1.5-1.2-3.3-2.2-5.4-3c-1.9-0.8-4-1.4-6.2-2c-2.2-0.5-4.4-1-6.7-1.3C1058.6,244.1,1056.3,243.9,1054,243.9L1054,243.9z
			 M1062.7,273.9c-2.3-1.2-4.3-2.3-6.2-3.3l-0.5-0.3c-1.9-1-3.4-1.9-4.7-2.9c-1-0.7-1.7-1.4-2.1-2.2c-0.2-0.3-0.4-0.7-0.4-1.5
			c0-0.5,0.1-0.8,0.6-1.3c0.7-0.6,2-0.9,3.7-0.9c1.9,0,3.4,0.6,4.8,2c1.7,1.7,3,4.3,4,7.7L1062.7,273.9L1062.7,273.9z"/>
	</g>
	<g>
		<path fill="#253143" d="M1111.4,324.4c-2.4,0-4.8-0.5-7-1.4c-2.2-1-4.2-2.4-5.9-4.4c-1.6-1.9-2.9-4.3-3.8-7.1
			c-0.9-2.8-1.4-6-1.4-9.7v-38.9h-7.6l-4.2-5.2l7.9-9h3.9v-14.2l17.5-12.9l5.2,4.5v22.6h21l4.7,4.7l-0.9,1.6
			c-0.5,0.9-1.1,1.9-1.9,2.9c-0.7,0.9-1.4,1.8-2.1,2.7c-0.7,0.9-1.5,1.8-2.2,2.5c-0.8,0.8-1.5,1.4-2.1,1.9l-1.2,0.9l-1.3-0.7
			c-0.5-0.2-1.1-0.5-1.9-0.7c-0.8-0.3-1.8-0.5-2.9-0.8c-1-0.2-2.1-0.4-3.3-0.6c-1.2-0.1-2.4-0.2-3.6-0.2h-2.4v32
			c0,2.4,0.1,4.4,0.4,6c0.2,1.5,0.6,2.6,1,3.4c0.3,0.6,0.7,1.1,1.1,1.3c0.4,0.2,0.8,0.3,1.2,0.3c0.7,0,1.5-0.1,2.3-0.2
			c0.8-0.2,1.8-0.4,3-0.8c1.1-0.4,2.4-0.9,3.9-1.5c1.5-0.7,3.3-1.6,5.3-2.7l2.1-1.2l5.7,9.4l-1.9,1.3c-6.6,4.8-12.3,8.3-17,10.6
			C1118.3,323.3,1114.4,324.4,1111.4,324.4z"/>
		<path fill="#FFFFFF" d="M1110.8,224.7l2.8,2.4v24h22.5l2.7,2.7c-0.4,0.8-1,1.7-1.7,2.6c-0.7,0.9-1.3,1.8-2,2.7
			c-0.7,0.9-1.4,1.6-2,2.3c-0.7,0.7-1.2,1.2-1.7,1.5c-0.6-0.3-1.3-0.6-2.2-0.9c-0.9-0.3-1.9-0.6-3.1-0.8c-1.1-0.3-2.3-0.5-3.6-0.6
			c-1.3-0.1-2.5-0.2-3.9-0.2h-4.9v34.5c0,2.5,0.1,4.6,0.4,6.4c0.3,1.7,0.7,3.1,1.3,4.2c0.6,1.1,1.2,1.8,2,2.3
			c0.8,0.5,1.6,0.7,2.5,0.7c0.9,0,1.8-0.1,2.8-0.3c1-0.2,2.1-0.5,3.3-0.8c1.2-0.4,2.6-0.9,4.2-1.7c1.5-0.7,3.4-1.6,5.4-2.8l3.2,5.4
			c-6.5,4.7-12.1,8.2-16.6,10.4s-8.1,3.3-10.7,3.3c-2.1,0-4.1-0.4-6-1.2c-1.9-0.8-3.5-2.1-4.9-3.7c-1.4-1.7-2.5-3.8-3.4-6.3
			c-0.8-2.5-1.3-5.5-1.3-9v-41.4h-8.9l-2.1-2.7l5.8-6.6h5.3v-15.4L1110.8,224.7 M1111,218.3l-3.2,2.4l-14.9,11l-2,1.5v2.5v10.4h-0.3
			h-2.3l-1.5,1.7l-5.8,6.6l-2.8,3.2l2.6,3.3l2.1,2.7l1.5,1.9h2.4h3.9v36.4c0,4,0.5,7.5,1.5,10.5c1,3.1,2.5,5.8,4.3,7.9
			c1.9,2.3,4.2,4,6.8,5.1c2.5,1.1,5.2,1.6,8,1.6c3.4,0,7.6-1.2,12.9-3.8c4.8-2.3,10.5-5.9,17.3-10.8l3.7-2.7l-2.4-3.9l-3.2-5.4
			l-2.5-4.1l-4.2,2.3c-2,1.1-3.7,1.9-5.1,2.6c-1.4,0.6-2.6,1.1-3.6,1.4c-1,0.3-1.9,0.6-2.6,0.7c-0.6,0.1-1.2,0.2-1.8,0.2
			c-0.1-0.1-0.1-0.2-0.2-0.3c-0.2-0.3-0.5-1.1-0.8-2.7c-0.2-1.5-0.4-3.3-0.4-5.5v-29.5c1.1,0,2.2,0.1,3.2,0.2c1,0.1,2.1,0.3,3,0.5
			c1,0.2,1.9,0.5,2.7,0.7c0.8,0.3,1.3,0.5,1.6,0.6l2.7,1.3l2.4-1.7c0.8-0.5,1.6-1.2,2.5-2.2c0.8-0.8,1.6-1.7,2.3-2.7
			c0.7-0.9,1.5-1.9,2.2-2.8c0.8-1.1,1.5-2.2,2-3.2l1.7-3.3l-2.6-2.6l-2.7-2.7l-1.5-1.5h-2.1h-17.5v-19v-2.3l-1.7-1.5l-2.8-2.4
			L1111,218.3L1111,218.3z"/>
	</g>
	<g>
		<path fill="#253143" d="M1142.5,322.2v-9.9l2-0.4c3.9-0.8,5.8-1.5,6.7-2c0.5-0.3,0.8-0.5,1-0.6v-37.3c0-2.5,0-4.5-0.1-6
			c0-1.4-0.3-2.1-0.5-2.3c-0.3-0.4-1-0.7-1.5-0.9c-1.2-0.3-3-0.6-5.4-0.9l-2.3-0.2v-9.6l2.2-0.3c4.1-0.6,8.1-1.3,11.8-2.1
			c3.7-0.8,7.2-1.9,10.4-3l0.4-0.2h7.7v62.8c0.2,0.1,0.5,0.4,1,0.6c0.8,0.5,2.7,1.2,6.8,2l2,0.4v9.9H1142.5z M1162.8,240.4
			c-1.6,0-3.1-0.2-4.5-0.6c-1.5-0.4-2.9-1.1-4.1-1.9c-1.2-0.9-2.2-2-2.9-3.4c-0.7-1.4-1.1-3-1.1-4.8c0-2,0.4-3.9,1.2-5.6
			c0.8-1.7,1.9-3.2,3.2-4.3c1.3-1.2,2.9-2.1,4.7-2.7c1.8-0.6,3.7-1,5.7-1c1.5,0,3,0.2,4.5,0.6c1.5,0.4,2.9,1,4.1,1.9
			c1.2,0.9,2.2,2,3,3.3c0.8,1.4,1.2,3,1.2,4.9c0,2-0.4,3.9-1.2,5.6c-0.8,1.7-1.9,3.1-3.2,4.4c-1.3,1.2-2.9,2.1-4.7,2.8
			C1166.8,240.1,1164.9,240.4,1162.8,240.4z"/>
		<path fill="#FFFFFF" d="M1165,218.6c1.3,0,2.6,0.2,3.8,0.5c1.2,0.3,2.3,0.8,3.2,1.5c0.9,0.7,1.7,1.5,2.2,2.5
			c0.6,1,0.8,2.2,0.8,3.6c0,1.7-0.3,3.2-1,4.6c-0.6,1.4-1.5,2.6-2.6,3.5c-1.1,1-2.4,1.7-3.9,2.3c-1.5,0.5-3.1,0.8-4.9,0.8
			c-1.4,0-2.7-0.2-3.9-0.5c-1.2-0.3-2.3-0.8-3.2-1.5c-0.9-0.7-1.6-1.5-2.2-2.5c-0.5-1-0.8-2.2-0.8-3.6c0-1.7,0.3-3.2,1-4.6
			c0.6-1.4,1.5-2.5,2.6-3.5c1.1-1,2.4-1.7,3.9-2.2C1161.7,218.9,1163.3,218.6,1165,218.6 M1172.4,248.9v60.9c0,0.6,0.7,1.3,2.2,2.2
			c1.5,0.9,4,1.6,7.6,2.3v5.4H1145v-5.4c3.3-0.7,5.8-1.4,7.4-2.2c1.6-0.8,2.4-1.6,2.4-2.2v-37.9c0-2.5,0-4.5-0.1-6.1
			c0-1.5-0.4-2.8-0.9-3.6c-0.6-0.9-1.5-1.5-2.8-1.9c-1.3-0.4-3.3-0.7-5.9-1v-5.2c4.2-0.6,8.2-1.3,12-2.2c3.8-0.9,7.3-1.9,10.7-3.1
			H1172.4 M1165,213.6c-2.3,0-4.5,0.4-6.5,1.1c-2.1,0.7-3.9,1.8-5.5,3.2c-1.6,1.4-2.9,3.2-3.9,5.2c-0.9,2-1.4,4.3-1.4,6.7
			c0,2.3,0.5,4.3,1.4,6c0.9,1.6,2.1,3,3.6,4.2c1.4,1.1,3.1,1.9,5,2.4c1.6,0.4,3.4,0.6,5.2,0.6c2.3,0,4.6-0.4,6.6-1.1
			c2.1-0.8,4-1.8,5.5-3.3c1.6-1.4,2.9-3.2,3.8-5.2c0.9-2,1.4-4.3,1.4-6.7c0-2.3-0.5-4.3-1.5-6.1c-0.9-1.7-2.2-3-3.7-4.1
			c-1.4-1-3.1-1.8-4.9-2.2C1168.5,213.8,1166.8,213.6,1165,213.6L1165,213.6z M1177.4,243.9h-5h-4.7h-0.9l-0.8,0.3
			c-3.1,1.2-6.5,2.1-10.1,3c-3.6,0.8-7.5,1.5-11.6,2.1l-4.3,0.6v4.4v5.2v4.5l4.5,0.4c2.8,0.3,4.3,0.6,4.9,0.8c0,0,0.1,0,0.1,0
			c0,0.2,0.1,0.4,0.1,0.8c0,1.5,0.1,3.5,0.1,5.9v35.9c-0.8,0.4-2.5,1-5.7,1.6l-4,0.8v4.1v5.4v5h5h37.2h5v-5v-5.4v-4.1l-4.1-0.8
			c-3.5-0.7-5.1-1.3-5.7-1.6v-58.9V243.9L1177.4,243.9z"/>
	</g>
	<g>
		<path fill="#253143" d="M1232,322.2v-9.8l1.9-0.5c3.4-0.9,5.8-1.7,7.1-2.3c0.4-0.2,0.6-0.3,0.8-0.4v-32.9c0-2.6-0.1-4.7-0.4-6.4
			c-0.2-1.5-0.6-2.7-1-3.5c-0.3-0.6-0.7-1-1.2-1.2c-0.7-0.3-1.5-0.4-2.7-0.4c-1,0-2,0.1-3.2,0.4c-1.2,0.3-2.5,0.8-3.9,1.4
			c-1.5,0.7-3.2,1.7-5,2.9c-1.6,1.1-3.4,2.5-5.4,4.1v35.5c0.2,0.1,0.5,0.3,1.1,0.6c1.5,0.7,3.8,1.4,6.8,2l2,0.4v9.9h-42.2v-9.8
			l1.9-0.5c3.1-0.8,5.5-1.5,7-2.1c0.4-0.2,0.7-0.3,0.9-0.4v-40.4c0-1.8,0-3.3-0.1-4.4c0-0.5-0.2-0.9-0.3-1.1
			c-0.1-0.1-0.4-0.4-1.6-0.7c-1.2-0.3-3.1-0.6-5.5-0.8l-2.2-0.3V252l2.2-0.2c2.3-0.2,4.5-0.5,6.4-0.9c2-0.3,3.9-0.7,5.7-1.1
			c1.8-0.4,3.6-0.9,5.3-1.4c1.7-0.5,3.4-1.1,5.1-1.8l1.5-0.6l4.9,4.9l0.5,6.8c4.6-3.5,8.9-6.2,13-7.9c5.3-2.2,10.1-3.4,14.2-3.4
			c2.4,0,4.7,0.4,6.9,1.1c2.3,0.8,4.4,2.1,6.2,3.8c1.7,1.7,3.2,4,4.2,6.7c1,2.7,1.5,5.9,1.5,9.7v41.5c0.1,0.1,0.3,0.2,0.5,0.3
			c0.7,0.3,1.6,0.7,2.7,1c1.2,0.4,2.8,0.8,4.6,1.3l1.9,0.5v9.8H1232z"/>
		<path fill="#FFFFFF" d="M1245.7,248.9c2.1,0,4.2,0.3,6.1,1c2,0.7,3.7,1.7,5.2,3.2c1.5,1.5,2.7,3.5,3.6,5.9
			c0.9,2.4,1.4,5.3,1.4,8.8v42c0,0.3,0.1,0.7,0.4,1c0.3,0.3,0.8,0.7,1.5,1s1.7,0.7,3,1.1c1.3,0.4,2.9,0.9,4.8,1.4v5.4h-37.2v-5.4
			c3.5-0.9,6-1.7,7.5-2.4c1.5-0.7,2.2-1.4,2.2-2.1v-33.5c0-2.7-0.1-5-0.4-6.7c-0.3-1.8-0.7-3.2-1.3-4.3c-0.6-1.1-1.4-1.8-2.4-2.3
			c-1-0.4-2.2-0.7-3.7-0.7c-1.2,0-2.4,0.2-3.8,0.5c-1.3,0.3-2.8,0.9-4.4,1.6c-1.6,0.8-3.4,1.8-5.3,3.1c-1.9,1.3-4.1,3-6.5,5v37.2
			c0,0.7,0.8,1.5,2.5,2.3c1.7,0.8,4.1,1.5,7.3,2.2v5.4h-37.2v-5.4c3.2-0.8,5.7-1.6,7.3-2.2c1.6-0.7,2.4-1.4,2.4-2.2v-40.9
			c0-1.9,0-3.4-0.1-4.6c-0.1-1.1-0.4-2-1-2.7c-0.6-0.6-1.5-1.1-2.9-1.4s-3.2-0.6-5.8-0.9v-5.2c2.4-0.2,4.6-0.5,6.6-0.9
			c2-0.3,4-0.7,5.9-1.1c1.9-0.4,3.7-0.9,5.5-1.4c1.8-0.5,3.5-1.2,5.3-1.8l3.1,3.1l0.8,10.6c5.8-4.9,11.1-8.4,16.1-10.5
			C1237.4,250,1241.8,248.9,1245.7,248.9 M1213.7,243.1l-3,1.2c-1.6,0.6-3.3,1.2-5,1.7c-1.6,0.5-3.3,1-5.1,1.3
			c-1.8,0.4-3.7,0.8-5.6,1.1c-1.9,0.3-4,0.6-6.3,0.8l-4.5,0.5v4.5v5.2v4.4l4.4,0.5c2.3,0.3,4.1,0.5,5.2,0.8c0,1,0.1,2.2,0.1,3.7
			v38.8c-1.1,0.4-3,1-6,1.8l-3.8,1v3.9v5.4v5h5h37.2h5h3.1h37.2h5v-5v-5.4v-3.9l-3.8-1c-1.8-0.5-3.3-0.9-4.5-1.3
			c-0.7-0.2-1.2-0.4-1.6-0.5v-39.9c0-4-0.6-7.6-1.7-10.5c-1.2-3.1-2.8-5.6-4.8-7.6c-2-2-4.4-3.5-7.1-4.4c-2.5-0.8-5.1-1.3-7.7-1.3
			c-4.5,0-9.6,1.2-15.2,3.6c-3.2,1.3-6.5,3.2-9.9,5.5l-0.1-1.4l-0.1-1.8l-1.3-1.3l-3.1-3.1L1213.7,243.1L1213.7,243.1z
			 M1221.6,274.9c1.5-1.3,3-2.3,4.3-3.2c1.7-1.2,3.3-2.1,4.6-2.8c1.3-0.6,2.4-1,3.4-1.3c0.9-0.2,1.8-0.3,2.6-0.3
			c0.9,0,1.4,0.1,1.6,0.2c0,0,0.1,0.1,0.1,0.1c0.2,0.3,0.5,1.1,0.7,2.7c0.2,1.5,0.3,3.6,0.3,6v31.3c-1,0.4-2.8,1-6,1.8l-2.5,0.7
			l-3.3-0.7c-3.1-0.7-4.9-1.3-5.9-1.7V274.9L1221.6,274.9z"/>
	</g>
	<g>
		<path fill="#253143" d="M1310.6,358.6c-2.6,0-5.4-0.2-8.3-0.5c-2.9-0.3-5.7-0.9-8.5-1.6c-2.8-0.7-5.5-1.6-8-2.8
			c-2.6-1.1-4.9-2.6-6.9-4.2c-2-1.7-3.7-3.6-4.9-5.8c-1.3-2.3-1.9-4.9-1.9-7.6c0-1.5,0.3-3.1,1-4.7c0.6-1.6,1.7-3.2,3.3-4.9
			c1.5-1.6,3.5-3.3,6-5c1.5-1.1,3.3-2.2,5.3-3.4c-3.7-2.2-5.5-4.6-5.5-7.4c0-1,0.3-2,1-3.3c0.6-1.1,1.4-2.3,2.6-3.7
			c1.1-1.3,2.6-2.7,4.4-4.3c0.8-0.7,1.6-1.3,2.5-2c-1.2-0.5-2.3-1.1-3.4-1.7c-2.5-1.5-4.6-3.2-6.4-5.2c-1.8-2-3.2-4.3-4.2-6.9
			c-1-2.5-1.5-5.3-1.5-8.2c0-4,1-7.8,3-11.4c1.9-3.5,4.5-6.6,7.7-9.1c3.2-2.6,6.9-4.6,11-6.1c4.2-1.5,8.6-2.2,13.1-2.2
			c3.6,0,7.1,0.5,10.3,1.5c2.8,0.9,5.4,2.1,7.8,3.5c3.8-0.5,7.2-1.3,10.3-2.2c3.4-1.1,6.1-2,8.1-2.7l1.7-0.6l3.9,5.2l-0.3,1.2
			c-0.2,0.7-0.4,1.4-0.8,2.2c-0.3,0.8-0.7,1.6-1.1,2.3c-0.4,0.8-0.8,1.6-1.2,2.4c-0.5,0.9-1,1.6-1.5,2.3l-0.6,0.8l-1,0.2
			c-1.7,0.3-3.5,0.6-5.2,0.8c-0.7,0.1-1.3,0.1-2,0.2c0.3,0.8,0.6,1.6,0.9,2.4c0.6,2.1,1,4.3,1,6.5c0,4.2-0.9,8.1-2.8,11.5
			c-1.8,3.4-4.3,6.4-7.4,8.8c-3,2.4-6.5,4.3-10.5,5.6c-3.9,1.3-8,2-12.2,2c-1.6,1.5-2.1,2.4-2.3,2.8c-0.2,0.3-0.3,0.6-0.4,0.8
			c0.2,0.1,0.4,0.2,0.8,0.3c1,0.4,2.5,0.8,4.6,1.2c2.2,0.4,5.2,0.9,8.9,1.4c5.8,0.7,10.8,1.7,14.7,2.8c4,1.1,7.3,2.5,9.7,4.1
			c2.6,1.7,4.5,3.8,5.6,6.1c1,2.2,1.6,4.8,1.6,7.5c0,2.7-0.6,5.3-1.8,8c-1.2,2.5-2.8,5-4.8,7.3c-2,2.3-4.3,4.4-7,6.3
			c-2.6,1.9-5.5,3.6-8.6,5c-3.1,1.4-6.3,2.5-9.6,3.3C1317.3,358.2,1314,358.6,1310.6,358.6z M1302.5,323.3c-1.7,1.2-3.1,2.4-4.2,3.3
			c-1.1,1.1-2,2-2.5,2.9c-0.6,0.9-0.8,1.6-0.9,1.9c-0.1,0.6-0.2,1.2-0.2,1.8c0,1,0.4,2.1,1.3,3.1c1,1.2,2.4,2.3,4.2,3.3
			c1.9,1,4.2,1.8,6.9,2.5c2.7,0.6,5.6,0.9,8.8,0.9c2.6,0,4.9-0.3,6.7-0.9c1.8-0.6,3.3-1.4,4.4-2.4c1.1-1,1.9-2.1,2.5-3.3
			c0.6-1.3,0.8-2.6,0.8-3.9c0-0.6-0.1-1.1-0.4-1.7c-0.1-0.3-0.5-0.9-1.7-1.6c-1.1-0.7-2.8-1.4-5-2c-2.3-0.7-5.3-1.3-9-1.7
			c-2.4-0.3-4.7-0.7-6.8-1.1C1305.6,323.9,1304,323.6,1302.5,323.3z M1307.4,259.9c-0.9,0-1.8,0.2-2.8,0.6c-1,0.4-1.8,1.1-2.6,1.9
			c-0.8,0.9-1.5,2.1-2.1,3.5c-0.6,1.4-0.8,3.2-0.8,5.1c0,2.2,0.3,4.4,0.8,6.3c0.5,1.9,1.3,3.5,2.3,4.8c1,1.3,2.3,2.4,3.9,3.2
			c1.6,0.8,3.5,1.2,5.7,1.2c1.1,0,2.1-0.2,3.1-0.6c1-0.4,1.8-1,2.5-1.9c0.8-0.9,1.4-2,1.9-3.4c0.5-1.4,0.7-3.2,0.7-5.2
			c0-2.2-0.3-4.4-0.9-6.3c-0.6-1.9-1.4-3.5-2.5-4.9c-1-1.3-2.4-2.4-3.9-3.2C1311.3,260.3,1309.5,259.9,1307.4,259.9z"/>
		<path fill="#FFFFFF" d="M1349.3,248.9l2.1,2.7c-0.1,0.5-0.4,1.2-0.7,1.9c-0.3,0.7-0.7,1.5-1,2.2c-0.4,0.8-0.8,1.5-1.2,2.3
			c-0.4,0.8-0.8,1.4-1.3,2c-1.7,0.3-3.4,0.5-5.1,0.7c-1.7,0.2-3.6,0.3-5.7,0.4c1,1.7,1.8,3.5,2.4,5.3c0.6,1.8,0.8,3.8,0.8,5.8
			c0,3.8-0.8,7.2-2.5,10.4c-1.7,3.1-3.9,5.8-6.7,8c-2.8,2.2-6,4-9.7,5.2c-3.7,1.3-7.6,1.9-11.7,1.9h-0.7c-1.9,1.7-3.1,3.1-3.6,4.2
			c-0.5,1.1-0.8,1.7-0.8,2c0,0.4,0.1,0.9,0.4,1.3c0.3,0.4,1,0.8,2.1,1.3c1.1,0.4,2.8,0.8,5,1.3c2.2,0.4,5.3,0.9,9.1,1.4
			c5.8,0.7,10.5,1.6,14.3,2.7c3.8,1.1,6.8,2.3,9,3.8c2.2,1.5,3.8,3.2,4.7,5.1c0.9,1.9,1.3,4.1,1.3,6.5c0,2.3-0.5,4.6-1.6,6.9
			c-1.1,2.3-2.5,4.5-4.4,6.7c-1.9,2.1-4.1,4.1-6.6,5.9c-2.5,1.8-5.2,3.4-8.1,4.8c-2.9,1.4-6,2.4-9.1,3.2c-3.2,0.8-6.3,1.1-9.5,1.1
			c-2.6,0-5.2-0.2-8-0.5c-2.8-0.3-5.5-0.8-8.2-1.5c-2.7-0.7-5.2-1.6-7.6-2.6c-2.4-1.1-4.5-2.3-6.3-3.8c-1.8-1.5-3.3-3.2-4.3-5.1
			c-1.1-1.9-1.6-4.1-1.6-6.4c0-1.2,0.3-2.5,0.8-3.8c0.5-1.3,1.5-2.6,2.8-4.1c1.4-1.5,3.3-3,5.6-4.7c2.4-1.7,5.5-3.6,9.3-5.6
			c-5.6-2.3-8.4-4.7-8.4-7.2c0-0.5,0.2-1.3,0.7-2.2c0.5-0.9,1.2-2,2.3-3.2c1.1-1.2,2.4-2.5,4.2-4c1.7-1.5,3.8-3,6.3-4.7
			c-2.8-0.7-5.3-1.8-7.5-3.1c-2.3-1.3-4.2-2.9-5.8-4.7c-1.6-1.8-2.8-3.9-3.7-6.1c-0.9-2.3-1.3-4.7-1.3-7.3c0-3.6,0.9-7,2.7-10.2
			c1.8-3.2,4.1-6,7.1-8.4c2.9-2.4,6.4-4.3,10.3-5.7c3.9-1.4,8-2.1,12.3-2.1c3.4,0,6.6,0.5,9.5,1.4c2.9,0.9,5.6,2.2,8,3.8
			c4.3-0.5,8.1-1.4,11.6-2.4C1344.5,250.6,1347.3,249.7,1349.3,248.9 M1311.9,289.1c1.4,0,2.8-0.3,4.1-0.8c1.3-0.6,2.4-1.4,3.4-2.5
			c1-1.1,1.8-2.5,2.4-4.2c0.6-1.7,0.9-3.7,0.9-6c0-2.5-0.3-4.9-1-7c-0.7-2.2-1.6-4.1-2.9-5.7c-1.3-1.6-2.9-2.9-4.8-3.9
			c-1.9-1-4.1-1.4-6.6-1.4c-1.2,0-2.5,0.3-3.8,0.8c-1.3,0.6-2.4,1.4-3.5,2.5c-1,1.1-1.9,2.6-2.5,4.3c-0.7,1.7-1,3.7-1,6
			c0,2.5,0.3,4.8,0.9,7c0.6,2.2,1.5,4.1,2.8,5.7c1.3,1.6,2.8,2.9,4.8,3.9C1307,288.6,1309.2,289.1,1311.9,289.1 M1315.8,345.5
			c2.9,0,5.4-0.4,7.5-1.1c2.1-0.7,3.9-1.7,5.3-2.9c1.4-1.2,2.4-2.6,3.1-4.2s1-3.2,1-4.9c0-0.9-0.2-1.9-0.7-2.8
			c-0.4-0.9-1.3-1.8-2.7-2.7c-1.3-0.8-3.2-1.6-5.6-2.3c-2.4-0.7-5.6-1.3-9.4-1.8c-2.4-0.3-4.6-0.6-6.6-1c-2.1-0.4-4-0.8-5.8-1.2
			c-2.3,1.6-4,3-5.3,4.2c-1.3,1.2-2.3,2.3-2.9,3.4c-0.6,1-1,1.9-1.2,2.7c-0.2,0.8-0.3,1.6-0.3,2.3c0,1.6,0.6,3.2,1.8,4.7
			c1.2,1.5,2.9,2.8,5,3.9c2.1,1.1,4.6,2,7.5,2.7C1309.3,345.2,1312.5,345.5,1315.8,345.5 M1351,243l-3.5,1.3c-2,0.7-4.6,1.6-8,2.7
			c-2.7,0.8-5.7,1.5-9,2c-2.3-1.4-4.8-2.5-7.6-3.3c-3.4-1.1-7.1-1.6-11-1.6c-4.8,0-9.5,0.8-14,2.4c-4.4,1.6-8.4,3.8-11.7,6.5
			c-3.4,2.8-6.2,6.1-8.3,9.9c-2.2,4-3.3,8.2-3.3,12.6c0,3.2,0.6,6.3,1.7,9.1c1.1,2.8,2.6,5.3,4.6,7.6c1.9,2.2,4.3,4.1,7,5.7
			c0,0,0.1,0,0.1,0.1c-1.7,1.5-3.1,2.9-4.3,4.2c-1.3,1.5-2.3,2.9-3,4.2c-0.9,1.7-1.3,3.1-1.3,4.5c0,3,1.5,5.4,3.5,7.2
			c-0.8,0.5-1.6,1-2.3,1.5c-2.7,1.9-4.8,3.7-6.4,5.4c-1.8,1.9-3.1,3.8-3.8,5.7c-0.8,1.9-1.1,3.8-1.1,5.6c0,3.2,0.8,6.2,2.3,8.9
			c1.4,2.4,3.2,4.6,5.5,6.5c2.2,1.8,4.7,3.3,7.5,4.6c2.6,1.2,5.5,2.1,8.4,2.9c2.9,0.7,5.9,1.3,8.9,1.6c3,0.3,5.8,0.5,8.6,0.5
			c3.5,0,7.1-0.4,10.6-1.3c3.5-0.8,6.9-2,10.1-3.5c3.2-1.5,6.2-3.2,9-5.2c2.8-2,5.3-4.3,7.4-6.7c2.2-2.5,3.9-5.1,5.2-7.9
			c1.4-3,2-6,2-9c0-3.1-0.6-6-1.8-8.6c-1.3-2.8-3.5-5.2-6.5-7.2c-2.7-1.8-6.1-3.2-10.4-4.4c-4-1.1-9.1-2.1-15-2.8
			c-3.7-0.5-6.6-0.9-8.8-1.3c-0.3-0.1-0.7-0.1-0.9-0.2c3.7-0.2,7.3-0.9,10.8-2.1c4.2-1.4,8-3.5,11.2-6.1c3.3-2.7,6-5.9,8-9.6
			c2.1-3.8,3.1-8.1,3.1-12.7c0-2.3-0.3-4.6-0.9-6.7c1.4-0.2,2.9-0.4,4.3-0.7l1.9-0.3l1.2-1.6c0.6-0.8,1.1-1.7,1.7-2.6
			c0.5-0.9,0.9-1.7,1.3-2.5c0.4-0.8,0.8-1.6,1.1-2.4c0.4-1,0.7-1.8,0.9-2.6l0.7-2.4l-1.5-2l-2.1-2.7L1351,243L1351,243z
			 M1311.9,284.1c-1.9,0-3.4-0.3-4.6-0.9c-1.2-0.6-2.2-1.4-3-2.5c-0.9-1.1-1.5-2.4-1.9-4c-0.5-1.8-0.7-3.7-0.7-5.7
			c0-1.7,0.2-3.1,0.7-4.2c0.4-1.1,1-2,1.6-2.7c0.6-0.6,1.2-1.1,1.8-1.3c0.6-0.3,1.2-0.4,1.7-0.4c1.7,0,3.2,0.3,4.3,0.9
			c1.2,0.6,2.3,1.5,3.1,2.5c0.9,1.1,1.6,2.5,2.1,4.1c0.5,1.7,0.8,3.6,0.8,5.6c0,1.7-0.2,3.2-0.6,4.4c-0.4,1.1-0.9,2-1.4,2.6
			c-0.5,0.6-1,1-1.6,1.2C1313.3,284,1312.6,284.1,1311.9,284.1L1311.9,284.1z M1315.8,340.5c-2.9,0-5.7-0.3-8.2-0.9
			c-2.4-0.6-4.5-1.3-6.3-2.2c-1.5-0.8-2.7-1.7-3.4-2.7c-0.7-0.9-0.7-1.4-0.7-1.6c0-0.4,0.1-0.8,0.1-1.3c0,0,0.1-0.4,0.5-1.1
			c0.3-0.4,0.9-1.2,2.1-2.4c0.8-0.7,1.8-1.6,3-2.5c1.2,0.2,2.5,0.5,3.8,0.7c2.2,0.4,4.5,0.8,7,1.1c3.6,0.5,6.5,1,8.6,1.6
			c2.4,0.7,3.7,1.4,4.4,1.8c0.5,0.3,0.8,0.6,0.8,0.6c0.1,0.2,0.1,0.4,0.1,0.6c0,1-0.2,2-0.6,2.9c-0.4,0.9-1,1.7-1.9,2.5
			c-0.9,0.8-2.1,1.4-3.6,1.9C1320.1,340.2,1318.1,340.5,1315.8,340.5L1315.8,340.5z"/>
	</g>
	<g>
		<path fill="#5CA244" d="M1361.2,322.2v-9.9l2-0.4c3.1-0.6,5.5-1.3,7-2.1c0.6-0.3,0.9-0.5,1.1-0.6v-72c-0.8,0.1-1.7,0.2-2.5,0.4
			c-1.7,0.2-3.2,0.5-4.7,0.7l-2.5,0.4l-1.6-11.6l2.2-0.5c2.7-0.6,5.7-1.3,9-1.8c3.3-0.5,6.7-1,10.3-1.4c3.5-0.4,7.2-0.7,10.7-0.9
			c3.6-0.2,7.1-0.3,10.4-0.3c5.9,0,11.3,0.6,16.2,1.8c5,1.2,9.3,3,12.8,5.4c3.7,2.4,6.5,5.5,8.5,9c2,3.6,3,7.8,3,12.4
			c0,3.6-0.5,7.1-1.5,10.1c-1,3.1-2.4,5.9-4.1,8.3c-1.7,2.4-3.7,4.6-6,6.5c-2.2,1.8-4.6,3.4-7.1,4.6c-2.5,1.2-5,2.1-7.6,2.7
			c-2.6,0.6-5,0.9-7.4,0.9c-2.4,0-4.8-0.2-7.1-0.6c-2.4-0.4-4.5-1-6.3-1.8l-1.1-0.5l-0.2-0.8v29c0.2,0.1,0.4,0.2,0.8,0.4
			c0.8,0.3,1.9,0.7,3.4,1c1.6,0.4,3.6,0.8,6.1,1.2l2.1,0.4v10H1361.2z M1395.8,269.2c1.8,0.8,3.4,1.4,4.7,1.6
			c1.4,0.2,2.9,0.4,4.5,0.4c1.8,0,3.6-0.3,5.4-1c1.7-0.6,3.2-1.6,4.6-3c1.4-1.4,2.5-3.2,3.3-5.4c0.9-2.2,1.3-4.9,1.3-8.1
			c0-3.1-0.5-5.9-1.5-8.2c-1-2.3-2.4-4.2-4.2-5.8c-1.8-1.6-4-2.8-6.6-3.6c-2.6-0.8-5.6-1.2-8.9-1.2c-1,0-1.9,0-2.9,0
			c-0.2,0-0.5,0-0.7,0v33.7L1395.8,269.2z"/>
		<path fill="#FFFFFF" d="M1402.6,224.6c5.7,0,10.9,0.6,15.6,1.7c4.7,1.1,8.7,2.8,12.1,5c3.3,2.2,5.9,4.9,7.7,8.2
			c1.8,3.2,2.7,7,2.7,11.2c0,3.4-0.5,6.5-1.4,9.4c-0.9,2.9-2.2,5.4-3.8,7.7c-1.6,2.3-3.4,4.3-5.5,6c-2.1,1.7-4.3,3.1-6.6,4.3
			c-2.3,1.1-4.7,2-7.1,2.5c-2.4,0.6-4.7,0.8-6.8,0.8c-2.3,0-4.5-0.2-6.6-0.6c-2.2-0.4-4.1-0.9-5.8-1.7l-2.3-7.7
			c2,0.9,3.8,1.5,5.3,1.8c1.5,0.3,3.2,0.4,4.9,0.4c2.1,0,4.2-0.4,6.3-1.1c2.1-0.8,3.9-2,5.5-3.6c1.6-1.6,2.9-3.7,3.9-6.2
			c1-2.5,1.5-5.5,1.5-9c0-3.5-0.6-6.6-1.7-9.2c-1.2-2.7-2.8-4.9-4.9-6.7c-2.1-1.8-4.6-3.1-7.5-4.1c-2.9-0.9-6.1-1.4-9.7-1.4
			c-1,0-2,0-3,0c-1,0-2.1,0.1-3.1,0.1v77.3c0,0.3,0.2,0.6,0.5,1c0.3,0.3,0.9,0.7,1.8,1.1c0.9,0.4,2.2,0.8,3.8,1.2
			c1.6,0.4,3.7,0.8,6.3,1.3v5.4h-40.9v-5.4c3.3-0.7,5.9-1.4,7.6-2.2c1.7-0.8,2.5-1.6,2.5-2.2v-75.5c-1.9,0.2-3.6,0.5-5.3,0.7
			c-1.7,0.2-3.3,0.5-4.8,0.7l-1-6.8c2.7-0.6,5.6-1.2,8.8-1.8c3.2-0.5,6.6-1,10.1-1.4c3.5-0.4,7.1-0.7,10.6-0.9
			C1395.9,224.7,1399.3,224.6,1402.6,224.6 M1402.6,219.6c-3.3,0-6.9,0.1-10.5,0.3c-3.6,0.2-7.3,0.5-10.9,0.9
			c-3.6,0.4-7.1,0.9-10.4,1.4c-3.3,0.6-6.4,1.2-9.2,1.8l-4.4,1.1l0.6,4.5l1,6.8l0.7,5.1l5.1-0.8c1.3-0.2,2.7-0.4,4.3-0.7v67.6
			c-1,0.4-2.8,1-6.1,1.7l-4,0.8v4.1v5.4v5h5h40.9h5v-5v-5.4v-4.2l-4.1-0.7c-2.4-0.4-4.4-0.8-5.9-1.2c-1-0.3-1.8-0.5-2.3-0.6v-23
			c1.5,0.5,3,0.9,4.7,1.2c2.4,0.4,4.9,0.6,7.5,0.6c2.5,0,5.2-0.3,8-1c2.7-0.6,5.4-1.6,8.1-2.9c2.7-1.3,5.2-3,7.6-4.9
			c2.4-2,4.6-4.3,6.4-6.9c1.9-2.7,3.4-5.7,4.5-9c1.1-3.3,1.6-7,1.6-10.9c0-5.1-1.1-9.7-3.4-13.7c-2.2-3.9-5.3-7.3-9.3-9.9
			c-3.8-2.5-8.4-4.4-13.6-5.7C1414.3,220.2,1408.6,219.6,1402.6,219.6L1402.6,219.6z M1397.2,237.4c0.4,0,0.8,0,1.1,0
			c3,0,5.8,0.4,8.2,1.1c2.2,0.7,4.2,1.7,5.7,3.1c1.5,1.3,2.7,2.9,3.5,4.9c0.9,2,1.3,4.4,1.3,7.2c0,2.8-0.4,5.3-1.1,7.2
			c-0.7,1.9-1.7,3.4-2.8,4.5c-1.1,1.1-2.3,1.9-3.7,2.4c-1.5,0.6-3,0.8-4.5,0.8c-1.4,0-2.8-0.1-4-0.3c-1-0.2-2.3-0.6-3.7-1.2V237.4
			L1397.2,237.4z"/>
	</g>
	<g>
		<path fill="#5CA244" d="M1493,324.4c-1.9,0-4.6-0.7-6.7-4.3c-0.8-1.4-1.5-3-1.9-4.9c-1.2,1-2.3,1.8-3.5,2.6
			c-2.3,1.6-4.7,2.9-6.9,3.8c-2.2,1-4.4,1.7-6.5,2.1c-2.1,0.4-4,0.6-5.7,0.6c-2.3,0-4.7-0.4-6.9-1.2c-2.3-0.8-4.4-2-6.2-3.6
			c-1.9-1.6-3.4-3.7-4.5-6.1c-1.1-2.5-1.7-5.3-1.7-8.5c0-3.7,0.7-7,2.1-9.7c1.3-2.6,3-4.9,5-6.9c1.3-1.3,2.8-2.5,4.4-3.7
			c1.7-1.2,4-2.4,6.7-3.5c2.7-1.1,6.1-2.1,10.1-3.1c3.5-0.9,7.8-1.7,12.9-2.5v-6.6c0-1.3-0.1-2.6-0.4-3.7c-0.2-0.9-0.6-1.7-1.1-2.4
			c-0.5-0.6-1.1-1.1-2-1.4c-0.9-0.4-2.2-0.6-3.7-0.6c-0.9,0-1.8,0.2-2.7,0.5c-0.9,0.3-1.6,0.8-2.3,1.4c-0.6,0.6-1.1,1.3-1.5,2.1
			c-0.3,0.7-0.4,1.6-0.4,2.6c0.2,1.4-0.7,2.6-2.5,3.6c-0.9,0.5-2.1,1-3.5,1.5c-1.3,0.5-2.8,1-4.4,1.4c-1.6,0.5-3.1,0.9-4.6,1.2
			c-1.5,0.3-2.8,0.6-4,0.8c-0.8,0.1-1.5,0.2-2.1,0.2c-0.5,0-0.8,0-1.2-0.1l-1.3-0.3l-2.4-6.1l0.4-0.9c1.3-3.3,3.4-6.3,6.1-9.1
			c2.7-2.7,5.9-5.1,9.4-7.1c3.6-2,7.5-3.6,11.7-4.7c4.2-1.1,8.5-1.7,12.8-1.7c3.7,0,6.9,0.5,9.6,1.5c2.8,1,5.2,2.5,7,4.3
			c1.9,1.9,3.3,4.1,4.2,6.6c0.9,2.4,1.3,5.1,1.3,7.9v35.5c0,2.3,0.4,3,0.4,3.1c0,0.1,0.1,0.1,0.1,0.1c0.2,0,0.4,0,0.6-0.1
			c0.2,0,0.5-0.1,1-0.2c0.4-0.1,1-0.3,1.6-0.6c0.7-0.3,1.5-0.6,2.5-1l2.6-1l2.9,9.9l-1.5,1c-2.1,1.5-4.3,2.9-6.6,4.2
			c-2.3,1.3-4.5,2.5-6.5,3.4c-2.1,1-4,1.8-5.8,2.4C1495.6,324.1,1494.1,324.4,1493,324.4z M1483.5,288c-1.7,0.3-3.1,0.6-4.4,0.9
			c-1.9,0.4-3.5,0.9-4.8,1.4c-1.2,0.4-2.2,0.9-2.9,1.3c-0.7,0.4-1.3,0.9-1.8,1.4c-1.1,1.1-2,2.3-2.7,3.5c-0.6,1.1-0.9,2.5-0.9,4.1
			c0,1.3,0.2,2.4,0.5,3.1c0.3,0.7,0.7,1.3,1.1,1.7c0.4,0.4,0.9,0.7,1.3,0.8c0.5,0.2,1,0.3,1.4,0.3c0.8,0,1.6-0.1,2.4-0.3
			c0.9-0.2,1.8-0.5,2.9-1c1.1-0.5,2.4-1.2,3.8-2.2c1.2-0.8,2.5-1.8,3.9-3V288z"/>
		<path fill="#FFFFFF" d="M1484.1,248.9c3.4,0,6.3,0.4,8.8,1.3c2.5,0.9,4.5,2.1,6.1,3.7c1.6,1.6,2.8,3.5,3.6,5.6s1.2,4.5,1.2,7v35.5
			c0,2.1,0.3,3.5,0.8,4.4c0.5,0.9,1.3,1.3,2.1,1.3c0.3,0,0.7,0,1.1-0.1c0.4,0,0.8-0.1,1.3-0.3c0.5-0.1,1.1-0.4,1.8-0.6
			c0.7-0.3,1.5-0.6,2.5-1l1.6,5.5c-2.1,1.4-4.2,2.8-6.5,4.1c-2.2,1.3-4.4,2.4-6.3,3.4c-2,1-3.8,1.7-5.5,2.2
			c-1.6,0.5-2.9,0.8-3.8,0.8c-1.8,0-3.4-1-4.6-3.1c-1.3-2.1-2-4.9-2.2-8.6c-2.2,2.2-4.4,4.1-6.7,5.6c-2.2,1.5-4.4,2.7-6.5,3.6
			c-2.1,0.9-4.1,1.6-6,2c-1.9,0.4-3.7,0.6-5.2,0.6c-2.1,0-4.1-0.4-6.1-1.1c-2-0.7-3.8-1.8-5.4-3.2c-1.6-1.4-2.9-3.2-3.9-5.3
			c-1-2.1-1.5-4.6-1.5-7.5c0-3.3,0.6-6.2,1.8-8.5c1.2-2.3,2.7-4.4,4.5-6.2c1.2-1.2,2.5-2.3,4.1-3.4c1.5-1.1,3.6-2.2,6.2-3.2
			c2.6-1,5.8-2,9.7-3c3.9-1,8.8-1.9,14.8-2.8v-8.7c0-1.5-0.1-2.9-0.4-4.2c-0.3-1.3-0.8-2.4-1.5-3.4c-0.7-0.9-1.7-1.7-2.9-2.2
			c-1.2-0.5-2.8-0.8-4.6-0.8c-1.2,0-2.4,0.2-3.5,0.7c-1.2,0.4-2.2,1.1-3.1,1.9c-0.9,0.8-1.6,1.8-2.1,2.9c-0.5,1.2-0.7,2.5-0.6,3.9
			c0,0.3-0.3,0.7-1.2,1.1c-0.8,0.4-1.9,0.9-3.2,1.4c-1.3,0.5-2.7,0.9-4.2,1.4c-1.5,0.5-3,0.9-4.5,1.2c-1.4,0.3-2.7,0.6-3.8,0.7
			c-0.7,0.1-1.3,0.2-1.7,0.2c-0.2,0-0.4,0-0.6-0.1l-1.5-4c1.2-2.9,3-5.7,5.6-8.2c2.5-2.5,5.5-4.7,8.9-6.6c3.4-1.9,7.1-3.4,11.1-4.5
			C1476,249.5,1480,248.9,1484.1,248.9 M1470.5,309c0.9,0,1.9-0.1,2.9-0.3c1-0.2,2.2-0.6,3.4-1.2c1.3-0.6,2.6-1.4,4.1-2.4
			c1.5-1,3.2-2.3,5-3.9V285c-2.9,0.5-5.4,1-7.4,1.4c-2,0.5-3.7,0.9-5.1,1.4c-1.4,0.5-2.5,1-3.4,1.5c-0.9,0.5-1.6,1.1-2.2,1.8
			c-1.3,1.3-2.3,2.7-3.1,4.1s-1.2,3.2-1.2,5.3c0,1.7,0.2,3,0.7,4.1c0.5,1.1,1.1,1.9,1.8,2.6c0.7,0.6,1.5,1.1,2.2,1.3
			C1469.1,308.9,1469.8,309,1470.5,309 M1484.1,243.9c-4.5,0-9,0.6-13.4,1.8c-4.4,1.2-8.5,2.8-12.2,4.9c-3.8,2.1-7.1,4.6-10,7.5
			c-3,3-5.2,6.3-6.7,9.9l-0.7,1.8l0.7,1.8l1.5,4l0.9,2.4l2.5,0.6c0.5,0.1,1.1,0.2,1.8,0.2c0.7,0,1.5-0.1,2.5-0.2
			c1.2-0.2,2.7-0.5,4.2-0.8c1.5-0.3,3.2-0.8,4.8-1.3c1.6-0.5,3.2-1,4.5-1.5c1.5-0.5,2.7-1.1,3.8-1.6c3.6-1.9,4-4.5,3.8-6.1
			c0-0.6,0-1,0.1-1.3c0.2-0.5,0.5-1,0.9-1.3c0.4-0.4,0.9-0.7,1.5-0.9c0.6-0.2,1.2-0.3,1.8-0.3c1.6,0,2.4,0.2,2.7,0.4
			c0.4,0.2,0.8,0.4,1,0.7c0.3,0.3,0.5,0.8,0.6,1.4c0.2,0.9,0.3,2,0.3,3.1v4.4c-4.2,0.7-7.9,1.4-11,2.2c-4.1,1-7.6,2.1-10.4,3.2
			c-3,1.2-5.3,2.4-7.2,3.8c-1.8,1.3-3.4,2.6-4.7,4c-2.2,2.2-4,4.7-5.4,7.5c-1.6,3-2.4,6.7-2.4,10.8c0,3.6,0.7,6.8,1.9,9.6
			c1.3,2.8,3,5.1,5.1,7c2.1,1.8,4.4,3.2,7,4.1c2.5,0.9,5.1,1.4,7.8,1.4c1.9,0,4-0.2,6.2-0.7c2.2-0.5,4.6-1.2,7-2.3
			c2.4-1,4.8-2.4,7.3-4c0.3-0.2,0.5-0.4,0.8-0.6c0.3,0.7,0.7,1.4,1.1,2.1c2.9,4.8,6.8,5.5,8.9,5.5c1.5,0,3.2-0.3,5.4-1.1
			c1.8-0.6,3.9-1.4,6.1-2.5c2.1-1,4.3-2.2,6.7-3.5c2.3-1.3,4.6-2.8,6.8-4.3l3-2.1l-1-3.5l-1.6-5.5l-1.5-5.3l-5.1,2
			c-1,0.4-1.8,0.7-2.5,1c-0.1,0-0.2,0.1-0.3,0.1c0-0.1,0-0.1,0-0.2v-35.5c0-3.1-0.5-6-1.5-8.7c-1-2.8-2.6-5.4-4.7-7.5
			c-2.1-2.1-4.8-3.8-7.9-4.9C1491.6,244.5,1488.1,243.9,1484.1,243.9L1484.1,243.9z M1470.5,304c0,0-0.2,0-0.6-0.1
			c-0.1,0-0.2-0.1-0.4-0.3c-0.1-0.1-0.3-0.3-0.5-0.8c-0.1-0.2-0.3-0.8-0.3-2.1c0-1.2,0.2-2.2,0.6-3c0.5-1,1.3-2,2.2-2.9
			c0.4-0.4,0.8-0.7,1.4-1.1c0.4-0.2,1.1-0.6,2.4-1.1c1.2-0.4,2.7-0.9,4.5-1.3c0.4-0.1,0.9-0.2,1.3-0.3v7.9c-1,0.8-2,1.5-2.8,2.1
			c-1.3,0.8-2.4,1.5-3.4,2c-0.9,0.4-1.7,0.7-2.4,0.8C1471.7,303.9,1471.1,304,1470.5,304L1470.5,304z"/>
	</g>
	<g>
		<path fill="#5CA244" d="M1577.8,324.4c-5.3,0-7.5-5.6-8.5-10.2c-1,0.9-2,1.8-2.9,2.6c-2,1.7-4,3.1-6,4.3c-2,1.1-4.1,2-6.2,2.5
			c-2.1,0.5-4.4,0.8-6.9,0.8c-3.7,0-7.3-0.9-10.9-2.7c-3.5-1.7-6.7-4.3-9.5-7.5c-2.7-3.2-5-7.2-6.6-11.8c-1.7-4.6-2.5-9.8-2.5-15.5
			c0-5.2,0.9-10.3,2.8-15.2c1.8-4.9,4.5-9.2,7.9-13c3.4-3.7,7.5-6.8,12.1-9c4.7-2.3,10-3.4,15.6-3.4c2.5,0,5,0.3,7.5,0.9
			c1.4,0.3,2.8,0.9,4.3,1.6V228c0-2.7,0-4.8-0.1-6.3c-0.1-1.4-0.4-2.1-0.6-2.4c-0.3-0.4-1-0.7-1.5-0.8c-1.2-0.3-3.1-0.5-5.6-0.7
			l-2.3-0.2V208l2.3-0.2c5.3-0.5,10.1-1.2,14.4-2.1c4.2-0.9,7.6-1.7,10.1-2.5l1.4-0.5l4.6,4.5v90.6c0,1.7,0,3.1,0.1,4.2
			c0.1,1.1,0.2,2,0.3,2.6c0.1,0.5,0.2,0.8,0.2,0.9c0,0,0.1,0,0.1,0c0.2,0,0.4,0,0.5,0c0.3,0,0.8-0.1,1.6-0.4
			c0.8-0.3,1.8-0.7,3.1-1.2l2.4-1.1l3.7,9.7l-1.6,1.1c-2.3,1.6-4.7,3-7,4.3c-2.3,1.3-4.5,2.4-6.6,3.4c-2.1,1-3.9,1.8-5.5,2.4
			C1580.1,324.1,1578.8,324.4,1577.8,324.4z M1555,261.2c-2.1,0-4,0.4-5.8,1.2c-1.7,0.8-3.1,1.9-4.4,3.6c-1.3,1.7-2.4,4-3.1,6.7
			c-0.8,2.8-1.2,6.3-1.2,10.3c0,3.7,0.5,6.9,1.4,9.7c0.9,2.8,2.1,5.2,3.5,7.1c1.4,1.8,2.9,3.3,4.6,4.2c1.6,0.9,3.2,1.4,4.8,1.4
			c2.3,0,4.4-0.6,6.5-1.7c2-1.1,4.3-2.8,6.7-4.9v-30.4c-1.5-2.2-3.3-4-5.4-5.2C1560.3,261.8,1557.8,261.2,1555,261.2z"/>
		<path fill="#FFFFFF" d="M1585.4,205.4l2.8,2.7v89.5c0,1.7,0,3.2,0.1,4.3c0.1,1.2,0.2,2.1,0.3,2.9c0.1,0.7,0.3,1.3,0.5,1.7
			c0.2,0.4,0.5,0.7,0.8,0.9c0.3,0.1,0.6,0.3,1,0.3c0.2,0,0.4,0.1,0.6,0.1s0.5,0,0.8-0.1c0.6-0.1,1.3-0.3,2.1-0.6
			c0.9-0.3,2-0.7,3.3-1.3l2.1,5.4c-2.3,1.5-4.5,2.9-6.9,4.2c-2.3,1.3-4.5,2.4-6.5,3.4c-2,1-3.7,1.7-5.3,2.2
			c-1.5,0.5-2.6,0.8-3.3,0.8c-3.5,0-5.8-4.3-6.8-12.9c-2.3,2.3-4.3,4.3-6.2,5.9c-1.9,1.6-3.7,2.9-5.6,4c-1.8,1-3.7,1.8-5.6,2.3
			c-1.9,0.5-4,0.7-6.3,0.7c-3.3,0-6.5-0.8-9.8-2.4c-3.2-1.6-6.1-3.9-8.7-6.9c-2.6-3-4.6-6.7-6.2-11c-1.6-4.3-2.4-9.2-2.4-14.7
			c0-4.9,0.9-9.7,2.6-14.3c1.7-4.6,4.2-8.7,7.4-12.2c3.2-3.5,7-6.3,11.4-8.4c4.4-2.1,9.2-3.2,14.5-3.2c2.3,0,4.6,0.3,6.9,0.8
			c2.3,0.5,4.8,1.7,7.4,3.5V228c0-2.7,0-4.9-0.1-6.5c-0.1-1.6-0.4-2.8-1-3.7c-0.6-0.9-1.6-1.4-3-1.8c-1.4-0.3-3.4-0.6-6-0.8v-5.1
			c5.4-0.5,10.3-1.3,14.6-2.2C1579.3,207.1,1582.8,206.3,1585.4,205.4 M1554.8,307.9c2.7,0,5.3-0.7,7.7-2c2.4-1.4,5.1-3.4,8-6v-32.2
			c-1.8-2.9-4-5.1-6.6-6.6c-2.6-1.6-5.6-2.4-8.9-2.4c-2.5,0-4.7,0.5-6.8,1.4c-2.1,0.9-3.8,2.4-5.3,4.4c-1.5,2-2.7,4.5-3.5,7.6
			c-0.9,3-1.3,6.7-1.3,11c0,3.9,0.5,7.4,1.5,10.5c1,3.1,2.3,5.7,3.8,7.8c1.6,2.1,3.4,3.8,5.4,4.9
			C1550.7,307.4,1552.7,307.9,1554.8,307.9 M1586.7,199.7l-2.9,0.9c-2.4,0.8-5.7,1.6-9.8,2.5c-4.2,0.9-8.9,1.6-14.1,2.1l-4.5,0.5
			v4.5v5.1v4.6l4.6,0.3c2.9,0.2,4.4,0.5,5.2,0.7c0,0,0,0,0.1,0c0,0.2,0.1,0.4,0.1,0.8c0.1,1.5,0.1,3.6,0.1,6.2v17.2
			c-0.4-0.1-0.8-0.2-1.3-0.3c-2.7-0.6-5.4-0.9-8-0.9c-6,0-11.6,1.2-16.7,3.7c-5,2.4-9.3,5.6-12.9,9.6c-3.6,4-6.4,8.6-8.3,13.7
			c-2,5.1-2.9,10.5-2.9,16c0,6,0.9,11.5,2.7,16.4c1.8,4.9,4.2,9.1,7.1,12.5c3,3.5,6.4,6.2,10.2,8.1c3.9,1.9,7.9,2.9,12,2.9
			c2.7,0,5.2-0.3,7.5-0.9c2.3-0.6,4.6-1.5,6.8-2.8c2.1-1.2,4.2-2.7,6.4-4.5c0,0,0,0,0,0c2,5.5,5.3,8.2,9.7,8.2c1.3,0,2.8-0.3,5-1.1
			c1.7-0.6,3.6-1.4,5.8-2.5c2.1-1,4.3-2.2,6.7-3.5c2.4-1.3,4.9-2.8,7.2-4.4l3.3-2.2l-1.4-3.7l-2.1-5.4l-1.9-4.9l-4.8,2.1
			c-0.9,0.4-1.6,0.7-2.3,0.9c0-0.2,0-0.4,0-0.6c-0.1-1.1-0.1-2.4-0.1-4v-89.5V206l-1.5-1.5l-2.8-2.7L1586.7,199.7L1586.7,199.7z
			 M1554.8,302.9c-1.2,0-2.3-0.3-3.6-1.1c-1.4-0.8-2.7-2-3.8-3.5c-1.2-1.7-2.3-3.8-3.1-6.4c-0.8-2.6-1.2-5.6-1.2-9
			c0-3.8,0.4-7,1.1-9.6c0.7-2.4,1.6-4.4,2.7-5.9c1-1.3,2.1-2.3,3.4-2.8c1.4-0.6,3-1,4.7-1c2.4,0,4.5,0.5,6.3,1.7
			c1.6,1,3,2.2,4.2,3.9v28.4c-2,1.7-3.8,3-5.4,3.9C1558.3,302.5,1556.6,302.9,1554.8,302.9L1554.8,302.9z"/>
	</g>
</g>
<g>
	<g>
		<path fill="#253143" d="M1384.6,391.3c-1.1,0-2.2-0.1-3.3-0.4c-1.1-0.3-2.1-0.8-2.9-1.5c-0.8-0.7-1.5-1.6-2-2.7
			c-0.5-1.1-0.7-2.3-0.7-3.8c0-1.5,0.3-3,0.9-4.3c0.6-1.3,1.4-2.4,2.5-3.3c1-0.9,2.2-1.6,3.5-2c1.3-0.5,2.7-0.7,4.1-0.7
			c1.1,0,2.2,0.2,3.2,0.5c1.1,0.3,2,0.8,2.9,1.5c0.8,0.7,1.5,1.6,2,2.6c0.5,1.1,0.8,2.3,0.8,3.7c0,1.6-0.3,3-0.9,4.3
			c-0.6,1.3-1.4,2.4-2.4,3.3c-1,0.9-2.2,1.6-3.5,2C1387.4,391.1,1386,391.3,1384.6,391.3z"/>
		<path fill="#FFFFFF" d="M1386.6,373.9c1,0,1.9,0.1,2.8,0.4c0.9,0.3,1.7,0.7,2.4,1.3c0.7,0.6,1.3,1.3,1.7,2.2s0.6,2,0.6,3.2
			c0,1.4-0.3,2.7-0.8,3.8c-0.5,1.1-1.2,2.1-2.1,2.8c-0.9,0.8-1.9,1.4-3.1,1.8c-1.2,0.4-2.4,0.6-3.8,0.6c-1,0-2-0.1-2.9-0.4
			c-0.9-0.3-1.7-0.7-2.5-1.3c-0.7-0.6-1.3-1.3-1.7-2.2c-0.4-0.9-0.6-2-0.6-3.2c0-1.4,0.3-2.6,0.8-3.7c0.5-1.1,1.2-2.1,2.1-2.8
			c0.9-0.8,1.9-1.4,3.1-1.8C1384.1,374.1,1385.3,373.9,1386.6,373.9 M1386.6,371.4c-1.5,0-3.1,0.3-4.5,0.8c-1.5,0.5-2.8,1.3-3.9,2.3
			c-1.2,1-2.1,2.2-2.8,3.7c-0.7,1.5-1,3.1-1,4.8c0,1.6,0.3,3.1,0.8,4.3c0.6,1.2,1.4,2.3,2.4,3.1c1,0.8,2.1,1.4,3.4,1.7
			c1.1,0.3,2.4,0.5,3.6,0.5c1.6,0,3.1-0.2,4.6-0.7c1.5-0.5,2.8-1.3,3.9-2.3c1.1-1,2-2.2,2.7-3.7c0.7-1.4,1-3.1,1-4.8
			c0-1.6-0.3-3-0.9-4.3c-0.6-1.2-1.4-2.3-2.4-3.1c-1-0.8-2.1-1.4-3.3-1.8C1389,371.6,1387.8,371.4,1386.6,371.4L1386.6,371.4z"/>
	</g>
	<g>
		<path fill="#253143" d="M1424.4,390.8c-3,0-5.9-0.6-8.7-1.8c-2.8-1.2-5.3-3-7.4-5.2c-2.1-2.2-3.8-5-5.1-8.3
			c-1.3-3.2-1.9-6.9-1.9-11c0-3.9,0.7-7.7,2.2-11.1c1.5-3.4,3.5-6.5,6.2-9c2.6-2.5,5.8-4.6,9.4-6.1c3.6-1.5,7.6-2.2,12-2.2
			c1.2,0,2.6,0.1,4.1,0.3c1.5,0.2,3,0.5,4.5,0.9c1.5,0.4,2.8,0.8,4.1,1.4c1.3,0.6,2.4,1.2,3.1,2l0.3,0.3l0,0.4c0.1,0.4,0,1-0.1,1.8
			c-0.1,0.7-0.3,1.6-0.5,2.5c-0.2,0.9-0.5,1.9-0.8,3c-0.3,1-0.6,2-1,2.9c-0.3,0.9-0.7,1.8-1,2.6c-0.4,0.8-0.6,1.4-0.9,1.8l-0.4,0.7
			l-5.1-0.8l-0.2-0.7c-1.1-3.3-2.5-5.8-4-7.6c-1.5-1.6-3.4-2.4-5.8-2.4c-1.3,0-2.7,0.3-3.9,0.9c-1.2,0.6-2.3,1.6-3.3,3
			c-1,1.4-1.8,3.3-2.5,5.5c-0.6,2.3-1,5.1-1,8.4c0,2.7,0.3,5.1,1,7.1c0.7,2,1.6,3.8,2.7,5.2c1.1,1.4,2.5,2.4,4,3.1
			c1.5,0.7,3.1,1.1,4.8,1.1c0.9,0,1.8-0.1,2.7-0.2c0.8-0.1,1.7-0.4,2.7-0.7c1-0.4,2.2-1,3.5-1.8c1.3-0.8,2.9-1.9,4.7-3.2l0.9-0.7
			l4.3,5.1l-0.7,0.8c-2.3,2.6-4.5,4.8-6.5,6.4c-2,1.6-3.9,2.8-5.8,3.7c-1.8,0.9-3.7,1.4-5.4,1.7
			C1427.8,390.6,1426.1,390.8,1424.4,390.8z"/>
		<path fill="#FFFFFF" d="M1431,337.3c1.2,0,2.5,0.1,3.9,0.3c1.5,0.2,2.9,0.5,4.3,0.8c1.4,0.4,2.7,0.8,3.9,1.3
			c1.2,0.5,2.1,1.1,2.7,1.7c0,0.3,0,0.8-0.1,1.5c-0.1,0.7-0.3,1.5-0.5,2.4c-0.2,0.9-0.5,1.9-0.8,2.9c-0.3,1-0.6,2-0.9,2.9
			c-0.3,0.9-0.6,1.7-0.9,2.5s-0.6,1.3-0.8,1.6l-3.5-0.5c-1.2-3.4-2.6-6.1-4.3-8c-1.7-1.9-3.9-2.8-6.8-2.8c-1.5,0-3,0.4-4.5,1.1
			c-1.4,0.7-2.7,1.8-3.8,3.3c-1.1,1.5-2,3.5-2.6,5.9c-0.7,2.4-1,5.3-1,8.7c0,2.8,0.4,5.3,1.1,7.5c0.7,2.2,1.7,4.1,3,5.6
			c1.2,1.5,2.7,2.7,4.4,3.5c1.7,0.8,3.5,1.2,5.4,1.2c1,0,1.9-0.1,2.8-0.2c0.9-0.1,1.9-0.4,3-0.8c1.1-0.4,2.3-1,3.7-1.8
			c1.4-0.8,3-1.9,4.8-3.3l2.8,3.4c-2.3,2.6-4.4,4.7-6.3,6.2c-1.9,1.5-3.8,2.7-5.5,3.5s-3.4,1.3-5,1.6c-1.6,0.2-3.3,0.3-4.9,0.3
			c-2.8,0-5.6-0.6-8.2-1.7s-5-2.8-7-4.9c-2-2.1-3.6-4.8-4.9-7.9c-1.2-3.1-1.8-6.6-1.8-10.5c0-3.8,0.7-7.3,2.1-10.7
			c1.4-3.3,3.4-6.2,5.9-8.6c2.5-2.4,5.5-4.4,9-5.8S1426.8,337.3,1431,337.3 M1431,334.8c-4.5,0-8.7,0.8-12.4,2.3
			c-3.8,1.5-7.1,3.7-9.8,6.3c-2.7,2.7-4.9,5.8-6.4,9.4c-1.5,3.6-2.3,7.5-2.3,11.6c0,4.2,0.7,8,2,11.4c1.3,3.4,3.1,6.3,5.4,8.7
			c2.2,2.4,4.9,4.2,7.8,5.5c2.9,1.3,6,1.9,9.2,1.9c1.8,0,3.5-0.1,5.3-0.4c1.9-0.3,3.8-0.9,5.7-1.8c1.9-0.9,3.9-2.2,6-3.8
			c2-1.6,4.3-3.8,6.7-6.5l1.4-1.6l-1.4-1.6l-2.8-3.4l-1.5-1.8l-1.9,1.4c-1.8,1.3-3.3,2.4-4.6,3.1c-1.2,0.7-2.3,1.3-3.3,1.7
			c-0.9,0.3-1.7,0.6-2.4,0.7c-0.8,0.1-1.6,0.2-2.5,0.2c-1.5,0-2.9-0.3-4.3-1c-1.4-0.7-2.5-1.6-3.6-2.8c-1-1.3-1.9-2.9-2.5-4.8
			c-0.6-1.9-1-4.2-1-6.7c0-3.2,0.3-5.9,0.9-8c0.6-2.1,1.3-3.8,2.3-5.1c0.8-1.2,1.8-2,2.8-2.6c1.1-0.5,2.2-0.8,3.3-0.8
			c2.1,0,3.7,0.7,4.9,2c1.5,1.6,2.7,4,3.8,7.1l0.5,1.4l1.5,0.2l3.5,0.5l1.6,0.2l0.9-1.3c0.3-0.5,0.6-1.1,1-2c0.3-0.8,0.7-1.7,1-2.6
			c0.3-0.9,0.7-1.9,1-3c0.3-1,0.6-2.1,0.9-3c0.2-1,0.4-1.8,0.6-2.6c0.2-1,0.2-1.7,0.2-2.2l-0.1-0.8l-0.6-0.6c-0.8-0.9-2-1.6-3.5-2.3
			c-1.3-0.6-2.7-1-4.2-1.4c-1.5-0.4-3-0.7-4.6-0.9C1433.7,334.9,1432.3,334.8,1431,334.8L1431,334.8z"/>
	</g>
	<g>
		<path fill="#253143" d="M1475.7,390.8c-3.8,0-7.3-0.7-10.4-2c-3.1-1.3-5.8-3.2-8-5.5c-2.2-2.3-3.9-5.1-5.1-8.3
			c-1.2-3.2-1.8-6.7-1.8-10.4c0-3.6,0.7-7.2,2-10.6c1.3-3.4,3.2-6.5,5.6-9.1c2.4-2.6,5.3-4.8,8.6-6.4c3.3-1.6,7-2.4,11-2.4
			c3.7,0,7.2,0.7,10.3,2c3.1,1.3,5.8,3.2,8,5.5c2.2,2.3,3.9,5.2,5.1,8.4c1.2,3.2,1.8,6.7,1.8,10.4c0,2.5-0.3,4.9-1,7.2
			c-0.7,2.3-1.6,4.6-2.8,6.7c-1.2,2.1-2.6,4-4.3,5.8c-1.6,1.8-3.5,3.3-5.5,4.6c-2,1.3-4.2,2.3-6.5,3
			C1480.5,390.4,1478.1,390.8,1475.7,390.8z M1476.2,345.1c-1.9,0-3.5,0.4-4.7,1.2c-1.3,0.9-2.3,2-3,3.5c-0.8,1.6-1.3,3.5-1.6,5.7
			c-0.3,2.3-0.5,4.8-0.5,7.4c0,2.7,0.3,5.2,0.9,7.5c0.6,2.3,1.5,4.3,2.5,6c1,1.6,2.2,3,3.5,3.9c1.3,0.9,2.5,1.3,3.9,1.3
			c1.9,0,3.4-0.4,4.6-1c1.2-0.7,2.2-1.7,3-3.1c0.8-1.4,1.4-3.2,1.7-5.3c0.4-2.2,0.5-4.7,0.5-7.5c0-2.7-0.3-5.2-0.8-7.7
			c-0.6-2.4-1.3-4.5-2.3-6.3c-1-1.8-2.1-3.2-3.5-4.2C1479.1,345.6,1477.7,345.1,1476.2,345.1z"/>
		<path fill="#FFFFFF" d="M1477.7,337.3c3.6,0,6.8,0.6,9.8,1.9c2.9,1.3,5.4,3,7.5,5.2c2.1,2.2,3.7,4.9,4.8,7.9
			c1.1,3.1,1.7,6.4,1.7,10c0,2.4-0.3,4.7-0.9,6.9c-0.6,2.3-1.5,4.4-2.7,6.4c-1.1,2-2.5,3.9-4.1,5.6c-1.6,1.7-3.3,3.2-5.2,4.4
			c-1.9,1.2-4,2.2-6.2,2.9c-2.2,0.7-4.5,1-6.8,1c-3.6,0-6.9-0.6-9.9-1.9s-5.5-3-7.5-5.2c-2.1-2.2-3.7-4.9-4.8-7.9
			c-1.1-3.1-1.7-6.4-1.7-10c0-3.5,0.6-6.9,1.9-10.1c1.3-3.3,3.1-6.2,5.4-8.7c2.3-2.5,5-4.6,8.2-6.1
			C1470.5,338.1,1473.9,337.3,1477.7,337.3 M1477.2,382.9c2.1,0,3.9-0.4,5.3-1.2c1.4-0.8,2.5-2,3.4-3.5c0.9-1.5,1.5-3.4,1.9-5.7
			c0.4-2.2,0.6-4.8,0.6-7.8c0-2.8-0.3-5.4-0.9-7.9c-0.6-2.5-1.4-4.7-2.5-6.6c-1.1-1.9-2.3-3.4-3.8-4.6c-1.5-1.1-3.1-1.7-4.9-1.7
			c-2.2,0-4,0.5-5.4,1.5c-1.4,1-2.6,2.3-3.4,4c-0.8,1.7-1.4,3.7-1.8,6.1c-0.3,2.3-0.5,4.9-0.5,7.6c0,2.8,0.3,5.4,1,7.8
			c0.7,2.4,1.5,4.5,2.6,6.3s2.4,3.2,3.8,4.2C1474,382.4,1475.5,382.9,1477.2,382.9 M1477.7,334.8c-4.2,0-8,0.9-11.6,2.5
			c-3.5,1.7-6.5,3.9-9,6.7c-2.5,2.7-4.5,5.9-5.9,9.5c-1.4,3.5-2.1,7.3-2.1,11c0,3.9,0.6,7.5,1.9,10.8c1.3,3.4,3,6.3,5.3,8.7
			c2.3,2.5,5.1,4.4,8.4,5.8c3.3,1.4,6.9,2.1,10.8,2.1c2.6,0,5.1-0.4,7.5-1.1c2.4-0.8,4.7-1.8,6.8-3.2c2.1-1.3,4-3,5.7-4.8
			c1.7-1.8,3.2-3.9,4.4-6c1.2-2.2,2.2-4.5,2.9-6.9c0.7-2.5,1-5,1-7.6c0-3.9-0.6-7.5-1.8-10.8c-1.2-3.4-3-6.3-5.3-8.8
			c-2.3-2.5-5.1-4.4-8.4-5.8C1485.3,335.5,1481.6,334.8,1477.7,334.8L1477.7,334.8z M1477.2,380.4c-1.1,0-2.1-0.4-3.2-1.1
			c-1.2-0.8-2.2-2-3.2-3.5c-1-1.6-1.8-3.5-2.3-5.7c-0.6-2.2-0.9-4.6-0.9-7.2c0-2.6,0.2-5,0.5-7.2c0.3-2.1,0.8-3.9,1.5-5.3
			c0.7-1.3,1.5-2.3,2.6-3c1-0.7,2.4-1,4-1c1.2,0,2.4,0.4,3.4,1.2c1.2,0.9,2.3,2.2,3.1,3.8c0.9,1.7,1.7,3.7,2.2,6
			c0.5,2.3,0.8,4.8,0.8,7.4c0,2.8-0.2,5.2-0.5,7.3c-0.3,1.9-0.9,3.6-1.6,4.9c-0.7,1.2-1.5,2-2.5,2.6
			C1480.2,380.1,1478.8,380.4,1477.2,380.4L1477.2,380.4z"/>
	</g>
	<g>
		<path fill="#253143" d="M1567.5,389.2v-6.1l0.9-0.2c1.2-0.3,2.2-0.6,2.9-0.9c0.7-0.3,1.3-0.5,1.7-0.8c0.4-0.2,0.5-0.4,0.5-0.4
			l0-24.7c0-2.1-0.1-3.7-0.3-5c-0.2-1.4-0.6-2.1-0.8-2.5c-0.3-0.4-0.6-0.7-1-0.8c-0.6-0.2-1.3-0.3-2.1-0.3c-1.3,0-3,0.5-4.9,1.5
			c-1.8,1-3.8,2.4-5.9,4.4v27.4c0,0,0,0,0,0c0,0,0.2,0.1,0.6,0.3c0.4,0.2,1,0.5,1.9,0.7c0.9,0.3,2,0.6,3.3,0.9l0.9,0.2v6.1h-28v-6.1
			l0.9-0.2c1.2-0.3,2.2-0.6,3-0.9c0.7-0.3,1.3-0.5,1.7-0.7c0.4-0.3,0.6-0.4,0.6-0.4l0-24.7c0-2.1-0.1-3.8-0.3-5
			c-0.2-1.4-0.5-2.1-0.7-2.5c-0.2-0.4-0.5-0.7-0.9-0.8c-0.5-0.2-1.2-0.3-2.1-0.3c-1.4,0-3,0.5-4.9,1.4c-1.8,0.9-3.9,2.4-6.3,4.5
			v27.2c0.1,0.1,0.3,0.3,0.9,0.6c0.9,0.5,2.5,1,4.7,1.5l1,0.2v6.1h-28.7v-6.1l0.9-0.2c2.3-0.6,4-1.1,5.1-1.6c0.6-0.3,0.9-0.5,1-0.6
			v-29.2c0-1.3,0-2.4-0.1-3.2c-0.1-0.5-0.2-0.9-0.4-1.1c-0.2-0.2-0.6-0.4-1.5-0.6c-0.9-0.2-2.2-0.4-3.8-0.6l-1.1-0.1V340l1.1-0.1
			c1.8-0.2,3.4-0.4,4.9-0.7c1.4-0.2,2.8-0.5,4.1-0.8c1.3-0.3,2.5-0.6,3.7-1c1.2-0.4,2.4-0.8,3.6-1.2l0.7-0.3l3.1,3.1l0.4,4.6
			c1.3-1.1,2.6-2,3.7-2.8c1.7-1.2,3.4-2.1,4.9-2.8c1.6-0.7,3.1-1.2,4.5-1.5c1.4-0.3,2.8-0.4,4.1-0.4c1.8,0,3.4,0.2,4.9,0.7
			c1.4,0.5,2.7,1.1,3.7,1.9c1,0.8,1.9,1.8,2.5,2.9c0.4,0.7,0.7,1.5,1,2.2c1.4-1.2,2.8-2.2,4-3c1.7-1.2,3.4-2.1,5-2.8
			c1.6-0.7,3.1-1.2,4.5-1.5c1.4-0.3,2.8-0.4,4.2-0.4c1.8,0,3.5,0.3,5.2,0.8c1.7,0.5,3.2,1.4,4.5,2.6c1.3,1.2,2.3,2.8,3,4.7
			c0.7,1.9,1.1,4.1,1.1,6.7v29.9c0.1,0.1,0.3,0.3,0.9,0.5c1,0.4,2.9,1,5.6,1.7l0.9,0.2v6.1H1567.5z"/>
		<path fill="#FFFFFF" d="M1575,337.3c1.7,0,3.3,0.2,4.8,0.7c1.5,0.5,2.8,1.2,4,2.3c1.1,1.1,2,2.5,2.7,4.2c0.7,1.7,1,3.8,1,6.3v30.1
			c0,0.5,0.5,1,1.6,1.5c1.1,0.5,3,1.1,5.8,1.8v3.8h-26.2v-3.8c1.3-0.3,2.3-0.6,3.1-0.9c0.8-0.3,1.4-0.6,1.9-0.8
			c0.5-0.3,0.8-0.5,0.9-0.7c0.2-0.2,0.2-0.5,0.2-0.7v-24.7c0-2.1-0.1-3.9-0.3-5.2c-0.2-1.3-0.6-2.3-1-3c-0.4-0.7-1-1.1-1.7-1.3
			c-0.7-0.2-1.5-0.3-2.5-0.3c-1.5,0-3.4,0.5-5.4,1.6c-2.1,1.1-4.3,2.7-6.5,5v27.9c0,0.2,0.1,0.5,0.3,0.7c0.2,0.2,0.5,0.5,1,0.7
			c0.5,0.2,1.2,0.5,2,0.8c0.9,0.3,2,0.6,3.4,1v3.8h-25.5v-3.8c1.3-0.3,2.3-0.6,3.1-0.9c0.8-0.3,1.4-0.6,1.9-0.8
			c0.4-0.3,0.7-0.5,0.9-0.7c0.2-0.2,0.3-0.5,0.3-0.7v-24.7c0-2.1-0.1-3.9-0.3-5.2c-0.2-1.3-0.5-2.3-0.9-3c-0.4-0.7-0.9-1.1-1.6-1.3
			c-0.7-0.2-1.5-0.3-2.5-0.3c-1.6,0-3.4,0.5-5.4,1.6c-2,1.1-4.4,2.7-7,5v27.9c0,0.5,0.5,1.1,1.6,1.6c1.1,0.6,2.7,1.1,5,1.6v3.8
			h-26.2v-3.8c2.3-0.6,4.1-1.1,5.2-1.6s1.7-1,1.7-1.6v-29.3c0-1.4,0-2.5-0.1-3.3c-0.1-0.8-0.4-1.4-0.8-1.9c-0.4-0.4-1.1-0.8-2.1-1
			s-2.3-0.4-4-0.6v-3.7c1.8-0.2,3.5-0.4,5-0.7c1.5-0.2,2.9-0.5,4.2-0.8s2.6-0.7,3.8-1c1.2-0.4,2.4-0.8,3.7-1.2l2.2,2.2l0.6,6.5
			c2-1.7,3.8-3.2,5.5-4.3c1.7-1.1,3.2-2,4.7-2.7c1.5-0.7,2.9-1.1,4.2-1.4c1.3-0.3,2.6-0.4,3.9-0.4c1.7,0,3.2,0.2,4.5,0.6
			c1.3,0.4,2.4,1,3.3,1.7c0.9,0.7,1.7,1.6,2.2,2.5c0.6,1,0.9,2,1.2,3.1l0.2,0.7c2-1.7,3.8-3.1,5.5-4.3c1.7-1.1,3.3-2,4.8-2.7
			c1.5-0.7,2.9-1.1,4.2-1.4C1572.4,337.4,1573.7,337.3,1575,337.3 M1524.8,334.4l-1.5,0.5c-1.2,0.4-2.4,0.8-3.6,1.2
			c-1.1,0.4-2.4,0.7-3.6,1c-1.3,0.3-2.6,0.6-4,0.8c-1.4,0.2-3.1,0.5-4.8,0.7l-2.2,0.3v2.2v3.7v2.2l2.2,0.3c1.6,0.2,2.9,0.4,3.7,0.6
			c0.6,0.1,0.8,0.3,0.9,0.3c0,0,0,0.1,0.1,0.4c0.1,0.7,0.1,1.8,0.1,3.1v28.5c-0.1,0-0.1,0.1-0.2,0.1c-1.1,0.4-2.7,0.9-4.9,1.5
			l-1.9,0.5v1.9v3.8v2.5h2.5h26.2h2.5h2.3h25.5h2.5h2.2h26.2h2.5v-2.5v-3.8v-1.9l-1.9-0.5c-3.3-0.8-4.8-1.3-5.4-1.6
			c0,0-0.1,0-0.1-0.1v-29.2c0-2.8-0.4-5.2-1.2-7.2c-0.8-2.1-1.9-3.8-3.3-5.1c-1.4-1.3-3.1-2.3-4.9-2.9c-1.7-0.5-3.6-0.8-5.5-0.8
			c-1.5,0-3,0.1-4.4,0.4c-1.5,0.3-3.1,0.8-4.8,1.6c-1.6,0.7-3.3,1.7-5.1,2.9c-0.9,0.6-1.8,1.3-2.8,2c-0.1-0.3-0.3-0.6-0.4-0.8
			c-0.7-1.2-1.7-2.3-2.8-3.2c-1.1-0.9-2.5-1.6-4.1-2.1c-1.5-0.5-3.3-0.8-5.3-0.8c-1.4,0-2.9,0.1-4.4,0.4c-1.5,0.3-3.1,0.8-4.7,1.5
			c-1.6,0.7-3.3,1.7-5.1,2.9c-0.6,0.4-1.3,0.9-2,1.4l-0.2-1.8l-0.1-0.9l-0.6-0.6l-2.2-2.2L1524.8,334.4L1524.8,334.4z M1559.9,354
			c1.8-1.7,3.6-3,5.2-3.8c1.7-0.9,3.1-1.3,4.3-1.3c0.7,0,1.3,0.1,1.8,0.2c0.1,0,0.2,0.1,0.3,0.3c0.1,0.2,0.4,0.7,0.6,2
			c0.2,1.2,0.3,2.7,0.3,4.7v24.1c-0.3,0.1-0.7,0.3-1.4,0.6c-0.7,0.3-1.6,0.5-2.8,0.8l-1.8,0.4l-1.7-0.4c-1.3-0.3-2.4-0.6-3.2-0.9
			c-0.8-0.3-1.3-0.5-1.6-0.6V354L1559.9,354z M1529.6,354.1c2.1-1.8,4-3.1,5.6-3.9c1.7-0.9,3.1-1.3,4.3-1.3c0.9,0,1.4,0.1,1.7,0.2
			c0.1,0,0.2,0.2,0.2,0.2c0.1,0.2,0.4,0.7,0.5,2c0.2,1.2,0.2,2.8,0.2,4.8v24.1c-0.2,0.1-0.6,0.3-1.4,0.6c-0.7,0.3-1.7,0.6-2.9,0.8
			l-1.7,0.4v0l-2-0.4c-2.5-0.5-3.8-1-4.4-1.3c-0.1-0.1-0.2-0.1-0.3-0.1V354.1L1529.6,354.1z"/>
	</g>
</g>
</svg>
