<?xml version="1.0" encoding="UTF-8" standalone="no"?>
<svg
   xmlns:dc="http://purl.org/dc/elements/1.1/"
   xmlns:cc="http://creativecommons.org/ns#"
   xmlns:rdf="http://www.w3.org/1999/02/22-rdf-syntax-ns#"
   xmlns:svg="http://www.w3.org/2000/svg"
   xmlns="http://www.w3.org/2000/svg"
   xmlns:sodipodi="http://sodipodi.sourceforge.net/DTD/sodipodi-0.dtd"
   xmlns:inkscape="http://www.inkscape.org/namespaces/inkscape"
   width="793.70081"
   height="500.51968"
   viewBox="0 0 210 132.42917"
   version="1.1"
   id="svg8"
   inkscape:version="1.0.2-2 (e86c870879, 2021-01-15)"
   sodipodi:docname="logo-yr-03.svg">
  <defs
     id="defs2">
    <clipPath
       clipPathUnits="userSpaceOnUse"
       id="clipPath857">
      <path
         d="M 0,800 H 800 V 0 H 0 Z"
         id="path855" />
    </clipPath>
    <clipPath
       clipPathUnits="userSpaceOnUse"
       id="clipPath928">
      <path
         d="M 0,800 H 800 V 0 H 0 Z"
         id="path926" />
    </clipPath>
    <clipPath
       clipPathUnits="userSpaceOnUse"
       id="clipPath962">
      <path
         d="M 0,800 H 800 V 0 H 0 Z"
         id="path960" />
    </clipPath>
    <clipPath
       clipPathUnits="userSpaceOnUse"
       id="clipPath1059">
      <path
         d="M 0,800 H 800 V 0 H 0 Z"
         id="path1057" />
    </clipPath>
    <clipPath
       clipPathUnits="userSpaceOnUse"
       id="clipPath1111">
      <path
         d="M 0,800 H 800 V 0 H 0 Z"
         id="path1109" />
    </clipPath>
  </defs>
  <sodipodi:namedview
     id="base"
     pagecolor="#ffffff"
     bordercolor="#666666"
     borderopacity="1.0"
     inkscape:pageopacity="0.0"
     inkscape:pageshadow="2"
     inkscape:zoom="1.979899"
     inkscape:cx="119.68354"
     inkscape:cy="442.52538"
     inkscape:document-units="mm"
     inkscape:current-layer="layer1"
     inkscape:document-rotation="0"
     showgrid="false"
     units="px"
     inkscape:window-width="1267"
     inkscape:window-height="1041"
     inkscape:window-x="88"
     inkscape:window-y="0"
     inkscape:window-maximized="0" />
  <metadata
     id="metadata5">
    <rdf:RDF>
      <cc:Work
         rdf:about="">
        <dc:format>image/svg+xml</dc:format>
        <dc:type
           rdf:resource="http://purl.org/dc/dcmitype/StillImage" />
        <dc:title></dc:title>
      </cc:Work>
    </rdf:RDF>
  </metadata>
  <g
     inkscape:label="Layer 1"
     inkscape:groupmode="layer"
     id="layer1">
    <path
       d="M -4.4582815,136.61532 H 209.6724 V -1.7635144 H -4.4582815 Z"
       style="fill:#000000;fill-opacity:1;fill-rule:nonzero;stroke:none;stroke-width:0.215172"
       id="path1043" />
    <text
       style="font-variant:normal;font-weight:bold;font-stretch:normal;font-size:92.9277px;font-family:Catamaran;-inkscape-font-specification:Catamaran-Bold;writing-mode:lr-tb;fill:#9558fd;fill-opacity:1;fill-rule:nonzero;stroke:none;stroke-width:0.30976"
       id="text1047"
       x="43.552567"
       y="83.411659"><tspan
         x="43.552567 100.05277"
         y="83.411659"
         sodipodi:role="line"
         id="tspan1045"
         style="stroke-width:0.30976">YR</tspan></text>
    <g
       id="g1049"
       transform="matrix(0.30975996,0,0,-0.30975996,22.087452,122.13166)">
      <path
         d="m 0,0 v 19.08 l -5.384,9.506 -10.6,18.718 9.216,2.664 9.306,-17.552 2.07,-3.904 3.775,6.497 8.105,13.951 h 9.864 L 22.188,41.55 9.36,18.72 V 0 Z"
         style="fill:#9558fd;fill-opacity:1;fill-rule:nonzero;stroke:none"
         id="path1051" />
    </g>
    <g
       id="g1053"
       transform="matrix(0.30975996,0,0,-0.30975996,-20.877522,196.92537)">
      <g
         id="g1055"
         clip-path="url(#clipPath1059)">
        <g
           id="g1061"
           transform="translate(178.0151,265.793)">
          <path
             d="m 0,0 c 0,-3.408 0.576,-6.444 1.728,-9.108 1.152,-2.663 2.795,-4.728 4.932,-6.192 2.135,-1.465 4.644,-2.196 7.524,-2.196 2.688,0 5.123,0.659 7.308,1.98 2.183,1.32 3.911,3.335 5.184,6.048 1.271,2.711 1.908,6.012 1.908,9.9 0,3.359 -0.576,6.36 -1.728,9 -1.152,2.639 -2.808,4.704 -4.968,6.192 -2.16,1.487 -4.657,2.232 -7.488,2.232 -2.592,0 -4.981,-0.732 -7.164,-2.196 C 5.051,14.195 3.299,12.107 1.98,9.396 0.659,6.684 0,3.552 0,0 m 14.256,25.776 c 4.943,0 9.24,-1.116 12.888,-3.348 3.647,-2.232 6.419,-5.268 8.316,-9.108 1.895,-3.841 2.844,-8.136 2.844,-12.888 0,-4.993 -1.008,-9.42 -3.024,-13.284 -2.016,-3.865 -4.837,-6.888 -8.46,-9.072 -3.625,-2.184 -7.812,-3.323 -12.564,-3.42 -4.944,0 -9.229,1.116 -12.852,3.348 -3.625,2.232 -6.384,5.256 -8.28,9.072 -1.897,3.816 -2.844,8.1 -2.844,12.852 0,4.943 0.995,9.36 2.988,13.248 1.991,3.888 4.812,6.935 8.46,9.144 3.647,2.207 7.823,3.36 12.528,3.456"
             style="fill:#9558fd;fill-opacity:1;fill-rule:nonzero;stroke:none"
             id="path1063" />
        </g>
        <g
           id="g1065"
           transform="translate(233.6709,290.417)">
          <path
             d="m 0,0 v -30.456 c 0,-3.888 0.972,-6.804 2.916,-8.748 1.944,-1.944 4.547,-2.916 7.812,-2.916 3.264,0 5.868,0.996 7.812,2.988 1.944,1.991 2.916,4.884 2.916,8.676 V 0 h 9.432 v -31.176 c 0,-3.553 -0.841,-6.732 -2.52,-9.54 -1.681,-2.808 -4.057,-5.016 -7.128,-6.624 -3.073,-1.608 -6.624,-2.412 -10.656,-2.412 -3.985,0 -7.488,0.804 -10.512,2.412 -3.024,1.608 -5.353,3.827 -6.984,6.66 -1.632,2.831 -2.448,5.999 -2.448,9.504 L -9.432,0 Z"
             style="fill:#9558fd;fill-opacity:1;fill-rule:nonzero;stroke:none"
             id="path1067" />
        </g>
        <g
           id="g1069"
           transform="translate(276.0786,241.457)">
          <path
             d="M 0,0 V 48.96 H 9.288 L 31.968,16.272 V 48.96 h 9.36 V 0 h -9.36 L 9.288,32.76 V 0 Z"
             style="fill:#9558fd;fill-opacity:1;fill-rule:nonzero;stroke:none"
             id="path1071" />
        </g>
        <g
           id="g1073"
           transform="translate(346.9976,261.041)">
          <path
             d="m 0,0 0.792,7.2 h 17.856 v -24.192 c -2.016,-1.057 -4.345,-1.92 -6.984,-2.592 -2.641,-0.672 -5.4,-1.008 -8.28,-1.008 -4.945,0 -9.252,1.116 -12.924,3.348 -3.672,2.232 -6.493,5.267 -8.46,9.108 -1.969,3.84 -2.952,8.112 -2.952,12.816 0,4.896 1.091,9.299 3.276,13.212 2.183,3.912 5.22,6.971 9.108,9.18 3.888,2.207 8.255,3.312 13.104,3.312 1.775,0 3.96,-0.264 6.552,-0.792 2.592,-0.529 4.871,-1.321 6.84,-2.376 L 14.976,20.52 c -1.345,0.432 -1.993,0.624 -1.944,0.576 -1.825,0.528 -3.276,0.9 -4.356,1.116 -1.08,0.216 -2.412,0.324 -3.996,0.324 -2.977,0 -5.664,-0.673 -8.064,-2.016 -2.401,-1.344 -4.309,-3.348 -5.724,-6.012 -1.416,-2.664 -2.124,-5.916 -2.124,-9.756 0,-3.504 0.6,-6.588 1.8,-9.252 1.199,-2.664 2.891,-4.705 5.076,-6.12 2.184,-1.416 4.691,-2.124 7.524,-2.124 2.207,0 4.583,0.264 7.128,0.792 V 0 Z"
             style="fill:#9558fd;fill-opacity:1;fill-rule:nonzero;stroke:none"
             id="path1075" />
        </g>
        <g
           id="g1077"
           transform="translate(406.252,282.6406)">
          <path
             d="m 0,0 h -5.76 v -14.976 h 5.904 c 2.927,0 5.267,0.587 7.02,1.764 1.752,1.176 2.628,3.012 2.628,5.509 C 9.792,-2.568 6.527,0 0,0 M -15.048,7.776 H 0.288 c 5.663,0 10.308,-1.285 13.932,-3.851 3.624,-2.569 5.436,-6.301 5.436,-11.196 0,-2.929 -0.756,-5.498 -2.268,-7.705 -1.512,-2.208 -3.54,-3.936 -6.084,-5.183 L 23.328,-41.184 H 13.392 L 3.024,-22.607 H -5.76 v -18.577 h -9.288 z"
             style="fill:#9558fd;fill-opacity:1;fill-rule:nonzero;stroke:none"
             id="path1079" />
        </g>
        <g
           id="g1081"
           transform="translate(436.4199,241.457)">
          <path
             d="m 0,0 v 48.96 h 29.231 l 1.441,-7.344 H 9.288 V 28.44 h 15.983 l 1.513,-7.416 H 9.288 V 7.272 H 32.76 L 34.271,0 Z"
             style="fill:#9558fd;fill-opacity:1;fill-rule:nonzero;stroke:none"
             id="path1083" />
        </g>
        <g
           id="g1085"
           transform="translate(478.251,241.457)">
          <path
             d="M 0,0 V 48.96 H 9.288 L 31.968,16.272 V 48.96 h 9.36 V 0 h -9.36 L 9.288,32.76 V 0 Z"
             style="fill:#9558fd;fill-opacity:1;fill-rule:nonzero;stroke:none"
             id="path1087" />
        </g>
        <g
           id="g1089"
           transform="translate(567.5303,283.0732)">
          <path
             d="m 0,0 h -16.776 v -41.616 h -9.432 V 0 h -14.904 v 7.344 h 39.6 z"
             style="fill:#9558fd;fill-opacity:1;fill-rule:nonzero;stroke:none"
             id="path1091" />
        </g>
        <g
           id="g1093"
           transform="translate(591.793,277.6006)">
          <path
             d="m 0,0 -6.408,-17.063 h 12.96 z m 4.176,12.816 19.008,-48.383 -9.36,-1.296 -4.392,12.239 H -9.144 l -4.32,-11.52 h -9.36 l 19.08,48.96 z"
             style="fill:#9558fd;fill-opacity:1;fill-rule:nonzero;stroke:none"
             id="path1095" />
        </g>
        <g
           id="g1097"
           transform="translate(654.1455,241.457)">
          <path
             d="m 0,0 h -32.328 v 48.96 h 9.288 V 7.272 h 21.6 z"
             style="fill:#9558fd;fill-opacity:1;fill-rule:nonzero;stroke:none"
             id="path1099" />
        </g>
        <g
           id="g1101"
           transform="translate(658.248,244.6973)">
          <path
             d="M 0,0 2.088,7.56 C 3.863,6.647 5.88,5.843 8.136,5.147 c 2.256,-0.696 4.32,-1.043 6.192,-1.043 2.88,0 5.064,0.456 6.552,1.368 1.487,0.911 2.232,2.232 2.232,3.96 0,1.199 -0.589,2.292 -1.763,3.276 -1.177,0.983 -2.989,2.147 -5.437,3.492 l -2.16,1.296 c -3.216,1.919 -5.773,3.575 -7.668,4.968 -1.897,1.391 -3.527,3.035 -4.896,4.932 -1.368,1.895 -2.052,4.019 -2.052,6.372 0,2.495 0.672,4.74 2.016,6.732 1.343,1.991 3.276,3.552 5.796,4.68 2.52,1.127 5.531,1.692 9.036,1.692 4.128,0 8.736,-1.225 13.825,-3.672 l -3.097,-7.488 c -1.969,0.96 -3.756,1.703 -5.363,2.231 -1.61,0.529 -3.349,0.792 -5.221,0.792 -2.16,0 -3.924,-0.42 -5.292,-1.259 -1.368,-0.84 -2.052,-2.077 -2.052,-3.708 0,-1.393 0.54,-2.556 1.62,-3.493 1.08,-0.935 2.844,-2.124 5.292,-3.563 L 18,25.416 20.088,24.191 c 2.832,-1.631 5.088,-3.059 6.768,-4.283 1.68,-1.224 3.083,-2.713 4.212,-4.465 1.127,-1.752 1.692,-3.804 1.692,-6.155 0,-2.641 -0.708,-4.969 -2.124,-6.984 -1.416,-2.016 -3.504,-3.6 -6.264,-4.752 -2.761,-1.153 -6.06,-1.728 -9.899,-1.728 -2.017,0 -4.526,0.445 -7.525,1.332 C 3.948,-1.957 1.632,-1.008 0,0"
             style="fill:#9558fd;fill-opacity:1;fill-rule:nonzero;stroke:none"
             id="path1103" />
        </g>
      </g>
    </g>
    <g
       id="g1105"
       transform="matrix(0.30975996,0,0,-0.30975996,-20.877522,196.92537)">
      <g
         id="g1107"
         clip-path="url(#clipPath1111)">
        <g
           id="g1113"
           transform="translate(454.5957,433.7949)">
          <path
             d="m 0,0 v -67.338 h -38.699 v 51.25 l 9.937,-9.833 z m 71.1,20.262 50.101,-87.6 h -41.4 L 41.437,1.396 86.654,44.912 95.015,39.931 c 0,0 -8.444,-12.602 -23.915,-19.669"
             style="fill:#6b9439;fill-opacity:1;fill-rule:nonzero;stroke:none"
             id="path1115" />
        </g>
        <g
           id="g1117"
           transform="translate(134.7409,267.5352)">
          <path
             d="M 0,0 -12.021,21.226 -2.805,23.89 10.072,-0.141 M 7.28,0.193 20.451,22.882 h 9.864 L 18.206,1.331"
             style="fill:#6b9439;fill-opacity:1;fill-rule:nonzero;stroke:none"
             id="path1119" />
        </g>
        <g
           id="g1121"
           transform="translate(316.5833,389.9789)">
          <path
             d="m 0,0 v -23.648 l -39.083,0.126 V 5.811 L -36,9.645 -9.417,-12.272 Z"
             style="fill:#6b9439;fill-opacity:1;fill-rule:nonzero;stroke:none"
             id="path1123" />
        </g>
      </g>
    </g>
    <g
       id="g1125"
       transform="matrix(0.30975996,0,0,-0.30975996,0.4967176,123.23735)">
      <path
         d="M -16.39373,-12.942418 32.164,25.07 l 56.5,5.333 58.652,58.167 16.681,-16.667 47.334,90.21 26.666,-22.21 68.667,87.333 49.833,-57.666 28.056,26.333 41.194,0.167 46.5,44.75 34.547,-20.584 62.185,118.834 23.018,-53 30.008,69 25.394,-35.394 36.098,146.394"
         style="fill:none;stroke:#ffffff;stroke-width:3;stroke-linecap:butt;stroke-linejoin:miter;stroke-miterlimit:10;stroke-dasharray:none;stroke-opacity:1"
         id="path1127"
         sodipodi:nodetypes="cccccccccccccccccc" />
    </g>
  </g>
</svg>
