<?xml version="1.0" encoding="UTF-8" standalone="no"?>
<svg
   xmlns:dc="http://purl.org/dc/elements/1.1/"
   xmlns:cc="http://creativecommons.org/ns#"
   xmlns:rdf="http://www.w3.org/1999/02/22-rdf-syntax-ns#"
   xmlns:svg="http://www.w3.org/2000/svg"
   xmlns="http://www.w3.org/2000/svg"
   xmlns:sodipodi="http://sodipodi.sourceforge.net/DTD/sodipodi-0.dtd"
   xmlns:inkscape="http://www.inkscape.org/namespaces/inkscape"
   version="1.1"
   id="svg1073"
   xml:space="preserve"
   width="2248"
   height="756.03198"
   viewBox="0 0 2248 756.03198"
   sodipodi:docname="whp-logo-vietnam.svg"
   inkscape:version="1.0.2-2 (e86c870879, 2021-01-15)"><metadata
     id="metadata1079"><rdf:RDF><cc:Work
         rdf:about=""><dc:format>image/svg+xml</dc:format><dc:type
           rdf:resource="http://purl.org/dc/dcmitype/StillImage" /><dc:title></dc:title></cc:Work></rdf:RDF></metadata><defs
     id="defs1077"><clipPath
       clipPathUnits="userSpaceOnUse"
       id="clipPath1089"><path
         d="m 178.725,489.561 c -8.571,-0.784 -17.278,-2.333 -25.913,-4.912 v 0 c -8.606,-2.633 -17.178,-6.251 -25.148,-11.309 v 0 c -3.987,-2.513 -7.832,-5.352 -11.459,-8.513 v 0 c -0.894,-0.813 -1.799,-1.58 -2.689,-2.44 v 0 l -2.659,-2.625 -2.336,-2.503 c -0.024,-0.022 -0.294,-0.316 -0.376,-0.417 v 0 l -0.296,-0.349 -0.592,-0.697 -1.187,-1.398 C 99.847,446.843 94.808,438.121 91.2,428.768 v 0 c -3.626,-9.357 -5.783,-19.311 -6.806,-29.387 v 0 c -1.049,-10.091 -0.808,-20.309 0.238,-30.464 v 0 c 2.164,-20.325 7.851,-40.302 15.582,-59.523 v 0 c 3.901,-9.605 8.346,-19.032 13.24,-28.257 v 0 c 2.431,-4.622 5,-9.18 7.649,-13.7 v 0 c 2.672,-4.507 5.454,-8.958 8.32,-13.364 v 0 c 22.889,-35.261 52.048,-67.021 84.326,-94.42 v 0 l 6.206,-5.127 c 2.078,-1.657 4.124,-3.353 6.228,-4.978 v 0 c 2.093,-1.638 4.178,-3.285 6.304,-4.879 v 0 c 2.109,-1.618 4.235,-3.211 6.38,-4.778 v 0 c 4.27,-3.16 8.613,-6.219 12.982,-9.235 v 0 c 4.399,-2.973 8.831,-5.891 13.32,-8.712 v 0 c 8.976,-5.643 18.112,-11.008 27.436,-15.979 v 0 c 9.347,-4.925 18.833,-9.536 28.478,-13.711 v 0 c 9.641,-4.187 19.433,-7.948 29.356,-11.203 v 0 c 9.913,-3.278 19.945,-6.097 30.07,-8.315 v 0 c 20.238,-4.414 40.881,-6.662 61.274,-5.401 v 0 c 10.183,0.665 20.292,2.151 30.061,4.864 v 0 c 9.758,2.692 19.205,6.48 27.819,11.616 v 0 c 4.304,2.563 8.398,5.442 12.213,8.612 v 0 l 1.431,1.186 1.377,1.244 c 0.921,0.827 1.837,1.652 2.699,2.535 v 0 c 0.874,0.878 1.753,1.698 2.609,2.657 v 0 l 1.285,1.396 c 0.433,0.467 0.862,0.935 1.208,1.364 v 0 l 1.104,1.317 0.551,0.657 0.276,0.33 c 0.073,0.083 0.34,0.415 0.359,0.447 v 0 l 2.215,2.894 2.078,2.979 c 0.681,0.996 1.298,2.033 1.946,3.044 v 0 c 2.51,4.102 4.663,8.364 6.473,12.714 v 0 c 3.652,8.698 5.786,17.749 6.943,26.67 v 0 c 1.1,8.941 1.166,17.782 0.515,26.361 v 0 c -1.267,17.188 -5.386,33.285 -10.494,48.165 v 0 c -5.156,14.893 -11.547,28.562 -18.288,41.147 v 0 c -6.776,12.576 -14.052,24.001 -21.238,34.469 v 0 c -3.622,5.216 -7.257,10.172 -10.844,14.892 v 0 c -3.616,4.699 -7.174,9.169 -10.657,13.412 v 0 c -6.969,8.482 -13.715,15.979 -19.958,22.601 v 0 c -6.264,6.603 -11.991,12.368 -17.079,17.274 v 0 c -5.086,4.91 -9.537,8.954 -13.162,12.212 v 0 c -3.643,3.238 -6.459,5.694 -8.384,7.317 v 0 c -1.917,1.634 -2.906,2.476 -2.906,2.476 v 0 c 0,0 -0.997,0.835 -2.928,2.451 v 0 c -1.923,1.626 -4.815,3.992 -8.617,7.043 v 0 c -3.818,3.029 -8.55,6.74 -14.241,10.932 v 0 c -5.689,4.195 -12.33,8.879 -19.888,13.95 v 0 c -7.572,5.049 -16.094,10.444 -25.622,15.897 v 0 c -4.764,2.724 -9.765,5.49 -15.004,8.266 v 0 c -5.254,2.747 -10.747,5.503 -16.496,8.202 v 0 c -11.523,5.332 -24.001,10.604 -37.535,15.178 v 0 c -13.536,4.541 -28.08,8.566 -43.629,11.155 v 0 c -10.894,1.795 -22.297,3.003 -34.062,3.003 v 0 c -5.001,0 -10.069,-0.219 -15.188,-0.703 M 427.146,83.317 c -4.696,0.304 -9.406,0.844 -14.123,1.472 v 0 c -9.432,1.289 -18.873,3.238 -28.26,5.687 v 0 c -18.782,4.91 -37.317,11.885 -55.387,20.263 v 0 c -9.041,4.184 -17.941,8.789 -26.711,13.692 v 0 c -8.784,4.878 -17.415,10.11 -25.889,15.624 v 0 c -4.239,2.754 -8.424,5.603 -12.578,8.503 v 0 c -4.15,2.905 -8.285,5.841 -12.347,8.883 v 0 c -2.042,1.507 -4.065,3.039 -6.072,4.595 v 0 c -2.023,1.534 -4.008,3.118 -6.001,4.693 v 0 c -2.003,1.562 -3.95,3.195 -5.928,4.789 v 0 l -5.795,4.833 -5.896,5.057 c -1.888,1.671 -3.779,3.278 -5.664,4.999 v 0 c -1.886,1.702 -3.78,3.393 -5.63,5.131 v 0 c -1.871,1.718 -3.719,3.457 -5.546,5.217 v 0 c -7.335,7.015 -14.432,14.257 -21.298,21.677 v 0 c -6.852,7.432 -13.459,15.061 -19.731,22.911 v 0 c -6.281,7.84 -12.325,15.831 -17.958,24.046 v 0 c -11.254,16.429 -21.266,33.513 -29.222,51.218 v 0 c -3.984,8.842 -7.487,17.819 -10.337,26.902 v 0 c -1.401,4.544 -2.718,9.098 -3.807,13.675 v 0 c -1.087,4.576 -2.008,9.165 -2.737,13.755 v 0 c -0.704,4.591 -1.201,9.182 -1.485,13.754 v 0 c -0.301,4.571 -0.361,9.126 -0.14,13.631 v 0 c 0.428,9.004 1.858,17.85 4.576,26.167 v 0 c 2.707,8.316 6.656,16.097 11.73,22.989 v 0 l 1.881,2.465 2.198,2.624 2.085,2.282 c 0.701,0.758 1.492,1.501 2.231,2.254 v 0 c 3.047,2.959 6.32,5.662 9.766,8.103 v 0 c 6.883,4.913 14.51,8.645 22.354,11.517 v 0 c 7.873,2.82 15.994,4.734 24.118,5.919 v 0 c 4.061,0.6 8.13,0.958 12.173,1.247 v 0 c 4.048,0.214 8.074,0.372 12.07,0.316 v 0 c 7.993,-0.025 15.853,-0.63 23.513,-1.579 v 0 c 15.331,-1.902 29.872,-5.219 43.416,-9.306 v 0 c 13.555,-4.075 26.15,-8.853 37.734,-13.92 v 0 c 23.194,-10.125 42.331,-21.305 57.602,-31.16 v 0 c 15.278,-9.879 26.623,-18.614 34.291,-24.621 v 0 c 3.817,-3.03 6.722,-5.381 8.652,-6.998 v 0 c 1.94,-1.606 2.941,-2.436 2.941,-2.436 v 0 c 0,0 0.984,-0.847 2.893,-2.491 v 0 c 1.917,-1.632 4.72,-4.103 8.347,-7.359 v 0 c 7.206,-6.555 17.714,-16.279 30.014,-29.687 v 0 c 12.268,-13.407 26.5,-30.399 40.365,-51.571 v 0 c 6.933,-10.574 13.761,-22.187 20.045,-34.872 v 0 c 6.296,-12.668 12.01,-26.446 16.45,-41.245 v 0 c 2.217,-7.394 4.139,-15.041 5.499,-22.918 v 0 c 0.724,-3.932 1.244,-7.928 1.711,-11.955 v 0 c 0.392,-4.036 0.72,-8.108 0.809,-12.214 v 0 c 0.2,-8.209 -0.331,-16.539 -1.792,-24.778 v 0 c -1.518,-8.217 -3.921,-16.367 -7.613,-23.979 v 0 c -1.831,-3.809 -3.949,-7.491 -6.357,-10.993 v 0 c -0.623,-0.861 -1.211,-1.747 -1.859,-2.591 v 0 l -1.965,-2.52 -2.081,-2.435 -2.237,-2.41 c -0.399,-0.443 -0.771,-0.797 -1.141,-1.151 v 0 l -1.112,-1.079 c -0.711,-0.726 -1.56,-1.432 -2.351,-2.149 v 0 c -0.788,-0.728 -1.629,-1.403 -2.468,-2.078 v 0 l -1.253,-1.02 -1.304,-0.964 c -3.465,-2.579 -7.158,-4.891 -11.032,-6.926 v 0 c -7.749,-4.077 -16.237,-6.969 -25.048,-8.901 v 0 c -8.816,-1.947 -18.001,-2.796 -27.284,-2.979 v 0 c -0.622,-0.006 -1.245,-0.01 -1.868,-0.01 v 0 c -4.034,0 -8.089,0.14 -12.157,0.405"
         id="path1087" /></clipPath><linearGradient
       x1="0"
       y1="0"
       x2="1"
       y2="0"
       gradientUnits="userSpaceOnUse"
       gradientTransform="matrix(432.71848,66.630913,66.630913,-432.71848,100.34427,245.92654)"
       spreadMethod="pad"
       id="linearGradient1103"><stop
         style="stop-opacity:1;stop-color:#5da043"
         offset="0"
         id="stop1095" /><stop
         style="stop-opacity:1;stop-color:#5da043"
         offset="0.578918"
         id="stop1097" /><stop
         style="stop-opacity:1;stop-color:#5da043"
         offset="0.778325"
         id="stop1099" /><stop
         style="stop-opacity:1;stop-color:#5da043"
         offset="1"
         id="stop1101" /></linearGradient><clipPath
       clipPathUnits="userSpaceOnUse"
       id="clipPath1113"><path
         d="m 94.975,280.883 c 0,-122.056 98.945,-221.001 221,-221.001 v 0 c 122.055,0 221,98.945 221,221.001 v 0 c 0,122.054 -98.945,220.999 -221,220.999 v 0 c -122.055,0 -221,-98.945 -221,-220.999"
         id="path1111" /></clipPath><linearGradient
       x1="0"
       y1="0"
       x2="1"
       y2="0"
       gradientUnits="userSpaceOnUse"
       gradientTransform="matrix(-221.0369,-382.84714,-382.84714,221.0369,426.49326,472.30612)"
       spreadMethod="pad"
       id="linearGradient1125"><stop
         style="stop-opacity:1;stop-color:#849bce"
         offset="0"
         id="stop1119" /><stop
         style="stop-opacity:1;stop-color:#1c4386"
         offset="0.897849"
         id="stop1121" /><stop
         style="stop-opacity:1;stop-color:#1c4386"
         offset="1"
         id="stop1123" /></linearGradient><clipPath
       clipPathUnits="userSpaceOnUse"
       id="clipPath1135"><path
         d="M 0,567.024 H 1686 V 0 H 0 Z"
         id="path1133" /></clipPath><clipPath
       clipPathUnits="userSpaceOnUse"
       id="clipPath1147"><path
         d="m 111.09,452.008 c -0.917,-0.882 -2.212,-2.25 -3.837,-4.116 v 0 c -0.78,-0.961 -1.651,-2.035 -2.609,-3.216 v 0 c -0.884,-1.236 -1.943,-2.54 -2.923,-4.056 v 0 c -2.083,-2.963 -4.181,-6.582 -6.231,-10.81 v 0 c -4.118,-8.436 -7.7,-19.531 -9.334,-32.672 v 0 c -1.664,-13.127 -1.319,-28.212 1.329,-44.237 v 0 c 1.323,-8.014 3.218,-16.267 5.648,-24.653 v 0 c 2.44,-8.385 5.439,-16.904 8.938,-25.472 v 0 c 7.027,-17.13 16.113,-34.447 26.977,-51.374 v 0 c 5.399,-8.486 11.313,-16.826 17.557,-25.062 v 0 c 3.145,-4.098 6.345,-8.197 9.662,-12.23 v 0 c 3.322,-4.03 6.761,-7.993 10.256,-11.932 v 0 c 7.003,-7.865 14.295,-15.587 21.97,-22.968 v 0 c 1.906,-1.86 3.836,-3.697 5.787,-5.515 v 0 c 1.933,-1.836 3.911,-3.626 5.881,-5.427 v 0 c 1.949,-1.801 4.024,-3.594 6.033,-5.391 v 0 l 5.927,-5.124 6.257,-5.155 c 2.09,-1.664 4.148,-3.365 6.262,-4.994 v 0 c 2.105,-1.641 4.2,-3.292 6.334,-4.89 v 0 c 2.118,-1.619 4.253,-3.214 6.405,-4.782 v 0 c 8.564,-6.329 17.406,-12.211 26.326,-17.807 v 0 c 2.238,-1.388 4.463,-2.785 6.72,-4.123 v 0 c 2.243,-1.357 4.489,-2.702 6.765,-3.982 v 0 c 4.532,-2.595 9.106,-5.065 13.673,-7.48 v 0 c 9.159,-4.788 18.381,-9.202 27.648,-13.109 v 0 c 18.503,-7.88 37.095,-13.936 55.158,-17.995 v 0 c 18.06,-4.052 35.603,-6.071 51.85,-5.995 v 0 c 16.24,0.065 31.167,2.249 43.829,6.082 v 0 c 12.68,3.804 23.019,9.187 30.648,14.655 v 0 c 3.826,2.726 7.042,5.399 9.616,7.946 v 0 c 1.331,1.219 2.439,2.481 3.511,3.558 v 0 c 1.006,1.142 1.919,2.18 2.736,3.109 v 0 c 1.579,1.923 2.705,3.422 3.418,4.468 v 0 c 0.734,1.032 1.113,1.565 1.113,1.565 v 0 c 0,0 -0.483,-0.441 -1.418,-1.296 v 0 c -0.472,-0.419 -1.036,-0.973 -1.749,-1.571 v 0 c -0.706,-0.597 -1.524,-1.288 -2.45,-2.07 v 0 c -3.739,-3.076 -9.564,-7.193 -17.535,-11.072 v 0 c -7.968,-3.868 -18.174,-7.316 -30.217,-9.177 v 0 c -6.017,-0.929 -12.475,-1.524 -19.303,-1.61 v 0 c -6.824,-0.096 -14.005,0.145 -21.464,0.97 v 0 c -7.455,0.805 -15.194,1.943 -23.115,3.674 v 0 c -7.918,1.713 -16.058,3.735 -24.291,6.338 v 0 c -16.497,5.073 -33.461,11.907 -50.454,20.153 v 0 c -8.471,4.183 -16.982,8.648 -25.435,13.474 v 0 c -4.212,2.441 -8.43,4.929 -12.605,7.539 v 0 c -4.195,2.574 -8.374,5.228 -12.526,7.959 v 0 c -8.324,5.434 -16.451,11.31 -24.537,17.303 v 0 c -2.023,1.496 -4.029,3.02 -6.02,4.567 v 0 c -2.007,1.527 -3.977,3.104 -5.956,4.672 v 0 c -1.989,1.555 -3.923,3.182 -5.889,4.77 v 0 l -5.744,4.804 -5.899,5.041 c -1.875,1.657 -3.748,3.244 -5.627,4.954 v 0 c -1.875,1.689 -3.762,3.367 -5.601,5.09 v 0 c -1.859,1.705 -3.697,3.427 -5.511,5.171 v 0 c -7.258,6.973 -14.398,14.013 -21.154,21.304 v 0 c -3.384,3.639 -6.714,7.303 -9.934,11.025 v 0 c -3.273,3.679 -6.431,7.42 -9.542,11.163 v 0 c -6.181,7.52 -11.99,15.176 -17.533,22.824 v 0 c -10.974,15.371 -20.546,30.954 -28.304,46.368 v 0 c -3.943,7.68 -7.308,15.361 -10.313,22.884 v 0 c -3.032,7.517 -5.457,14.953 -7.491,22.168 v 0 c -2.063,7.214 -3.509,14.252 -4.552,20.995 v 0 c -1.059,6.744 -1.56,13.21 -1.647,19.296 v 0 c -0.186,12.181 1.503,22.819 3.978,31.322 v 0 c 2.485,8.508 5.567,14.941 7.972,19.144 v 0 c 0.617,1.047 1.163,1.971 1.633,2.77 v 0 c 0.471,0.803 0.917,1.445 1.251,1.981 v 0 c 0.685,1.065 1.039,1.615 1.039,1.615 v 0 c 0,0 -0.463,-0.463 -1.357,-1.358"
         id="path1145" /></clipPath><linearGradient
       x1="0"
       y1="0"
       x2="1"
       y2="0"
       gradientUnits="userSpaceOnUse"
       gradientTransform="matrix(400.92963,61.735996,61.735996,-400.92963,99.749603,233.36143)"
       spreadMethod="pad"
       id="linearGradient1161"><stop
         style="stop-opacity:1;stop-color:#5da043"
         offset="0"
         id="stop1153" /><stop
         style="stop-opacity:1;stop-color:#5da043"
         offset="0.578918"
         id="stop1155" /><stop
         style="stop-opacity:1;stop-color:#5da043"
         offset="0.778325"
         id="stop1157" /><stop
         style="stop-opacity:1;stop-color:#5da043"
         offset="1"
         id="stop1159" /></linearGradient><clipPath
       clipPathUnits="userSpaceOnUse"
       id="clipPath1171"><path
         d="M 0,567.024 H 1686 V 0 H 0 Z"
         id="path1169" /></clipPath></defs><sodipodi:namedview
     pagecolor="#ffffff"
     bordercolor="#666666"
     borderopacity="1"
     objecttolerance="10"
     gridtolerance="10"
     guidetolerance="10"
     inkscape:pageopacity="0"
     inkscape:pageshadow="2"
     inkscape:window-width="1767"
     inkscape:window-height="945"
     id="namedview1075"
     showgrid="false"
     inkscape:zoom="0.49199288"
     inkscape:cx="1124"
     inkscape:cy="378.01599"
     inkscape:window-x="62"
     inkscape:window-y="0"
     inkscape:window-maximized="0"
     inkscape:current-layer="g1081" /><g
     id="g1081"
     inkscape:groupmode="layer"
     inkscape:label="whp-logo-vietnam"
     transform="matrix(1.3333333,0,0,-1.3333333,0,756.032)"><g
       id="g1083"><g
         id="g1085"
         clip-path="url(#clipPath1089)"><g
           id="g1091"><g
             id="g1093"><path
               d="m 178.725,489.561 c -8.571,-0.784 -17.278,-2.333 -25.913,-4.912 v 0 c -8.606,-2.633 -17.178,-6.251 -25.148,-11.309 v 0 c -3.987,-2.513 -7.832,-5.352 -11.459,-8.513 v 0 c -0.894,-0.813 -1.799,-1.58 -2.689,-2.44 v 0 l -2.659,-2.625 -2.336,-2.503 c -0.024,-0.022 -0.294,-0.316 -0.376,-0.417 v 0 l -0.296,-0.349 -0.592,-0.697 -1.187,-1.398 C 99.847,446.843 94.808,438.121 91.2,428.768 v 0 c -3.626,-9.357 -5.783,-19.311 -6.806,-29.387 v 0 c -1.049,-10.091 -0.808,-20.309 0.238,-30.464 v 0 c 2.164,-20.325 7.851,-40.302 15.582,-59.523 v 0 c 3.901,-9.605 8.346,-19.032 13.24,-28.257 v 0 c 2.431,-4.622 5,-9.18 7.649,-13.7 v 0 c 2.672,-4.507 5.454,-8.958 8.32,-13.364 v 0 c 22.889,-35.261 52.048,-67.021 84.326,-94.42 v 0 l 6.206,-5.127 c 2.078,-1.657 4.124,-3.353 6.228,-4.978 v 0 c 2.093,-1.638 4.178,-3.285 6.304,-4.879 v 0 c 2.109,-1.618 4.235,-3.211 6.38,-4.778 v 0 c 4.27,-3.16 8.613,-6.219 12.982,-9.235 v 0 c 4.399,-2.973 8.831,-5.891 13.32,-8.712 v 0 c 8.976,-5.643 18.112,-11.008 27.436,-15.979 v 0 c 9.347,-4.925 18.833,-9.536 28.478,-13.711 v 0 c 9.641,-4.187 19.433,-7.948 29.356,-11.203 v 0 c 9.913,-3.278 19.945,-6.097 30.07,-8.315 v 0 c 20.238,-4.414 40.881,-6.662 61.274,-5.401 v 0 c 10.183,0.665 20.292,2.151 30.061,4.864 v 0 c 9.758,2.692 19.205,6.48 27.819,11.616 v 0 c 4.304,2.563 8.398,5.442 12.213,8.612 v 0 l 1.431,1.186 1.377,1.244 c 0.921,0.827 1.837,1.652 2.699,2.535 v 0 c 0.874,0.878 1.753,1.698 2.609,2.657 v 0 l 1.285,1.396 c 0.433,0.467 0.862,0.935 1.208,1.364 v 0 l 1.104,1.317 0.551,0.657 0.276,0.33 c 0.073,0.083 0.34,0.415 0.359,0.447 v 0 l 2.215,2.894 2.078,2.979 c 0.681,0.996 1.298,2.033 1.946,3.044 v 0 c 2.51,4.102 4.663,8.364 6.473,12.714 v 0 c 3.652,8.698 5.786,17.749 6.943,26.67 v 0 c 1.1,8.941 1.166,17.782 0.515,26.361 v 0 c -1.267,17.188 -5.386,33.285 -10.494,48.165 v 0 c -5.156,14.893 -11.547,28.562 -18.288,41.147 v 0 c -6.776,12.576 -14.052,24.001 -21.238,34.469 v 0 c -3.622,5.216 -7.257,10.172 -10.844,14.892 v 0 c -3.616,4.699 -7.174,9.169 -10.657,13.412 v 0 c -6.969,8.482 -13.715,15.979 -19.958,22.601 v 0 c -6.264,6.603 -11.991,12.368 -17.079,17.274 v 0 c -5.086,4.91 -9.537,8.954 -13.162,12.212 v 0 c -3.643,3.238 -6.459,5.694 -8.384,7.317 v 0 c -1.917,1.634 -2.906,2.476 -2.906,2.476 v 0 c 0,0 -0.997,0.835 -2.928,2.451 v 0 c -1.923,1.626 -4.815,3.992 -8.617,7.043 v 0 c -3.818,3.029 -8.55,6.74 -14.241,10.932 v 0 c -5.689,4.195 -12.33,8.879 -19.888,13.95 v 0 c -7.572,5.049 -16.094,10.444 -25.622,15.897 v 0 c -4.764,2.724 -9.765,5.49 -15.004,8.266 v 0 c -5.254,2.747 -10.747,5.503 -16.496,8.202 v 0 c -11.523,5.332 -24.001,10.604 -37.535,15.178 v 0 c -13.536,4.541 -28.08,8.566 -43.629,11.155 v 0 c -10.894,1.795 -22.297,3.003 -34.062,3.003 v 0 c -5.001,0 -10.069,-0.219 -15.188,-0.703 M 427.146,83.317 c -4.696,0.304 -9.406,0.844 -14.123,1.472 v 0 c -9.432,1.289 -18.873,3.238 -28.26,5.687 v 0 c -18.782,4.91 -37.317,11.885 -55.387,20.263 v 0 c -9.041,4.184 -17.941,8.789 -26.711,13.692 v 0 c -8.784,4.878 -17.415,10.11 -25.889,15.624 v 0 c -4.239,2.754 -8.424,5.603 -12.578,8.503 v 0 c -4.15,2.905 -8.285,5.841 -12.347,8.883 v 0 c -2.042,1.507 -4.065,3.039 -6.072,4.595 v 0 c -2.023,1.534 -4.008,3.118 -6.001,4.693 v 0 c -2.003,1.562 -3.95,3.195 -5.928,4.789 v 0 l -5.795,4.833 -5.896,5.057 c -1.888,1.671 -3.779,3.278 -5.664,4.999 v 0 c -1.886,1.702 -3.78,3.393 -5.63,5.131 v 0 c -1.871,1.718 -3.719,3.457 -5.546,5.217 v 0 c -7.335,7.015 -14.432,14.257 -21.298,21.677 v 0 c -6.852,7.432 -13.459,15.061 -19.731,22.911 v 0 c -6.281,7.84 -12.325,15.831 -17.958,24.046 v 0 c -11.254,16.429 -21.266,33.513 -29.222,51.218 v 0 c -3.984,8.842 -7.487,17.819 -10.337,26.902 v 0 c -1.401,4.544 -2.718,9.098 -3.807,13.675 v 0 c -1.087,4.576 -2.008,9.165 -2.737,13.755 v 0 c -0.704,4.591 -1.201,9.182 -1.485,13.754 v 0 c -0.301,4.571 -0.361,9.126 -0.14,13.631 v 0 c 0.428,9.004 1.858,17.85 4.576,26.167 v 0 c 2.707,8.316 6.656,16.097 11.73,22.989 v 0 l 1.881,2.465 2.198,2.624 2.085,2.282 c 0.701,0.758 1.492,1.501 2.231,2.254 v 0 c 3.047,2.959 6.32,5.662 9.766,8.103 v 0 c 6.883,4.913 14.51,8.645 22.354,11.517 v 0 c 7.873,2.82 15.994,4.734 24.118,5.919 v 0 c 4.061,0.6 8.13,0.958 12.173,1.247 v 0 c 4.048,0.214 8.074,0.372 12.07,0.316 v 0 c 7.993,-0.025 15.853,-0.63 23.513,-1.579 v 0 c 15.331,-1.902 29.872,-5.219 43.416,-9.306 v 0 c 13.555,-4.075 26.15,-8.853 37.734,-13.92 v 0 c 23.194,-10.125 42.331,-21.305 57.602,-31.16 v 0 c 15.278,-9.879 26.623,-18.614 34.291,-24.621 v 0 c 3.817,-3.03 6.722,-5.381 8.652,-6.998 v 0 c 1.94,-1.606 2.941,-2.436 2.941,-2.436 v 0 c 0,0 0.984,-0.847 2.893,-2.491 v 0 c 1.917,-1.632 4.72,-4.103 8.347,-7.359 v 0 c 7.206,-6.555 17.714,-16.279 30.014,-29.687 v 0 c 12.268,-13.407 26.5,-30.399 40.365,-51.571 v 0 c 6.933,-10.574 13.761,-22.187 20.045,-34.872 v 0 c 6.296,-12.668 12.01,-26.446 16.45,-41.245 v 0 c 2.217,-7.394 4.139,-15.041 5.499,-22.918 v 0 c 0.724,-3.932 1.244,-7.928 1.711,-11.955 v 0 c 0.392,-4.036 0.72,-8.108 0.809,-12.214 v 0 c 0.2,-8.209 -0.331,-16.539 -1.792,-24.778 v 0 c -1.518,-8.217 -3.921,-16.367 -7.613,-23.979 v 0 c -1.831,-3.809 -3.949,-7.491 -6.357,-10.993 v 0 c -0.623,-0.861 -1.211,-1.747 -1.859,-2.591 v 0 l -1.965,-2.52 -2.081,-2.435 -2.237,-2.41 c -0.399,-0.443 -0.771,-0.797 -1.141,-1.151 v 0 l -1.112,-1.079 c -0.711,-0.726 -1.56,-1.432 -2.351,-2.149 v 0 c -0.788,-0.728 -1.629,-1.403 -2.468,-2.078 v 0 l -1.253,-1.02 -1.304,-0.964 c -3.465,-2.579 -7.158,-4.891 -11.032,-6.926 v 0 c -7.749,-4.077 -16.237,-6.969 -25.048,-8.901 v 0 c -8.816,-1.947 -18.001,-2.796 -27.284,-2.979 v 0 c -0.622,-0.006 -1.245,-0.01 -1.868,-0.01 v 0 c -4.034,0 -8.089,0.14 -12.157,0.405"
               style="fill:url(#linearGradient1103);stroke:none"
               id="path1105" /></g></g></g></g><g
       id="g1107"><g
         id="g1109"
         clip-path="url(#clipPath1113)"><g
           id="g1115"><g
             id="g1117"><path
               d="m 94.975,280.883 c 0,-122.056 98.945,-221.001 221,-221.001 v 0 c 122.055,0 221,98.945 221,221.001 v 0 c 0,122.054 -98.945,220.999 -221,220.999 v 0 c -122.055,0 -221,-98.945 -221,-220.999"
               style="fill:url(#linearGradient1125);stroke:none"
               id="path1127" /></g></g></g></g><g
       id="g1129"><g
         id="g1131"
         clip-path="url(#clipPath1135)"><g
           id="g1137"
           transform="translate(536.9748,277.8827)"><path
             d="m 0,0 c 0,-113.587 -89.095,-205.667 -199,-205.667 -109.905,0 -199,92.08 -199,205.667 0,113.587 89.095,205.667 199,205.667 C -89.095,205.667 0,113.587 0,0"
             style="fill:#1c4386;fill-opacity:1;fill-rule:nonzero;stroke:none"
             id="path1139" /></g></g></g><g
       id="g1141"><g
         id="g1143"
         clip-path="url(#clipPath1147)"><g
           id="g1149"><g
             id="g1151"><path
               d="m 111.09,452.008 c -0.917,-0.882 -2.212,-2.25 -3.837,-4.116 v 0 c -0.78,-0.961 -1.651,-2.035 -2.609,-3.216 v 0 c -0.884,-1.236 -1.943,-2.54 -2.923,-4.056 v 0 c -2.083,-2.963 -4.181,-6.582 -6.231,-10.81 v 0 c -4.118,-8.436 -7.7,-19.531 -9.334,-32.672 v 0 c -1.664,-13.127 -1.319,-28.212 1.329,-44.237 v 0 c 1.323,-8.014 3.218,-16.267 5.648,-24.653 v 0 c 2.44,-8.385 5.439,-16.904 8.938,-25.472 v 0 c 7.027,-17.13 16.113,-34.447 26.977,-51.374 v 0 c 5.399,-8.486 11.313,-16.826 17.557,-25.062 v 0 c 3.145,-4.098 6.345,-8.197 9.662,-12.23 v 0 c 3.322,-4.03 6.761,-7.993 10.256,-11.932 v 0 c 7.003,-7.865 14.295,-15.587 21.97,-22.968 v 0 c 1.906,-1.86 3.836,-3.697 5.787,-5.515 v 0 c 1.933,-1.836 3.911,-3.626 5.881,-5.427 v 0 c 1.949,-1.801 4.024,-3.594 6.033,-5.391 v 0 l 5.927,-5.124 6.257,-5.155 c 2.09,-1.664 4.148,-3.365 6.262,-4.994 v 0 c 2.105,-1.641 4.2,-3.292 6.334,-4.89 v 0 c 2.118,-1.619 4.253,-3.214 6.405,-4.782 v 0 c 8.564,-6.329 17.406,-12.211 26.326,-17.807 v 0 c 2.238,-1.388 4.463,-2.785 6.72,-4.123 v 0 c 2.243,-1.357 4.489,-2.702 6.765,-3.982 v 0 c 4.532,-2.595 9.106,-5.065 13.673,-7.48 v 0 c 9.159,-4.788 18.381,-9.202 27.648,-13.109 v 0 c 18.503,-7.88 37.095,-13.936 55.158,-17.995 v 0 c 18.06,-4.052 35.603,-6.071 51.85,-5.995 v 0 c 16.24,0.065 31.167,2.249 43.829,6.082 v 0 c 12.68,3.804 23.019,9.187 30.648,14.655 v 0 c 3.826,2.726 7.042,5.399 9.616,7.946 v 0 c 1.331,1.219 2.439,2.481 3.511,3.558 v 0 c 1.006,1.142 1.919,2.18 2.736,3.109 v 0 c 1.579,1.923 2.705,3.422 3.418,4.468 v 0 c 0.734,1.032 1.113,1.565 1.113,1.565 v 0 c 0,0 -0.483,-0.441 -1.418,-1.296 v 0 c -0.472,-0.419 -1.036,-0.973 -1.749,-1.571 v 0 c -0.706,-0.597 -1.524,-1.288 -2.45,-2.07 v 0 c -3.739,-3.076 -9.564,-7.193 -17.535,-11.072 v 0 c -7.968,-3.868 -18.174,-7.316 -30.217,-9.177 v 0 c -6.017,-0.929 -12.475,-1.524 -19.303,-1.61 v 0 c -6.824,-0.096 -14.005,0.145 -21.464,0.97 v 0 c -7.455,0.805 -15.194,1.943 -23.115,3.674 v 0 c -7.918,1.713 -16.058,3.735 -24.291,6.338 v 0 c -16.497,5.073 -33.461,11.907 -50.454,20.153 v 0 c -8.471,4.183 -16.982,8.648 -25.435,13.474 v 0 c -4.212,2.441 -8.43,4.929 -12.605,7.539 v 0 c -4.195,2.574 -8.374,5.228 -12.526,7.959 v 0 c -8.324,5.434 -16.451,11.31 -24.537,17.303 v 0 c -2.023,1.496 -4.029,3.02 -6.02,4.567 v 0 c -2.007,1.527 -3.977,3.104 -5.956,4.672 v 0 c -1.989,1.555 -3.923,3.182 -5.889,4.77 v 0 l -5.744,4.804 -5.899,5.041 c -1.875,1.657 -3.748,3.244 -5.627,4.954 v 0 c -1.875,1.689 -3.762,3.367 -5.601,5.09 v 0 c -1.859,1.705 -3.697,3.427 -5.511,5.171 v 0 c -7.258,6.973 -14.398,14.013 -21.154,21.304 v 0 c -3.384,3.639 -6.714,7.303 -9.934,11.025 v 0 c -3.273,3.679 -6.431,7.42 -9.542,11.163 v 0 c -6.181,7.52 -11.99,15.176 -17.533,22.824 v 0 c -10.974,15.371 -20.546,30.954 -28.304,46.368 v 0 c -3.943,7.68 -7.308,15.361 -10.313,22.884 v 0 c -3.032,7.517 -5.457,14.953 -7.491,22.168 v 0 c -2.063,7.214 -3.509,14.252 -4.552,20.995 v 0 c -1.059,6.744 -1.56,13.21 -1.647,19.296 v 0 c -0.186,12.181 1.503,22.819 3.978,31.322 v 0 c 2.485,8.508 5.567,14.941 7.972,19.144 v 0 c 0.617,1.047 1.163,1.971 1.633,2.77 v 0 c 0.471,0.803 0.917,1.445 1.251,1.981 v 0 c 0.685,1.065 1.039,1.615 1.039,1.615 v 0 c 0,0 -0.463,-0.463 -1.357,-1.358"
               style="fill:url(#linearGradient1161);stroke:none"
               id="path1163" /></g></g></g></g><g
       id="g1165"><g
         id="g1167"
         clip-path="url(#clipPath1171)"><g
           id="g1173"
           transform="translate(316.5391,346.7632)"><path
             d="m 0,0 -43.502,-113.62 c -0.885,-2.556 -2.506,-3.834 -4.865,-3.834 -2.41,0 -4.031,1.229 -4.867,3.687 l -32.073,82.357 c -0.984,3.098 -3.612,5.272 -7.889,6.525 -4.276,1.254 -6.414,3.576 -6.414,6.968 h 44.901 c 0.098,-3.294 -1.818,-5.566 -5.75,-6.82 -3.934,-1.253 -5.751,-3.233 -5.457,-5.935 l 20.572,-53.013 34.506,86.191 c 1.719,4.522 4.299,6.12 7.74,4.793 C -0.1,6.119 0.934,3.686 0,0 m -94.228,-113.915 c -0.787,-2.163 -2.064,-3.342 -3.834,-3.539 -1.671,0 -2.999,1.204 -3.981,3.614 l -33.622,83.904 c -1.032,2.458 -3.256,4.326 -6.672,5.604 -3.417,1.278 -5.124,3.416 -5.124,6.415 h 42.616 c 0,-2.999 -1.819,-5.187 -5.456,-6.562 -3.638,-1.376 -5.063,-3.17 -4.277,-5.382 l 21.014,-53.897 5.677,14.746 c 1.769,4.669 4.387,6.34 7.852,5.014 3.465,-1.328 4.313,-4.327 2.544,-8.997 z"
             style="fill:#ffffff;fill-opacity:1;fill-rule:nonzero;stroke:none"
             id="path1175" /></g><g
           id="g1177"
           transform="translate(388.499,274.0635)"><path
             d="m 0,0 h -26.026 c -5.162,0 -7.743,1.781 -7.743,5.346 0,3.564 2.581,5.346 7.743,5.346 H 0 c 1.572,0 2.359,0.786 2.359,2.359 v 28.018 c 0,3.047 -2.409,5.21 -7.225,6.488 -4.818,1.277 -7.226,3.687 -7.226,7.226 h 48.589 c 0,-3.539 -2.409,-5.949 -7.226,-7.226 -4.818,-1.278 -7.225,-3.441 -7.225,-6.488 V -31.04 c 0,-3.048 2.407,-5.211 7.225,-6.488 4.817,-1.279 7.226,-3.687 7.226,-7.226 h -48.589 c 0,3.539 2.408,5.947 7.226,7.226 4.816,1.277 7.225,3.44 7.225,6.488 V -2.211 C 2.359,-0.736 1.572,0 0,0 m -41.216,-31.04 c 0,-3.048 2.408,-5.211 7.227,-6.488 4.816,-1.279 7.224,-3.687 7.224,-7.226 h -48.588 c 0,3.539 2.409,5.947 7.226,7.226 4.816,1.277 7.226,3.44 7.226,6.488 v 72.109 c 0,3.047 -2.41,5.21 -7.226,6.488 -4.817,1.277 -7.226,3.687 -7.226,7.226 h 48.588 c 0,-3.539 -2.408,-5.949 -7.224,-7.226 -4.819,-1.278 -7.227,-3.441 -7.227,-6.488 z"
             style="fill:#ffffff;fill-opacity:1;fill-rule:nonzero;stroke:none"
             id="path1179" /></g><g
           id="g1181"
           transform="translate(476.7549,281.7319)"><path
             d="m 0,0 c 7.963,1.278 12.092,7.644 12.387,19.097 0,10.617 -5.825,16.417 -17.475,17.4 h -8.331 v -75.279 c 0,-2.999 2.397,-5.162 7.189,-6.488 4.793,-1.328 7.189,-3.712 7.189,-7.152 h -49.326 c 0,3.539 2.408,5.983 7.225,7.336 4.817,1.351 7.226,3.477 7.226,6.378 v 72.993 c 0,2.36 -2.409,4.214 -7.226,5.567 -4.817,1.351 -7.225,3.796 -7.225,7.336 H -4.35 c 24.282,0 37.479,-9.242 39.593,-27.723 0,-18.924 -11.895,-28.681 -35.685,-29.271 -3.737,0.098 -5.604,1.744 -5.604,4.94 C -5.898,-1.621 -3.884,0 0,0"
             style="fill:#ffffff;fill-opacity:1;fill-rule:nonzero;stroke:none"
             id="path1183" /></g><g
           id="g1185"
           transform="translate(621.4766,226.8105)"><path
             d="m 0,0 c -1.911,0 -4.554,0.896 -6.296,5.169 l -33.627,83.919 c -0.745,1.771 -2.46,3.155 -5.229,4.192 -5.577,2.085 -6.747,5.912 -6.747,8.756 v 2.5 h 47.616 v -2.5 c 0,-2.841 -1.227,-6.69 -7.071,-8.901 -0.952,-0.36 -3.13,-1.295 -2.806,-2.206 L 4.482,43.115 7.842,51.84 c 2.209,5.828 5.575,7.055 8.01,7.055 0.987,0 2.019,-0.204 3.069,-0.605 2.264,-0.868 7.18,-3.794 3.988,-12.217 L 6.147,5.093 C 4.769,1.297 2.189,0.228 0.275,0.016 L 0.139,0 Z M 49.694,0 C 46.228,0 43.668,1.892 42.48,5.327 L 10.396,87.71 10.372,87.786 c -0.722,2.273 -2.753,3.87 -6.209,4.883 -6.786,1.99 -8.211,6.192 -8.211,9.367 v 2.5 H 45.78 l 0.073,-2.426 c 0.091,-3.113 -1.133,-7.249 -7.491,-9.277 -3.393,-1.081 -3.755,-2.318 -3.75,-2.996 l 18.142,-46.751 32.148,80.302 c 2.14,5.626 5.453,6.815 7.854,6.815 0.997,0 2.043,-0.208 3.108,-0.619 4.176,-1.643 5.855,-5.375 4.621,-10.246 L 100.449,119.196 56.896,5.44 C 55.692,1.959 53.125,0 49.694,0"
             style="fill:#253043;fill-opacity:1;fill-rule:nonzero;stroke:none"
             id="path1187" /></g><g
           id="g1189"
           transform="translate(610.1868,317.2626)"><path
             d="m 0,0 c 0.221,0.104 0.491,0.221 0.82,0.345 2.967,1.122 4.944,2.638 6.25,4.245 1.485,-1.9 3.876,-3.657 7.679,-4.772 3.86,-1.131 4.364,-2.719 4.53,-3.24 l 0.049,-0.153 0.057,-0.149 9.961,-25.576 c -0.743,0.161 -1.48,0.243 -2.205,0.243 -2.637,0 -7.489,-1.128 -10.352,-8.681 l -1.031,-2.679 z m 104.046,42.251 h -0.001 c -2.603,0 -7.384,-1.095 -10.188,-8.422 L 64.08,-40.549 48.639,-0.759 c 0.317,0.195 0.865,0.469 1.771,0.758 6.031,1.924 9.395,6.2 9.231,11.733 l -0.144,4.852 H 54.643 9.742 9.507 h -5 -42.617 -5 v -5 c 0,-2.976 1.088,-8.374 8.373,-11.098 2.041,-0.764 3.32,-1.716 3.802,-2.828 L 2.667,-86.199 c 2.398,-5.879 6.431,-6.753 8.623,-6.753 h 0.276 l 0.275,0.03 c 2.13,0.237 5.981,1.423 7.944,6.697 l 16.254,39.739 15.384,-39.503 c 1.549,-4.427 5.027,-6.963 9.561,-6.963 4.484,0 7.965,2.592 9.562,7.114 l 43.475,113.55 0.105,0.275 0.072,0.286 c 1.554,6.135 -0.731,11.062 -6.113,13.179 -1.385,0.534 -2.733,0.799 -4.039,0.799 M 4.507,11.584 C 4.507,8.585 2.687,6.397 -0.95,5.022 -4.587,3.645 -6.013,1.851 -5.226,-0.361 l 21.013,-53.896 5.678,14.746 c 1.378,3.636 3.27,5.454 5.676,5.454 0.684,0 1.409,-0.147 2.176,-0.44 3.465,-1.329 4.314,-4.326 2.544,-8.996 l -16.737,-40.92 c -0.787,-2.163 -2.065,-3.343 -3.834,-3.539 -1.672,0 -2.999,1.204 -3.982,3.613 l -33.621,83.904 c -1.032,2.458 -3.257,4.325 -6.673,5.604 -3.417,1.278 -5.124,3.416 -5.124,6.415 H 4.507 m 99.538,25.667 c 0.692,0 1.429,-0.15 2.21,-0.452 2.998,-1.179 4.03,-3.612 3.096,-7.299 L 65.85,-84.118 c -0.884,-2.557 -2.507,-3.834 -4.866,-3.834 -2.409,0 -4.031,1.228 -4.866,3.686 L 24.045,-1.909 C 23.061,1.188 20.432,3.363 16.156,4.616 11.88,5.87 9.742,8.192 9.742,11.584 H 54.643 C 54.741,8.29 52.824,6.017 48.892,4.763 44.96,3.51 43.141,1.531 43.436,-1.172 l 20.572,-53.012 34.505,86.191 c 1.33,3.496 3.174,5.244 5.532,5.244"
             style="fill:#ffffff;fill-opacity:1;fill-rule:nonzero;stroke:none"
             id="path1191" /></g><g
           id="g1193"
           transform="translate(750.4434,274.5742)"><path
             d="m 0,0 c 0.112,0 0.212,0.002 0.299,0.006 0.001,0.046 0.002,0.096 0.002,0.148 0,1.299 -0.181,2.827 -0.537,4.542 -0.336,1.613 -0.943,3.165 -1.803,4.614 -0.822,1.383 -1.936,2.577 -3.312,3.547 -1.25,0.883 -2.829,1.312 -4.825,1.312 -1.887,0 -3.503,-0.348 -4.802,-1.036 -1.324,-0.701 -2.42,-1.697 -3.352,-3.046 -0.992,-1.436 -1.793,-3.22 -2.379,-5.302 -0.41,-1.46 -0.748,-3.061 -1.012,-4.785 z m -12.461,-49.976 c -4.515,0 -8.841,0.918 -12.86,2.728 -4.008,1.804 -7.56,4.386 -10.555,7.674 -2.976,3.265 -5.36,7.229 -7.088,11.783 -1.722,4.539 -2.595,9.625 -2.595,15.116 0,7.035 1.362,13.417 4.046,18.968 2.701,5.585 6.796,10.401 12.17,14.314 1.364,0.996 2.912,1.963 4.6,2.872 1.702,0.916 3.508,1.713 5.368,2.369 1.85,0.651 3.789,1.178 5.766,1.569 2.02,0.398 4.068,0.6 6.088,0.6 5.167,0 9.733,-0.925 13.571,-2.749 3.831,-1.822 7.047,-4.292 9.556,-7.342 2.487,-3.021 4.354,-6.548 5.549,-10.483 1.173,-3.855 1.768,-7.945 1.768,-12.155 V -5.67 l -0.641,-0.713 c -0.57,-0.635 -1.333,-1.286 -2.334,-1.993 -0.912,-0.644 -1.91,-1.265 -2.968,-1.845 -1.001,-0.551 -2.042,-1.092 -3.091,-1.604 -1.068,-0.521 -2.046,-0.949 -2.91,-1.274 l -0.425,-0.159 h -32.681 c 0.206,-2.342 0.606,-4.545 1.192,-6.575 0.775,-2.679 1.874,-5.01 3.27,-6.929 1.343,-1.846 2.983,-3.3 4.877,-4.319 1.857,-1.001 4.051,-1.508 6.52,-1.508 1.427,0 2.828,0.081 4.165,0.24 1.246,0.148 2.635,0.509 4.133,1.074 1.576,0.594 3.392,1.451 5.397,2.546 2.026,1.106 4.479,2.659 7.293,4.614 l 1.215,0.844 1.324,-0.658 c 0.575,-0.286 1.139,-0.733 1.776,-1.409 0.491,-0.52 0.961,-1.093 1.395,-1.699 0.385,-0.54 0.732,-1.041 1.041,-1.504 0.357,-0.535 0.593,-0.924 0.743,-1.224 l 0.805,-1.6 -1.258,-1.277 c -3.445,-3.494 -6.595,-6.388 -9.362,-8.601 -2.833,-2.268 -5.608,-4.067 -8.248,-5.348 -2.674,-1.298 -5.385,-2.2 -8.057,-2.681 -2.598,-0.467 -5.476,-0.704 -8.555,-0.704"
             style="fill:#253043;fill-opacity:1;fill-rule:nonzero;stroke:none"
             id="path1195" /></g><g
           id="g1197"
           transform="translate(731.7345,277.0742)"><path
             d="M 0,0 C 0.126,0.556 0.262,1.093 0.407,1.609 0.918,3.424 1.6,4.957 2.436,6.166 3.134,7.177 3.94,7.915 4.9,8.423 5.836,8.918 7.058,9.169 8.533,9.169 9.995,9.169 11.103,8.89 11.918,8.315 13.019,7.538 13.87,6.627 14.521,5.533 15.239,4.323 15.745,3.028 16.025,1.686 16.147,1.096 16.247,0.533 16.324,0 Z m 11.187,28.017 c -2.18,0 -4.391,-0.218 -6.57,-0.647 -2.095,-0.414 -4.151,-0.974 -6.112,-1.664 -1.984,-0.699 -3.909,-1.549 -5.723,-2.525 -1.789,-0.964 -3.434,-1.992 -4.892,-3.056 -5.706,-4.155 -10.062,-9.285 -12.944,-15.243 -2.85,-5.893 -4.296,-12.641 -4.296,-20.057 0,-5.795 0.928,-11.18 2.758,-16.003 1.839,-4.848 4.389,-9.082 7.578,-12.581 3.226,-3.541 7.053,-6.324 11.376,-8.269 4.343,-1.956 9.015,-2.948 13.886,-2.948 3.227,0 6.253,0.25 8.994,0.742 2.9,0.524 5.829,1.497 8.709,2.894 2.807,1.362 5.741,3.261 8.72,5.645 2.842,2.274 6.065,5.234 9.579,8.798 l 2.516,2.552 -1.609,3.203 c -0.2,0.398 -0.476,0.856 -0.897,1.488 -0.322,0.483 -0.685,1.006 -1.086,1.569 -0.501,0.7 -1.043,1.361 -1.615,1.966 -0.842,0.894 -1.632,1.508 -2.48,1.929 l -2.648,1.316 -2.429,-1.688 c -2.74,-1.905 -5.117,-3.409 -7.064,-4.473 -1.904,-1.04 -3.613,-1.848 -5.08,-2.4 -1.31,-0.494 -2.502,-0.807 -3.545,-0.931 -1.242,-0.148 -2.544,-0.223 -3.872,-0.223 -2.08,0 -3.824,0.395 -5.333,1.208 -1.585,0.853 -2.906,2.027 -4.041,3.588 -1.225,1.685 -2.197,3.755 -2.89,6.153 -0.311,1.075 -0.565,2.204 -0.762,3.382 h 29.394 0.907 l 0.85,0.319 c 0.937,0.352 1.99,0.812 3.129,1.368 1.085,0.529 2.164,1.089 3.205,1.663 1.132,0.621 2.21,1.292 3.197,1.989 1.157,0.817 2.057,1.59 2.753,2.365 l 1.282,1.425 v 1.917 c 0,4.457 -0.631,8.791 -1.876,12.883 -1.292,4.251 -3.314,8.067 -6.009,11.343 -2.746,3.336 -6.25,6.031 -10.414,8.011 -4.177,1.986 -9.104,2.992 -14.646,2.992 M -5.844,-5 h 24.553 c 1.13,0 1.88,0.185 2.248,0.553 0.369,0.369 0.553,1.069 0.553,2.101 0,1.475 -0.197,3.158 -0.59,5.051 -0.394,1.891 -1.094,3.686 -2.101,5.381 -1.008,1.697 -2.347,3.134 -4.018,4.314 -1.672,1.18 -3.76,1.769 -6.268,1.769 -2.31,0 -4.301,-0.442 -5.972,-1.327 C 0.89,11.958 -0.524,10.679 -1.678,9.008 -2.833,7.336 -3.742,5.322 -4.406,2.962 -5.069,0.604 -5.549,-2.051 -5.844,-5 m 17.031,28.017 c 4.818,0 8.984,-0.836 12.498,-2.507 3.514,-1.671 6.414,-3.896 8.701,-6.673 2.285,-2.777 3.981,-5.984 5.087,-9.621 1.106,-3.638 1.659,-7.446 1.659,-11.428 -0.443,-0.492 -1.082,-1.032 -1.917,-1.622 -0.836,-0.59 -1.745,-1.155 -2.729,-1.695 -0.983,-0.542 -1.978,-1.058 -2.985,-1.549 -1.008,-0.492 -1.905,-0.885 -2.692,-1.18 H -6.065 c 0.098,-3.539 0.578,-6.796 1.438,-9.769 0.859,-2.975 2.076,-5.542 3.649,-7.705 1.573,-2.164 3.477,-3.846 5.714,-5.05 2.237,-1.205 4.805,-1.807 7.705,-1.807 1.524,0 3.011,0.085 4.461,0.258 1.449,0.172 3.023,0.577 4.719,1.217 1.695,0.638 3.6,1.536 5.714,2.691 2.113,1.154 4.62,2.739 7.52,4.755 0.295,-0.146 0.652,-0.441 1.07,-0.885 0.417,-0.441 0.81,-0.921 1.179,-1.437 0.369,-0.516 0.701,-0.995 0.995,-1.438 0.295,-0.442 0.492,-0.762 0.59,-0.959 -3.391,-3.44 -6.439,-6.242 -9.142,-8.404 -2.704,-2.164 -5.297,-3.847 -7.779,-5.051 -2.482,-1.204 -4.953,-2.027 -7.41,-2.471 -2.458,-0.441 -5.161,-0.663 -8.11,-0.663 -4.179,0 -8.123,0.836 -11.834,2.507 -3.712,1.671 -6.956,4.031 -9.732,7.078 -2.778,3.047 -4.977,6.709 -6.599,10.987 -1.622,4.275 -2.433,9.018 -2.433,14.229 0,6.685 1.265,12.645 3.797,17.88 2.531,5.234 6.328,9.695 11.391,13.381 1.278,0.934 2.716,1.831 4.313,2.692 1.597,0.859 3.269,1.597 5.014,2.212 1.744,0.614 3.551,1.105 5.419,1.474 1.868,0.369 3.735,0.553 5.603,0.553"
             style="fill:#ffffff;fill-opacity:1;fill-rule:nonzero;stroke:none"
             id="path1199" /></g><g
           id="g1201"
           transform="translate(805.0713,246.8926)"><path
             d="m 0,0 c 3.232,-1.667 6.138,-2.893 8.652,-3.648 3.454,-1.04 5.144,-1.259 5.953,-1.259 2.11,0 3.954,0.437 5.481,1.299 1.598,0.901 2.894,2.089 3.968,3.635 1.095,1.582 1.925,3.489 2.465,5.664 0.563,2.275 0.848,4.764 0.848,7.399 0,4.686 -0.409,8.714 -1.217,11.97 -0.786,3.167 -1.848,5.768 -3.156,7.729 -1.225,1.839 -2.654,3.18 -4.246,3.986 -1.653,0.835 -3.37,1.242 -5.249,1.242 -0.937,0 -2.668,-0.27 -5.591,-1.558 C 5.678,35.478 3.021,33.724 0,31.239 Z m 7.379,-22.294 c -1.527,0 -3.371,0.249 -5.639,0.762 -2.143,0.486 -4.501,1.168 -7.006,2.028 -2.469,0.847 -5.113,1.858 -7.858,3.007 -2.729,1.141 -5.484,2.404 -8.189,3.757 l -1.382,0.691 V 75.76 c 0,2.131 -0.079,3.775 -0.235,4.889 -0.126,0.891 -0.375,1.214 -0.475,1.312 -0.259,0.248 -0.746,0.44 -1.405,0.55 -1.137,0.188 -2.714,0.406 -4.685,0.648 l -2.196,0.268 v 9.485 l 2.081,0.354 c 2.301,0.391 4.467,0.771 6.5,1.138 1.994,0.361 3.926,0.772 5.743,1.221 1.838,0.453 3.662,0.96 5.424,1.508 1.74,0.54 3.509,1.174 5.259,1.884 l 1.542,0.625 1.172,-1.181 c 0.177,-0.178 0.423,-0.412 0.736,-0.702 0.329,-0.306 0.676,-0.62 1.049,-0.945 0.497,-0.44 0.972,-0.89 1.451,-1.368 L 0,94.714 V 46.73 c 1.159,0.848 2.31,1.625 3.447,2.328 2.477,1.532 4.896,2.806 7.191,3.786 2.316,0.989 4.495,1.717 6.474,2.166 2.018,0.457 3.854,0.689 5.456,0.689 4.04,0 7.741,-0.896 10.997,-2.662 3.231,-1.753 6.01,-4.266 8.264,-7.468 2.199,-3.129 3.91,-6.929 5.088,-11.295 1.158,-4.299 1.745,-9.17 1.745,-14.475 0,-3.109 -0.564,-6.365 -1.679,-9.681 C 45.894,6.877 44.372,3.675 42.46,0.6 c -1.9,-3.056 -4.174,-5.993 -6.756,-8.728 -2.586,-2.739 -5.407,-5.183 -8.387,-7.265 -3.022,-2.108 -6.255,-3.796 -9.608,-5.018 -3.432,-1.249 -6.907,-1.883 -10.33,-1.883"
             style="fill:#253043;fill-opacity:1;fill-rule:nonzero;stroke:none"
             id="path1203" /></g><g
           id="g1205"
           transform="translate(807.5713,276.9373)"><path
             d="m 0,0 c 2.459,1.948 4.611,3.332 6.415,4.127 2.758,1.214 4.124,1.345 4.584,1.345 1.478,0 2.826,-0.318 4.122,-0.973 1.217,-0.617 2.295,-1.645 3.293,-3.141 1.148,-1.721 2.093,-4.058 2.81,-6.947 0.759,-3.057 1.143,-6.882 1.143,-11.366 0,-2.433 -0.261,-4.72 -0.775,-6.798 -0.466,-1.879 -1.171,-3.509 -2.095,-4.843 -0.85,-1.225 -1.878,-2.168 -3.139,-2.879 -1.165,-0.658 -2.556,-0.977 -4.253,-0.977 -0.329,0 -1.681,0.083 -5.231,1.152 -2.019,0.607 -4.323,1.545 -6.874,2.795 z m -7.039,72.538 -3.083,-1.249 c -1.686,-0.683 -3.39,-1.293 -5.063,-1.813 -1.715,-0.534 -3.491,-1.027 -5.279,-1.468 -1.769,-0.437 -3.649,-0.837 -5.593,-1.189 -2.022,-0.365 -4.18,-0.743 -6.473,-1.133 l -4.161,-0.708 V 60.757 55.595 51.17 l 4.392,-0.538 c 1.845,-0.225 3.331,-0.429 4.423,-0.607 0.088,-0.738 0.181,-2.054 0.181,-4.309 v -86.265 -3.09 l 2.764,-1.382 c 2.755,-1.377 5.562,-2.665 8.344,-3.828 2.794,-1.168 5.49,-2.2 8.01,-3.065 2.59,-0.889 5.034,-1.595 7.264,-2.101 2.452,-0.554 4.477,-0.824 6.192,-0.824 3.715,0 7.479,0.685 11.185,2.035 3.558,1.295 6.984,3.084 10.183,5.316 3.121,2.18 6.073,4.736 8.775,7.599 2.697,2.857 5.072,5.927 7.061,9.123 2.014,3.24 3.619,6.619 4.77,10.044 1.2,3.572 1.809,7.097 1.809,10.476 0,5.525 -0.616,10.614 -1.831,15.125 -1.254,4.65 -3.089,8.714 -5.456,12.082 -2.479,3.522 -5.545,6.29 -9.116,8.228 -3.629,1.968 -7.73,2.965 -12.191,2.965 -1.813,0 -3.778,-0.245 -6.008,-0.751 C 11.933,26.921 9.611,26.146 7.157,25.098 4.861,24.118 2.456,22.864 0,21.366 v 42.266 2.074 l -1.468,1.465 c -0.513,0.512 -1.03,1 -1.539,1.452 -0.386,0.337 -0.714,0.633 -1.021,0.918 -0.288,0.267 -0.509,0.476 -0.668,0.636 z m 19.144,-109.99 c 2.555,0 4.792,0.54 6.709,1.622 1.917,1.081 3.514,2.544 4.793,4.387 1.278,1.844 2.223,4.006 2.838,6.488 0.615,2.482 0.922,5.149 0.922,8 0,4.915 -0.43,9.106 -1.29,12.571 -0.86,3.465 -2.028,6.304 -3.503,8.516 C 21.1,6.343 19.367,7.953 17.377,8.961 15.386,9.967 13.26,10.472 10.999,10.472 9.278,10.472 7.079,9.883 4.4,8.703 1.721,7.523 -1.413,5.409 -5,2.363 v -33.916 c 3.932,-2.115 7.409,-3.625 10.433,-4.535 3.022,-0.91 5.246,-1.364 6.672,-1.364 M -8.244,66.655 c 0.195,-0.197 0.466,-0.455 0.81,-0.774 0.344,-0.32 0.712,-0.652 1.106,-0.996 0.443,-0.394 0.885,-0.811 1.328,-1.253 V 11.505 c 2.457,2.113 4.877,3.907 7.262,5.382 2.384,1.475 4.67,2.679 6.857,3.613 2.187,0.933 4.202,1.609 6.046,2.027 1.843,0.418 3.477,0.627 4.903,0.627 3.637,0 6.906,-0.787 9.806,-2.359 2.899,-1.574 5.37,-3.81 7.41,-6.709 2.039,-2.902 3.612,-6.404 4.719,-10.507 1.105,-4.104 1.659,-8.713 1.659,-13.825 0,-2.85 -0.516,-5.812 -1.549,-8.884 -1.032,-3.072 -2.458,-6.071 -4.276,-8.995 -1.819,-2.925 -3.97,-5.703 -6.451,-8.332 -2.483,-2.63 -5.15,-4.939 -8,-6.93 -2.852,-1.991 -5.862,-3.565 -9.032,-4.719 -3.17,-1.155 -6.33,-1.733 -9.475,-1.733 -1.326,0 -3.023,0.234 -5.087,0.701 -2.064,0.467 -4.313,1.119 -6.746,1.954 -2.434,0.835 -5.002,1.818 -7.705,2.949 -2.704,1.13 -5.382,2.359 -8.036,3.686 v 86.265 c 0,2.26 -0.087,4.005 -0.259,5.234 -0.173,1.228 -0.578,2.15 -1.216,2.766 -0.64,0.613 -1.549,1.019 -2.728,1.216 -1.18,0.196 -2.778,0.417 -4.793,0.663 v 5.162 c 2.31,0.393 4.485,0.774 6.525,1.142 2.039,0.369 4.006,0.786 5.898,1.254 1.892,0.466 3.748,0.982 5.567,1.548 1.818,0.565 3.638,1.217 5.457,1.954"
             style="fill:#ffffff;fill-opacity:1;fill-rule:nonzero;stroke:none"
             id="path1207" /></g><g
           id="g1209"
           transform="translate(917.2256,226.8105)"><path
             d="m 0,0 v 9.921 l 1.996,0.41 c 3.127,0.644 5.476,1.335 6.983,2.056 0.571,0.273 0.918,0.485 1.122,0.627 v 31.224 h -33.34 V 13.067 c 0.202,-0.149 0.54,-0.369 1.081,-0.66 0.94,-0.507 2.928,-1.276 7.064,-2.069 l 2.03,-0.389 V 0 h -43.709 v 9.921 l 1.996,0.411 c 3.127,0.643 5.476,1.334 6.983,2.055 0.571,0.273 0.919,0.485 1.122,0.627 v 71.76 c -0.203,0.154 -0.547,0.387 -1.108,0.698 -0.934,0.516 -2.902,1.299 -6.971,2.091 l -2.022,0.395 V 97.9 h 43.709 v -9.92 l -1.996,-0.411 c -3.126,-0.644 -5.483,-1.346 -7.005,-2.086 -0.605,-0.294 -0.967,-0.518 -1.174,-0.666 V 58.085 h 33.34 v 26.689 c -0.204,0.154 -0.547,0.387 -1.109,0.698 -0.933,0.517 -2.901,1.299 -6.97,2.091 L 0,87.958 V 97.9 H 43.708 V 87.98 L 41.713,87.569 C 38.587,86.925 36.229,86.223 34.705,85.483 34.102,85.189 33.74,84.965 33.533,84.817 V 13.078 c 0.207,-0.149 0.552,-0.371 1.104,-0.664 0.962,-0.51 2.963,-1.283 7.048,-2.077 L 43.708,9.944 V 0 Z"
             style="fill:#253043;fill-opacity:1;fill-rule:nonzero;stroke:none"
             id="path1211" /></g><g
           id="g1213"
           transform="translate(963.4336,327.2104)"><path
             d="m 0,0 h -5 -38.708 -5 v -5 -5.382 -4.121 l 4.045,-0.787 c 3.616,-0.704 5.309,-1.356 6.056,-1.73 v -22.794 h -28.34 v 22.758 c 0.987,0.445 2.829,1.085 6.184,1.777 l 3.991,0.822 V -10.382 -5 0 h -5 -38.709 -5 v -5 -5.382 -4.121 l 4.044,-0.787 c 3.618,-0.704 5.31,-1.356 6.057,-1.73 v -68.875 c -0.994,-0.433 -2.822,-1.049 -6.109,-1.725 l -3.992,-0.821 v -4.076 -5.383 -5 h 5 38.709 5 v 5 5.383 4.133 l -4.06,0.778 c -3.613,0.692 -5.336,1.323 -6.115,1.696 v 27.248 h 28.34 v -27.233 c -0.995,-0.433 -2.822,-1.049 -6.109,-1.725 l -3.992,-0.821 v -4.076 -5.383 -5 h 5 H -5 0 v 5 5.383 4.122 l -4.047,0.786 c -3.597,0.699 -5.337,1.342 -6.128,1.719 v 68.835 c 0.987,0.444 2.83,1.084 6.184,1.776 L 0,-14.457 V -10.382 -5 Z m -5,-5 v -5.382 c -3.343,-0.689 -5.874,-1.451 -7.595,-2.286 -1.72,-0.836 -2.58,-1.598 -2.58,-2.286 V -88.02 c 0,-0.59 0.811,-1.315 2.434,-2.175 1.621,-0.86 4.202,-1.635 7.741,-2.322 V -97.9 h -38.708 v 5.383 c 3.342,0.687 5.861,1.437 7.557,2.248 1.696,0.811 2.544,1.561 2.544,2.249 v 34.358 h -38.34 V -88.02 c 0,-0.59 0.799,-1.315 2.396,-2.175 1.597,-0.86 4.19,-1.635 7.779,-2.322 V -97.9 h -38.709 v 5.383 c 3.342,0.687 5.862,1.437 7.557,2.248 1.696,0.811 2.544,1.561 2.544,2.249 v 73.066 c 0,0.59 -0.8,1.328 -2.396,2.212 -1.598,0.885 -4.166,1.671 -7.705,2.36 V -5 h 38.709 v -5.382 c -3.343,-0.689 -5.874,-1.451 -7.594,-2.286 -1.722,-0.836 -2.581,-1.598 -2.581,-2.286 v -29.86 h 38.34 v 29.86 c 0,0.59 -0.8,1.328 -2.397,2.212 -1.598,0.885 -4.165,1.671 -7.704,2.36 V -5 L -5,-5"
             style="fill:#ffffff;fill-opacity:1;fill-rule:nonzero;stroke:none"
             id="path1215" /></g><g
           id="g1217"
           transform="translate(998.915,288.3745)"><path
             d="m 0,0 c -2.529,0 -4.616,-0.54 -6.202,-1.604 -1.662,-1.115 -2.952,-2.631 -3.944,-4.636 -1.057,-2.137 -1.81,-4.736 -2.237,-7.722 -0.447,-3.131 -0.675,-6.572 -0.675,-10.227 0,-3.649 0.431,-7.103 1.279,-10.264 0.842,-3.143 1.986,-5.895 3.399,-8.181 1.364,-2.211 2.946,-3.964 4.703,-5.212 1.621,-1.154 3.258,-1.714 5.003,-1.714 2.492,0 4.554,0.459 6.126,1.363 1.588,0.912 2.853,2.224 3.866,4.009 1.078,1.896 1.86,4.295 2.325,7.132 0.492,2.995 0.741,6.505 0.741,10.433 0,3.678 -0.388,7.222 -1.153,10.535 -0.754,3.271 -1.826,6.179 -3.183,8.646 C 8.752,-5.088 7.185,-3.208 5.39,-1.856 3.73,-0.607 1.967,0 0,0 m -0.738,-63.776 c -5.379,0 -10.35,0.961 -14.772,2.857 -4.431,1.899 -8.261,4.553 -11.384,7.889 -3.113,3.322 -5.557,7.323 -7.263,11.892 -1.695,4.536 -2.554,9.519 -2.554,14.81 0,5.161 0.964,10.232 2.863,15.071 1.898,4.834 4.589,9.185 7.998,12.933 3.421,3.761 7.549,6.818 12.269,9.087 4.768,2.292 10.058,3.454 15.719,3.454 5.332,0 10.266,-0.962 14.666,-2.859 4.403,-1.899 8.231,-4.564 11.379,-7.922 3.141,-3.354 5.587,-7.372 7.268,-11.942 1.667,-4.536 2.513,-9.515 2.513,-14.798 0,-3.508 -0.478,-6.986 -1.421,-10.336 -0.935,-3.324 -2.267,-6.515 -3.958,-9.483 -1.686,-2.956 -3.722,-5.728 -6.053,-8.241 -2.344,-2.527 -4.974,-4.734 -7.818,-6.559 -2.853,-1.832 -5.959,-3.28 -9.233,-4.302 -3.3,-1.029 -6.739,-1.551 -10.219,-1.551"
             style="fill:#253043;fill-opacity:1;fill-rule:nonzero;stroke:none"
             id="path1219" /></g><g
           id="g1221"
           transform="translate(1000.2412,241.3145)"><path
             d="m 0,0 c -1.208,0 -2.37,0.409 -3.553,1.25 -1.484,1.055 -2.838,2.564 -4.025,4.487 -1.287,2.082 -2.333,4.609 -3.112,7.516 -0.792,2.952 -1.194,6.187 -1.194,9.618 0,3.537 0.219,6.858 0.65,9.872 0.389,2.725 1.063,5.069 2.003,6.969 0.793,1.603 1.806,2.803 3.096,3.669 1.166,0.782 2.784,1.179 4.809,1.179 1.424,0 2.659,-0.43 3.886,-1.354 1.511,-1.138 2.847,-2.751 3.972,-4.794 1.246,-2.263 2.234,-4.956 2.937,-8.002 0.722,-3.129 1.089,-6.484 1.089,-9.973 0,-3.792 -0.239,-7.166 -0.709,-10.027 C 9.432,7.864 8.749,5.744 7.819,4.107 7.031,2.721 6.07,1.715 4.881,1.031 3.691,0.347 2.05,0 0,0 m 0.812,63.777 c -6.04,0 -11.693,-1.245 -16.802,-3.701 -5.011,-2.408 -9.397,-5.658 -13.035,-9.657 -3.615,-3.974 -6.467,-8.585 -8.476,-13.704 -2.015,-5.13 -3.036,-10.508 -3.036,-15.983 0,-5.59 0.912,-10.867 2.711,-15.685 1.823,-4.88 4.442,-9.162 7.783,-12.728 3.358,-3.587 7.471,-6.44 12.222,-8.476 4.735,-2.03 10.037,-3.059 15.757,-3.059 3.733,0 7.421,0.56 10.963,1.664 3.488,1.09 6.798,2.632 9.84,4.585 3.02,1.939 5.813,4.282 8.3,6.963 2.461,2.653 4.612,5.581 6.392,8.704 1.792,3.144 3.203,6.523 4.193,10.043 1.004,3.571 1.514,7.277 1.514,11.013 0,5.579 -0.897,10.847 -2.667,15.66 -1.798,4.887 -4.419,9.189 -7.789,12.788 -3.385,3.612 -7.494,6.475 -12.214,8.51 -4.714,2.032 -9.982,3.063 -15.656,3.063 M 0,-5 c 2.949,0 5.407,0.565 7.373,1.696 1.966,1.13 3.564,2.777 4.793,4.941 1.229,2.162 2.102,4.816 2.617,7.963 0.517,3.144 0.775,6.757 0.775,10.837 0,3.883 -0.406,7.583 -1.217,11.097 -0.811,3.514 -1.954,6.611 -3.429,9.29 -1.474,2.678 -3.256,4.803 -5.345,6.377 -2.089,1.573 -4.387,2.359 -6.893,2.359 -3.049,0 -5.58,-0.676 -7.595,-2.027 -2.016,-1.353 -3.612,-3.22 -4.792,-5.604 -1.18,-2.385 -2.004,-5.209 -2.471,-8.478 -0.467,-3.269 -0.7,-6.796 -0.7,-10.58 0,-3.884 0.454,-7.521 1.364,-10.912 0.91,-3.393 2.138,-6.342 3.687,-8.848 1.548,-2.507 3.342,-4.486 5.382,-5.935 C -4.412,-4.274 -2.261,-5 0,-5 m 0.812,63.777 c 5.013,0 9.572,-0.885 13.676,-2.654 4.104,-1.77 7.619,-4.216 10.544,-7.336 2.924,-3.122 5.173,-6.821 6.746,-11.097 1.573,-4.276 2.36,-8.92 2.36,-13.934 0,-3.294 -0.443,-6.514 -1.327,-9.659 C 31.926,10.95 30.684,7.977 29.087,5.176 27.489,2.373 25.585,-0.22 23.373,-2.604 21.161,-4.988 18.716,-7.04 16.037,-8.76 c -2.68,-1.72 -5.556,-3.059 -8.627,-4.018 -3.072,-0.958 -6.23,-1.438 -9.474,-1.438 -5.063,0 -9.659,0.885 -13.788,2.654 -4.128,1.77 -7.643,4.203 -10.543,7.3 -2.901,3.096 -5.15,6.783 -6.747,11.059 -1.597,4.277 -2.395,8.922 -2.395,13.935 0,4.867 0.895,9.585 2.69,14.157 1.794,4.57 4.301,8.626 7.521,12.165 3.219,3.539 7.053,6.377 11.502,8.516 4.448,2.138 9.327,3.207 14.636,3.207"
             style="fill:#ffffff;fill-opacity:1;fill-rule:nonzero;stroke:none"
             id="path1223" /></g><g
           id="g1225"
           transform="translate(1067.5586,224.5986)"><path
             d="m 0,0 c -1.668,0 -3.492,0.118 -5.424,0.35 -1.918,0.23 -3.904,0.58 -5.903,1.041 -2.016,0.465 -4.037,1.065 -6.008,1.782 -1.977,0.72 -3.844,1.554 -5.55,2.479 -1.589,0.785 -1.923,2.69 -2.126,4.58 -0.183,1.691 -0.25,3.723 -0.197,6.039 0.048,2.247 0.188,4.637 0.415,7.103 0.232,2.538 0.618,4.814 1.146,6.765 l 0.573,2.119 9.934,-1.349 0.334,-1.771 c 0.442,-2.345 1.175,-4.485 2.18,-6.362 0.997,-1.864 2.195,-3.458 3.562,-4.738 1.345,-1.263 2.868,-2.254 4.525,-2.946 1.625,-0.679 3.348,-1.023 5.119,-1.023 2.933,0 5.145,0.493 6.398,1.423 0.388,0.289 1.572,1.168 1.572,4.335 0,1.489 -0.365,2.785 -1.118,3.962 -0.853,1.33 -2.02,2.589 -3.467,3.738 -1.552,1.233 -3.342,2.407 -5.321,3.489 -2.11,1.151 -4.304,2.322 -6.52,3.479 -2.091,1.045 -4.227,2.234 -6.31,3.515 -2.173,1.336 -4.163,2.857 -5.909,4.522 -1.802,1.723 -3.297,3.649 -4.443,5.726 -1.234,2.231 -1.86,4.771 -1.86,7.549 0,3.504 0.881,6.711 2.621,9.533 1.674,2.719 3.91,5.053 6.642,6.939 2.669,1.841 5.741,3.271 9.132,4.251 3.357,0.97 6.864,1.463 10.427,1.463 2.203,0 4.453,-0.143 6.689,-0.425 2.225,-0.282 4.395,-0.685 6.449,-1.198 2.077,-0.519 4.028,-1.153 5.803,-1.883 1.878,-0.775 3.489,-1.684 4.791,-2.703 1.369,-1.142 1.346,-2.951 1.126,-4.743 C 29.096,65.526 28.75,63.824 28.257,61.98 27.769,60.16 27.185,58.354 26.52,56.611 25.789,54.702 25.076,53.298 24.34,52.316 l -0.862,-1.148 -8.174,0.947 -0.457,1.608 c -1.104,3.885 -2.672,6.854 -4.662,8.822 -1.84,1.821 -3.991,2.706 -6.573,2.706 -2.335,0 -4.103,-0.487 -5.256,-1.448 -1.046,-0.873 -1.534,-1.89 -1.534,-3.204 0,-1.097 0.257,-2.03 0.784,-2.852 0.622,-0.972 1.544,-1.916 2.745,-2.811 1.336,-0.998 3.012,-2.033 4.984,-3.077 l 7.039,-3.721 c 2.107,-1.078 4.298,-2.262 6.481,-3.502 2.321,-1.32 4.437,-2.861 6.291,-4.58 1.916,-1.781 3.501,-3.838 4.71,-6.118 1.271,-2.396 1.915,-5.209 1.915,-8.361 0,-3.812 -0.601,-7.156 -1.786,-9.937 C 28.809,12.877 27.245,10.496 25.337,8.561 23.451,6.646 21.298,5.093 18.939,3.94 16.68,2.837 14.342,1.982 11.991,1.4 9.688,0.831 7.45,0.45 5.341,0.268 3.286,0.09 1.489,0 0,0"
             style="fill:#253043;fill-opacity:1;fill-rule:nonzero;stroke:none"
             id="path1227" /></g><g
           id="g1229"
           transform="translate(1080.7064,275.1548)"><path
             d="m 0,0 c -2.253,1.19 -4.307,2.277 -6.165,3.26 l -0.479,0.254 c -1.857,0.983 -3.424,1.948 -4.656,2.868 -0.961,0.716 -1.678,1.44 -2.134,2.153 -0.17,0.265 -0.392,0.704 -0.392,1.508 0,0.511 0.095,0.833 0.635,1.283 0.672,0.56 1.97,0.869 3.655,0.869 1.917,0 3.447,-0.63 4.816,-1.983 1.679,-1.662 3.03,-4.262 4.014,-7.728 z m -8.724,29.936 c -3.797,0 -7.539,-0.525 -11.121,-1.56 -3.65,-1.056 -6.966,-2.602 -9.857,-4.595 -3.02,-2.085 -5.493,-4.67 -7.352,-7.686 -1.985,-3.221 -2.992,-6.87 -2.992,-10.844 0,-3.206 0.731,-6.154 2.173,-8.761 1.268,-2.296 2.917,-4.423 4.902,-6.32 1.877,-1.789 4.005,-3.419 6.33,-4.847 2.13,-1.31 4.317,-2.528 6.499,-3.621 2.189,-1.142 4.356,-2.299 6.441,-3.438 1.853,-1.013 3.523,-2.107 4.963,-3.25 1.231,-0.978 2.213,-2.032 2.919,-3.133 0.491,-0.768 0.721,-1.598 0.721,-2.61 0,-1.178 -0.216,-2.07 -0.563,-2.328 -0.293,-0.218 -1.515,-0.93 -4.907,-0.93 -1.459,0 -2.819,0.272 -4.156,0.83 -1.399,0.584 -2.635,1.39 -3.778,2.462 -1.168,1.094 -2.199,2.471 -3.067,4.094 -0.885,1.653 -1.533,3.552 -1.928,5.646 l -0.668,3.543 -3.573,0.485 -5.972,0.811 -4.352,0.59 -1.147,-4.239 c -0.565,-2.089 -0.976,-4.508 -1.222,-7.19 -0.232,-2.522 -0.375,-4.971 -0.425,-7.279 -0.055,-2.453 0.014,-4.535 0.212,-6.36 0.178,-1.661 0.545,-5.064 3.463,-6.531 1.802,-0.975 3.768,-1.852 5.844,-2.607 2.065,-0.752 4.185,-1.381 6.299,-1.869 2.087,-0.481 4.163,-0.847 6.171,-1.088 2.027,-0.243 3.952,-0.367 5.719,-0.367 1.561,0 3.43,0.093 5.554,0.276 2.241,0.195 4.607,0.597 7.035,1.197 2.525,0.624 5.029,1.54 7.447,2.721 2.614,1.276 4.996,2.996 7.081,5.111 2.13,2.16 3.868,4.802 5.169,7.854 1.317,3.094 1.985,6.767 1.985,10.918 0,3.564 -0.742,6.771 -2.204,9.531 -1.343,2.529 -3.098,4.809 -5.219,6.779 -1.996,1.852 -4.268,3.507 -6.755,4.921 -1.739,0.988 -3.48,1.938 -5.195,2.837 l 1.778,-0.206 5.088,-0.59 2.852,-0.33 1.723,2.296 c 0.878,1.171 1.701,2.773 2.515,4.901 0.697,1.826 1.308,3.714 1.817,5.616 0.524,1.957 0.891,3.773 1.092,5.401 0.177,1.44 0.59,4.804 -1.939,6.918 l -0.063,0.052 -0.064,0.05 c -1.481,1.159 -3.289,2.183 -5.376,3.044 -1.891,0.778 -3.959,1.45 -6.151,1.998 -2.152,0.537 -4.42,0.958 -6.741,1.253 -2.342,0.295 -4.698,0.444 -7.005,0.444 m 0,-5 c 2.112,0 4.239,-0.135 6.377,-0.405 2.139,-0.271 4.19,-0.652 6.156,-1.143 1.966,-0.492 3.785,-1.081 5.457,-1.769 1.67,-0.689 3.072,-1.475 4.202,-2.36 0.295,-0.246 0.357,-1.069 0.185,-2.47 C 13.48,15.389 13.161,13.814 12.694,12.07 12.226,10.325 11.673,8.617 11.036,6.946 10.396,5.274 9.782,4.046 9.192,3.26 L 4.104,3.85 c -1.228,4.325 -2.998,7.63 -5.308,9.917 -2.311,2.285 -5.087,3.428 -8.332,3.428 -2.949,0 -5.235,-0.676 -6.856,-2.028 -1.623,-1.353 -2.434,-3.06 -2.434,-5.124 0,-1.573 0.393,-2.975 1.18,-4.202 0.786,-1.229 1.904,-2.384 3.355,-3.466 1.449,-1.082 3.218,-2.174 5.308,-3.281 2.089,-1.105 4.436,-2.347 7.042,-3.723 2.113,-1.081 4.251,-2.237 6.414,-3.465 2.162,-1.23 4.104,-2.643 5.824,-4.24 1.721,-1.597 3.122,-3.417 4.204,-5.456 1.081,-2.04 1.622,-4.436 1.622,-7.189 0,-3.49 -0.529,-6.477 -1.585,-8.958 -1.058,-2.482 -2.434,-4.584 -4.129,-6.304 -1.696,-1.72 -3.602,-3.096 -5.715,-4.129 -2.113,-1.032 -4.265,-1.818 -6.451,-2.359 -2.188,-0.54 -4.277,-0.897 -6.267,-1.069 -1.991,-0.172 -3.699,-0.258 -5.124,-0.258 -1.574,0 -3.281,0.11 -5.125,0.332 -1.843,0.221 -3.722,0.553 -5.64,0.995 -1.916,0.442 -3.823,1.007 -5.714,1.695 -1.893,0.689 -3.65,1.475 -5.272,2.36 -0.345,0.148 -0.602,1.02 -0.774,2.618 -0.173,1.596 -0.234,3.502 -0.184,5.714 0.048,2.212 0.184,4.521 0.405,6.93 0.221,2.409 0.578,4.522 1.07,6.341 l 5.971,-0.81 c 0.492,-2.607 1.302,-4.966 2.433,-7.079 1.131,-2.114 2.483,-3.908 4.056,-5.382 1.572,-1.475 3.329,-2.618 5.271,-3.429 1.942,-0.811 3.969,-1.216 6.083,-1.216 3.539,0 6.168,0.638 7.889,1.916 1.721,1.278 2.581,3.393 2.581,6.342 0,1.965 -0.505,3.734 -1.512,5.309 -1.008,1.572 -2.347,3.022 -4.018,4.349 -1.671,1.327 -3.564,2.569 -5.677,3.724 -2.114,1.154 -4.302,2.322 -6.562,3.502 -2.064,1.032 -4.118,2.175 -6.157,3.428 -2.04,1.253 -3.87,2.655 -5.493,4.203 -1.621,1.548 -2.949,3.255 -3.98,5.124 -1.034,1.868 -1.549,3.982 -1.549,6.341 0,3.047 0.749,5.787 2.249,8.221 1.499,2.432 3.476,4.497 5.934,6.193 2.458,1.695 5.26,2.998 8.407,3.907 3.144,0.909 6.388,1.364 9.732,1.364"
             style="fill:#ffffff;fill-opacity:1;fill-rule:nonzero;stroke:none"
             id="path1231" /></g><g
           id="g1233"
           transform="translate(1129.418,224.5986)"><path
             d="m 0,0 c -2.446,0 -4.799,0.478 -6.994,1.419 -2.246,0.962 -4.222,2.448 -5.871,4.415 -1.6,1.908 -2.883,4.306 -3.813,7.127 -0.916,2.772 -1.38,6.05 -1.38,9.741 v 38.863 h -7.617 l -4.206,5.222 7.881,8.994 h 3.942 v 14.172 l 17.523,12.924 5.173,-4.494 V 75.781 h 21.023 l 4.693,-4.692 -0.864,-1.631 c -0.497,-0.939 -1.119,-1.923 -1.85,-2.924 -0.67,-0.919 -1.375,-1.843 -2.094,-2.741 -0.734,-0.916 -1.466,-1.755 -2.179,-2.496 -0.783,-0.811 -1.47,-1.42 -2.1,-1.861 l -1.22,-0.854 -1.332,0.666 c -0.477,0.238 -1.116,0.488 -1.902,0.743 -0.84,0.272 -1.806,0.539 -2.871,0.794 -1.037,0.247 -2.143,0.441 -3.285,0.575 -1.154,0.136 -2.358,0.205 -3.579,0.205 H 4.638 V 29.56 c 0,-2.353 0.137,-4.359 0.408,-5.961 0.249,-1.472 0.595,-2.629 1.029,-3.441 0.345,-0.646 0.722,-1.106 1.091,-1.332 0.371,-0.227 0.764,-0.333 1.239,-0.333 0.739,0 1.519,0.073 2.321,0.218 0.849,0.152 1.845,0.411 2.963,0.768 1.123,0.36 2.429,0.88 3.883,1.549 1.487,0.685 3.257,1.588 5.263,2.687 l 2.104,1.152 5.67,-9.408 -1.866,-1.347 C 22.115,9.329 16.407,5.769 11.778,3.53 6.865,1.155 3.012,0 0,0"
             style="fill:#253043;fill-opacity:1;fill-rule:nonzero;stroke:none"
             id="path1235" /></g><g
           id="g1237"
           transform="translate(1129.0103,330.6762)"><path
             d="m 0,0 -3.223,-2.377 -14.895,-10.986 -2.032,-1.499 v -2.525 -10.41 h -0.308 -2.267 l -1.494,-1.705 -5.75,-6.562 -2.769,-3.16 2.636,-3.271 2.137,-2.654 1.501,-1.864 h 2.393 3.921 v -36.362 c 0,-3.959 0.507,-7.5 1.506,-10.526 1.029,-3.122 2.467,-5.797 4.271,-7.949 1.903,-2.27 4.192,-3.989 6.804,-5.107 2.505,-1.075 5.19,-1.621 7.977,-1.621 3.397,0 7.606,1.237 12.867,3.78 4.826,2.334 10.498,5.868 17.339,10.806 l 3.732,2.693 -2.376,3.942 -3.244,5.383 -2.476,4.109 -4.208,-2.305 c -1.955,-1.071 -3.673,-1.948 -5.106,-2.607 -1.364,-0.628 -2.574,-1.112 -3.599,-1.439 -1.016,-0.325 -1.904,-0.557 -2.641,-0.689 -0.631,-0.114 -1.234,-0.174 -1.8,-0.179 -0.051,0.072 -0.122,0.181 -0.206,0.339 -0.175,0.327 -0.504,1.104 -0.771,2.682 -0.248,1.466 -0.374,3.331 -0.374,5.545 v 29.505 c 1.103,-0.002 2.189,-0.065 3.228,-0.187 1.045,-0.123 2.055,-0.3 3,-0.525 0.996,-0.238 1.898,-0.488 2.679,-0.74 0.829,-0.269 1.302,-0.475 1.553,-0.601 l 2.663,-1.331 2.439,1.707 c 0.765,0.535 1.571,1.245 2.466,2.173 0.768,0.798 1.552,1.695 2.332,2.67 0.743,0.928 1.471,1.882 2.165,2.834 0.798,1.092 1.485,2.179 2.038,3.224 l 1.726,3.263 -2.61,2.61 -2.655,2.655 -1.464,1.464 H 25.034 7.545 v 18.963 2.279 l -1.721,1.495 -2.8,2.433 z m -0.255,-6.401 2.8,-2.433 v -23.963 h 22.489 l 2.654,-2.654 c -0.442,-0.837 -0.995,-1.709 -1.659,-2.617 -0.663,-0.91 -1.34,-1.795 -2.028,-2.655 -0.688,-0.86 -1.364,-1.634 -2.027,-2.323 -0.664,-0.688 -1.242,-1.204 -1.733,-1.548 -0.59,0.295 -1.339,0.59 -2.248,0.885 -0.91,0.295 -1.93,0.577 -3.061,0.848 -1.131,0.269 -2.322,0.479 -3.575,0.627 -1.254,0.147 -2.544,0.221 -3.871,0.221 H 2.545 v -34.505 c 0,-2.508 0.149,-4.634 0.444,-6.378 0.295,-1.745 0.724,-3.146 1.29,-4.203 0.564,-1.058 1.227,-1.818 1.99,-2.285 0.762,-0.468 1.609,-0.7 2.544,-0.7 0.885,0 1.807,0.085 2.765,0.257 0.959,0.172 2.051,0.454 3.281,0.848 1.228,0.393 2.617,0.946 4.166,1.659 1.548,0.712 3.354,1.634 5.419,2.765 l 3.244,-5.383 c -6.538,-4.719 -12.067,-8.172 -16.59,-10.358 -4.522,-2.187 -8.086,-3.282 -10.69,-3.282 -2.115,0 -4.117,0.406 -6.009,1.217 -1.893,0.811 -3.539,2.052 -4.941,3.724 -1.4,1.67 -2.519,3.771 -3.354,6.304 -0.836,2.531 -1.254,5.516 -1.254,8.958 v 41.362 h -8.921 l -2.137,2.654 5.75,6.562 h 5.308 v 15.41 l 14.895,10.986"
             style="fill:#ffffff;fill-opacity:1;fill-rule:nonzero;stroke:none"
             id="path1239" /></g><g
           id="g1241"
           transform="translate(1180.8086,308.5771)"><path
             d="m 0,0 c -1.585,0 -3.111,0.188 -4.538,0.56 -1.543,0.4 -2.919,1.053 -4.087,1.938 -1.192,0.901 -2.158,2.031 -2.869,3.355 -0.735,1.367 -1.108,2.993 -1.108,4.831 0,2.031 0.402,3.923 1.192,5.625 0.784,1.691 1.878,3.151 3.248,4.338 1.33,1.154 2.91,2.066 4.695,2.711 1.766,0.637 3.676,0.959 5.678,0.959 1.531,0 3.032,-0.188 4.462,-0.559 1.521,-0.397 2.888,-1.021 4.063,-1.856 1.235,-0.878 2.237,-1.995 2.982,-3.321 0.776,-1.386 1.169,-3.025 1.169,-4.874 0,-2.029 -0.402,-3.921 -1.192,-5.624 C 12.913,6.399 11.828,4.935 10.472,3.729 9.133,2.538 7.544,1.606 5.75,0.959 3.987,0.323 2.053,0 0,0 m -20.344,-81.767 v 9.921 l 1.996,0.411 c 3.863,0.794 5.793,1.538 6.733,2.022 0.513,0.265 0.824,0.469 1.004,0.603 v 37.321 c 0,2.468 -0.025,4.488 -0.073,6.004 -0.045,1.406 -0.34,2.057 -0.512,2.319 -0.285,0.433 -0.952,0.705 -1.461,0.856 -1.163,0.344 -2.988,0.636 -5.422,0.866 l -2.265,0.214 v 9.611 l 2.155,0.301 c 4.141,0.577 8.114,1.296 11.81,2.136 3.659,0.832 7.152,1.855 10.382,3.042 l 0.417,0.154 h 7.664 v -62.773 c 0.18,-0.143 0.482,-0.357 0.972,-0.642 0.842,-0.493 2.706,-1.243 6.805,-2.028 l 2.03,-0.388 v -9.95 z"
             style="fill:#253043;fill-opacity:1;fill-rule:nonzero;stroke:none"
             id="path1243" /></g><g
           id="g1245"
           transform="translate(1195.3926,305.0913)"><path
             d="m 0,0 h -5 -4.719 -0.89 l -0.835,-0.307 c -3.129,-1.15 -6.518,-2.143 -10.073,-2.951 -3.627,-0.825 -7.53,-1.531 -11.602,-2.099 l -4.309,-0.601 v -4.351 -5.161 -4.55 l 4.53,-0.428 c 2.832,-0.267 4.255,-0.568 4.949,-0.774 0.038,-0.011 0.072,-0.022 0.103,-0.032 0.033,-0.179 0.068,-0.448 0.08,-0.828 0.047,-1.486 0.071,-3.479 0.071,-5.921 v -35.869 c -0.828,-0.369 -2.51,-0.964 -5.74,-1.628 l -3.993,-0.822 v -4.076 -5.383 -5 h 5 37.235 5 v 5 5.383 4.133 l -4.06,0.778 C 2.252,-64.818 0.666,-64.22 0,-63.898 V -5 Z m -12.373,30.303 c -2.292,0 -4.487,-0.372 -6.525,-1.107 -2.077,-0.75 -3.923,-1.818 -5.488,-3.176 -1.636,-1.417 -2.942,-3.159 -3.877,-5.176 -0.943,-2.03 -1.423,-4.277 -1.423,-6.674 0,-2.256 0.474,-4.28 1.407,-6.016 0.88,-1.641 2.08,-3.044 3.565,-4.166 1.428,-1.082 3.1,-1.878 4.965,-2.363 1.629,-0.424 3.368,-0.639 5.165,-0.639 2.343,0 4.563,0.373 6.6,1.108 2.093,0.755 3.955,1.849 5.533,3.252 1.614,1.435 2.902,3.174 3.829,5.168 0.946,2.037 1.425,4.283 1.425,6.679 0,2.281 -0.5,4.331 -1.486,6.092 -0.93,1.657 -2.179,3.047 -3.714,4.139 -1.426,1.013 -3.068,1.766 -4.881,2.238 -1.64,0.426 -3.352,0.641 -5.095,0.641 M -5,-5 v -60.901 c 0,-0.59 0.738,-1.315 2.213,-2.175 1.475,-0.86 4.005,-1.634 7.594,-2.322 v -5.383 h -37.235 v 5.383 c 3.343,0.688 5.8,1.438 7.373,2.248 1.574,0.812 2.36,1.561 2.36,2.249 v 37.898 c 0,2.506 -0.025,4.533 -0.074,6.082 -0.049,1.548 -0.357,2.752 -0.921,3.612 -0.566,0.86 -1.511,1.487 -2.839,1.881 -1.326,0.393 -3.293,0.712 -5.899,0.958 v 5.161 c 4.228,0.59 8.234,1.315 12.019,2.175 3.784,0.86 7.347,1.905 10.69,3.134 L -5,-5 m -7.373,30.303 c 1.328,0 2.605,-0.16 3.834,-0.479 1.228,-0.32 2.31,-0.811 3.244,-1.474 0.934,-0.664 1.684,-1.5 2.249,-2.507 0.565,-1.009 0.849,-2.225 0.849,-3.65 0,-1.672 -0.321,-3.196 -0.959,-4.571 -0.64,-1.377 -1.512,-2.557 -2.617,-3.539 -1.107,-0.984 -2.41,-1.746 -3.909,-2.286 -1.5,-0.542 -3.132,-0.811 -4.902,-0.811 -1.377,0 -2.68,0.159 -3.908,0.479 -1.23,0.319 -2.298,0.823 -3.207,1.512 -0.91,0.688 -1.635,1.535 -2.176,2.544 -0.541,1.006 -0.811,2.223 -0.811,3.649 0,1.67 0.32,3.195 0.959,4.571 0.638,1.376 1.511,2.544 2.618,3.502 1.105,0.959 2.407,1.708 3.907,2.249 1.499,0.541 3.108,0.811 4.829,0.811"
             style="fill:#ffffff;fill-opacity:1;fill-rule:nonzero;stroke:none"
             id="path1247" /></g><g
           id="g1249"
           transform="translate(1250.0469,226.8105)"><path
             d="m 0,0 v 9.81 l 1.863,0.49 c 3.376,0.89 5.766,1.657 7.101,2.281 0.367,0.171 0.611,0.312 0.768,0.413 v 32.86 c 0,2.561 -0.127,4.706 -0.378,6.375 -0.224,1.494 -0.565,2.668 -1.012,3.487 -0.328,0.602 -0.707,0.985 -1.193,1.204 -0.651,0.292 -1.547,0.442 -2.658,0.442 -0.975,0 -2.044,-0.138 -3.177,-0.41 -1.154,-0.279 -2.465,-0.766 -3.894,-1.448 -1.482,-0.708 -3.154,-1.697 -4.974,-2.941 -1.614,-1.102 -3.415,-2.482 -5.362,-4.11 v -35.5 c 0.188,-0.135 0.519,-0.338 1.07,-0.597 1.494,-0.703 3.769,-1.385 6.762,-2.029 L -3.109,9.902 V 0 h -42.235 v 9.821 l 1.877,0.483 c 3.116,0.802 5.464,1.522 6.976,2.14 0.441,0.181 0.717,0.334 0.88,0.439 V 53.3 c 0,1.848 -0.035,3.332 -0.106,4.409 -0.034,0.523 -0.153,0.922 -0.337,1.12 -0.058,0.064 -0.414,0.398 -1.581,0.657 -1.239,0.275 -3.09,0.558 -5.501,0.842 l -2.208,0.26 v 9.638 l 2.241,0.233 c 2.295,0.239 4.462,0.529 6.442,0.863 1.978,0.333 3.906,0.709 5.732,1.117 1.801,0.403 3.574,0.87 5.27,1.389 1.711,0.523 3.437,1.122 5.133,1.782 l 1.52,0.593 4.906,-4.906 0.518,-6.777 c 4.555,3.512 8.916,6.159 13.006,7.892 5.277,2.235 10.058,3.369 14.21,3.369 2.375,0 4.702,-0.379 6.919,-1.126 2.324,-0.786 4.398,-2.079 6.165,-3.845 1.745,-1.746 3.153,-4.016 4.185,-6.747 1.012,-2.68 1.525,-5.929 1.525,-9.657 V 12.938 c 0.121,-0.071 0.298,-0.167 0.548,-0.284 0.651,-0.303 1.573,-0.65 2.741,-1.031 1.231,-0.403 2.791,-0.846 4.637,-1.318 l 1.88,-0.481 V 0 Z"
             style="fill:#253043;fill-opacity:1;fill-rule:nonzero;stroke:none"
             id="path1251" /></g><g
           id="g1253"
           transform="translate(1239.6309,274.0855)"><path
             d="m 0,0 c 1.541,1.256 2.972,2.336 4.271,3.222 1.716,1.174 3.277,2.099 4.643,2.751 1.271,0.606 2.417,1.035 3.406,1.274 0.936,0.225 1.808,0.34 2.587,0.34 0.901,0 1.372,-0.125 1.564,-0.195 0.021,-0.029 0.053,-0.077 0.093,-0.149 0.171,-0.315 0.496,-1.082 0.735,-2.664 0.232,-1.543 0.349,-3.563 0.349,-6 v -31.293 c -0.968,-0.381 -2.764,-0.989 -6.006,-1.843 l -2.488,-0.656 -3.296,0.709 C 2.777,-33.841 1.001,-33.245 0,-32.82 Z m -7.976,31.849 -3.041,-1.184 c -1.638,-0.638 -3.305,-1.216 -4.955,-1.721 -1.638,-0.501 -3.348,-0.951 -5.086,-1.34 -1.783,-0.399 -3.667,-0.766 -5.601,-1.091 -1.93,-0.326 -4.044,-0.609 -6.286,-0.843 l -4.483,-0.466 V 20.697 15.536 11.09 l 4.416,-0.52 c 2.324,-0.273 4.089,-0.542 5.245,-0.798 0.048,-0.969 0.072,-2.227 0.072,-3.747 v -38.801 c -1.108,-0.406 -2.955,-0.996 -5.979,-1.774 l -3.754,-0.966 v -3.876 -5.383 -5 h 5 37.235 5 3.109 37.234 5 v 5 5.383 3.882 l -3.761,0.962 c -1.793,0.459 -3.3,0.886 -4.478,1.272 -0.657,0.214 -1.17,0.397 -1.567,0.549 V 7.131 c 0,4.031 -0.567,7.577 -1.686,10.539 -1.159,3.067 -2.758,5.634 -4.754,7.631 -2.045,2.042 -4.443,3.537 -7.133,4.446 -2.478,0.836 -5.075,1.259 -7.721,1.259 -4.489,0 -9.597,-1.2 -15.185,-3.567 C 5.703,26.1 2.399,24.248 -1.014,21.906 l -0.106,1.384 -0.141,1.846 -1.309,1.309 -3.098,3.097 z M 24.05,26.006 c 2.113,0 4.153,-0.332 6.12,-0.995 1.965,-0.664 3.697,-1.746 5.197,-3.244 1.499,-1.5 2.703,-3.455 3.613,-5.863 0.91,-2.408 1.364,-5.333 1.364,-8.773 v -42.026 c 0,-0.345 0.148,-0.676 0.443,-0.995 0.295,-0.321 0.811,-0.653 1.548,-0.996 0.737,-0.344 1.744,-0.726 3.022,-1.143 1.279,-0.418 2.876,-0.873 4.793,-1.363 v -5.383 H 12.916 v 5.383 c 3.539,0.932 6.047,1.744 7.521,2.432 1.475,0.688 2.211,1.376 2.211,2.065 v 33.474 c 0,2.703 -0.135,4.951 -0.405,6.746 -0.27,1.793 -0.7,3.231 -1.29,4.313 -0.59,1.081 -1.377,1.842 -2.359,2.286 -0.984,0.441 -2.212,0.663 -3.687,0.663 -1.179,0 -2.432,-0.16 -3.761,-0.48 C 9.82,11.787 8.356,11.247 6.76,10.485 5.162,9.723 3.393,8.68 1.451,7.352 -0.491,6.025 -2.641,4.354 -5,2.338 v -37.233 c 0,-0.737 0.835,-1.5 2.507,-2.286 1.671,-0.786 4.103,-1.524 7.3,-2.211 v -5.383 h -37.235 v 5.383 c 3.244,0.835 5.678,1.585 7.299,2.248 1.623,0.664 2.434,1.413 2.434,2.249 v 40.92 c 0,1.916 -0.037,3.44 -0.111,4.571 -0.074,1.131 -0.405,2.015 -0.995,2.654 -0.59,0.639 -1.549,1.106 -2.876,1.401 -1.327,0.295 -3.244,0.59 -5.751,0.885 v 5.161 c 2.36,0.246 4.559,0.541 6.599,0.885 2.039,0.343 3.993,0.725 5.862,1.143 1.867,0.417 3.686,0.896 5.455,1.438 1.77,0.54 3.539,1.154 5.309,1.843 l 3.098,-3.097 0.81,-10.617 c 5.751,4.915 11.121,8.43 16.11,10.543 4.989,2.113 9.401,3.171 13.235,3.171"
             style="fill:#ffffff;fill-opacity:1;fill-rule:nonzero;stroke:none"
             id="path1255" /></g><g
           id="g1257"
           transform="translate(1325.3936,289.1123)"><path
             d="m 0,0 c -0.872,0 -1.798,-0.213 -2.75,-0.634 -0.966,-0.428 -1.826,-1.064 -2.631,-1.945 -0.816,-0.895 -1.509,-2.069 -2.056,-3.488 -0.55,-1.426 -0.829,-3.158 -0.829,-5.147 0,-2.226 0.269,-4.351 0.799,-6.315 0.5,-1.857 1.284,-3.485 2.33,-4.838 1.031,-1.333 2.305,-2.368 3.895,-3.162 1.558,-0.78 3.488,-1.175 5.739,-1.175 1.088,0 2.102,0.21 3.097,0.642 0.966,0.418 1.795,1.037 2.537,1.89 0.769,0.885 1.403,2.036 1.885,3.421 0.495,1.423 0.746,3.168 0.746,5.188 0,2.248 -0.299,4.373 -0.888,6.315 -0.57,1.877 -1.406,3.524 -2.484,4.893 C 8.344,-3.028 7.024,-1.956 5.469,-1.168 3.939,-0.393 2.1,0 0,0 m -4.909,-63.359 c -1.738,-1.246 -3.141,-2.37 -4.176,-3.348 -1.147,-1.081 -1.993,-2.048 -2.519,-2.875 -0.592,-0.935 -0.806,-1.554 -0.881,-1.908 -0.136,-0.638 -0.204,-1.243 -0.204,-1.804 0,-1.046 0.411,-2.065 1.255,-3.117 0.986,-1.227 2.402,-2.339 4.207,-3.306 1.91,-1.02 4.22,-1.848 6.868,-2.46 2.678,-0.617 5.627,-0.93 8.763,-0.93 2.613,0 4.874,0.315 6.724,0.938 1.788,0.604 3.276,1.419 4.421,2.423 1.131,0.993 1.946,2.081 2.491,3.325 0.554,1.267 0.823,2.555 0.823,3.938 0,0.563 -0.138,1.129 -0.423,1.731 -0.131,0.278 -0.531,0.856 -1.726,1.608 -1.129,0.711 -2.805,1.398 -4.982,2.041 -2.271,0.672 -5.313,1.252 -9.042,1.724 -2.387,0.299 -4.672,0.654 -6.789,1.057 -1.671,0.318 -3.283,0.641 -4.81,0.963 m 8.153,-35.292 c -2.638,0 -5.425,0.167 -8.286,0.496 -2.878,0.332 -5.744,0.861 -8.52,1.573 -2.798,0.72 -5.495,1.644 -8.014,2.75 -2.61,1.145 -4.941,2.557 -6.926,4.194 -2.05,1.69 -3.711,3.65 -4.937,5.825 -1.291,2.289 -1.946,4.86 -1.946,7.643 0,1.544 0.322,3.123 0.956,4.696 0.643,1.591 1.737,3.186 3.345,4.878 1.479,1.558 3.498,3.252 6.004,5.034 1.505,1.071 3.287,2.217 5.326,3.426 -3.712,2.186 -5.529,4.629 -5.529,7.403 0,0.967 0.31,2.022 0.976,3.318 0.566,1.101 1.426,2.304 2.631,3.677 1.134,1.291 2.62,2.727 4.419,4.267 0.767,0.658 1.61,1.338 2.523,2.037 -1.193,0.513 -2.333,1.088 -3.416,1.724 -2.484,1.457 -4.638,3.216 -6.402,5.226 -1.781,2.028 -3.185,4.335 -4.173,6.857 -0.994,2.54 -1.498,5.303 -1.498,8.211 0,3.997 0.997,7.838 2.963,11.416 1.919,3.489 4.509,6.566 7.698,9.145 3.157,2.551 6.862,4.598 11.013,6.086 4.159,1.492 8.573,2.248 13.119,2.248 3.63,0 7.084,-0.511 10.266,-1.518 2.832,-0.896 5.447,-2.087 7.791,-3.544 3.763,0.517 7.219,1.263 10.285,2.22 3.389,1.057 6.116,1.962 8.109,2.69 L 42.757,13.962 46.68,8.778 46.354,7.59 C 46.173,6.929 45.905,6.193 45.536,5.34 45.201,4.569 44.844,3.788 44.459,2.995 44.088,2.224 43.671,1.417 43.224,0.599 42.751,-0.263 42.252,-1.045 41.74,-1.728 L 41.147,-2.519 40.175,-2.69 c -1.721,-0.304 -3.483,-0.559 -5.239,-0.759 -0.651,-0.075 -1.328,-0.143 -2.03,-0.204 0.326,-0.78 0.612,-1.571 0.856,-2.368 0.635,-2.074 0.958,-4.267 0.958,-6.519 0,-4.183 -0.944,-8.065 -2.803,-11.539 -1.825,-3.408 -4.299,-6.372 -7.354,-8.812 -3.014,-2.406 -6.542,-4.306 -10.487,-5.647 -3.852,-1.31 -7.954,-1.986 -12.197,-2.013 -1.591,-1.541 -2.137,-2.38 -2.323,-2.762 -0.169,-0.346 -0.288,-0.608 -0.372,-0.801 0.168,-0.086 0.416,-0.199 0.776,-0.334 0.971,-0.367 2.523,-0.764 4.618,-1.179 2.183,-0.431 5.191,-0.893 8.937,-1.373 5.84,-0.749 10.772,-1.679 14.658,-2.763 4.019,-1.124 7.295,-2.508 9.736,-4.118 2.621,-1.728 4.497,-3.79 5.576,-6.128 1.033,-2.236 1.557,-4.772 1.557,-7.535 0,-2.66 -0.609,-5.341 -1.812,-7.97 -1.154,-2.52 -2.76,-4.969 -4.777,-7.277 -1.983,-2.27 -4.331,-4.394 -6.976,-6.314 -2.624,-1.904 -5.506,-3.586 -8.567,-5.001 -3.057,-1.414 -6.289,-2.535 -9.607,-3.332 -3.35,-0.805 -6.734,-1.213 -10.059,-1.213"
             style="fill:#253043;fill-opacity:1;fill-rule:nonzero;stroke:none"
             id="path1259" /></g><g
           id="g1261"
           transform="translate(1333.7979,208.5049)"><path
             d="m 0,0 c -2.948,0 -5.707,0.292 -8.203,0.867 -2.431,0.562 -4.534,1.312 -6.25,2.229 -1.506,0.806 -2.662,1.703 -3.436,2.666 -0.705,0.877 -0.705,1.385 -0.705,1.551 0,0.386 0.05,0.817 0.149,1.281 0.002,0.008 0.08,0.354 0.548,1.091 0.285,0.45 0.883,1.228 2.12,2.394 0.782,0.738 1.8,1.574 3.04,2.495 1.213,-0.249 2.472,-0.498 3.765,-0.744 2.17,-0.413 4.508,-0.777 6.951,-1.082 3.588,-0.454 6.497,-1.006 8.639,-1.64 2.439,-0.721 3.716,-1.354 4.358,-1.759 0.534,-0.336 0.766,-0.567 0.838,-0.647 0.098,-0.224 0.145,-0.413 0.145,-0.578 0,-1.031 -0.201,-1.991 -0.614,-2.935 -0.394,-0.902 -1,-1.703 -1.851,-2.45 C 8.601,1.956 7.398,1.305 5.923,0.807 4.334,0.272 2.34,0 0,0 m -3.907,56.403 c -1.859,0 -3.413,0.306 -4.619,0.91 -1.249,0.624 -2.242,1.427 -3.037,2.457 -0.855,1.105 -1.474,2.401 -1.895,3.959 -0.472,1.752 -0.712,3.658 -0.712,5.665 0,1.68 0.222,3.109 0.661,4.247 0.435,1.128 0.964,2.038 1.573,2.705 0.563,0.617 1.151,1.056 1.794,1.341 0.631,0.279 1.216,0.42 1.738,0.42 1.703,0 3.162,-0.302 4.338,-0.898 1.247,-0.631 2.257,-1.451 3.089,-2.506 0.883,-1.121 1.575,-2.492 2.055,-4.072 0.517,-1.704 0.779,-3.585 0.779,-5.587 0,-1.739 -0.204,-3.208 -0.607,-4.366 C 0.874,59.595 0.399,58.72 -0.16,58.077 -0.652,57.51 -1.19,57.106 -1.805,56.839 -2.481,56.546 -3.168,56.403 -3.907,56.403 m 39.137,41.149 -3.472,-1.27 c -1.955,-0.714 -4.644,-1.606 -7.993,-2.65 -2.701,-0.843 -5.726,-1.516 -9.015,-2.007 -2.312,1.351 -4.847,2.467 -7.563,3.327 -3.427,1.085 -7.135,1.634 -11.021,1.634 -4.834,0 -9.532,-0.805 -13.963,-2.395 -4.415,-1.582 -8.365,-3.767 -11.74,-6.494 -3.444,-2.785 -6.242,-6.11 -8.317,-9.885 -2.172,-3.952 -3.273,-8.198 -3.273,-12.621 0,-3.221 0.562,-6.29 1.67,-9.122 1.093,-2.793 2.649,-5.349 4.624,-7.597 1.938,-2.209 4.299,-4.138 7.014,-5.731 0.037,-0.022 0.075,-0.044 0.113,-0.066 -1.702,-1.482 -3.132,-2.879 -4.253,-4.157 -1.342,-1.53 -2.316,-2.898 -2.976,-4.184 -0.854,-1.662 -1.253,-3.08 -1.253,-4.46 0,-3.039 1.543,-5.419 3.541,-7.241 -0.818,-0.531 -1.581,-1.048 -2.286,-1.55 -2.674,-1.902 -4.758,-3.652 -6.37,-5.351 -1.826,-1.922 -3.085,-3.775 -3.847,-5.66 -0.756,-1.874 -1.139,-3.769 -1.139,-5.635 0,-3.218 0.763,-6.203 2.268,-8.871 1.377,-2.443 3.236,-4.639 5.524,-6.525 2.164,-1.784 4.691,-3.317 7.512,-4.555 2.643,-1.16 5.468,-2.129 8.396,-2.881 2.887,-0.741 5.866,-1.292 8.856,-1.637 2.957,-0.34 5.84,-0.512 8.573,-0.512 3.521,0 7.102,0.431 10.642,1.282 3.478,0.837 6.867,2.012 10.071,3.493 3.21,1.484 6.232,3.249 8.986,5.247 2.799,2.031 5.286,4.283 7.392,6.693 2.176,2.491 3.914,5.142 5.168,7.882 1.353,2.958 2.039,5.989 2.039,9.01 0,3.128 -0.602,6.016 -1.788,8.585 -1.276,2.765 -3.452,5.177 -6.469,7.166 -2.695,1.777 -6.11,3.228 -10.438,4.438 -4.003,1.117 -9.054,2.071 -15.014,2.835 -3.692,0.473 -6.643,0.926 -8.773,1.347 -0.338,0.067 -0.651,0.131 -0.942,0.193 3.724,0.214 7.334,0.91 10.763,2.076 4.218,1.434 8.001,3.473 11.242,6.06 3.321,2.652 6.012,5.877 7.997,9.585 2.057,3.841 3.099,8.12 3.099,12.719 0,2.316 -0.308,4.58 -0.915,6.738 1.444,0.182 2.888,0.401 4.305,0.65 l 1.945,0.344 1.186,1.58 c 0.583,0.778 1.146,1.661 1.675,2.625 0.469,0.857 0.905,1.702 1.297,2.515 0.38,0.782 0.756,1.603 1.116,2.43 0.419,0.967 0.724,1.812 0.937,2.587 l 0.651,2.376 -1.486,1.964 -2.064,2.728 z M 0,-5 c 2.9,0 5.407,0.357 7.521,1.069 2.113,0.713 3.871,1.684 5.272,2.912 1.4,1.23 2.444,2.63 3.133,4.204 0.688,1.573 1.033,3.219 1.033,4.939 0,0.935 -0.222,1.868 -0.664,2.802 -0.442,0.934 -1.327,1.819 -2.654,2.654 -1.328,0.836 -3.196,1.61 -5.604,2.322 -2.409,0.713 -5.555,1.316 -9.437,1.807 -2.36,0.295 -4.572,0.64 -6.636,1.032 -2.065,0.394 -4.007,0.787 -5.825,1.18 -2.261,-1.572 -4.043,-2.974 -5.345,-4.203 -1.303,-1.228 -2.274,-2.347 -2.913,-3.355 -0.639,-1.007 -1.044,-1.917 -1.216,-2.727 -0.173,-0.812 -0.259,-1.586 -0.259,-2.323 0,-1.623 0.602,-3.182 1.807,-4.682 1.204,-1.499 2.863,-2.814 4.976,-3.944 2.114,-1.13 4.609,-2.028 7.485,-2.692 C -6.451,-4.668 -3.343,-5 0,-5 m -3.907,56.403 c 1.425,0 2.789,0.284 4.092,0.849 1.301,0.564 2.445,1.412 3.428,2.544 0.983,1.13 1.77,2.543 2.36,4.239 0.589,1.695 0.884,3.698 0.884,6.009 0,2.507 -0.332,4.853 -0.995,7.04 -0.664,2.187 -1.634,4.092 -2.913,5.715 -1.278,1.621 -2.863,2.912 -4.755,3.87 -1.892,0.959 -4.092,1.438 -6.598,1.438 -1.23,0 -2.484,-0.283 -3.761,-0.848 -1.278,-0.565 -2.433,-1.413 -3.466,-2.544 -1.031,-1.131 -1.88,-2.555 -2.543,-4.275 -0.664,-1.722 -0.996,-3.736 -0.996,-6.046 0,-2.458 0.295,-4.781 0.885,-6.967 0.59,-2.188 1.512,-4.092 2.765,-5.715 1.253,-1.621 2.838,-2.912 4.756,-3.87 1.916,-0.959 4.202,-1.439 6.857,-1.439 m 37.382,40.183 2.064,-2.728 c -0.148,-0.541 -0.382,-1.179 -0.701,-1.917 -0.32,-0.737 -0.663,-1.487 -1.032,-2.248 -0.368,-0.763 -0.763,-1.525 -1.18,-2.286 -0.418,-0.763 -0.848,-1.438 -1.29,-2.028 -1.672,-0.295 -3.367,-0.541 -5.088,-0.737 -1.721,-0.197 -3.612,-0.345 -5.677,-0.442 1.033,-1.721 1.831,-3.502 2.397,-5.346 0.564,-1.843 0.847,-3.772 0.847,-5.787 0,-3.786 -0.836,-7.238 -2.506,-10.359 C 19.637,54.586 17.4,51.907 14.6,49.671 11.797,47.434 8.553,45.689 4.867,44.437 1.18,43.183 -2.703,42.556 -6.783,42.556 H -7.52 c -1.869,-1.721 -3.06,-3.109 -3.576,-4.165 -0.516,-1.058 -0.774,-1.734 -0.774,-2.029 0,-0.441 0.147,-0.873 0.442,-1.29 0.295,-0.418 0.995,-0.836 2.102,-1.253 1.105,-0.418 2.776,-0.847 5.014,-1.291 2.236,-0.441 5.271,-0.909 9.105,-1.4 5.751,-0.737 10.519,-1.635 14.304,-2.691 3.784,-1.058 6.795,-2.323 9.032,-3.797 2.236,-1.475 3.797,-3.17 4.682,-5.088 0.884,-1.916 1.327,-4.079 1.327,-6.489 0,-2.309 -0.529,-4.619 -1.585,-6.929 -1.058,-2.311 -2.52,-4.535 -4.387,-6.673 -1.869,-2.139 -4.056,-4.116 -6.562,-5.936 -2.507,-1.818 -5.224,-3.403 -8.148,-4.755 -2.925,-1.352 -5.972,-2.408 -9.143,-3.17 -3.169,-0.762 -6.329,-1.144 -9.473,-1.144 -2.557,0 -5.224,0.16 -8,0.48 -2.778,0.32 -5.506,0.824 -8.185,1.511 -2.679,0.689 -5.222,1.561 -7.631,2.617 -2.409,1.058 -4.522,2.335 -6.34,3.834 -1.82,1.5 -3.27,3.208 -4.35,5.124 -1.082,1.918 -1.623,4.056 -1.623,6.415 0,1.23 0.259,2.483 0.774,3.761 0.517,1.279 1.462,2.643 2.839,4.092 1.376,1.45 3.256,3.023 5.641,4.719 2.384,1.695 5.468,3.576 9.253,5.64 -5.604,2.26 -8.405,4.669 -8.405,7.225 0,0.541 0.232,1.266 0.7,2.176 0.466,0.909 1.228,1.965 2.286,3.17 1.056,1.204 2.444,2.544 4.166,4.018 1.72,1.475 3.808,3.047 6.266,4.719 -2.752,0.737 -5.259,1.77 -7.52,3.097 -2.262,1.327 -4.191,2.899 -5.788,4.718 -1.598,1.819 -2.839,3.859 -3.724,6.12 -0.885,2.26 -1.326,4.694 -1.326,7.299 0,3.588 0.885,6.992 2.654,10.212 1.77,3.219 4.129,6.02 7.078,8.405 2.95,2.383 6.377,4.276 10.286,5.677 3.907,1.401 8,2.101 12.275,2.101 3.393,0 6.563,-0.467 9.512,-1.4 2.949,-0.935 5.603,-2.188 7.963,-3.761 4.276,0.541 8.147,1.352 11.612,2.433 3.466,1.081 6.205,1.991 8.222,2.728"
             style="fill:#ffffff;fill-opacity:1;fill-rule:nonzero;stroke:none"
             id="path1263" /></g><g
           id="g1265"
           transform="translate(1413.8057,279.8721)"><path
             d="m 0,0 c 1.81,-0.839 3.398,-1.381 4.724,-1.611 1.398,-0.244 2.903,-0.368 4.473,-0.368 1.81,0 3.627,0.332 5.402,0.987 1.732,0.639 3.229,1.616 4.578,2.985 1.35,1.371 2.469,3.172 3.324,5.352 0.863,2.201 1.302,4.921 1.302,8.082 0,3.127 -0.513,5.892 -1.526,8.219 -0.997,2.291 -2.411,4.234 -4.202,5.774 -1.821,1.562 -4.043,2.762 -6.602,3.565 -2.646,0.829 -5.644,1.25 -8.91,1.25 -0.965,0 -1.94,-0.012 -2.926,-0.037 -0.23,-0.005 -0.461,-0.011 -0.695,-0.018 V 0.49 Z m -34.592,-53.062 v 9.921 l 1.996,0.412 c 3.127,0.642 5.477,1.333 6.984,2.054 0.572,0.274 0.919,0.486 1.122,0.627 v 72.006 c -0.849,-0.117 -1.678,-0.234 -2.488,-0.352 -1.675,-0.243 -3.245,-0.486 -4.703,-0.729 l -2.528,-0.421 -1.634,11.57 2.209,0.531 c 2.698,0.649 5.734,1.256 9.021,1.805 3.261,0.543 6.717,1.021 10.27,1.419 3.548,0.397 7.162,0.711 10.741,0.932 3.592,0.224 7.081,0.337 10.367,0.337 5.871,0 11.314,-0.593 16.178,-1.765 4.958,-1.195 9.281,-2.998 12.85,-5.359 3.661,-2.424 6.535,-5.467 8.543,-9.047 2.021,-3.607 3.047,-7.789 3.047,-12.429 0,-3.642 -0.513,-7.054 -1.525,-10.142 -1.008,-3.077 -2.398,-5.88 -4.13,-8.332 -1.72,-2.433 -3.733,-4.607 -5.984,-6.459 -2.233,-1.84 -4.635,-3.387 -7.136,-4.597 -2.489,-1.206 -5.044,-2.124 -7.59,-2.727 -2.561,-0.607 -5.049,-0.915 -7.397,-0.915 -2.389,0 -4.763,0.199 -7.055,0.588 -2.357,0.403 -4.491,1.021 -6.34,1.837 l -1.061,0.468 -0.223,0.754 v -28.977 c 0.157,-0.092 0.413,-0.226 0.813,-0.398 0.779,-0.338 1.921,-0.69 3.395,-1.046 1.566,-0.38 3.62,-0.79 6.105,-1.219 l 2.074,-0.358 v -9.989 z"
             style="fill:#5ca244;fill-opacity:1;fill-rule:nonzero;stroke:none"
             id="path1267" /></g><g
           id="g1269"
           transform="translate(1415.248,311.6013)"><path
             d="m 0,0 c 0.378,0.004 0.752,0.006 1.12,0.006 3.013,0 5.759,-0.382 8.163,-1.136 2.234,-0.701 4.16,-1.736 5.722,-3.078 1.522,-1.307 2.68,-2.902 3.538,-4.874 0.874,-2.009 1.317,-4.439 1.317,-7.22 0,-2.848 -0.38,-5.259 -1.129,-7.168 -0.731,-1.865 -1.665,-3.383 -2.778,-4.512 -1.084,-1.102 -2.282,-1.884 -3.661,-2.393 -1.519,-0.561 -3.002,-0.834 -4.537,-0.834 -1.427,0 -2.786,0.112 -4.042,0.331 C 2.691,-30.7 1.444,-30.284 0,-29.639 Z m 5.322,17.821 c -3.337,0 -6.877,-0.115 -10.522,-0.342 -3.619,-0.224 -7.274,-0.541 -10.863,-0.942 -3.598,-0.404 -7.098,-0.887 -10.403,-1.438 -3.346,-0.559 -6.439,-1.178 -9.195,-1.84 l -4.417,-1.062 0.635,-4.499 0.958,-6.783 0.717,-5.075 5.055,0.842 c 1.295,0.216 2.734,0.44 4.28,0.667 v -67.634 c -0.994,-0.434 -2.822,-1.05 -6.109,-1.725 l -3.992,-0.822 v -4.076 -5.383 -5 h 5 40.921 5 v 5 5.383 4.211 l -4.15,0.716 c -2.43,0.42 -4.427,0.818 -5.937,1.185 -1.05,0.254 -1.787,0.472 -2.3,0.647 v 22.98 c 1.458,-0.485 3.032,-0.873 4.703,-1.158 2.432,-0.414 4.947,-0.624 7.476,-0.624 2.541,0 5.224,0.331 7.974,0.983 2.722,0.644 5.45,1.623 8.104,2.909 2.678,1.296 5.247,2.951 7.634,4.916 2.423,1.995 4.588,4.332 6.436,6.947 1.876,2.656 3.378,5.683 4.464,8.996 1.095,3.34 1.649,7.014 1.649,10.92 0,5.074 -1.132,9.667 -3.366,13.652 -2.204,3.931 -5.347,7.265 -9.343,9.909 -3.813,2.523 -8.403,4.442 -13.643,5.705 -5.057,1.218 -10.698,1.835 -16.766,1.835 m 0,-5 c 5.701,0 10.9,-0.565 15.594,-1.696 4.693,-1.131 8.712,-2.801 12.056,-5.013 3.341,-2.212 5.922,-4.94 7.741,-8.184 1.818,-3.245 2.727,-6.98 2.727,-11.208 0,-3.391 -0.466,-6.513 -1.4,-9.363 -0.935,-2.851 -2.2,-5.408 -3.797,-7.668 -1.597,-2.261 -3.441,-4.252 -5.53,-5.972 -2.09,-1.721 -4.302,-3.146 -6.636,-4.276 -2.335,-1.131 -4.694,-1.98 -7.078,-2.544 -2.385,-0.566 -4.657,-0.848 -6.82,-0.848 -2.261,0 -4.473,0.185 -6.635,0.553 -2.164,0.369 -4.081,0.922 -5.752,1.659 l -2.285,7.741 c 2.014,-0.933 3.797,-1.536 5.346,-1.805 1.547,-0.271 3.181,-0.406 4.902,-0.406 2.113,0 4.203,0.38 6.267,1.143 2.065,0.762 3.896,1.953 5.494,3.576 1.596,1.621 2.886,3.685 3.87,6.193 0.983,2.506 1.474,5.504 1.474,8.995 0,3.489 -0.578,6.562 -1.732,9.216 -1.155,2.654 -2.777,4.878 -4.866,6.673 C 16.172,1.38 13.678,2.732 10.778,3.641 7.878,4.551 4.659,5.006 1.12,5.006 0.136,5.006 -0.859,4.993 -1.866,4.969 -2.874,4.944 -3.919,4.907 -5,4.858 v -77.269 c 0,-0.295 0.159,-0.615 0.479,-0.958 0.32,-0.345 0.933,-0.714 1.843,-1.106 0.909,-0.394 2.175,-0.787 3.798,-1.18 1.621,-0.394 3.71,-0.812 6.267,-1.253 v -5.383 h -40.921 v 5.383 c 3.343,0.688 5.862,1.438 7.557,2.248 1.697,0.812 2.544,1.561 2.544,2.249 v 75.5 C -25.301,2.842 -27.082,2.597 -28.778,2.351 -30.474,2.105 -32.06,1.86 -33.534,1.614 l -0.958,6.783 c 2.654,0.638 5.603,1.228 8.847,1.77 3.245,0.54 6.624,1.007 10.138,1.401 3.514,0.393 7.053,0.7 10.617,0.921 3.564,0.222 6.968,0.332 10.212,0.332"
             style="fill:#ffffff;fill-opacity:1;fill-rule:nonzero;stroke:none"
             id="path1271" /></g><g
           id="g1273"
           transform="translate(1501.5391,261.0615)"><path
             d="m 0,0 c -1.654,-0.305 -3.12,-0.605 -4.382,-0.897 -1.92,-0.446 -3.538,-0.902 -4.81,-1.357 -1.203,-0.43 -2.166,-0.87 -2.865,-1.309 -0.701,-0.442 -1.309,-0.919 -1.81,-1.421 -1.101,-1.099 -1.995,-2.289 -2.661,-3.538 -0.588,-1.103 -0.886,-2.494 -0.886,-4.133 0,-1.322 0.167,-2.376 0.495,-3.136 0.321,-0.744 0.706,-1.319 1.144,-1.711 0.441,-0.397 0.886,-0.666 1.324,-0.803 0.541,-0.169 1.01,-0.255 1.394,-0.255 0.754,0 1.571,0.093 2.427,0.276 0.855,0.183 1.839,0.525 2.924,1.014 1.116,0.503 2.382,1.228 3.762,2.156 1.173,0.788 2.497,1.785 3.944,2.969 z m 9.432,-36.463 c -1.887,0 -4.589,0.746 -6.745,4.3 -0.837,1.376 -1.473,2.995 -1.917,4.889 -1.156,-0.96 -2.318,-1.832 -3.477,-2.609 -2.348,-1.575 -4.663,-2.862 -6.882,-3.828 -2.24,-0.975 -4.429,-1.685 -6.504,-2.111 -2.077,-0.425 -4.007,-0.641 -5.737,-0.641 -2.341,0 -4.671,0.409 -6.925,1.216 -2.281,0.816 -4.363,2.042 -6.189,3.643 -1.857,1.628 -3.369,3.696 -4.494,6.145 -1.129,2.455 -1.703,5.324 -1.703,8.528 0,3.732 0.702,6.983 2.084,9.662 1.317,2.553 2.995,4.858 4.988,6.852 1.272,1.271 2.756,2.515 4.409,3.695 1.703,1.217 3.964,2.393 6.718,3.493 2.672,1.071 6.059,2.112 10.065,3.093 3.483,0.856 7.808,1.69 12.877,2.486 v 6.551 c 0,1.334 -0.128,2.575 -0.38,3.688 -0.213,0.942 -0.564,1.713 -1.073,2.358 -0.475,0.602 -1.114,1.066 -1.954,1.418 -0.915,0.385 -2.153,0.58 -3.677,0.58 -0.872,0 -1.769,-0.17 -2.663,-0.505 -0.885,-0.333 -1.633,-0.785 -2.284,-1.381 -0.636,-0.583 -1.128,-1.278 -1.508,-2.127 -0.333,-0.745 -0.448,-1.606 -0.353,-2.631 0.183,-1.421 -0.655,-2.635 -2.493,-3.609 -0.938,-0.496 -2.108,-1.001 -3.481,-1.502 -1.312,-0.48 -2.784,-0.966 -4.376,-1.447 -1.589,-0.479 -3.15,-0.892 -4.636,-1.225 -1.465,-0.33 -2.812,-0.588 -4.005,-0.77 -0.848,-0.13 -1.53,-0.192 -2.084,-0.192 -0.451,0 -0.84,0.042 -1.185,0.129 l -1.254,0.314 -2.374,6.105 0.366,0.916 c 1.301,3.251 3.359,6.299 6.12,9.059 2.682,2.682 5.857,5.054 9.435,7.051 3.555,1.984 7.479,3.562 11.663,4.691 4.203,1.134 8.503,1.709 12.78,1.709 3.665,0 6.901,-0.496 9.62,-1.475 2.795,-1.007 5.151,-2.456 7.004,-4.308 1.852,-1.852 3.25,-4.058 4.157,-6.555 0.883,-2.428 1.33,-5.072 1.33,-7.858 v -35.537 c 0,-2.277 0.37,-2.998 0.445,-3.12 0.036,-0.059 0.066,-0.101 0.089,-0.13 0.21,0.004 0.428,0.02 0.65,0.051 0.179,0.023 0.479,0.078 0.971,0.219 0.44,0.125 0.969,0.31 1.584,0.551 0.684,0.269 1.514,0.598 2.492,0.989 l 2.553,1.022 2.905,-9.902 -1.487,-1.027 c -2.113,-1.46 -4.344,-2.862 -6.631,-4.169 -2.264,-1.294 -4.451,-2.451 -6.496,-3.436 -2.08,-1.001 -4.018,-1.798 -5.761,-2.371 -1.919,-0.63 -3.416,-0.937 -4.577,-0.937"
             style="fill:#5ca244;fill-opacity:1;fill-rule:nonzero;stroke:none"
             id="path1275" /></g><g
           id="g1277"
           transform="translate(1488.4824,245.002)"><path
             d="m 0,0 c -0.002,0 -0.203,0.002 -0.645,0.14 -0.057,0.018 -0.198,0.093 -0.4,0.275 -0.064,0.057 -0.275,0.273 -0.521,0.843 -0.089,0.204 -0.291,0.817 -0.291,2.146 0,1.225 0.199,2.22 0.591,2.957 0.55,1.031 1.297,2.021 2.22,2.944 0.373,0.374 0.835,0.733 1.375,1.074 0.377,0.236 1.093,0.614 2.377,1.073 1.182,0.422 2.708,0.851 4.535,1.275 0.415,0.096 0.854,0.194 1.316,0.292 V 5.111 C 9.528,4.298 8.578,3.598 7.719,3.021 6.454,2.171 5.312,1.515 4.324,1.069 3.399,0.652 2.584,0.367 1.899,0.22 1.219,0.074 0.579,0 0,0 m 13.641,60.089 c -4.498,0 -9.017,-0.603 -13.431,-1.794 -4.382,-1.183 -8.496,-2.839 -12.231,-4.922 -3.78,-2.109 -7.139,-4.622 -9.984,-7.467 -3.001,-3.001 -5.246,-6.331 -6.673,-9.898 l -0.733,-1.831 0.715,-1.838 1.547,-3.982 0.937,-2.41 2.508,-0.628 c 0.548,-0.137 1.135,-0.204 1.794,-0.204 0.681,0 1.487,0.072 2.463,0.222 1.246,0.189 2.652,0.459 4.175,0.801 1.543,0.346 3.162,0.774 4.81,1.272 1.636,0.493 3.155,0.995 4.512,1.492 1.498,0.547 2.737,1.083 3.787,1.637 3.646,1.932 3.995,4.541 3.814,6.082 -0.049,0.564 10e-4,1.018 0.149,1.349 0.237,0.532 0.536,0.958 0.914,1.304 0.412,0.378 0.895,0.668 1.479,0.887 0.615,0.23 1.2,0.343 1.78,0.343 1.56,0 2.366,-0.24 2.707,-0.384 0.442,-0.185 0.756,-0.402 0.962,-0.664 0.272,-0.344 0.467,-0.789 0.597,-1.36 0.211,-0.931 0.318,-1.986 0.318,-3.135 v -4.423 c -4.24,-0.704 -7.919,-1.436 -10.974,-2.186 -4.118,-1.009 -7.617,-2.086 -10.4,-3.201 -2.978,-1.189 -5.348,-2.427 -7.242,-3.781 -1.763,-1.258 -3.352,-2.591 -4.721,-3.959 -2.176,-2.178 -4.007,-4.692 -5.442,-7.474 -1.567,-3.037 -2.362,-6.673 -2.362,-10.808 0,-3.567 0.65,-6.789 1.933,-9.575 1.271,-2.768 2.993,-5.116 5.115,-6.977 2.063,-1.81 4.417,-3.196 6.994,-4.118 2.527,-0.904 5.14,-1.362 7.769,-1.362 1.898,0 3.996,0.232 6.237,0.691 2.248,0.462 4.602,1.224 7,2.268 2.357,1.026 4.806,2.386 7.278,4.044 0.269,0.18 0.538,0.365 0.807,0.555 0.314,-0.729 0.667,-1.414 1.057,-2.057 2.905,-4.786 6.812,-5.501 8.882,-5.501 1.45,0 3.153,0.337 5.357,1.061 1.848,0.607 3.887,1.445 6.064,2.493 2.101,1.012 4.339,2.196 6.655,3.52 2.347,1.341 4.639,2.781 6.811,4.281 l 2.973,2.054 -1.017,3.468 -1.622,5.529 L 46.16,4.782 41.053,2.738 C 40.083,2.349 39.258,2.022 38.579,1.756 38.467,1.711 38.358,1.67 38.253,1.63 38.252,1.703 38.252,1.778 38.252,1.856 v 35.538 c 0,3.078 -0.498,6.009 -1.481,8.712 -1.033,2.843 -2.627,5.355 -4.737,7.467 -2.117,2.116 -4.783,3.762 -7.926,4.893 -2.992,1.077 -6.513,1.623 -10.467,1.623 M 0,-5 c 0.934,0 1.917,0.11 2.949,0.331 1.032,0.222 2.175,0.614 3.429,1.18 1.253,0.564 2.629,1.351 4.129,2.359 1.499,1.007 3.181,2.298 5.05,3.871 V 19.035 C 12.607,18.544 10.125,18.064 8.11,17.598 6.095,17.13 4.398,16.651 3.023,16.16 1.646,15.668 0.527,15.152 -0.332,14.611 -1.192,14.07 -1.942,13.48 -2.58,12.842 -3.859,11.563 -4.892,10.188 -5.678,8.713 -6.464,7.238 -6.857,5.469 -6.857,3.404 c 0,-1.671 0.233,-3.048 0.701,-4.129 0.467,-1.081 1.056,-1.941 1.769,-2.58 0.712,-0.639 1.462,-1.082 2.248,-1.327 C -1.353,-4.878 -0.64,-5 0,-5 m 13.641,60.089 c 3.39,0 6.315,-0.442 8.773,-1.327 2.457,-0.885 4.485,-2.126 6.083,-3.723 1.597,-1.598 2.789,-3.478 3.575,-5.641 0.786,-2.163 1.18,-4.497 1.18,-7.004 V 1.856 c 0,-2.064 0.27,-3.539 0.811,-4.423 0.541,-0.885 1.253,-1.328 2.138,-1.328 0.344,0 0.701,0.025 1.07,0.075 0.369,0.048 0.811,0.146 1.327,0.295 0.516,0.146 1.118,0.355 1.806,0.626 0.688,0.269 1.524,0.601 2.507,0.995 l 1.622,-5.53 c -2.064,-1.425 -4.215,-2.777 -6.451,-4.054 -2.237,-1.28 -4.351,-2.397 -6.341,-3.356 -1.991,-0.958 -3.809,-1.707 -5.456,-2.248 -1.647,-0.541 -2.912,-0.811 -3.797,-0.811 -1.819,0 -3.355,1.032 -4.608,3.096 -1.254,2.065 -2.004,4.94 -2.249,8.627 -2.212,-2.213 -4.437,-4.068 -6.673,-5.567 -2.237,-1.5 -4.399,-2.703 -6.488,-3.612 -2.09,-0.91 -4.092,-1.561 -6.009,-1.954 -1.917,-0.393 -3.662,-0.59 -5.234,-0.59 -2.065,0 -4.093,0.357 -6.083,1.069 -1.992,0.713 -3.787,1.77 -5.383,3.17 -1.598,1.401 -2.888,3.171 -3.87,5.309 -0.985,2.138 -1.475,4.632 -1.475,7.484 0,3.342 0.601,6.181 1.806,8.516 1.204,2.334 2.716,4.411 4.534,6.23 1.18,1.18 2.544,2.322 4.093,3.428 1.547,1.106 3.612,2.176 6.193,3.207 2.58,1.033 5.824,2.028 9.732,2.986 3.908,0.959 8.835,1.881 14.783,2.766 v 8.699 c 0,1.523 -0.147,2.937 -0.442,4.24 -0.295,1.301 -0.811,2.42 -1.549,3.354 -0.737,0.934 -1.72,1.659 -2.949,2.175 -1.229,0.517 -2.777,0.774 -4.644,0.774 -1.18,0 -2.36,-0.221 -3.539,-0.663 -1.18,-0.443 -2.213,-1.069 -3.098,-1.881 -0.885,-0.81 -1.585,-1.794 -2.101,-2.949 -0.516,-1.155 -0.7,-2.469 -0.553,-3.944 0.048,-0.295 -0.344,-0.663 -1.18,-1.106 -0.836,-0.441 -1.893,-0.897 -3.17,-1.363 -1.278,-0.468 -2.691,-0.935 -4.239,-1.402 -1.549,-0.467 -3.036,-0.86 -4.461,-1.179 -1.426,-0.321 -2.704,-0.566 -3.834,-0.738 -0.718,-0.109 -1.288,-0.164 -1.708,-0.164 -0.242,0 -0.435,0.018 -0.578,0.054 l -1.548,3.981 c 1.18,2.949 3.034,5.688 5.566,8.221 2.532,2.531 5.493,4.743 8.885,6.635 3.392,1.892 7.09,3.38 11.097,4.461 4.006,1.081 8.048,1.622 12.129,1.622"
             style="fill:#ffffff;fill-opacity:1;fill-rule:nonzero;stroke:none"
             id="path1279" /></g><g
           id="g1281"
           transform="translate(1572.9766,287.8589)"><path
             d="m 0,0 c -2.087,0 -4.022,-0.396 -5.754,-1.179 -1.69,-0.765 -3.123,-1.947 -4.377,-3.613 -1.306,-1.733 -2.359,-3.998 -3.13,-6.732 -0.794,-2.811 -1.196,-6.279 -1.196,-10.307 0,-3.659 0.456,-6.937 1.355,-9.744 0.896,-2.8 2.062,-5.187 3.467,-7.095 1.354,-1.841 2.899,-3.256 4.592,-4.205 1.648,-0.926 3.227,-1.376 4.822,-1.376 2.294,0 4.417,0.56 6.491,1.712 2.024,1.124 4.28,2.784 6.714,4.938 V -7.23 C 11.502,-5.013 9.694,-3.257 7.601,-2.004 5.345,-0.656 2.858,0 0,0 m 22.783,-63.26 c -5.279,0 -7.499,5.578 -8.503,10.206 -1.003,-0.946 -1.967,-1.814 -2.884,-2.6 -2,-1.715 -4.004,-3.147 -5.958,-4.258 -2.005,-1.136 -4.096,-1.988 -6.216,-2.533 -2.114,-0.541 -4.431,-0.815 -6.89,-0.815 -3.665,0 -7.325,0.893 -10.88,2.657 -3.511,1.741 -6.692,4.269 -9.455,7.512 -2.738,3.211 -4.973,7.166 -6.64,11.754 -1.665,4.573 -2.509,9.797 -2.509,15.525 0,5.196 0.935,10.295 2.78,15.154 1.847,4.865 4.488,9.223 7.853,12.953 3.375,3.74 7.456,6.775 12.128,9.02 4.721,2.268 9.959,3.417 15.571,3.417 2.492,0 5.006,-0.295 7.469,-0.878 1.392,-0.33 2.841,-0.865 4.335,-1.599 v 20.917 c 0,2.652 -0.036,4.784 -0.108,6.335 -0.066,1.443 -0.386,2.092 -0.569,2.35 -0.309,0.43 -0.995,0.665 -1.518,0.787 -1.246,0.289 -3.129,0.53 -5.595,0.717 l -2.311,0.174 v 9.669 l 2.251,0.225 c 5.298,0.529 10.134,1.247 14.373,2.134 4.243,0.887 7.639,1.744 10.093,2.546 l 1.437,0.471 4.643,-4.519 v -90.564 c 0,-1.67 0.035,-3.081 0.105,-4.193 0.068,-1.089 0.157,-1.97 0.266,-2.62 0.089,-0.538 0.184,-0.785 0.218,-0.859 0.029,-0.008 0.06,-0.015 0.091,-0.022 0.204,0.001 0.352,0.014 0.516,0.035 0.27,0.036 0.779,0.141 1.649,0.44 0.792,0.271 1.829,0.691 3.078,1.246 l 2.406,1.068 3.72,-9.697 -1.65,-1.111 c -2.308,-1.555 -4.678,-3.008 -7.045,-4.317 -2.322,-1.286 -4.534,-2.436 -6.576,-3.42 -2.059,-0.991 -3.915,-1.782 -5.52,-2.351 -1.837,-0.653 -3.157,-0.956 -4.155,-0.956"
             style="fill:#5ca244;fill-opacity:1;fill-rule:nonzero;stroke:none"
             id="path1283" /></g><g
           id="g1285"
           transform="translate(1572.7559,246.1074)"><path
             d="M 0,0 C -1.156,0 -2.333,0.345 -3.599,1.055 -4.98,1.831 -6.259,3.01 -7.4,4.561 c -1.245,1.691 -2.287,3.836 -3.099,6.376 -0.821,2.562 -1.237,5.584 -1.237,8.984 0,3.797 0.37,7.037 1.102,9.627 0.687,2.436 1.602,4.423 2.72,5.906 0.997,1.324 2.113,2.253 3.414,2.842 1.422,0.642 2.967,0.955 4.721,0.955 2.394,0 4.461,-0.54 6.319,-1.65 1.604,-0.96 2.976,-2.231 4.165,-3.863 V 5.291 C 8.734,3.613 6.913,2.307 5.277,1.398 3.584,0.457 1.858,0 0,0 m 31.917,103.178 -2.875,-0.941 C 26.676,101.462 23.37,100.63 19.217,99.762 15.063,98.893 10.316,98.188 5.106,97.668 L 0.604,97.217 v -4.525 -5.087 -4.637 l 4.623,-0.349 c 2.913,-0.22 4.446,-0.48 5.22,-0.659 0.023,-0.006 0.045,-0.011 0.065,-0.016 0.035,-0.178 0.07,-0.438 0.087,-0.799 0.07,-1.516 0.106,-3.609 0.106,-6.222 V 57.695 c -0.423,0.13 -0.842,0.245 -1.257,0.343 -2.655,0.628 -5.362,0.946 -8.048,0.946 -5.989,0 -11.591,-1.233 -16.652,-3.664 -4.968,-2.387 -9.309,-5.616 -12.902,-9.599 -3.574,-3.961 -6.378,-8.584 -8.335,-13.741 -1.953,-5.143 -2.943,-10.54 -2.943,-16.041 0,-6.02 0.896,-11.532 2.661,-16.382 1.769,-4.867 4.154,-9.08 7.088,-12.52 2.981,-3.501 6.429,-6.236 10.246,-8.129 3.902,-1.935 7.936,-2.917 11.99,-2.917 2.668,0 5.194,0.301 7.508,0.894 2.337,0.6 4.633,1.535 6.828,2.779 2.097,1.191 4.234,2.717 6.356,4.537 0.003,0.002 0.007,0.005 0.01,0.008 2.03,-5.461 5.291,-8.218 9.749,-8.218 1.309,0 2.848,0.339 4.991,1.1 1.689,0.6 3.629,1.426 5.766,2.454 2.087,1.005 4.342,2.178 6.706,3.487 2.429,1.343 4.862,2.834 7.23,4.43 l 3.298,2.223 -1.424,3.714 -2.065,5.382 L 45.62,3.697 40.808,1.56 C 39.931,1.17 39.171,0.853 38.542,0.614 38.528,0.798 38.514,0.995 38.501,1.208 38.434,2.272 38.4,3.63 38.4,5.248 v 89.509 2.111 l -1.512,1.472 -2.803,2.728 z M 0,-5 c 2.703,0 5.271,0.675 7.705,2.027 2.433,1.352 5.099,3.356 8,6.01 v 32.219 c -1.769,2.851 -3.971,5.063 -6.6,6.636 -2.629,1.572 -5.591,2.359 -8.884,2.359 -2.458,0 -4.719,-0.467 -6.783,-1.4 -2.065,-0.935 -3.846,-2.396 -5.345,-4.388 -1.5,-1.99 -2.68,-4.509 -3.539,-7.557 -0.861,-3.048 -1.29,-6.709 -1.29,-10.985 0,-3.933 0.49,-7.436 1.474,-10.507 0.983,-3.072 2.26,-5.677 3.834,-7.815 1.573,-2.138 3.366,-3.773 5.382,-4.904 C -4.031,-4.436 -2.016,-5 0,-5 M 30.598,97.485 33.4,94.757 V 5.248 c 0,-1.721 0.037,-3.17 0.111,-4.35 0.073,-1.179 0.172,-2.138 0.295,-2.875 0.122,-0.738 0.295,-1.303 0.515,-1.696 0.222,-0.393 0.48,-0.688 0.775,-0.885 0.295,-0.147 0.614,-0.257 0.959,-0.332 0.171,-0.036 0.371,-0.055 0.598,-0.055 0.227,0 0.482,0.019 0.765,0.055 0.564,0.075 1.278,0.259 2.139,0.554 0.859,0.295 1.953,0.736 3.281,1.326 l 2.064,-5.382 c -2.261,-1.524 -4.548,-2.924 -6.857,-4.202 -2.311,-1.279 -4.461,-2.396 -6.451,-3.355 -1.991,-0.958 -3.749,-1.707 -5.272,-2.248 -1.524,-0.541 -2.631,-0.812 -3.318,-0.812 -3.539,0 -5.801,4.301 -6.783,12.904 -2.262,-2.312 -4.339,-4.278 -6.231,-5.899 -1.892,-1.623 -3.748,-2.949 -5.566,-3.982 -1.82,-1.032 -3.687,-1.793 -5.604,-2.285 -1.917,-0.492 -4.007,-0.738 -6.267,-0.738 -3.293,0 -6.55,0.8 -9.769,2.397 -3.22,1.596 -6.108,3.894 -8.663,6.893 -2.557,2.998 -4.621,6.66 -6.193,10.987 -1.574,4.324 -2.36,9.215 -2.36,14.671 0,4.915 0.872,9.67 2.618,14.267 1.744,4.595 4.202,8.651 7.373,12.166 3.17,3.513 6.955,6.328 11.354,8.441 4.399,2.113 9.228,3.171 14.487,3.171 2.311,0 4.609,-0.271 6.895,-0.811 2.285,-0.542 4.756,-1.721 7.41,-3.539 v 25.289 c 0,2.703 -0.037,4.854 -0.111,6.451 -0.073,1.598 -0.418,2.827 -1.032,3.687 -0.616,0.86 -1.611,1.45 -2.986,1.77 -1.377,0.319 -3.368,0.577 -5.972,0.774 v 5.087 c 5.406,0.541 10.285,1.266 14.635,2.176 4.35,0.908 7.803,1.78 10.359,2.617"
             style="fill:#ffffff;fill-opacity:1;fill-rule:nonzero;stroke:none"
             id="path1287" /></g></g></g><text
       transform="matrix(1,0,0,-1,1464.2002,139.3652)"
       style="font-variant:normal;font-weight:bold;font-stretch:normal;font-size:120px;font-family:'Gentium Basic';-inkscape-font-specification:GentiumBasic-Bold;writing-mode:lr-tb;fill:#253244;fill-opacity:1;fill-rule:nonzero;stroke:none"
       id="text1291"><tspan
         x="0 22.799999 83.760002"
         y="0"
         sodipodi:role="line"
         id="tspan1289">.vn</tspan></text></g></svg>
