<?xml version="1.0" encoding="UTF-8" standalone="no"?>
<svg
   xmlns:dc="http://purl.org/dc/elements/1.1/"
   xmlns:cc="http://creativecommons.org/ns#"
   xmlns:rdf="http://www.w3.org/1999/02/22-rdf-syntax-ns#"
   xmlns:svg="http://www.w3.org/2000/svg"
   xmlns="http://www.w3.org/2000/svg"
   xmlns:sodipodi="http://sodipodi.sourceforge.net/DTD/sodipodi-0.dtd"
   xmlns:inkscape="http://www.inkscape.org/namespaces/inkscape"
   width="793.70081"
   height="500.51968"
   viewBox="0 0 210 132.42917"
   version="1.1"
   id="svg8"
   inkscape:version="1.0.2-2 (e86c870879, 2021-01-15)"
   sodipodi:docname="logo-yr-02.svg">
  <defs
     id="defs2">
    <clipPath
       clipPathUnits="userSpaceOnUse"
       id="clipPath857">
      <path
         d="M 0,800 H 800 V 0 H 0 Z"
         id="path855" />
    </clipPath>
    <clipPath
       clipPathUnits="userSpaceOnUse"
       id="clipPath928">
      <path
         d="M 0,800 H 800 V 0 H 0 Z"
         id="path926" />
    </clipPath>
    <clipPath
       clipPathUnits="userSpaceOnUse"
       id="clipPath962">
      <path
         d="M 0,800 H 800 V 0 H 0 Z"
         id="path960" />
    </clipPath>
  </defs>
  <sodipodi:namedview
     id="base"
     pagecolor="#ffffff"
     bordercolor="#666666"
     borderopacity="1.0"
     inkscape:pageopacity="0.0"
     inkscape:pageshadow="2"
     inkscape:zoom="0.35"
     inkscape:cx="749.5384"
     inkscape:cy="560"
     inkscape:document-units="mm"
     inkscape:current-layer="layer1"
     inkscape:document-rotation="0"
     showgrid="false"
     units="px"
     inkscape:window-width="1267"
     inkscape:window-height="1041"
     inkscape:window-x="88"
     inkscape:window-y="0"
     inkscape:window-maximized="0" />
  <metadata
     id="metadata5">
    <rdf:RDF>
      <cc:Work
         rdf:about="">
        <dc:format>image/svg+xml</dc:format>
        <dc:type
           rdf:resource="http://purl.org/dc/dcmitype/StillImage" />
        <dc:title></dc:title>
      </cc:Work>
    </rdf:RDF>
  </metadata>
  <g
     inkscape:label="Layer 1"
     inkscape:groupmode="layer"
     id="layer1">
    <g
       id="g918"
       transform="matrix(0.28328173,0,0,-0.28328173,83.623061,60.018217)">
      <path
         d="m 0,0 v -74.4 h -48.601 v 75 l -72.866,121.043 37.856,23.456 L -22.2,42.3 33.899,135.6 H 81.6 Z"
         style="fill:#9558fd;fill-opacity:1;fill-rule:nonzero;stroke:none"
         id="path920" />
    </g>
    <g
       id="g922"
       transform="matrix(0.28328173,0,0,-0.28328173,-6.839562,188.82455)">
      <g
         id="g924"
         clip-path="url(#clipPath928)">
        <g
           id="g930"
           transform="translate(522.726,541.2437)">
          <path
             d="M 0,0 C -7.604,6.3 -18.703,9.45 -33.301,9.45 H -72.9 v -73.2 h 39.599 c 14.598,0 25.697,3.197 33.301,9.6 7.598,6.398 11.399,15.398 11.399,27 C 11.399,-15.352 7.598,-6.3 0,0 M 29.053,-184.994 -28.2,-102.45 H -30.601 -72.9 v -58.501 h -48.6 V 49.05 h 90.899 c 18.601,0 34.749,-3.103 48.451,-9.3 13.697,-6.202 24.248,-15 31.65,-26.4 7.396,-11.4 11.1,-24.9 11.1,-40.5 0,-15.6 -3.75,-29.053 -11.25,-40.35 -7.5,-11.302 -18.151,-19.95 -31.951,-25.95 L 64.5,-160.951 Z"
             style="fill:#9558fd;fill-opacity:1;fill-rule:nonzero;stroke:none"
             id="path932" />
        </g>
        <g
           id="g934"
           transform="translate(534.2038,344.4881)">
          <path
             d="m 0,0 71.689,48.587 6.233,-86.378 z"
             style="fill:#9558fd;fill-opacity:1;fill-rule:nonzero;stroke:none"
             id="path936" />
        </g>
        <g
           id="g938"
           transform="translate(253.7703,609.6323)">
          <path
             d="m 0,0 -74.096,-44.831 -1.777,86.584 z"
             style="fill:#9558fd;fill-opacity:1;fill-rule:nonzero;stroke:none"
             id="path940" />
        </g>
      </g>
    </g>
    <text
       style="font-variant:normal;font-weight:600;font-stretch:normal;font-size:20.3963px;font-family:'Montserrat SemiBold';-inkscape-font-specification:Montserrat-SemiBold;writing-mode:lr-tb;fill:#9558fd;fill-opacity:1;fill-rule:nonzero;stroke:none;stroke-width:0.283282"
       id="text950"
       x="15.975952"
       y="127.35241"><tspan
         x="15.975952"
         y="127.35241"
         id="tspan942"
         style="stroke-width:0.283282">Y</tspan><tspan
         x="28.845997 45.611744 61.296497 77.817474 93.563416"
         y="127.35241"
         sodipodi:role="line"
         id="tspan944"
         style="stroke-width:0.283282">OUNG</tspan><tspan
         x="99.19278"
         y="127.35241"
         id="tspan946"
         style="stroke-width:0.283282">R</tspan><tspan
         x="114.10246 127.76797 144.28897 155.44574 170.72255 183.24586"
         y="127.35241"
         sodipodi:role="line"
         id="tspan948"
         style="stroke-width:0.283282">ENTALS</tspan></text>
    <g
       id="g952"
       transform="matrix(0.28328173,0,0,-0.28328173,69.855423,59.84822)">
      <path
         d="M 0,0 -72.866,121.043 -35.011,144.499 26.4,41.7 82.5,135"
         style="fill:#6b9439;fill-opacity:1;fill-rule:nonzero;stroke:none"
         id="path954" />
    </g>
    <g
       id="g956"
       transform="matrix(0.28328173,0,0,-0.28328173,-6.839562,188.82455)">
      <g
         id="g958"
         clip-path="url(#clipPath962)">
        <g
           id="g964"
           transform="translate(540.1254,447.7935)">
          <path
             d="M 0,0 47.101,-67.5 11.653,-91.543 -45.6,-9 H -48 C -8.418,-8.873 0,0 0,0"
             style="fill:#6b9439;fill-opacity:1;fill-rule:nonzero;stroke:none"
             id="path966" />
        </g>
        <g
           id="g968"
           transform="translate(534.2038,344.4881)">
          <path
             d="m 0,0 71.689,48.587 6.233,-86.378 z"
             style="fill:#6b9439;fill-opacity:1;fill-rule:nonzero;stroke:none"
             id="path970" />
        </g>
        <g
           id="g972"
           transform="translate(253.7703,609.6323)">
          <path
             d="m 0,0 -74.096,-44.831 -1.777,86.584 z"
             style="fill:#6b9439;fill-opacity:1;fill-rule:nonzero;stroke:none"
             id="path974" />
        </g>
      </g>
    </g>
  </g>
</svg>
