<?xml version="1.0" encoding="UTF-8" standalone="no"?>
<svg
   xmlns:dc="http://purl.org/dc/elements/1.1/"
   xmlns:cc="http://creativecommons.org/ns#"
   xmlns:rdf="http://www.w3.org/1999/02/22-rdf-syntax-ns#"
   xmlns:svg="http://www.w3.org/2000/svg"
   xmlns="http://www.w3.org/2000/svg"
   xmlns:sodipodi="http://sodipodi.sourceforge.net/DTD/sodipodi-0.dtd"
   xmlns:inkscape="http://www.inkscape.org/namespaces/inkscape"
   width="214.13611mm"
   height="77.007858mm"
   viewBox="0 0 214.1361 77.007858"
   version="1.1"
   id="svg8057"
   inkscape:version="1.0.2-2 (e86c870879, 2021-01-15)"
   sodipodi:docname="logo-vpsd-dark-bg.svg">
  <defs
     id="defs8051">
    <clipPath
       clipPathUnits="userSpaceOnUse"
       id="clipPath2338">
      <path
         d="M 0,612 H 612 V 0 H 0 Z"
         id="path2336" />
    </clipPath>
    <clipPath
       clipPathUnits="userSpaceOnUse"
       id="clipPath2368">
      <path
         d="M 0,612 H 612 V 0 H 0 Z"
         id="path2366" />
    </clipPath>
    <clipPath
       clipPathUnits="userSpaceOnUse"
       id="clipPath2376">
      <path
         d="m 94.952,71.256 h 32 v -32 h -32 z"
         id="path2374" />
    </clipPath>
    <clipPath
       clipPathUnits="userSpaceOnUse"
       id="clipPath2396">
      <path
         d="M 0,612 H 612 V 0 H 0 Z"
         id="path2394" />
    </clipPath>
    <clipPath
       clipPathUnits="userSpaceOnUse"
       id="clipPath2404">
      <path
         d="m 126.952,71.256 h 32 v -32 h -32 z"
         id="path2402" />
    </clipPath>
    <clipPath
       clipPathUnits="userSpaceOnUse"
       id="clipPath2418">
      <path
         d="m 126.952,103.256 h 32 v -32 h -32 z"
         id="path2416" />
    </clipPath>
    <clipPath
       clipPathUnits="userSpaceOnUse"
       id="clipPath2432">
      <path
         d="m 126.952,135.256 h 32 v -32 h -32 z"
         id="path2430" />
    </clipPath>
    <clipPath
       clipPathUnits="userSpaceOnUse"
       id="clipPath2446">
      <path
         d="m 126.952,167.256 h 32 v -32 h -32 z"
         id="path2444" />
    </clipPath>
    <clipPath
       clipPathUnits="userSpaceOnUse"
       id="clipPath2460">
      <path
         d="m 158.952,71.256 h 32 v -32 h -32 z"
         id="path2458" />
    </clipPath>
    <clipPath
       clipPathUnits="userSpaceOnUse"
       id="clipPath2474">
      <path
         d="m 158.952,103.256 h 32 v -32 h -32 z"
         id="path2472" />
    </clipPath>
    <clipPath
       clipPathUnits="userSpaceOnUse"
       id="clipPath2488">
      <path
         d="m 158.952,135.256 h 32 v -32 h -32 z"
         id="path2486" />
    </clipPath>
    <clipPath
       clipPathUnits="userSpaceOnUse"
       id="clipPath2502">
      <path
         d="m 158.952,167.256 h 32 v -32 h -32 z"
         id="path2500" />
    </clipPath>
    <clipPath
       clipPathUnits="userSpaceOnUse"
       id="clipPath2516">
      <path
         d="m 190.952,71.256 h 32 v -32 h -32 z"
         id="path2514" />
    </clipPath>
    <clipPath
       clipPathUnits="userSpaceOnUse"
       id="clipPath2530">
      <path
         d="m 190.952,103.256 h 32 v -32 h -32 z"
         id="path2528" />
    </clipPath>
    <clipPath
       clipPathUnits="userSpaceOnUse"
       id="clipPath2544">
      <path
         d="m 190.952,135.256 h 32 v -32 h -32 z"
         id="path2542" />
    </clipPath>
    <clipPath
       clipPathUnits="userSpaceOnUse"
       id="clipPath2558">
      <path
         d="m 190.952,167.256 h 32 v -32 h -32 z"
         id="path2556" />
    </clipPath>
    <clipPath
       clipPathUnits="userSpaceOnUse"
       id="clipPath2572">
      <path
         d="m 222.952,71.256 h 32 v -32 h -32 z"
         id="path2570" />
    </clipPath>
    <clipPath
       clipPathUnits="userSpaceOnUse"
       id="clipPath2586">
      <path
         d="m 254.952,71.256 h 32 v -32 h -32 z"
         id="path2584" />
    </clipPath>
    <clipPath
       clipPathUnits="userSpaceOnUse"
       id="clipPath2600">
      <path
         d="m 318.952,167.256 h 32 v -32 h -32 z"
         id="path2598" />
    </clipPath>
    <clipPath
       clipPathUnits="userSpaceOnUse"
       id="clipPath2614">
      <path
         d="m 286.952,135.256 h 32 v -32 h -32 z"
         id="path2612" />
    </clipPath>
    <clipPath
       clipPathUnits="userSpaceOnUse"
       id="clipPath2628">
      <path
         d="m 254.952,135.256 h 32 v -32 h -32 z"
         id="path2626" />
    </clipPath>
    <clipPath
       clipPathUnits="userSpaceOnUse"
       id="clipPath2642">
      <path
         d="m 286.952,167.256 h 32 v -32 h -32 z"
         id="path2640" />
    </clipPath>
    <clipPath
       clipPathUnits="userSpaceOnUse"
       id="clipPath2656">
      <path
         d="m 222.952,103.256 h 32 v -32 h -32 z"
         id="path2654" />
    </clipPath>
    <clipPath
       clipPathUnits="userSpaceOnUse"
       id="clipPath2670">
      <path
         d="m 222.952,135.256 h 32 v -32 h -32 z"
         id="path2668" />
    </clipPath>
    <clipPath
       clipPathUnits="userSpaceOnUse"
       id="clipPath2684">
      <path
         d="m 254.952,103.256 h 32 v -32 h -32 z"
         id="path2682" />
    </clipPath>
    <clipPath
       clipPathUnits="userSpaceOnUse"
       id="clipPath2698">
      <path
         d="m 254.952,167.256 h 32 v -32 h -32 z"
         id="path2696" />
    </clipPath>
    <clipPath
       clipPathUnits="userSpaceOnUse"
       id="clipPath2712">
      <path
         d="m 222.952,167.256 h 32 v -32 h -32 z"
         id="path2710" />
    </clipPath>
    <clipPath
       clipPathUnits="userSpaceOnUse"
       id="clipPath2734">
      <path
         d="M 0,612 H 612 V 0 H 0 Z"
         id="path2732" />
    </clipPath>
    <clipPath
       clipPathUnits="userSpaceOnUse"
       id="clipPath2762">
      <path
         d="M 0,612 H 612 V 0 H 0 Z"
         id="path2760" />
    </clipPath>
    <clipPath
       clipPathUnits="userSpaceOnUse"
       id="clipPath2778">
      <path
         d="M 0,612 H 612 V 0 H 0 Z"
         id="path2776" />
    </clipPath>
    <clipPath
       clipPathUnits="userSpaceOnUse"
       id="clipPath2794">
      <path
         d="M 0,612 H 612 V 0 H 0 Z"
         id="path2792" />
    </clipPath>
    <clipPath
       clipPathUnits="userSpaceOnUse"
       id="clipPath2810">
      <path
         d="M 0,612 H 612 V 0 H 0 Z"
         id="path2808" />
    </clipPath>
    <clipPath
       clipPathUnits="userSpaceOnUse"
       id="clipPath2826">
      <path
         d="M 0,612 H 612 V 0 H 0 Z"
         id="path2824" />
    </clipPath>
    <clipPath
       clipPathUnits="userSpaceOnUse"
       id="clipPath2842">
      <path
         d="M 0,612 H 612 V 0 H 0 Z"
         id="path2840" />
    </clipPath>
  </defs>
  <sodipodi:namedview
     id="base"
     pagecolor="#ffffff"
     bordercolor="#666666"
     borderopacity="1.0"
     inkscape:pageopacity="0.0"
     inkscape:pageshadow="2"
     inkscape:zoom="0.49497475"
     inkscape:cx="314.43844"
     inkscape:cy="-88.715894"
     inkscape:document-units="mm"
     inkscape:current-layer="g2322"
     inkscape:document-rotation="0"
     showgrid="false"
     inkscape:window-width="1641"
     inkscape:window-height="1041"
     inkscape:window-x="166"
     inkscape:window-y="0"
     inkscape:window-maximized="0" />
  <metadata
     id="metadata8054">
    <rdf:RDF>
      <cc:Work
         rdf:about="">
        <dc:format>image/svg+xml</dc:format>
        <dc:type
           rdf:resource="http://purl.org/dc/dcmitype/StillImage" />
        <dc:title></dc:title>
      </cc:Work>
    </rdf:RDF>
  </metadata>
  <g
     inkscape:label="Layer 1"
     inkscape:groupmode="layer"
     id="layer1"
     transform="translate(-4.1829393,-140.28672)">
    <g
       id="g2322"
       inkscape:label="VPSDEPOT-LOGO-MASTER"
       transform="matrix(0.35277777,0,0,-0.35277777,2.4190505,217.29458)">
      <path
         d="M 5,0 H 612 V 218.29 H 5 Z"
         style="fill:#231f20;fill-opacity:1;fill-rule:nonzero;stroke:none"
         id="path2326" />
      <g
         id="g2332">
        <g
           id="g2334"
           clip-path="url(#clipPath2338)">
          <text
             transform="matrix(1,0,0,-1,-379.0322,445.8018)"
             style="font-style:italic;font-variant:normal;font-weight:500;font-stretch:normal;font-size:121px;font-family:'Kanit Medium';-inkscape-font-specification:Kanit-MediumItalic;writing-mode:lr-tb;fill:#f07805;fill-opacity:1;fill-rule:nonzero;stroke:none"
             id="text2344"><tspan
               x="0 75.746002 138.908 207.87801 274.91199"
               y="0"
               sodipodi:role="line"
               id="tspan2340">Depot</tspan><tspan
               x="0 75.746002 138.908 207.87801 274.91199"
               y="381.02899"
               sodipodi:role="line"
               id="tspan2342">Depot</tspan></text>
        </g>
      </g>
      <path
         d="m 62.952,39.256 h -32 v 32 h 32 z"
         style="fill:#f07805;fill-opacity:1;fill-rule:nonzero;stroke:none"
         id="path2346" />
      <path
         d="m 62.952,71.256 h -32 v 32 h 32 z"
         style="fill:#f07805;fill-opacity:1;fill-rule:nonzero;stroke:none"
         id="path2348" />
      <path
         d="m 62.952,103.256 h -32 v 32 h 32 z"
         style="fill:#f07805;fill-opacity:1;fill-rule:nonzero;stroke:none"
         id="path2350" />
      <path
         d="m 62.952,135.256 h -32 v 32 h 32 z"
         style="fill:#f07805;fill-opacity:1;fill-rule:nonzero;stroke:none"
         id="path2352" />
      <path
         d="m 94.952,39.256 h -32 v 32 h 32 z"
         style="fill:#f07805;fill-opacity:1;fill-rule:nonzero;stroke:none"
         id="path2354" />
      <path
         d="m 94.952,71.256 h -32 v 32 h 32 z"
         style="fill:#f07805;fill-opacity:1;fill-rule:nonzero;stroke:none"
         id="path2356" />
      <path
         d="m 94.952,103.256 h -32 v 32 h 32 z"
         style="fill:#f07805;fill-opacity:1;fill-rule:nonzero;stroke:none"
         id="path2358" />
      <path
         d="m 94.952,135.256 h -32 v 32 h 32 z"
         style="fill:#f07805;fill-opacity:1;fill-rule:nonzero;stroke:none"
         id="path2360" />
      <g
         id="g2362">
        <g
           id="g2364"
           clip-path="url(#clipPath2368)">
          <g
             id="g2370">
            <g
               id="g2372" />
            <g
               id="g2382">
              <g
                 clip-path="url(#clipPath2376)"
                 opacity="0.899994"
                 id="g2380">
                <path
                   d="m 126.952,39.256 h -32 v 32 h 32 z"
                   style="fill:#f07805;fill-opacity:1;fill-rule:nonzero;stroke:none"
                   id="path2378" />
              </g>
            </g>
          </g>
        </g>
      </g>
      <path
         d="m 126.952,71.256 h -32 v 32 h 32 z"
         style="fill:#f07805;fill-opacity:1;fill-rule:nonzero;stroke:none"
         id="path2384" />
      <path
         d="m 126.952,103.256 h -32 v 32 h 32 z"
         style="fill:#f07805;fill-opacity:1;fill-rule:nonzero;stroke:none"
         id="path2386" />
      <path
         d="m 126.952,135.256 h -32 v 32 h 32 z"
         style="fill:#f07805;fill-opacity:1;fill-rule:nonzero;stroke:none"
         id="path2388" />
      <g
         id="g2390">
        <g
           id="g2392"
           clip-path="url(#clipPath2396)">
          <g
             id="g2398">
            <g
               id="g2400" />
            <g
               id="g2410">
              <g
                 clip-path="url(#clipPath2404)"
                 opacity="0.800003"
                 id="g2408">
                <path
                   d="m 158.952,39.256 h -32 v 32 h 32 z"
                   style="fill:#f07805;fill-opacity:1;fill-rule:nonzero;stroke:none"
                   id="path2406" />
              </g>
            </g>
          </g>
          <g
             id="g2412">
            <g
               id="g2414" />
            <g
               id="g2424">
              <g
                 clip-path="url(#clipPath2418)"
                 opacity="0.899994"
                 id="g2422">
                <path
                   d="m 158.952,71.256 h -32 v 32 h 32 z"
                   style="fill:#f07805;fill-opacity:1;fill-rule:nonzero;stroke:none"
                   id="path2420" />
              </g>
            </g>
          </g>
          <g
             id="g2426">
            <g
               id="g2428" />
            <g
               id="g2438">
              <g
                 clip-path="url(#clipPath2432)"
                 opacity="0.800003"
                 id="g2436">
                <path
                   d="m 158.952,103.256 h -32 v 32 h 32 z"
                   style="fill:#f07805;fill-opacity:1;fill-rule:nonzero;stroke:none"
                   id="path2434" />
              </g>
            </g>
          </g>
          <g
             id="g2440">
            <g
               id="g2442" />
            <g
               id="g2452">
              <g
                 clip-path="url(#clipPath2446)"
                 opacity="0.899994"
                 id="g2450">
                <path
                   d="m 158.952,135.256 h -32 v 32 h 32 z"
                   style="fill:#f07805;fill-opacity:1;fill-rule:nonzero;stroke:none"
                   id="path2448" />
              </g>
            </g>
          </g>
          <g
             id="g2454">
            <g
               id="g2456" />
            <g
               id="g2466">
              <g
                 clip-path="url(#clipPath2460)"
                 opacity="0.699997"
                 id="g2464">
                <path
                   d="m 190.952,39.256 h -32 v 32 h 32 z"
                   style="fill:#f07805;fill-opacity:1;fill-rule:nonzero;stroke:none"
                   id="path2462" />
              </g>
            </g>
          </g>
          <g
             id="g2468">
            <g
               id="g2470" />
            <g
               id="g2480">
              <g
                 clip-path="url(#clipPath2474)"
                 opacity="0.600006"
                 id="g2478">
                <path
                   d="m 190.952,71.256 h -32 v 32 h 32 z"
                   style="fill:#f07805;fill-opacity:1;fill-rule:nonzero;stroke:none"
                   id="path2476" />
              </g>
            </g>
          </g>
          <g
             id="g2482">
            <g
               id="g2484" />
            <g
               id="g2494">
              <g
                 clip-path="url(#clipPath2488)"
                 opacity="0.899994"
                 id="g2492">
                <path
                   d="m 190.952,103.256 h -32 v 32 h 32 z"
                   style="fill:#f07805;fill-opacity:1;fill-rule:nonzero;stroke:none"
                   id="path2490" />
              </g>
            </g>
          </g>
          <g
             id="g2496">
            <g
               id="g2498" />
            <g
               id="g2508">
              <g
                 clip-path="url(#clipPath2502)"
                 opacity="0.800003"
                 id="g2506">
                <path
                   d="m 190.952,135.256 h -32 v 32 h 32 z"
                   style="fill:#f07805;fill-opacity:1;fill-rule:nonzero;stroke:none"
                   id="path2504" />
              </g>
            </g>
          </g>
          <g
             id="g2510">
            <g
               id="g2512" />
            <g
               id="g2522">
              <g
                 clip-path="url(#clipPath2516)"
                 opacity="0.5"
                 id="g2520">
                <path
                   d="m 222.952,39.256 h -32 v 32 h 32 z"
                   style="fill:#f07805;fill-opacity:1;fill-rule:nonzero;stroke:none"
                   id="path2518" />
              </g>
            </g>
          </g>
          <g
             id="g2524">
            <g
               id="g2526" />
            <g
               id="g2536">
              <g
                 clip-path="url(#clipPath2530)"
                 opacity="0.699997"
                 id="g2534">
                <path
                   d="m 222.952,71.256 h -32 v 32 h 32 z"
                   style="fill:#f07805;fill-opacity:1;fill-rule:nonzero;stroke:none"
                   id="path2532" />
              </g>
            </g>
          </g>
          <g
             id="g2538">
            <g
               id="g2540" />
            <g
               id="g2550">
              <g
                 clip-path="url(#clipPath2544)"
                 opacity="0.600006"
                 id="g2548">
                <path
                   d="m 222.952,103.256 h -32 v 32 h 32 z"
                   style="fill:#f07805;fill-opacity:1;fill-rule:nonzero;stroke:none"
                   id="path2546" />
              </g>
            </g>
          </g>
          <g
             id="g2552">
            <g
               id="g2554" />
            <g
               id="g2564">
              <g
                 clip-path="url(#clipPath2558)"
                 opacity="0.699997"
                 id="g2562">
                <path
                   d="m 222.952,135.256 h -32 v 32 h 32 z"
                   style="fill:#f07805;fill-opacity:1;fill-rule:nonzero;stroke:none"
                   id="path2560" />
              </g>
            </g>
          </g>
          <g
             id="g2566">
            <g
               id="g2568" />
            <g
               id="g2578">
              <g
                 clip-path="url(#clipPath2572)"
                 opacity="0.300003"
                 id="g2576">
                <path
                   d="m 254.952,39.256 h -32 v 32 h 32 z"
                   style="fill:#f07805;fill-opacity:1;fill-rule:nonzero;stroke:none"
                   id="path2574" />
              </g>
            </g>
          </g>
          <g
             id="g2580">
            <g
               id="g2582" />
            <g
               id="g2592">
              <g
                 clip-path="url(#clipPath2586)"
                 opacity="0.199997"
                 id="g2590">
                <path
                   d="m 286.952,39.256 h -32 v 32 h 32 z"
                   style="fill:#f07805;fill-opacity:1;fill-rule:nonzero;stroke:none"
                   id="path2588" />
              </g>
            </g>
          </g>
          <g
             id="g2594">
            <g
               id="g2596" />
            <g
               id="g2606">
              <g
                 clip-path="url(#clipPath2600)"
                 opacity="0.149994"
                 id="g2604">
                <path
                   d="m 350.952,135.256 h -32 v 32 h 32 z"
                   style="fill:#f07805;fill-opacity:1;fill-rule:nonzero;stroke:none"
                   id="path2602" />
              </g>
            </g>
          </g>
          <g
             id="g2608">
            <g
               id="g2610" />
            <g
               id="g2620">
              <g
                 clip-path="url(#clipPath2614)"
                 opacity="0.199997"
                 id="g2618">
                <path
                   d="m 318.952,103.256 h -32 v 32 h 32 z"
                   style="fill:#f07805;fill-opacity:1;fill-rule:nonzero;stroke:none"
                   id="path2616" />
              </g>
            </g>
          </g>
          <g
             id="g2622">
            <g
               id="g2624" />
            <g
               id="g2634">
              <g
                 clip-path="url(#clipPath2628)"
                 opacity="0.300003"
                 id="g2632">
                <path
                   d="m 286.952,103.256 h -32 v 32 h 32 z"
                   style="fill:#f07805;fill-opacity:1;fill-rule:nonzero;stroke:none"
                   id="path2630" />
              </g>
            </g>
          </g>
          <g
             id="g2636">
            <g
               id="g2638" />
            <g
               id="g2648">
              <g
                 clip-path="url(#clipPath2642)"
                 opacity="0.300003"
                 id="g2646">
                <path
                   d="m 318.952,135.256 h -32 v 32 h 32 z"
                   style="fill:#f07805;fill-opacity:1;fill-rule:nonzero;stroke:none"
                   id="path2644" />
              </g>
            </g>
          </g>
          <g
             id="g2650">
            <g
               id="g2652" />
            <g
               id="g2662">
              <g
                 clip-path="url(#clipPath2656)"
                 opacity="0.600006"
                 id="g2660">
                <path
                   d="m 254.952,71.256 h -32 v 32 h 32 z"
                   style="fill:#f07805;fill-opacity:1;fill-rule:nonzero;stroke:none"
                   id="path2658" />
              </g>
            </g>
          </g>
          <g
             id="g2664">
            <g
               id="g2666" />
            <g
               id="g2676">
              <g
                 clip-path="url(#clipPath2670)"
                 opacity="0.399994"
                 id="g2674">
                <path
                   d="m 254.952,103.256 h -32 v 32 h 32 z"
                   style="fill:#f07805;fill-opacity:1;fill-rule:nonzero;stroke:none"
                   id="path2672" />
              </g>
            </g>
          </g>
          <g
             id="g2678">
            <g
               id="g2680" />
            <g
               id="g2690">
              <g
                 clip-path="url(#clipPath2684)"
                 opacity="0.399994"
                 id="g2688">
                <path
                   d="m 286.952,71.256 h -32 v 32 h 32 z"
                   style="fill:#f07805;fill-opacity:1;fill-rule:nonzero;stroke:none"
                   id="path2686" />
              </g>
            </g>
          </g>
          <g
             id="g2692">
            <g
               id="g2694" />
            <g
               id="g2704">
              <g
                 clip-path="url(#clipPath2698)"
                 opacity="0.399994"
                 id="g2702">
                <path
                   d="m 286.952,135.256 h -32 v 32 h 32 z"
                   style="fill:#f07805;fill-opacity:1;fill-rule:nonzero;stroke:none"
                   id="path2700" />
              </g>
            </g>
          </g>
          <g
             id="g2706">
            <g
               id="g2708" />
            <g
               id="g2718">
              <g
                 clip-path="url(#clipPath2712)"
                 opacity="0.5"
                 id="g2716">
                <path
                   d="m 254.952,135.256 h -32 v 32 h 32 z"
                   style="fill:#f07805;fill-opacity:1;fill-rule:nonzero;stroke:none"
                   id="path2714" />
              </g>
            </g>
          </g>
        </g>
      </g>
      <g
         id="g2720"
         transform="translate(156.5792,197.3007)">
        <path
           d="m 0,0 -77.49,-132.499 h -13.872 l -16.264,76.534 h 16.264 l 9.806,-46.638 z"
           style="fill:#ffffff;fill-opacity:1;fill-rule:nonzero;stroke:none"
           id="path2722" />
      </g>
      <g
         id="g2724"
         transform="translate(156.5792,197.3007)">
        <path
           d="m 0,0 -77.49,-132.499 h -13.872 l -16.264,76.534 h 16.264 l 9.806,-46.638 z"
           style="fill:none;stroke:#231f20;stroke-width:2;stroke-linecap:butt;stroke-linejoin:miter;stroke-miterlimit:10;stroke-dasharray:none;stroke-opacity:1"
           id="path2726" />
      </g>
      <g
         id="g2728">
        <g
           id="g2730"
           clip-path="url(#clipPath2734)">
          <g
             id="g2736"
             transform="translate(145.834,101.7037)">
            <path
               d="m 0,0 c 4.538,0 8.001,1.194 10.39,3.583 2.389,2.388 3.583,5.691 3.583,9.912 0,4.458 -1.116,7.861 -3.344,10.211 -2.23,2.347 -5.574,3.523 -10.032,3.523 H -16.122 V 0 Z M -18,40.007 H 3.822 c 8.677,0 15.245,-2.43 19.704,-7.285 4.459,-4.857 6.689,-11.267 6.689,-19.227 0,-5.177 -1.096,-9.754 -3.285,-13.734 -2.191,-3.982 -5.314,-7.066 -9.375,-9.255 -4.06,-2.191 -8.798,-3.285 -14.211,-3.285 h -19.466 v -24.123 h -16.122 v 52.965 z"
               style="fill:#ffffff;fill-opacity:1;fill-rule:nonzero;stroke:none"
               id="path2738" />
          </g>
          <g
             id="g2740"
             transform="translate(145.834,101.7037)">
            <path
               d="m 0,0 c 4.538,0 8.001,1.194 10.39,3.583 2.389,2.388 3.583,5.691 3.583,9.912 0,4.458 -1.116,7.861 -3.344,10.211 -2.23,2.347 -5.574,3.523 -10.032,3.523 H -16.122 V 0 Z M -18,40.007 H 3.822 c 8.677,0 15.245,-2.43 19.704,-7.285 4.459,-4.857 6.689,-11.267 6.689,-19.227 0,-5.177 -1.096,-9.754 -3.285,-13.734 -2.191,-3.982 -5.314,-7.066 -9.375,-9.255 -4.06,-2.191 -8.798,-3.285 -14.211,-3.285 h -19.466 v -24.123 h -16.122 v 52.965 z"
               style="fill:none;stroke:#231f20;stroke-width:2;stroke-linecap:butt;stroke-linejoin:miter;stroke-miterlimit:10;stroke-dasharray:none;stroke-opacity:1"
               id="path2742" />
          </g>
          <g
             id="g2744"
             transform="translate(181.0635,67.7875)">
            <path
               d="m 0,0 v 14.211 c 3.583,-1.433 7.404,-2.588 11.464,-3.463 4.061,-0.877 8.002,-1.314 11.823,-1.314 5.972,0 10.17,0.556 12.6,1.672 2.427,1.114 3.642,3.423 3.642,6.927 0,2.308 -0.558,4.138 -1.672,5.493 -1.116,1.353 -2.946,2.527 -5.493,3.523 -2.549,0.995 -6.53,2.249 -11.943,3.762 -8.042,2.228 -13.694,5.016 -16.958,8.36 -3.265,3.344 -4.896,7.96 -4.896,13.853 0,7.085 2.586,12.54 7.762,16.361 5.174,3.822 12.698,5.732 22.571,5.732 4.458,0 8.698,-0.298 12.719,-0.895 4.02,-0.597 7.304,-1.374 9.853,-2.329 V 57.681 c -6.529,2.467 -13.337,3.703 -20.422,3.703 -5.415,0 -9.455,-0.598 -12.122,-1.792 -2.668,-1.194 -4,-3.384 -4,-6.568 0,-1.991 0.496,-3.583 1.493,-4.777 0.994,-1.194 2.666,-2.25 5.015,-3.165 2.348,-0.916 5.99,-2.011 10.928,-3.284 C 41.28,39.41 47.451,36.323 50.875,32.543 54.297,28.76 56.01,23.924 56.01,18.033 56.01,11.106 53.383,5.672 48.128,1.731 42.873,-2.21 35.11,-4.18 24.84,-4.18 14.569,-4.18 6.288,-2.788 0,0"
               style="fill:#ffffff;fill-opacity:1;fill-rule:nonzero;stroke:none"
               id="path2746" />
          </g>
          <g
             id="g2748"
             transform="translate(181.0635,67.7875)">
            <path
               d="m 0,0 v 14.211 c 3.583,-1.433 7.404,-2.588 11.464,-3.463 4.061,-0.877 8.002,-1.314 11.823,-1.314 5.972,0 10.17,0.556 12.6,1.672 2.427,1.114 3.642,3.423 3.642,6.927 0,2.308 -0.558,4.138 -1.672,5.493 -1.116,1.353 -2.946,2.527 -5.493,3.523 -2.549,0.995 -6.53,2.249 -11.943,3.762 -8.042,2.228 -13.694,5.016 -16.958,8.36 -3.265,3.344 -4.896,7.96 -4.896,13.853 0,7.085 2.586,12.54 7.762,16.361 5.174,3.822 12.698,5.732 22.571,5.732 4.458,0 8.698,-0.298 12.719,-0.895 4.02,-0.597 7.304,-1.374 9.853,-2.329 V 57.681 c -6.529,2.467 -13.337,3.703 -20.422,3.703 -5.415,0 -9.455,-0.598 -12.122,-1.792 -2.668,-1.194 -4,-3.384 -4,-6.568 0,-1.991 0.496,-3.583 1.493,-4.777 0.994,-1.194 2.666,-2.25 5.015,-3.165 2.348,-0.916 5.99,-2.011 10.928,-3.284 C 41.28,39.41 47.451,36.323 50.875,32.543 54.297,28.76 56.01,23.924 56.01,18.033 56.01,11.106 53.383,5.672 48.128,1.731 42.873,-2.21 35.11,-4.18 24.84,-4.18 14.569,-4.18 6.288,-2.788 0,0 Z"
               style="fill:none;stroke:#231f20;stroke-width:2;stroke-linecap:butt;stroke-linejoin:miter;stroke-miterlimit:10;stroke-dasharray:none;stroke-opacity:1"
               id="path2750" />
          </g>
        </g>
      </g>
      <text
         transform="matrix(1,0,0,-1,260.9678,64.8013)"
         style="font-style:italic;font-variant:normal;font-weight:500;font-stretch:normal;font-size:121px;font-family:'Kanit Medium';-inkscape-font-specification:Kanit-MediumItalic;writing-mode:lr-tb;fill:#f07805;fill-opacity:1;fill-rule:nonzero;stroke:none"
         id="text2754"><tspan
           x="0"
           y="0"
           id="tspan2752">D</tspan></text>
      <g
         id="g2756">
        <g
           id="g2758"
           clip-path="url(#clipPath2762)">
          <g
             id="g2764"
             transform="translate(261.0889,64.8013)">
            <path
               d="m 0,0 h 32.67 c 12.421,0 22.061,3.085 28.919,9.256 6.855,6.172 11.695,15.952 14.52,29.343 0.968,4.598 1.452,8.752 1.452,12.463 0,8.873 -2.462,15.567 -7.381,20.086 -4.921,4.517 -11.939,6.776 -21.054,6.776 h -32.67 z m 18.997,12.584 11.011,51.788 h 14.399 c 6.05,0 10.364,-0.908 12.947,-2.723 2.581,-1.815 3.872,-5.142 3.872,-9.982 0,-3.227 -0.565,-7.584 -1.694,-13.068 C 58.08,31.742 56.123,26.417 53.664,22.627 51.202,18.834 48.298,16.214 44.951,14.762 41.603,13.31 37.631,12.584 33.033,12.584 Z"
               style="fill:none;stroke:#231f20;stroke-width:2;stroke-linecap:butt;stroke-linejoin:miter;stroke-miterlimit:10;stroke-dasharray:none;stroke-opacity:1"
               id="path2766" />
          </g>
        </g>
      </g>
      <text
         transform="matrix(1,0,0,-1,336.7129,64.8013)"
         style="font-style:italic;font-variant:normal;font-weight:500;font-stretch:normal;font-size:121px;font-family:'Kanit Medium';-inkscape-font-specification:Kanit-MediumItalic;writing-mode:lr-tb;fill:#f07805;fill-opacity:1;fill-rule:nonzero;stroke:none"
         id="text2770"><tspan
           x="0"
           y="0"
           id="tspan2768">e</tspan></text>
      <g
         id="g2772">
        <g
           id="g2774"
           clip-path="url(#clipPath2778)">
          <g
             id="g2780"
             transform="translate(366.3579,63.5913)">
            <path
               d="M 0,0 C 8.712,0 15.972,1.21 21.78,3.63 L 24.2,15.246 C 21.78,14.357 18.916,13.631 15.609,13.068 12.3,12.502 9.115,12.221 6.05,12.221 c -4.76,0 -8.451,0.363 -11.071,1.089 -2.623,0.726 -4.458,1.936 -5.506,3.63 -1.049,1.694 -1.534,4.114 -1.452,7.26 h 41.503 l 2.178,10.406 c 0.484,2.339 0.726,4.477 0.726,6.413 0,5.808 -1.957,10.385 -5.868,13.733 -3.914,3.347 -9.581,5.022 -17.001,5.022 -10.487,0 -18.513,-2.541 -24.079,-7.623 -5.566,-5.082 -9.358,-12.463 -11.374,-22.143 -0.565,-2.743 -0.847,-5.365 -0.847,-7.865 0,-7.26 2.378,-12.766 7.139,-16.517 C -14.843,1.875 -8.309,0 0,0 Z m -9.801,34.243 c 1.048,4.92 2.883,8.449 5.506,10.588 2.62,2.136 6.594,3.206 11.918,3.206 7.179,0 10.769,-2.541 10.769,-7.623 0,-0.889 -0.121,-1.896 -0.363,-3.025 l -0.605,-3.146 z"
               style="fill:none;stroke:#231f20;stroke-width:2;stroke-linecap:butt;stroke-linejoin:miter;stroke-miterlimit:10;stroke-dasharray:none;stroke-opacity:1"
               id="path2782" />
          </g>
        </g>
      </g>
      <text
         transform="matrix(1,0,0,-1,399.874,64.8013)"
         style="font-style:italic;font-variant:normal;font-weight:500;font-stretch:normal;font-size:121px;font-family:'Kanit Medium';-inkscape-font-specification:Kanit-MediumItalic;writing-mode:lr-tb;fill:#f07805;fill-opacity:1;fill-rule:nonzero;stroke:none"
         id="text2786"><tspan
           x="0"
           y="0"
           id="tspan2784">p</tspan></text>
      <g
         id="g2788">
        <g
           id="g2790"
           clip-path="url(#clipPath2794)">
          <g
             id="g2796"
             transform="translate(394.4292,38.665)">
            <path
               d="m 0,0 h 16.335 l 6.171,29.282 c 3.872,-2.904 9.033,-4.356 15.488,-4.356 9.196,0 16.556,2.439 22.082,7.321 5.525,4.879 9.378,12.442 11.556,22.687 0.726,3.63 1.089,6.937 1.089,9.922 0,6.695 -1.815,11.677 -5.445,14.944 -3.63,3.267 -8.833,4.9 -15.609,4.9 -3.954,0 -7.544,-0.544 -10.769,-1.633 -3.228,-1.089 -6.334,-2.723 -9.317,-4.901 l 0.242,5.324 H 17.666 Z m 36.421,36.905 c -2.583,0 -4.74,0.363 -6.474,1.089 -1.735,0.726 -3.369,1.815 -4.9,3.267 l 5.566,26.257 c 4.275,3.468 8.912,5.203 13.915,5.203 4.114,0 7.078,-0.767 8.893,-2.299 1.815,-1.533 2.723,-3.993 2.723,-7.381 0,-2.017 -0.324,-4.639 -0.968,-7.865 C 53.803,48.884 51.565,44.266 48.46,41.322 45.354,38.376 41.34,36.905 36.421,36.905 Z"
               style="fill:none;stroke:#231f20;stroke-width:2;stroke-linecap:butt;stroke-linejoin:miter;stroke-miterlimit:10;stroke-dasharray:none;stroke-opacity:1"
               id="path2798" />
          </g>
        </g>
      </g>
      <text
         transform="matrix(1,0,0,-1,468.8437,64.8013)"
         style="font-style:italic;font-variant:normal;font-weight:500;font-stretch:normal;font-size:121px;font-family:'Kanit Medium';-inkscape-font-specification:Kanit-MediumItalic;writing-mode:lr-tb;fill:#f07805;fill-opacity:1;fill-rule:nonzero;stroke:none"
         id="text2802"><tspan
           x="0"
           y="0"
           id="tspan2800">o</tspan></text>
      <g
         id="g2804">
        <g
           id="g2806"
           clip-path="url(#clipPath2810)">
          <g
             id="g2812"
             transform="translate(497.2788,63.5913)">
            <path
               d="m 0,0 c 11.051,0 19.561,2.5 25.531,7.502 5.969,5 10.001,12.463 12.1,22.385 0.645,3.388 0.968,6.292 0.968,8.712 0,6.856 -2.159,12.1 -6.474,15.73 -4.316,3.63 -10.79,5.445 -19.42,5.445 -10.81,0 -19.22,-2.522 -25.228,-7.563 -6.011,-5.042 -10.064,-12.483 -12.161,-22.324 -0.726,-3.309 -1.049,-6.252 -0.968,-8.833 0,-6.857 2.157,-12.081 6.473,-15.67 C -14.864,1.794 -8.47,0 0,0 Z m 3.025,13.915 c -4.276,0 -7.362,0.685 -9.256,2.057 -1.897,1.371 -2.844,3.67 -2.844,6.897 0,1.694 0.322,4.033 0.968,7.018 1.21,5.808 3.186,9.922 5.929,12.342 2.741,2.42 6.734,3.63 11.979,3.63 4.356,0 7.46,-0.686 9.317,-2.057 1.855,-1.373 2.783,-3.711 2.783,-7.018 0,-2.098 -0.284,-4.398 -0.847,-6.897 -1.291,-5.808 -3.288,-9.922 -5.99,-12.342 -2.703,-2.42 -6.715,-3.63 -12.039,-3.63 z"
               style="fill:none;stroke:#231f20;stroke-width:2;stroke-linecap:butt;stroke-linejoin:miter;stroke-miterlimit:10;stroke-dasharray:none;stroke-opacity:1"
               id="path2814" />
          </g>
        </g>
      </g>
      <text
         transform="matrix(1,0,0,-1,535.876,64.8013)"
         style="font-style:italic;font-variant:normal;font-weight:500;font-stretch:normal;font-size:121px;font-family:'Kanit Medium';-inkscape-font-specification:Kanit-MediumItalic;writing-mode:lr-tb;fill:#f07805;fill-opacity:1;fill-rule:nonzero;stroke:none"
         id="text2818"><tspan
           x="0"
           y="0"
           id="tspan2816">t</tspan></text>
      <g
         id="g2820">
        <g
           id="g2822"
           clip-path="url(#clipPath2826)">
          <g
             id="g2828"
             transform="translate(558.3818,63.5913)">
            <path
               d="m 0,0 c 5.001,0 9.438,0.726 13.31,2.178 l 2.42,11.253 c -2.662,-0.807 -5.082,-1.21 -7.26,-1.21 -2.743,0 -4.7,0.363 -5.868,1.089 -1.171,0.726 -1.755,1.976 -1.755,3.751 0,0.968 0.121,2.097 0.363,3.388 L 6.655,45.98 h 13.552 l 3.63,12.584 H 9.317 l 3.63,17.182 -17.303,-4.84 -2.662,-12.342 h -8.107 L -17.787,45.98 h 8.107 l -5.687,-26.62 c -0.404,-2.178 -0.605,-4.035 -0.605,-5.566 0,-4.356 1.35,-7.744 4.054,-10.164 C -9.217,1.21 -5.245,0 0,0 Z"
               style="fill:none;stroke:#231f20;stroke-width:2;stroke-linecap:butt;stroke-linejoin:miter;stroke-miterlimit:10;stroke-dasharray:none;stroke-opacity:1"
               id="path2830" />
          </g>
        </g>
      </g>
      <text
         transform="matrix(1,0,0,-1,420.9761,38.8145)"
         style="font-style:italic;font-variant:normal;font-weight:500;font-stretch:normal;font-size:36px;font-family:'Kanit Medium';-inkscape-font-specification:Kanit-MediumItalic;writing-mode:lr-tb;fill:#ffffff;fill-opacity:1;fill-rule:nonzero;stroke:none"
         id="text2834"><tspan
           x="0 6.6240001 23.256001 44.459999"
           y="0"
           sodipodi:role="line"
           id="tspan2832">.com</tspan></text>
      <g
         id="g2836">
        <g
           id="g2838"
           clip-path="url(#clipPath2842)">
          <g
             id="g2844"
             transform="translate(420.292,38.8145)">
            <path
               d="M 0,0 H 3.96 L 4.716,3.636 H 0.756 Z"
               style="fill:none;stroke:#231f20;stroke-width:1;stroke-linecap:butt;stroke-linejoin:miter;stroke-miterlimit:10;stroke-dasharray:none;stroke-opacity:1"
               id="path2846" />
          </g>
          <g
             id="g2848"
             transform="translate(436.2397,38.4546)">
            <path
               d="m 0,0 c 2.255,0 4.271,0.348 6.048,1.044 l 0.756,3.6 C 5.292,3.972 3.647,3.636 1.872,3.636 c -1.705,0 -2.916,0.252 -3.636,0.756 -0.72,0.504 -1.08,1.308 -1.08,2.412 0,0.648 0.084,1.343 0.252,2.088 0.408,1.92 1.157,3.276 2.25,4.068 1.092,0.792 2.586,1.188 4.482,1.188 1.823,0 3.299,-0.313 4.428,-0.936 l 0.756,3.492 c -0.744,0.383 -1.53,0.66 -2.358,0.828 -0.828,0.168 -1.842,0.252 -3.042,0.252 -6.384,0 -10.2,-2.965 -11.448,-8.892 -0.168,-0.768 -0.252,-1.548 -0.252,-2.34 0,-2.113 0.695,-3.732 2.088,-4.86 C -4.296,0.563 -2.4,0 0,0 Z"
               style="fill:none;stroke:#231f20;stroke-width:1;stroke-linecap:butt;stroke-linejoin:miter;stroke-miterlimit:10;stroke-dasharray:none;stroke-opacity:1"
               id="path2850" />
          </g>
          <g
             id="g2852"
             transform="translate(452.6919,38.4546)">
            <path
               d="m 0,0 c 3.288,0 5.82,0.744 7.596,2.232 1.776,1.488 2.976,3.708 3.6,6.66 0.192,1.008 0.288,1.872 0.288,2.592 0,2.039 -0.642,3.6 -1.926,4.68 -1.284,1.08 -3.21,1.62 -5.778,1.62 -3.217,0 -5.718,-0.75 -7.506,-2.25 C -5.514,14.034 -6.72,11.82 -7.344,8.892 -7.56,7.908 -7.656,7.032 -7.632,6.264 -7.632,4.224 -6.99,2.669 -5.706,1.602 -4.422,0.534 -2.52,0 0,0 Z m 0.9,4.14 c -1.273,0 -2.191,0.203 -2.754,0.612 C -2.418,5.16 -2.7,5.844 -2.7,6.804 c 0,0.504 0.096,1.2 0.288,2.088 0.36,1.728 0.948,2.952 1.764,3.672 0.815,0.72 2.003,1.08 3.564,1.08 1.296,0 2.22,-0.205 2.772,-0.612 C 6.24,12.624 6.516,11.928 6.516,10.944 6.516,10.319 6.432,9.635 6.264,8.892 5.88,7.164 5.286,5.94 4.482,5.22 3.678,4.5 2.484,4.14 0.9,4.14 Z"
               style="fill:none;stroke:#231f20;stroke-width:1;stroke-linecap:butt;stroke-linejoin:miter;stroke-miterlimit:10;stroke-dasharray:none;stroke-opacity:1"
               id="path2854" />
          </g>
          <g
             id="g2856"
             transform="translate(465.4717,38.8145)">
            <path
               d="m 0,0 h 4.788 l 2.52,12.024 c 1.535,1.224 2.916,1.836 4.14,1.836 0.768,0 1.314,-0.15 1.638,-0.45 0.324,-0.3 0.486,-0.762 0.486,-1.386 0,-0.432 -0.049,-0.877 -0.144,-1.332 L 11.16,0 h 4.536 l 2.268,10.836 c 0.119,0.576 0.167,1.068 0.144,1.476 0.552,0.48 1.176,0.858 1.872,1.134 0.696,0.276 1.38,0.414 2.052,0.414 0.912,0 1.56,-0.15 1.944,-0.45 0.383,-0.3 0.576,-0.774 0.576,-1.422 0,-0.408 -0.049,-0.841 -0.144,-1.296 L 22.14,0 h 4.788 l 2.376,11.232 c 0.144,0.72 0.216,1.38 0.216,1.98 0,1.416 -0.396,2.472 -1.188,3.168 -0.792,0.696 -1.957,1.044 -3.492,1.044 -2.424,0 -4.68,-0.696 -6.768,-2.088 -0.216,0.696 -0.63,1.218 -1.242,1.566 -0.612,0.348 -1.494,0.522 -2.646,0.522 -2.088,0 -4.176,-0.672 -6.264,-2.016 L 8.1,17.064 H 3.6 Z"
               style="fill:none;stroke:#231f20;stroke-width:1;stroke-linecap:butt;stroke-linejoin:miter;stroke-miterlimit:10;stroke-dasharray:none;stroke-opacity:1"
               id="path2858" />
          </g>
          <text
             transform="matrix(1,0,0,-1,-379.0322,266.5703)"
             style="font-style:italic;font-variant:normal;font-weight:500;font-stretch:normal;font-size:121px;font-family:'Kanit Medium';-inkscape-font-specification:Kanit-MediumItalic;writing-mode:lr-tb;fill:#f07805;fill-opacity:1;fill-rule:nonzero;stroke:none"
             id="text2862"><tspan
               x="0 75.746002 138.908 207.87801 274.91199"
               y="0"
               sodipodi:role="line"
               id="tspan2860">Depot</tspan></text>
        </g>
      </g>
    </g>
  </g>
</svg>
