<?xml version="1.0" encoding="UTF-8" standalone="no"?>
<svg
   xmlns:dc="http://purl.org/dc/elements/1.1/"
   xmlns:cc="http://creativecommons.org/ns#"
   xmlns:rdf="http://www.w3.org/1999/02/22-rdf-syntax-ns#"
   xmlns:svg="http://www.w3.org/2000/svg"
   xmlns="http://www.w3.org/2000/svg"
   xmlns:sodipodi="http://sodipodi.sourceforge.net/DTD/sodipodi-0.dtd"
   xmlns:inkscape="http://www.inkscape.org/namespaces/inkscape"
   width="362.08527"
   height="58.746632"
   viewBox="0 0 95.801727 15.54338"
   version="1.1"
   id="svg8"
   inkscape:version="1.0.2-2 (e86c870879, 2021-01-15)"
   sodipodi:docname="logo.svg">
  <defs
     id="defs2">
    <rect
       x="53.453903"
       y="184.68324"
       width="105.03692"
       height="22.183371"
       id="rect893" />
    <rect
       x="21.782467"
       y="127.08666"
       width="103.16604"
       height="22.851545"
       id="rect880" />
    <rect
       x="32.60688"
       y="121.8749"
       width="20.312485"
       height="17.372519"
       id="rect26" />
    <rect
       x="23.252449"
       y="103.43331"
       width="158.22356"
       height="42.763123"
       id="rect20" />
  </defs>
  <sodipodi:namedview
     id="base"
     pagecolor="#ffffff"
     bordercolor="#666666"
     borderopacity="1.0"
     inkscape:pageopacity="0.0"
     inkscape:pageshadow="2"
     inkscape:zoom="7.919596"
     inkscape:cx="180.55101"
     inkscape:cy="39.873033"
     inkscape:document-units="mm"
     inkscape:current-layer="layer1"
     inkscape:document-rotation="0"
     showgrid="false"
     inkscape:window-width="1589"
     inkscape:window-height="1041"
     inkscape:window-x="270"
     inkscape:window-y="0"
     inkscape:window-maximized="0"
     units="px"
     fit-margin-top="3"
     fit-margin-left="3"
     fit-margin-right="3"
     fit-margin-bottom="3"
     lock-margins="true" />
  <metadata
     id="metadata5">
    <rdf:RDF>
      <cc:Work
         rdf:about="">
        <dc:format>image/svg+xml</dc:format>
        <dc:type
           rdf:resource="http://purl.org/dc/dcmitype/StillImage" />
        <dc:title />
      </cc:Work>
    </rdf:RDF>
  </metadata>
  <g
     inkscape:label="Layer 1"
     inkscape:groupmode="layer"
     id="layer1"
     transform="translate(-31.016471,-16.404932)">
    <text
       xml:space="preserve"
       id="text878"
       style="font-style:normal;font-weight:normal;font-size:10.5833px;line-height:1.25;font-family:sans-serif;white-space:pre;shape-inside:url(#rect880);fill:#000000;fill-opacity:1;stroke:none;"
       transform="translate(30.735996,15.768902)" />
    <path
       d="m 35.027551,28.473452 q -1.001888,0 -1.848554,-0.36689 -0.832555,-0.381 -1.368776,-1.07244 l 1.269999,-1.524 q 0.804332,1.08655 1.834443,1.08655 1.396998,0 1.396998,-1.63689 v -4.69899 h -3.47133 v -1.83445 h 5.743218 v 6.40644 q 0,1.82034 -0.903111,2.73756 -0.90311,0.90311 -2.652887,0.90311 z"
       style="font-style:normal;font-variant:normal;font-weight:bold;font-stretch:normal;font-size:14.1111px;line-height:1.25;font-family:Montserrat;-inkscape-font-specification:'Montserrat Bold';white-space:pre;shape-inside:url(#rect20);fill:#000000;fill-opacity:1;stroke:none"
       id="path30-9-9" />
    <path
       d="m 48.12263,24.536452 q 0,0.0423 -0.04233,0.59267 h -5.743218 q 0.155222,0.70555 0.733778,1.11477 0.578555,0.40923 1.439332,0.40923 0.592666,0 1.044221,-0.16934 0.465666,-0.18344 0.860777,-0.56444 l 1.171222,1.27 q -1.072444,1.22766 -3.132665,1.22766 -1.28411,0 -2.271887,-0.49389 -0.987777,-0.50799 -1.523999,-1.39699 -0.536221,-0.889 -0.536221,-2.01789 0,-1.11478 0.52211,-2.00378 0.536222,-0.90311 1.453444,-1.397 0.931332,-0.508 2.074331,-0.508 1.114777,0 2.017888,0.47978 0.90311,0.47978 1.41111,1.38289 0.52211,0.889 0.52211,2.07433 z m -3.936997,-2.27189 q -0.747888,0 -1.255887,0.42334 -0.508,0.42333 -0.620889,1.15711 h 3.739442 q -0.112889,-0.71967 -0.620889,-1.143 -0.507999,-0.43745 -1.241777,-0.43745 z"
       style="font-style:normal;font-variant:normal;font-weight:bold;font-stretch:normal;font-size:14.1111px;line-height:1.25;font-family:Montserrat;-inkscape-font-specification:'Montserrat Bold';white-space:pre;shape-inside:url(#rect20);fill:#000000;fill-opacity:1;stroke:none"
       id="path32-3-0" />
    <path
       d="m 52.144274,28.417002 q -0.945443,0 -1.848554,-0.22577 -0.90311,-0.23989 -1.439332,-0.59267 l 0.733777,-1.58044 q 0.508,0.32455 1.227666,0.53622 0.719666,0.19755 1.41111,0.19755 1.396999,0 1.396999,-0.69144 0,-0.32456 -0.381,-0.46567 -0.380999,-0.14111 -1.171221,-0.23989 -0.931333,-0.14111 -1.53811,-0.32455 -0.606777,-0.18345 -1.058333,-0.64911 -0.437444,-0.46567 -0.437444,-1.32644 0,-0.71967 0.409222,-1.27 0.423333,-0.56445 1.213555,-0.87489 0.804333,-0.31045 1.890887,-0.31045 0.804333,0 1.594555,0.18345 0.804333,0.16933 1.326443,0.47978 l -0.73378,1.56633 q -1.001885,-0.56445 -2.187218,-0.56445 -0.705555,0 -1.058332,0.19756 -0.352778,0.19755 -0.352778,0.508 0,0.35278 0.381,0.49389 0.381,0.14111 1.213555,0.26811 0.931332,0.15522 1.523998,0.33866 0.592665,0.16934 1.030115,0.635 0.43744,0.46567 0.43744,1.29823 0,0.70555 -0.42333,1.25588 -0.42334,0.55034 -1.24178,0.86078 -0.804333,0.29633 -1.91911,0.29633 z"
       style="font-style:normal;font-variant:normal;font-weight:bold;font-stretch:normal;font-size:14.1111px;line-height:1.25;font-family:Montserrat;-inkscape-font-specification:'Montserrat Bold';white-space:pre;shape-inside:url(#rect20);fill:#000000;fill-opacity:1;stroke:none"
       id="path34-9-1" />
    <path
       d="m 59.637244,28.417002 q -0.94545,0 -1.84856,-0.22577 -0.90311,-0.23989 -1.43933,-0.59267 l 0.73378,-1.58044 q 0.508,0.32455 1.22767,0.53622 0.71966,0.19755 1.41111,0.19755 1.39699,0 1.39699,-0.69144 0,-0.32456 -0.381,-0.46567 -0.381,-0.14111 -1.17122,-0.23989 -0.93133,-0.14111 -1.53811,-0.32455 -0.60678,-0.18345 -1.05833,-0.64911 -0.43744,-0.46567 -0.43744,-1.32644 0,-0.71967 0.40922,-1.27 0.42333,-0.56445 1.21355,-0.87489 0.80434,-0.31045 1.89089,-0.31045 0.80433,0 1.59455,0.18345 0.80434,0.16933 1.32645,0.47978 l -0.73378,1.56633 q -1.00189,-0.56445 -2.18722,-0.56445 -0.70555,0 -1.05833,0.19756 -0.35278,0.19755 -0.35278,0.508 0,0.35278 0.381,0.49389 0.381,0.14111 1.21355,0.26811 0.93134,0.15522 1.524,0.33866 0.59267,0.16934 1.03011,0.635 0.43745,0.46567 0.43745,1.29823 0,0.70555 -0.42334,1.25588 -0.42333,0.55034 -1.24177,0.86078 -0.80433,0.29633 -1.91911,0.29633 z"
       style="font-style:normal;font-variant:normal;font-weight:bold;font-stretch:normal;font-size:14.1111px;line-height:1.25;font-family:Montserrat;-inkscape-font-specification:'Montserrat Bold';white-space:pre;shape-inside:url(#rect20);fill:#000000;fill-opacity:1;stroke:none"
       id="path36-5-8" />
    <path
       d="m 67.638214,20.599452 q 1.76388,0 2.70933,0.84667 0.94544,0.83255 0.94544,2.52589 v 4.3321 h -2.06022 v -0.94544 q -0.62089,1.05833 -2.31422,1.05833 -0.87489,0 -1.524,-0.29633 -0.635,-0.29633 -0.97366,-0.81844 -0.33867,-0.52211 -0.33867,-1.18534 0,-1.05833 0.79022,-1.66511 0.80433,-0.60677 2.46944,-0.60677 h 1.74978 q 0,-0.71967 -0.43744,-1.10067 -0.43745,-0.39511 -1.31234,-0.39511 -0.60677,0 -1.19944,0.19756 -0.57856,0.18344 -0.98778,0.508 l -0.79022,-1.53811 q 0.62089,-0.43745 1.48167,-0.67734 0.87489,-0.23989 1.79211,-0.23989 z m -0.16934,6.33589 q 0.56445,0 1.00189,-0.254 0.43745,-0.26811 0.62089,-0.77611 v -0.77611 h -1.50989 q -1.35466,0 -1.35466,0.889 0,0.42333 0.32455,0.67733 0.33867,0.23989 0.91722,0.23989 z"
       style="font-style:normal;font-variant:normal;font-weight:bold;font-stretch:normal;font-size:14.1111px;line-height:1.25;font-family:Montserrat;-inkscape-font-specification:'Montserrat Bold';white-space:pre;shape-inside:url(#rect20);fill:#000000;fill-opacity:1;stroke:none"
       id="path38-0-7" />
    <path
       d="m 79.476442,28.304112 h -2.24365 v -9.87777 h 2.26727 z"
       style="font-style:normal;font-variant:normal;font-weight:bold;font-stretch:normal;font-size:14.1111px;line-height:1.25;font-family:Montserrat;-inkscape-font-specification:'Montserrat Bold';white-space:pre;shape-inside:url(#rect20);fill:#000000;fill-opacity:1;stroke:none"
       id="path40-7-4"
       sodipodi:nodetypes="ccccc" />
    <path
       d="m 95.177652,24.536452 q 0,0.0423 -0.0423,0.59267 h -5.74322 q 0.15522,0.70555 0.73378,1.11477 0.57855,0.40923 1.43933,0.40923 0.59267,0 1.04422,-0.16934 0.46567,-0.18344 0.86078,-0.56444 l 1.17122,1.27 q -1.07244,1.22766 -3.13266,1.22766 -1.28411,0 -2.27189,-0.49389 -0.98778,-0.50799 -1.524,-1.39699 -0.53622,-0.889 -0.53622,-2.01789 0,-1.11478 0.52211,-2.00378 0.53622,-0.90311 1.45344,-1.397 0.93134,-0.508 2.07434,-0.508 1.11477,0 2.01788,0.47978 0.90311,0.47978 1.41111,1.38289 0.52211,0.889 0.52211,2.07433 z m -3.937,-2.27189 q -0.74789,0 -1.25589,0.42334 -0.50799,0.42333 -0.62088,1.15711 h 3.73944 q -0.11289,-0.71967 -0.62089,-1.143 -0.508,-0.43745 -1.24178,-0.43745 z"
       style="font-style:normal;font-variant:normal;font-weight:bold;font-stretch:normal;font-size:14.1111px;line-height:1.25;font-family:Montserrat;-inkscape-font-specification:'Montserrat Bold';white-space:pre;shape-inside:url(#rect20);fill:#000000;fill-opacity:1;stroke:none"
       id="path42-9-5" />
    <path
       d="m 99.199292,28.417002 q -0.94544,0 -1.84855,-0.22577 -0.90311,-0.23989 -1.43933,-0.59267 l 0.73377,-1.58044 q 0.508,0.32455 1.22767,0.53622 0.71966,0.19755 1.41111,0.19755 1.396998,0 1.396998,-0.69144 0,-0.32456 -0.381,-0.46567 -0.380998,-0.14111 -1.171218,-0.23989 -0.93134,-0.14111 -1.53811,-0.32455 -0.60678,-0.18345 -1.05834,-0.64911 -0.43744,-0.46567 -0.43744,-1.32644 0,-0.71967 0.40922,-1.27 0.42333,-0.56445 1.21356,-0.87489 0.80433,-0.31045 1.89088,-0.31045 0.804338,0 1.594558,0.18345 0.80433,0.16933 1.32644,0.47978 l -0.73378,1.56633 q -1.00188,-0.56445 -2.187218,-0.56445 -0.70555,0 -1.05833,0.19756 -0.35278,0.19755 -0.35278,0.508 0,0.35278 0.381,0.49389 0.381,0.14111 1.21356,0.26811 0.931328,0.15522 1.523998,0.33866 0.59266,0.16934 1.03011,0.635 0.43744,0.46567 0.43744,1.29823 0,0.70555 -0.42333,1.25588 -0.42333,0.55034 -1.24178,0.86078 -0.80433,0.29633 -1.919108,0.29633 z"
       style="font-style:normal;font-variant:normal;font-weight:bold;font-stretch:normal;font-size:14.1111px;line-height:1.25;font-family:Montserrat;-inkscape-font-specification:'Montserrat Bold';white-space:pre;shape-inside:url(#rect20);fill:#000000;fill-opacity:1;stroke:none"
       id="path44-6-6" />
    <path
       d="m 116.21725,20.712342 v 6.32178 q 0,2.08844 -1.08656,3.10444 -1.08655,1.016 -3.17499,1.016 -1.10067,0 -2.08845,-0.26811 -0.98777,-0.26812 -1.63689,-0.77611 l 0.87489,-1.58045 q 0.47978,0.39511 1.21356,0.62089 0.73377,0.23989 1.46755,0.23989 1.143,0 1.67922,-0.52211 0.55034,-0.508 0.55034,-1.55222 v -0.32456 q -0.86078,0.94545 -2.39889,0.94545 -1.04422,0 -1.91911,-0.45156 -0.86078,-0.46567 -1.36878,-1.29822 -0.508,-0.83256 -0.508,-1.91911 0,-1.08655 0.508,-1.91911 0.508,-0.83255 1.36878,-1.28411 0.87489,-0.46567 1.91911,-0.46567 1.651,0 2.51177,1.08656 v -0.97367 z m -4.16278,5.41867 q 0.87489,0 1.42522,-0.508 0.56445,-0.52212 0.56445,-1.35467 0,-0.83256 -0.56445,-1.34055 -0.55033,-0.52212 -1.42522,-0.52212 -0.87489,0 -1.43933,0.52212 -0.56444,0.50799 -0.56444,1.34055 0,0.83255 0.56444,1.35467 0.56444,0.508 1.43933,0.508 z"
       style="font-style:normal;font-variant:normal;font-weight:bold;font-stretch:normal;font-size:14.1111px;line-height:1.25;font-family:Montserrat;-inkscape-font-specification:'Montserrat Bold';white-space:pre;shape-inside:url(#rect20);fill:#000000;fill-opacity:1;stroke:none"
       id="path48-9-3" />
    <path
       d="m 122.87767,20.599452 q 1.41111,0 2.27189,0.84667 0.87489,0.84667 0.87489,2.51178 v 4.34621 h -2.20134 v -4.00755 q 0,-0.90311 -0.39511,-1.34055 -0.39511,-0.45156 -1.143,-0.45156 -0.83255,0 -1.32644,0.52211 -0.49389,0.508 -0.49389,1.524 v 3.75355 h -2.20133 v -7.59177 h 2.10255 v 0.889 q 0.43745,-0.47978 1.08656,-0.73378 0.64911,-0.26811 1.42522,-0.26811 z"
       style="font-style:normal;font-variant:normal;font-weight:bold;font-stretch:normal;font-size:14.1111px;line-height:1.25;font-family:Montserrat;-inkscape-font-specification:'Montserrat Bold';white-space:pre;shape-inside:url(#rect20);fill:#000000;fill-opacity:1;stroke:none"
       id="path50-4-4" />
    <path
       d="m 86.142902,22.508632 v 1.72155 h -0.46567 c -0.19755,0 -0.35278,0.0565 -0.46567,0.16934 -0.10348,0.11289 -0.15522,0.27752 -0.15522,0.49389 v 0.90046 c 0,0.81845 -0.22577,1.44404 -0.67733,1.87678 -0.45156,0.43274 -1.11494,0.63242 -1.98967,0.64911 h -2.078068 l 0.003,-1.72155 h 1.510758 c 0,0 0.59267,-0.0894 0.762,-0.26811 0.17874,-0.17874 0.26811,-0.43744 0.26811,-0.77611 v -0.60414 c 0,-0.47978 0.0753,-0.83726 0.22578,-1.07244 0.15052,-0.23519 0.39041,-0.40452 0.71967,-0.508 -0.32926,-0.10349 -0.56915,-0.27282 -0.71967,-0.508 -0.15052,-0.23519 -0.22578,-0.59267 -0.22578,-1.07245 v -0.60412 c 0,-0.33867 -0.0894,-0.59737 -0.26811,-0.77611 -0.16933,-0.17874 -0.42333,-0.26811 -0.762,-0.26811 h -1.510758 l -0.003,-1.72156 h 2.078068 c 0.87489,0 1.53811,0.21637 1.98967,0.64911 0.45155,0.43274 0.67733,1.05833 0.67733,1.87678 v 0.90046 c 0,0.21637 0.0517,0.381 0.15522,0.49389 0.11289,0.11289 0.2429,0.13769 0.46567,0.16933 z"
       style="font-style:normal;font-variant:normal;font-weight:bold;font-stretch:normal;font-size:14.1111px;line-height:1.25;font-family:Montserrat;-inkscape-font-specification:'Montserrat Bold';white-space:pre;shape-inside:url(#rect20);fill:#0da7e3;fill-opacity:1;stroke:none"
       id="path52-0-3"
       sodipodi:nodetypes="ccscssssccscssscssscsccsssscsc" />
    <text
       xml:space="preserve"
       id="text24"
       style="font-style:normal;font-weight:normal;font-size:14.1111px;line-height:1.25;font-family:sans-serif;white-space:pre;shape-inside:url(#rect26);fill:#000000;fill-opacity:1;stroke:none;" />
    <path
       d="m 104.13817,20.712342 h 2.20133 v 7.59177 h -2.20133 z m 1.10066,-1.05833 q -0.60677,0 -0.98777,-0.35278 -0.381,-0.35277 -0.381,-0.87489 0,-0.52211 0.381,-0.87488 0.381,-0.35278 0.98777,-0.35278 0.60678,0 0.98778,0.33867 0.381,0.33866 0.381,0.84666 0,0.55033 -0.381,0.91722 -0.381,0.35278 -0.98778,0.35278 z"
       style="font-style:normal;font-variant:normal;font-weight:bold;font-stretch:normal;font-size:14.1111px;line-height:1.25;font-family:Montserrat;-inkscape-font-specification:'Montserrat Bold';white-space:pre;shape-inside:url(#rect20);fill:#000000;fill-opacity:1;stroke:none"
       id="path46-8-4" />
  </g>
</svg>
